<svg width="75" height="429" viewBox="0 0 75 429" fill="none" xmlns="http://www.w3.org/2000/svg">
<path fill-rule="evenodd" clip-rule="evenodd" d="M81.4991 317.651C80.5168 316.069 79.0363 312.412 78.2094 309.523C77.2561 306.198 76.1214 304.528 75.1164 304.97C74.243 305.355 73.5349 306.003 73.5425 306.41C73.5501 306.817 71.6091 308.56 69.2287 310.283C65.0154 313.334 64.8231 313.373 61.8805 311.786C59.3473 310.418 58.3102 310.493 55.4478 312.245C52.2169 314.223 51.9901 314.155 51.201 310.964C50.0468 306.301 46.8006 304.017 41.8352 304.375C37.9431 304.656 36.2541 303.474 34.2898 299.095C33.3673 297.037 37.769 288.674 42.514 283.469C45.643 280.036 48.2938 278.001 52.6356 275.696C53.0573 275.472 54.2468 273.342 55.2797 270.96C56.3114 268.579 58.6587 263.846 60.4965 260.442C64.8633 252.349 66.1024 245.879 63.4879 244.809C61.9589 244.184 61.7934 243.263 62.6832 240.323C63.2979 238.29 63.7515 233.491 63.69 229.661C63.6271 225.759 64.37 220.5 65.3783 217.7C67.1883 212.679 66.963 209.641 64.3534 203.904C62.8153 200.523 61.3045 200.753 60.2962 204.522C59.8531 206.183 58.7433 207.541 57.316 208.17C55.5704 208.938 54.4571 210.888 52.5101 216.591C49.2487 226.141 49.0753 226.419 47.1209 225.232C46.0461 224.579 45.4266 221.491 45.3289 216.304C45.2226 210.587 44.4799 207.293 42.6706 204.507C38.23 197.673 38.0885 192.203 42.0134 179.218C43.9235 172.897 46.8294 165.112 48.4683 161.918C50.1609 158.621 51.4201 154.592 51.3829 152.591C51.3308 149.792 51.7347 148.941 53.3468 148.449C56.4437 147.505 59.1216 135.246 58.4634 125.017C57.9495 117.038 57.8493 116.84 53.5491 115.345C50.1994 114.18 48.8038 112.684 47.6563 109.03C46.2485 104.547 45.9382 104.338 42.7629 105.736C39.9082 106.992 38.6086 106.644 34.5389 103.534C30.7775 100.66 29.4164 98.4935 28.4034 93.7729C26.973 87.0958 28.0503 77.5706 30.9759 71.0418C31.9256 68.9226 32.9766 63.4944 33.31 58.9801C33.6434 54.4657 34.1876 48.702 34.5181 46.1723C35.063 42.004 34.7656 41.4436 31.3372 40.1938C27.2141 38.6901 26.4702 35.2096 28.5151 26.9906C30.1224 20.5319 30.8203 -1.42081 29.3431 0.934412C28.6765 1.99855 28.1413 3.8971 28.1538 5.15283C28.182 7.83851 20.6541 31.2663 18.3476 35.67C10.501 50.6514 7.01059 63.323 7.97115 73.3357C8.39758 77.781 9.53739 81.5394 10.9291 83.0803C13.1595 85.5515 13.153 85.7198 10.5352 94.4646C9.07358 99.3457 7.20147 104.729 6.3766 106.426C5.21478 108.814 5.17377 111.474 6.19476 118.184C9.47238 139.739 12.1604 147.813 18.7801 155.984C24.3369 162.843 26.3694 167.643 26.3512 173.866C26.3341 179.304 24.1699 187.464 22.4205 188.68C21.0213 189.653 10.8319 176.789 10.7501 173.945C10.694 172.032 8.72393 170.003 7.95242 171.067C7.69486 171.422 7.99911 176.952 8.6272 183.355C9.25528 189.759 10.271 201.503 10.8832 209.455C11.7754 221.042 12.4916 224.531 14.4848 227.022C19.0984 232.784 21.8257 238.236 23.1015 244.25C25.8025 256.979 25.8922 258.818 23.9481 261.628C22.9274 263.105 20.8679 266.324 19.3744 268.78C17.1306 272.467 16.0122 273.49 12.953 274.649C8.36432 276.388 3.85162 282.216 1.95929 288.846C-1.35312 300.453 3.34501 321.724 9.99491 325.226L12.4117 326.498L15.7851 321.805C19.6817 316.383 19.8559 316.475 22.0425 325.154C22.9046 328.573 24.1258 330.222 26.1391 330.682C27.7164 331.043 32.2864 332.838 36.2937 334.671L43.5822 338.002L43.8842 348.146C44.131 356.424 44.8028 359.471 47.5348 364.717C49.3772 368.251 51.93 372.166 53.2078 373.417C54.4855 374.667 55.5438 376.377 55.5594 377.216C55.575 378.054 56.933 380.836 58.5765 383.398C60.2212 385.959 62.8324 392.952 64.3803 398.939C67.957 412.767 69.9657 417.196 75.4967 423.452C80.9415 429.609 80.4386 429.29 81.8961 427.494C82.7216 426.476 82.4763 424.896 81.1243 422.507C80.0355 420.584 78.6053 415.996 77.9481 412.313C77.2898 408.63 76.1458 403.15 75.4058 400.136C74.6567 397.087 74.0725 385.324 74.0889 373.622L74.1177 352.589L78.8579 340.447C83.9655 327.367 84.5257 322.527 81.4991 317.651Z" fill="#0D0425"/>
</svg>
