<svg width="375" height="164" viewBox="0 0 375 164" fill="none" xmlns="http://www.w3.org/2000/svg">
<path fill-rule="evenodd" clip-rule="evenodd" d="M88.6191 70.2041C91.2623 71.0821 96.8972 72.3311 101.143 72.9793C106.029 73.7269 108.878 74.7503 108.909 75.7688C108.936 76.6538 108.522 77.3909 107.99 77.4072C107.456 77.4235 106.364 79.4422 105.561 81.8937C104.141 86.233 104.205 86.4253 108.034 89.239C111.334 91.6612 111.862 92.69 111.312 95.6193C110.69 98.9257 110.916 99.1458 115.529 99.7391C122.273 100.607 127.189 103.68 129.713 108.605C131.691 112.466 134.241 114.065 141.104 115.75C144.329 116.541 152.528 111.706 156.424 106.716C158.993 103.425 160.038 100.688 160.414 96.2656C160.451 95.8361 162.498 94.537 164.966 93.3779C167.433 92.2201 172.16 89.6257 175.469 87.6121C183.339 82.8272 190.986 81.226 193.948 83.7459C195.679 85.2197 196.973 85.3295 200.251 84.2792C202.519 83.5534 208.471 82.8256 213.475 82.6631C218.575 82.4977 224.95 81.4572 227.974 80.2982C233.398 78.2176 237.475 78.263 246.487 80.5059C251.799 81.8279 252.41 83.3335 248.127 84.5491C246.24 85.0837 245.146 86.259 245.19 87.7054C245.244 89.4743 243.384 90.6876 237.158 92.9431C226.734 96.7212 226.478 96.9086 229.193 98.7698C230.687 99.7933 235.067 100.225 241.854 100.019C249.333 99.7907 254.053 100.332 258.755 101.957C270.294 105.944 277.474 105.765 291.956 101.131C299.005 98.8761 307.355 95.5521 310.511 93.7471C313.769 91.8831 318.237 90.4045 320.856 90.3246C324.518 90.2128 325.379 89.7642 325.047 88.1433C324.407 85.0295 338.698 81.6698 352.363 81.7234C363.021 81.7657 363.338 81.8531 367.867 86.0132C371.394 89.2536 374.175 90.5449 379.604 91.4652C386.267 92.5942 386.725 92.8885 386.823 96.1062C386.912 98.999 388.145 100.262 394.629 104.101C400.622 107.648 404.251 108.866 410.984 109.591C420.506 110.615 432.213 108.995 438.922 105.725C441.099 104.663 447.508 103.309 453.163 102.716C458.818 102.124 465.967 101.25 469.049 100.776C474.128 99.9949 475.034 100.256 478.719 103.569C483.151 107.554 488.114 108.086 497.544 105.587C504.955 103.623 533.011 101.653 530.845 103.25C529.866 103.97 527.726 104.609 526.089 104.67C522.588 104.799 496.73 113.6 492.406 116.135C477.695 124.759 463.359 128.945 449.792 128.58C443.77 128.418 438.208 127.512 435.372 126.227C430.824 124.168 430.609 124.184 420.841 127.28C415.39 129.008 409.534 131.171 407.829 132.085C405.43 133.371 402.004 133.567 392.686 132.95C362.753 130.969 350.661 128.785 336.078 122.724C323.837 117.635 316.386 115.908 308.325 116.288C301.281 116.622 291.999 119.236 291.475 121.035C291.055 122.473 313.875 131.787 317.612 131.702C320.128 131.646 323.945 133.473 323.03 134.297C322.724 134.573 315.368 134.594 306.684 134.347C298 134.101 282.153 133.782 271.47 133.641C255.904 133.436 250.947 132.932 246.515 131.108C236.264 126.888 227.55 124.512 218.981 123.602C200.844 121.677 198.405 121.695 195.93 123.779C194.628 124.874 191.692 127.096 189.406 128.714C185.973 131.145 185.319 132.309 185.657 135.398C186.163 140.032 181.319 144.829 173.858 147.085C160.796 151.033 130.376 147.633 121.831 141.269L118.727 138.956L122.784 135.351C127.471 131.186 127.247 131.019 114.673 129.366C109.719 128.714 106.845 127.604 105.037 125.642C103.619 124.105 98.54 119.696 93.7503 115.845L85.0417 108.841L71.7017 109.134C60.8151 109.373 56.4582 108.887 48.0094 106.495C42.3159 104.881 35.7014 102.588 33.3096 101.399C30.919 100.21 28.0638 99.2641 26.9666 99.2976C25.8694 99.3311 21.4428 98.1519 17.131 96.6781C12.8192 95.203 2.1757 93.0317 -6.52133 91.852C-26.6121 89.1257 -33.5662 87.4 -45.0102 82.3018C-56.2733 77.2831 -55.5573 77.7613 -54.1045 76.217C-53.2818 75.3424 -51.0843 75.4925 -47.1718 76.6885C-44.0212 77.6517 -37.2098 78.7969 -32.0366 79.2311C-26.8621 79.6666 -19.0659 80.477 -14.7106 81.0321C-10.3052 81.5942 5.306 81.4852 20.4745 80.7867L47.7407 79.5319L60.6387 74.142C74.5311 68.3346 80.4726 67.4991 88.6191 70.2041Z" fill="#0D0425"/>
<path fill-rule="evenodd" clip-rule="evenodd" d="M458.026 116.146C460.846 117.306 464.846 119.45 466.917 120.908C471.506 124.141 488.739 130.632 495.814 131.792C498.654 132.258 502.282 133.065 503.875 133.587C506.639 134.492 506.6 134.541 503.019 134.661C500.955 134.73 496.218 134.185 492.492 133.449C488.767 132.714 485.272 132.573 484.726 133.136C483.033 134.885 475.686 132.525 470.451 128.552C467.702 126.465 463.329 124.249 460.733 123.628C457.429 122.837 455.359 121.476 453.83 119.09C451.975 116.194 450.886 115.637 446.601 115.391C443.826 115.233 440.541 115.684 439.3 116.395C436.382 118.064 431.618 117.122 416.574 111.901C404.588 107.74 404.035 107.659 392.518 108.348C371.333 109.617 362.219 108.905 342.014 104.399C326.297 100.896 322.906 99.81 322.102 98.0294C321.227 96.0917 320.078 95.8363 310.262 95.3953C304.282 95.1269 297.47 94.7445 295.124 94.5457C289.865 94.1001 281.521 94.5193 283.51 95.1289C286.444 96.0277 284.398 97.5798 279.786 97.9526C277.179 98.1635 272.793 99.6911 270.04 101.347C263.421 105.328 257.86 106.169 251.792 104.111C245.459 101.961 237.222 96.6132 236.472 94.1641C236.154 93.1233 234.129 91.8861 231.972 91.4133C229.741 90.9245 226.446 88.8627 224.333 86.6351C220.081 82.1509 214.782 80.5876 209.083 82.1339C206.919 82.7215 203.29 82.7062 201.019 82.1017C194.478 80.3604 194.365 80.3979 190.993 85.5388C189.231 88.226 187.053 90.2632 186.151 90.0656C185.25 89.8683 183.71 90.6483 182.726 91.7987C181.279 93.4931 179.726 93.6248 174.561 92.4931C166.722 90.7755 164.612 89.4649 165.219 86.6935C165.937 83.415 157.387 72.3911 154.702 73.1328C151.841 73.9238 135.036 74.8535 125.28 74.761C119.785 74.7094 115.505 73.9218 110.658 72.07C106.889 70.6293 99.1817 67.9796 93.5297 66.1811C87.8789 64.3829 83.005 62.2011 82.6997 61.3333C82.0983 59.6183 68.5141 57.6663 68.1683 59.2445C68.0652 59.7149 64.8546 59.7465 61.0331 59.3127C57.2117 58.879 53.7772 59.0428 53.3999 59.6766C53.0228 60.3093 51.4251 60.5453 49.8504 60.2003C47.9878 59.7921 46.8379 60.2517 46.5614 61.5136C46.1919 63.1996 45.1083 63.1186 38.3146 60.8974C25.2405 56.6233 21.895 55.0769 22.2468 53.4715C22.4314 52.629 20.9283 51.1982 18.9077 50.2923C16.8858 49.3874 14.3098 47.7352 13.1803 46.6222C12.052 45.5094 8.33635 43.3405 4.92318 41.8029C1.51147 40.2644 -4.99879 36.8461 -9.54261 34.2064C-14.0862 31.5656 -21.6686 27.9174 -26.3921 26.0976C-36.4894 22.2075 -65.9012 7.59104 -67.19 5.82227C-68.7272 3.71349 -66.774 3.59509 -63.4157 5.59256C-54.2278 11.0603 -34.3893 19.9222 -11.6765 28.7061C21.3217 41.4684 20.39 41.1811 62.9937 51.7082C90.2624 58.4468 100.174 61.3102 102.116 63.0098C108.519 68.615 139.252 72.2519 151.313 68.8326C156.719 67.299 158.134 67.9689 163.521 74.6069C168.884 81.217 170.668 82.4883 178.112 85.0172C184.324 87.1259 184.651 87.0996 186.772 84.2909C193.04 75.9875 192.933 76.0583 199.006 76.2031C203.508 76.3105 205.08 76.7604 205.541 78.0734C206.002 79.3864 206.807 79.6174 208.878 79.0305C213.535 77.7128 222.974 80.4342 225.844 83.9203C227.247 85.6259 231.11 88.1016 234.43 89.4212C237.748 90.7406 242.877 93.028 245.828 94.5041C251.615 97.4013 259.318 98.4646 265.05 97.1586C270.093 96.01 269.781 95.1294 263.521 92.8464C250.911 88.2482 249.37 87.4919 250.097 86.2618C250.517 85.5529 253.922 85.5018 257.834 86.1465C261.676 86.781 266.09 86.7698 267.64 86.1222C269.544 85.3286 273.622 85.6386 280.184 87.0764C287.247 88.624 290.5 88.8277 292.074 87.8189C293.486 86.9141 296.562 86.9397 300.91 87.8925C304.577 88.696 310.068 89.2769 313.111 89.1825C316.153 89.0878 319.499 89.6088 320.547 90.3401C323.993 92.7441 329.337 93.8258 335.371 93.3398C341.858 92.8178 349.892 94.7496 350.108 96.883C350.183 97.6233 348.314 98.6967 345.956 99.2702C341.721 100.298 341.802 100.338 352.456 102.482C361.035 104.211 363.769 104.318 365.809 103.013C367.578 101.88 370.073 101.777 373.863 102.682C379.941 104.134 390.156 104.976 405.153 105.263C415.752 105.465 448.399 112.185 458.026 116.146Z" fill="#1D0C32"/>
</svg>
