<svg width="544" height="312" viewBox="0 0 544 312" fill="none" xmlns="http://www.w3.org/2000/svg">
<path fill-rule="evenodd" clip-rule="evenodd" d="M169.193 180.057C171.973 179.875 177.663 178.911 181.84 177.914C186.649 176.766 189.674 176.642 190.086 177.574C190.444 178.384 190.338 179.223 189.851 179.438C189.363 179.654 189.111 181.935 189.29 184.509C189.607 189.064 189.739 189.218 194.346 190.383C198.315 191.384 199.191 192.139 199.784 195.06C200.453 198.357 200.745 198.476 205.243 197.289C211.817 195.554 217.528 196.55 221.721 200.163C225.007 202.995 227.971 203.516 234.964 202.494C238.248 202.013 244.024 194.447 245.755 188.357C246.896 184.341 246.834 181.412 245.518 177.174C245.39 176.762 246.798 174.787 248.648 172.785C250.498 170.783 253.9 166.6 256.208 163.489C261.697 156.094 268.179 151.731 271.871 152.951C274.03 153.664 275.27 153.279 277.912 151.072C279.739 149.546 284.98 146.631 289.555 144.596C294.217 142.523 299.731 139.159 302.097 136.947C306.338 132.978 310.132 131.485 319.326 130.17C324.745 129.395 325.878 130.56 322.368 133.299C320.82 134.505 320.249 136.005 320.834 137.329C321.55 138.947 320.284 140.771 315.365 145.204C307.13 152.629 306.963 152.899 310.18 153.601C311.949 153.987 316.169 152.738 322.379 149.992C329.222 146.965 333.799 145.69 338.767 145.425C350.958 144.775 357.542 141.906 369.214 132.161C374.896 127.418 381.38 121.196 383.624 118.335C385.941 115.382 389.524 112.33 391.92 111.27C395.27 109.788 395.899 109.048 394.981 107.672C393.216 105.028 405.191 96.5352 417.871 91.4407C427.761 87.4673 428.088 87.429 433.849 89.5782C438.337 91.2525 441.399 91.4019 446.776 90.2105C453.373 88.7482 453.909 88.8484 455.211 91.7925C456.382 94.4392 458 95.145 465.452 96.2602C472.339 97.2906 476.16 97.0528 482.671 95.19C491.878 92.5534 502.114 86.6458 507.098 81.0908C508.715 79.2876 514.142 75.6201 519.158 72.9422C524.175 70.2643 530.469 66.7637 533.146 65.1642C537.557 62.5284 538.495 62.4293 543.156 64.1117C548.762 66.1347 553.56 64.7591 561.356 58.8937C567.482 54.2844 592.733 41.8978 591.327 44.1922C590.691 45.2282 588.949 46.6264 587.456 47.2988C584.261 48.736 563.618 66.6245 560.566 70.6007C550.184 84.1277 538.478 93.403 525.773 98.1722C520.132 100.289 514.638 101.543 511.527 101.421C506.538 101.226 506.346 101.321 498.462 107.866C494.062 111.52 489.451 115.728 488.215 117.216C486.477 119.312 483.377 120.782 474.512 123.719C446.036 133.152 434.012 135.681 418.219 135.555C404.963 135.449 397.41 136.654 390.086 140.041C383.685 143.002 376.07 148.918 376.261 150.782C376.414 152.272 401.061 152.31 404.492 150.825C406.801 149.826 411.026 150.082 410.488 151.19C410.308 151.56 403.502 154.349 395.363 157.39C387.225 160.43 372.424 166.101 362.474 169.992C347.975 175.661 343.193 177.061 338.401 177.04C327.316 176.988 318.348 178.068 310.067 180.451C292.54 185.495 290.287 186.431 288.778 189.293C287.984 190.797 286.101 193.96 284.592 196.321C282.327 199.865 282.16 201.19 283.636 203.924C285.848 208.027 283.167 214.294 277.104 219.193C266.489 227.768 237.027 236.07 226.715 233.391L222.968 232.417L225.37 227.55C228.144 221.927 227.874 221.857 215.602 225.058C210.767 226.319 207.687 226.373 205.273 225.236C203.381 224.346 197.016 222.173 191.129 220.409L180.424 217.198L168.176 222.492C158.18 226.811 153.961 228.001 145.233 228.966C139.351 229.614 132.36 229.98 129.696 229.778C127.034 229.577 124.033 229.776 123.029 230.22C122.025 230.664 117.48 231.238 112.931 231.496C108.381 231.752 97.7029 233.748 89.2015 235.929C69.5624 240.966 62.4703 241.985 49.949 241.571C37.625 241.161 38.4684 241.334 39.2329 239.357C39.6659 238.237 41.7582 237.549 45.8332 237.184C49.1146 236.89 55.856 235.387 60.8121 233.842C65.7699 232.297 73.2976 230.113 77.5415 228.988C81.8344 227.85 96.2561 221.872 110.046 215.515L134.834 204.088L144.754 194.239C155.438 183.629 160.628 180.618 169.193 180.057Z" fill="#0D0425"/>
<path fill-rule="evenodd" clip-rule="evenodd" d="M529.863 70.423C532.912 70.4367 537.425 70.9161 539.892 71.4876C545.361 72.7554 563.769 72.281 570.761 70.6924C573.567 70.0548 577.232 69.437 578.904 69.3206C581.806 69.1183 581.788 69.1792 578.515 70.6379C576.629 71.4791 572.035 72.7576 568.307 73.4786C564.579 74.1996 561.288 75.3844 560.995 76.1117C560.085 78.3692 552.39 78.9487 546.044 77.2385C542.712 76.3407 537.826 75.9339 535.187 76.3359C531.829 76.8468 529.398 76.3651 527.083 74.7298C524.275 72.745 523.056 72.6394 518.994 74.0246C516.363 74.9224 513.49 76.5771 512.608 77.7035C510.533 80.3482 505.765 81.269 489.862 82.0953C477.192 82.7526 476.648 82.8854 466.238 87.8592C447.089 97.0111 438.378 99.7815 417.962 103.214C402.083 105.885 398.533 106.156 397.118 104.809C395.577 103.343 394.417 103.539 385.157 106.826C379.516 108.828 373.062 111.038 370.813 111.738C365.774 113.304 358.201 116.834 360.273 116.65C363.33 116.378 362.018 118.586 357.886 120.668C355.55 121.845 352.062 124.911 350.135 127.481C345.501 133.661 340.666 136.534 334.269 136.911C327.593 137.304 317.949 135.45 316.333 133.464C315.646 132.619 313.304 132.235 311.127 132.61C308.876 132.997 305.048 132.327 302.251 131.059C296.625 128.505 291.127 129.051 286.429 132.63C284.646 133.988 281.278 135.34 278.946 135.636C272.231 136.485 272.14 136.562 270.952 142.594C270.331 145.747 269.08 148.454 268.17 148.611C267.262 148.767 266.128 150.069 265.65 151.505C264.946 153.62 263.558 154.327 258.347 155.223C250.438 156.582 247.989 156.163 247.508 153.367C246.94 150.059 234.868 143.065 232.661 144.763C230.307 146.573 215.089 153.76 206.016 157.347C200.906 159.368 196.644 160.25 191.456 160.359C187.422 160.443 179.284 160.89 173.371 161.351C167.459 161.813 162.122 161.626 161.513 160.937C160.31 159.575 146.99 162.88 147.264 164.472C147.346 164.947 144.383 166.185 140.68 167.222C136.976 168.258 133.856 169.703 133.745 170.432C133.634 171.16 132.242 171.981 130.654 172.254C128.774 172.577 127.882 173.435 128.101 174.709C128.393 176.41 127.359 176.743 120.229 177.242C106.508 178.205 102.826 178.031 102.548 176.411C102.401 175.562 100.47 174.802 98.2574 174.723C96.0435 174.646 93.035 174.085 91.5696 173.479C90.1054 172.873 85.8466 172.263 82.1057 172.123C78.3658 171.982 71.0476 171.266 65.8444 170.531C60.6409 169.795 52.2429 169.27 47.1818 169.362C36.3628 169.559 3.61223 167.09 1.75238 165.937C-0.465552 164.562 1.29935 163.717 5.1626 164.303C15.733 165.91 37.4481 166.651 61.7968 166.239C97.172 165.64 96.2006 165.724 139.633 159.439C167.433 155.416 177.693 154.337 180.132 155.181C188.174 157.963 218.015 149.763 227.902 142.055C232.333 138.599 233.895 138.687 241.385 142.808C248.842 146.913 250.973 147.42 258.822 146.96C265.371 146.575 265.664 146.427 266.571 143.027C269.253 132.975 269.18 133.081 274.86 130.929C279.072 129.333 280.698 129.158 281.619 130.201C282.541 131.244 283.373 131.155 285.071 129.832C288.889 126.858 298.659 125.825 302.629 127.975C304.572 129.027 309.083 129.866 312.655 129.839C316.225 129.812 321.838 130 325.128 130.257C331.58 130.762 339.117 128.847 343.935 125.48C348.175 122.517 347.554 121.819 340.895 122.06C327.482 122.547 325.769 122.427 325.98 121.014C326.102 120.199 329.238 118.87 333.104 117.994C336.903 117.136 340.988 115.463 342.18 114.28C343.645 112.828 347.54 111.58 354.16 110.442C361.286 109.217 364.377 108.181 365.455 106.654C366.423 105.284 369.282 104.15 373.669 103.395C377.369 102.759 382.674 101.231 385.457 99.9976C388.24 98.7647 391.536 97.9875 392.783 98.2705C396.88 99.2005 402.238 98.1906 407.645 95.469C413.458 92.5434 421.629 91.3085 422.632 93.2038C422.98 93.8615 421.653 95.5591 419.684 96.9782C416.148 99.5247 416.238 99.5314 426.915 97.5074C435.514 95.8789 438.087 94.949 439.485 92.972C440.698 91.2558 442.97 90.2214 446.822 89.633C453 88.6903 462.781 85.6253 476.782 80.2445C486.678 76.4423 519.453 70.3777 529.863 70.423Z" fill="#1D0C32"/>
</svg>
