<svg width="594" height="214" viewBox="0 0 594 214" fill="none" xmlns="http://www.w3.org/2000/svg">
<path fill-rule="evenodd" clip-rule="evenodd" d="M153.503 119.193C156.058 118.085 161.561 116.344 165.732 115.323C170.534 114.147 173.282 112.876 173.223 111.858C173.171 110.974 172.693 110.277 172.162 110.308C171.629 110.338 170.363 108.424 169.347 106.053C167.548 101.856 167.595 101.659 171.161 98.518C174.234 95.8138 174.669 94.7425 173.862 91.8733C172.951 88.6346 173.156 88.3955 177.699 87.397C184.34 85.9367 188.966 82.4415 191.045 77.3126C192.674 73.2925 195.073 71.4743 201.76 69.1899C204.902 68.1172 213.496 72.2092 217.818 76.8356C220.668 79.8865 221.95 82.5204 222.715 86.8926C222.79 87.3172 224.944 88.4304 227.505 89.3669C230.065 90.3023 235.002 92.4691 238.476 94.1825C246.738 98.2537 254.496 99.1732 257.224 96.4016C258.819 94.7806 260.097 94.557 263.456 95.3136C265.779 95.8363 271.772 96.0356 276.771 95.7554C281.865 95.4698 288.308 95.9431 291.422 96.8305C297.009 98.4239 301.065 98.0186 309.844 94.9885C315.019 93.2025 315.495 91.6488 311.121 90.8162C309.193 90.4504 308 89.3764 307.916 87.9317C307.814 86.1649 305.854 85.1206 299.453 83.4238C288.736 80.5812 288.464 80.4171 291.005 78.3234C292.402 77.1719 296.727 76.355 303.505 75.9608C310.976 75.5277 315.63 74.5713 320.17 72.5378C331.311 67.547 338.479 67.0913 353.313 70.4278C360.535 72.0516 369.145 74.6251 372.448 76.1443C375.859 77.7132 380.44 78.7914 383.055 78.6397C386.712 78.4277 387.61 78.7985 387.422 80.4423C387.06 83.6005 401.592 85.6849 415.198 84.4246C425.812 83.4411 426.12 83.326 430.263 78.7822C433.49 75.2429 436.146 73.7111 441.473 72.3148C448.01 70.6017 448.44 70.2681 448.254 67.0543C448.087 64.165 449.204 62.7977 455.323 58.4018C460.979 54.3389 464.487 52.8051 471.129 51.4881C480.524 49.6275 492.329 50.2067 499.299 52.8716C501.562 53.7367 508.065 54.52 513.751 54.6108C519.436 54.7015 526.634 54.9403 529.746 55.1401C534.875 55.4697 535.754 55.1296 539.132 51.5038C543.195 47.1433 548.091 46.1753 557.705 47.8316C565.26 49.1335 593.381 48.6172 591.082 47.2183C590.043 46.5872 587.855 46.1395 586.219 46.2233C582.721 46.4043 556.186 39.9213 551.655 37.7783C536.24 30.4878 521.59 27.584 508.109 29.1457C502.124 29.839 496.664 31.2332 493.953 32.7634C489.604 35.2159 489.389 35.2187 479.386 32.9981C473.803 31.7581 467.779 30.1208 466 29.3613C463.497 28.2914 460.067 28.3992 450.84 29.8369C421.199 34.4533 409.347 37.6968 395.356 45.0229C383.612 51.1726 376.343 53.5514 368.28 53.884C361.234 54.1735 351.757 52.3902 351.076 50.6448C350.531 49.2488 372.439 37.9559 376.17 37.7105C378.68 37.5443 382.321 35.3867 381.337 34.6467C381.008 34.3997 373.679 35.0276 365.05 36.0406C356.422 37.0536 340.665 38.7703 330.036 39.8544C314.549 41.4339 309.656 42.3737 305.403 44.5814C295.565 49.691 287.094 52.8272 278.64 54.4899C260.744 58.0098 258.312 58.2067 255.662 56.3495C254.269 55.3744 251.149 53.4205 248.728 52.0105C245.094 49.8921 244.34 48.79 244.404 45.6832C244.498 41.023 239.25 36.6726 231.619 35.0848C218.259 32.3055 188.258 38.3789 180.309 45.4726L177.421 48.0506L181.78 51.2837C186.817 55.0182 186.609 55.204 174.23 57.9617C169.353 59.0488 166.588 60.4083 164.96 62.5221C163.683 64.178 159.014 69.0184 154.583 73.2775L146.527 81.0237L133.213 81.9099C122.348 82.6334 118.051 83.5022 109.847 86.6315C104.318 88.7418 97.9319 91.6101 95.6545 93.0057C93.3783 94.4013 90.6177 95.5953 89.5218 95.6589C88.4259 95.7224 84.1208 97.2879 79.9561 99.1368C75.7914 100.987 65.3813 104.09 56.8224 106.033C37.0509 110.523 30.2764 112.856 19.3275 118.945C8.55162 124.939 9.2226 124.4 10.8061 125.81C11.7029 126.608 13.8785 126.265 17.6701 124.728C20.7233 123.49 27.407 121.748 32.5216 120.858C37.6374 119.967 45.3316 118.472 49.6208 117.534C53.9593 116.585 69.5191 115.315 84.6901 114.671L111.961 113.513L125.284 117.742C139.635 122.3 145.627 122.607 153.503 119.193Z" fill="#150836"/>
<path fill-rule="evenodd" clip-rule="evenodd" d="M524.424 51.9599C527.129 50.5551 530.925 48.0669 532.859 46.4314C537.144 42.8055 553.736 34.8185 560.682 33.0376C563.469 32.3229 567.012 31.1983 568.553 30.538C571.226 29.3923 571.183 29.3463 567.605 29.5438C565.543 29.6571 560.872 30.6183 557.226 31.6801C553.58 32.7418 550.112 33.191 549.519 32.678C547.678 31.0857 540.568 34.0852 535.704 38.5053C533.15 40.8262 528.99 43.42 526.459 44.2678C523.238 45.3474 521.296 46.8865 519.984 49.3984C518.392 52.4471 517.356 53.0976 513.11 53.721C510.36 54.1241 507.047 53.9649 505.748 53.3658C502.695 51.9609 498.032 53.3201 483.509 59.8493C471.937 65.0528 471.393 65.1829 459.86 65.5138C438.645 66.12 429.631 67.6351 409.902 73.9077C394.556 78.7854 391.275 80.1663 390.631 82.011C389.93 84.0185 388.808 84.3743 379.069 85.6805C373.137 86.4761 366.385 87.4586 364.065 87.8639C358.867 88.7721 350.518 89.0916 352.445 88.3088C355.289 87.1543 353.114 85.789 348.487 85.8249C345.871 85.8452 341.368 84.7109 338.479 83.305C331.534 79.9241 325.921 79.5771 320.058 82.1635C313.94 84.8643 306.208 90.9185 305.677 93.4243C305.452 94.4891 303.544 95.9003 301.437 96.5618C299.258 97.2458 296.158 99.5904 294.25 101.996C290.411 106.838 285.271 108.863 279.457 107.826C277.25 107.432 273.637 107.768 271.427 108.571C265.065 110.883 264.95 110.856 261.138 106.033C259.145 103.512 256.795 101.675 255.914 101.951C255.035 102.227 253.431 101.586 252.35 100.527C250.758 98.9674 249.2 98.9734 244.155 100.557C236.499 102.96 234.512 104.452 235.362 107.159C236.367 110.361 228.824 122.097 226.084 121.596C223.164 121.06 206.343 121.618 196.633 122.572C191.164 123.109 186.97 124.272 182.306 126.544C178.678 128.312 171.236 131.632 165.765 133.923C160.295 136.213 155.633 138.817 155.405 139.708C154.957 141.47 141.599 144.614 141.115 143.072C140.971 142.613 137.77 142.865 134.002 143.635C130.233 144.404 126.798 144.544 126.366 143.946C125.935 143.349 124.322 143.255 122.784 143.738C120.965 144.309 119.779 143.953 119.392 142.721C118.875 141.074 117.803 141.25 111.232 144.063C98.5863 149.475 95.3906 151.311 95.8828 152.879C96.1411 153.702 94.7701 155.26 92.8375 156.34C90.9034 157.42 88.4834 159.294 87.4567 160.502C86.431 161.71 82.9214 164.199 79.6574 166.032C76.3949 167.866 70.212 171.846 65.9191 174.876C61.6266 177.908 54.396 182.212 49.8517 184.442C40.1374 189.208 12.1315 206.365 11.0039 208.241C9.65904 210.477 11.615 210.423 14.7838 208.136C23.4529 201.879 42.4312 191.299 64.2794 180.544C96.0214 164.917 95.1188 165.285 136.626 151.036C163.193 141.916 172.813 138.188 174.597 136.323C180.481 130.175 210.772 123.838 223.088 126.178C228.609 127.228 229.958 126.436 234.738 119.348C239.496 112.29 241.161 110.866 248.352 107.69C254.354 105.041 254.683 105.038 257.043 107.648C264.02 115.366 263.907 115.305 269.943 114.624C274.419 114.119 275.944 113.533 276.288 112.184C276.631 110.835 277.412 110.534 279.527 110.936C284.282 111.837 293.444 108.293 295.995 104.567C297.242 102.744 300.871 99.9366 304.061 98.3289C307.25 96.7217 312.157 93.9903 314.966 92.2593C320.475 88.8622 328.054 87.1227 333.878 87.9174C339.003 88.6161 338.77 89.5208 332.736 92.3478C320.582 98.0417 319.113 98.9312 319.947 100.092C320.428 100.761 323.824 100.511 327.663 99.5237C331.434 98.5524 335.832 98.1737 337.434 98.6818C339.4 99.3042 343.435 98.6352 349.844 96.6235C356.743 94.4582 359.965 93.9678 361.622 94.8337C363.109 95.6103 366.17 95.3132 370.417 93.98C373.999 92.8558 379.416 91.7922 382.456 91.6175C385.494 91.4431 388.782 90.6286 389.761 89.8076C392.981 87.1086 398.209 85.5591 404.262 85.5103C410.77 85.4573 418.602 82.8235 418.628 80.6794C418.637 79.9353 416.682 79.0312 414.282 78.6682C409.973 78.0184 410.05 77.9714 420.472 74.8944C428.865 72.4151 431.58 72.0666 433.726 73.1867C435.589 74.1594 438.083 74.0414 441.779 72.8052C447.705 70.8218 457.805 69.0804 472.719 67.4708C483.258 66.3329 515.184 56.7556 524.424 51.9599Z" fill="#1D0C32"/>
</svg>
