<svg width="469" height="105" viewBox="0 0 469 105" fill="none" xmlns="http://www.w3.org/2000/svg">
<rect x="76.4141" y="25.3193" width="320" height="59" rx="11" fill="#F14B64"/>
<path fill-rule="evenodd" clip-rule="evenodd" d="M41.6692 70.4444C39.2192 71.0111 35.6721 72.2457 33.7868 73.1871C29.6089 75.2747 14.7169 78.2166 8.81453 78.1207C6.44579 78.0822 3.38962 78.217 2.02396 78.4211C-0.34583 78.775 -0.320848 78.8242 2.5668 79.4852C4.23103 79.8666 8.1498 80.1319 11.2751 80.0744C14.4003 80.017 17.2543 80.4388 17.6173 81.0121C18.7437 82.7912 25.0353 81.8899 29.8417 79.2615C32.3657 77.8814 36.2253 76.6417 38.4182 76.5077C41.2091 76.3366 43.0808 75.4791 44.6572 73.649C46.5704 71.4277 47.532 71.115 51.0418 71.569C53.315 71.8637 55.9157 72.7662 56.8219 73.5761C58.9525 75.477 69.133 72.8508 79.6615 74.207C96.6643 78.6062 104.156 79.4074 121.179 78.6486C134.42 78.0594 137.323 77.6465 138.227 76.2285C139.21 74.6854 140.178 74.6429 148.201 75.7892C153.089 76.4876 158.667 77.2168 160.599 77.4099C164.926 77.8424 171.634 79.505 169.935 79.7237C167.428 80.0457 168.869 81.7095 172.556 82.7507C174.642 83.3395 177.983 85.3462 179.982 87.2097C184.788 91.6906 189.18 93.2858 194.392 92.4466C199.831 91.5693 207.266 88.2172 208.22 86.2113C208.625 85.3589 210.442 84.6019 212.258 84.5281C214.137 84.4518 217.1 83.178 219.128 81.5764C223.209 78.352 227.727 77.8221 232.131 80.0497C233.803 80.8959 236.748 81.4476 238.676 81.2774C244.227 80.7868 244.313 80.8368 246.321 85.8173C247.371 88.4206 248.851 90.5254 249.61 90.4946C250.368 90.4638 251.508 91.3797 252.143 92.5299C253.078 94.2238 254.318 94.5796 258.667 94.403C265.267 94.1349 267.164 93.3277 267.062 90.8313C266.942 87.878 275.433 79.6551 277.505 80.7159C279.714 81.847 293.212 85.2694 301.137 86.7082C305.601 87.519 309.184 87.5029 313.376 86.6527C316.636 85.991 323.261 84.8945 328.098 84.2159C332.935 83.5372 337.196 82.4052 337.566 81.7006C338.296 80.3079 349.588 80.7312 349.646 82.1529C349.663 82.5766 352.263 83.1039 355.423 83.323C358.584 83.5421 361.346 84.2189 361.563 84.8269C361.779 85.4339 363.041 85.8873 364.367 85.8334C365.935 85.7697 366.803 86.3471 366.849 87.4838C366.911 89.0026 367.801 89.1011 373.625 88.2338C384.831 86.5652 387.763 85.7459 387.704 84.2997C387.673 83.5408 389.094 82.5348 390.861 82.0643C392.628 81.5948 394.951 80.564 396.024 79.7752C397.096 78.9866 400.415 77.6854 403.4 76.8842C406.385 76.082 412.147 74.1331 416.205 72.5528C420.262 70.9715 426.927 68.9903 431.014 68.1486C439.752 66.3494 465.669 58.2611 466.963 56.9288C468.508 55.3405 466.94 54.9338 463.935 56.142C455.712 59.4502 438.372 64.0417 418.711 68.118C390.148 74.041 390.944 73.937 354.906 76.4271C331.84 78.0215 323.397 78.9598 321.582 80.1304C315.598 83.9913 290.16 82.3582 280.86 77.5167C276.692 75.3458 275.451 75.7062 270.145 80.6204C264.863 85.5143 263.169 76.7401 256.774 77.7727C251.439 78.633 251.252 83.394 249.929 80.6296C246.017 72.4572 246.086 77.2988 241.141 76.4787C237.474 75.8707 236.136 76.0159 235.577 77.0821C235.017 78.1482 234.332 78.2231 232.735 77.392C229.144 75.5248 221.105 76.4137 218.285 78.9882C216.907 80.248 213.424 81.7921 210.546 82.4189C207.668 83.0457 203.82 80.5185 201.218 81.3383C196.115 82.9482 188.258 85.141 183.794 83.1168C179.866 81.336 181.07 81.8618 186.469 80.8578C197.344 78.836 198.701 78.4206 198.285 77.2412C198.044 76.5614 195.29 75.9869 192.027 75.9367C188.821 75.8883 185.242 75.1912 184.077 74.3887C182.645 73.4045 179.293 73.0381 173.769 73.2625C167.822 73.5041 165.155 73.1741 164.021 72.0548C163.003 71.0506 160.506 70.594 156.844 70.7427C153.757 70.8681 149.222 70.5167 146.767 69.9611C144.314 69.4054 141.526 69.3358 140.573 69.8064C137.439 71.3534 132.952 71.4587 128.127 70.0981C122.94 68.6357 116.151 69.059 115.675 70.8744C115.51 71.5043 116.874 72.7254 118.705 73.5897C121.995 75.1399 121.924 75.162 112.981 75.3617C105.779 75.5238 103.546 75.1911 102.076 73.7423C100.801 72.4845 98.7924 72.007 95.5908 72.2012C90.4564 72.5134 82.0529 71.6531 69.8494 69.5658C61.2251 68.0912 50.0362 68.5106 41.6692 70.4444Z" fill="#F14B64"/>
<path fill-rule="evenodd" clip-rule="evenodd" d="M108.673 32.762C107.186 32.215 105.051 31.0361 103.929 30.1428C101.442 28.162 92.3824 25.3072 88.737 25.3553C87.274 25.3746 85.3945 25.227 84.5608 25.0266C83.1142 24.6791 83.1317 24.6333 84.9418 24.0358C85.985 23.691 88.414 23.4707 90.3396 23.5464C92.2651 23.6222 94.044 23.248 94.2928 22.7147C95.0648 21.0597 98.9071 21.9464 101.758 24.4372C103.256 25.745 105.583 26.931 106.93 27.0717C108.644 27.2513 109.762 28.066 110.655 29.7878C111.739 31.8775 112.319 32.1766 114.504 31.777C115.919 31.5176 117.562 30.6923 118.157 29.9417C119.553 28.1799 122.016 28.2779 129.902 30.4092C136.186 32.1083 136.471 32.0971 142.277 29.928C152.957 25.9358 157.613 25.2398 168.082 26.0691C176.225 26.7131 177.998 27.1196 178.494 28.4513C179.034 29.9006 179.629 29.9471 184.628 28.9323C187.674 28.3139 191.147 27.6717 192.347 27.5048C195.035 27.131 199.246 25.6243 198.207 25.4079C196.674 25.0892 197.635 23.5442 199.955 22.597C201.267 22.0613 203.415 20.2092 204.729 18.4815C207.888 14.327 210.667 12.8668 213.846 13.688C217.163 14.5465 221.605 17.7321 222.106 19.6137C222.319 20.4134 223.407 21.1337 224.525 21.2155C225.68 21.3001 227.453 22.5117 228.635 24.023C231.013 27.0656 233.777 27.5928 236.59 25.5416C237.659 24.7625 239.499 24.2676 240.681 24.4403C244.084 24.938 244.139 24.8919 245.595 20.2507C246.355 17.8247 247.359 15.8678 247.826 15.9019C248.292 15.9361 249.035 15.088 249.477 14.0174C250.127 12.4406 250.908 12.1168 253.583 12.3125C257.643 12.6096 258.778 13.3775 258.607 15.7103C258.405 18.4699 263.287 26.2158 264.611 25.2389C266.023 24.1972 274.498 21.0934 279.45 19.8044C282.239 19.078 284.448 19.1183 286.998 19.9426C288.98 20.584 293.02 21.6557 295.975 22.3241C298.929 22.9925 301.508 24.0807 301.706 24.7419C302.096 26.0488 309.081 25.7328 309.178 24.4043C309.207 24.0084 310.834 23.5338 312.793 23.3513C314.752 23.1688 316.486 22.5557 316.646 21.9889C316.805 21.423 317.604 21.0082 318.419 21.0679C319.384 21.1385 319.945 20.605 320.022 19.5428C320.126 18.1236 320.68 18.0378 324.235 18.8895C331.076 20.5281 332.849 21.3146 332.75 22.666C332.698 23.3751 333.531 24.3255 334.6 24.7777C335.67 25.229 337.058 26.2089 337.686 26.9537C338.314 27.6985 340.305 28.9382 342.112 29.7081C343.918 30.479 347.389 32.3412 349.823 33.8469C352.258 35.3536 356.283 37.2525 358.769 38.068C364.081 39.8114 379.719 47.5544 380.46 48.8088C381.344 50.3043 380.36 50.6734 378.558 49.5229C373.628 46.3727 363.13 41.9587 351.178 38.0099C333.813 32.2722 334.3 32.375 312.175 29.7934C298.014 28.1405 292.847 27.2039 291.778 26.0969C288.253 22.4459 272.489 23.793 266.543 28.2529C263.877 30.2527 263.127 29.907 260.066 25.2763C257.02 20.6646 256.052 19.883 252.152 18.8726C248.898 18.0309 248.733 18.098 247.797 20.6726C245.03 28.2839 245.081 28.2114 241.994 28.9431C239.706 29.4855 238.886 29.3403 238.588 28.3399C238.289 27.3394 237.869 27.2646 236.848 28.0301C234.552 29.7501 229.631 28.8625 228.003 26.4363C227.207 25.249 225.125 23.7812 223.377 23.175C221.629 22.5688 218.915 21.4307 217.345 20.646C214.267 19.1053 210.309 19.3199 207.467 21.1805C204.967 22.8174 205.169 23.4879 208.456 24.4644C215.077 26.4309 215.897 26.8288 215.589 27.9282C215.411 28.5619 213.687 29.0795 211.671 29.1034C209.692 29.126 207.454 29.7524 206.7 30.4943C205.774 31.4042 203.69 31.723 200.292 31.4743C196.634 31.2066 194.974 31.4962 194.226 32.5344C193.555 33.4659 191.994 33.8751 189.742 33.7103C187.843 33.5713 185.03 33.8678 183.491 34.3698C181.954 34.8719 180.231 34.9173 179.663 34.4707C177.797 33.0026 175.033 32.8725 171.998 34.1103C168.734 35.4407 164.565 34.9972 164.35 33.297C164.275 32.7069 165.169 31.5752 166.337 30.7803C168.433 29.3545 168.39 29.3333 162.882 29.0836C158.446 28.8813 157.054 29.1765 156.085 30.5203C155.244 31.687 153.984 32.1192 152.017 31.9152C148.863 31.5871 143.641 32.332 136.023 34.1969C130.638 35.5145 113.751 34.6286 108.673 32.762Z" fill="#F14B64"/>
<path d="M123.636 63.12H146.396L141.076 70H115.316V43.24H146.316L140.956 50.2H123.636V53.4H144.836L140.076 59.48H123.636V63.12ZM156.702 63.12H177.422L172.062 70H148.422V43.24H156.702V63.12ZM187.7 63.12H210.46L205.14 70H179.38V43.24H210.38L205.02 50.2H187.7V53.4H208.9L204.14 59.48H187.7V63.12ZM226.686 45.64L230.966 53.2C233.326 57.32 234.366 59.32 235.286 61.2C236.166 59.32 237.206 57.36 239.566 53.24L243.846 45.64C244.806 43.92 246.246 42.8 248.406 42.8C250.486 42.8 252.326 44 253.046 46.48L259.806 70H251.566L249.046 60.68C248.206 57.64 247.646 55.48 247.206 53.32C246.326 55.2 245.326 57.24 243.486 60.72L239.886 67.44C238.486 70.08 237.126 70.44 235.126 70.44C233.126 70.44 231.766 70.08 230.366 67.44L226.766 60.68C224.806 57 223.846 55.12 223.006 53.32C222.606 55.44 222.006 57.68 221.206 60.68L218.686 70H210.566L217.486 46.48C218.206 44 220.086 42.8 222.166 42.8C224.286 42.8 225.726 43.88 226.686 45.64ZM270.357 63.12H293.117L287.797 70H262.037V43.24H293.037L287.677 50.2H270.357V53.4H291.557L286.797 59.48H270.357V63.12ZM322.264 70.44C321.224 70.44 320.224 70.2 318.944 69L302.544 54.28V70H295.024V47.8C295.024 44.24 297.184 42.8 299.544 42.8C300.544 42.8 301.544 43.04 302.864 44.24L319.264 58.96V43.24H326.824V65.4C326.824 68.96 324.664 70.44 322.264 70.44ZM333.746 43.24H364.146L358.786 50.2H349.226V70H340.946V50.2H328.386L333.746 43.24Z" fill="black"/>
</svg>
