<svg width="84" height="83" viewBox="0 0 84 83" fill="none" xmlns="http://www.w3.org/2000/svg">
<path d="M71.5546 18.8186C42.9515 40.3501 44.2696 41.829 68.9623 76.1923C42.6439 43.0469 41.7652 41.2635 12.7227 62.2295C41.3258 40.6981 40.6228 38.4797 16.7209 6.68274C41.4576 39.6106 42.5121 39.7846 71.5546 18.8186Z" fill="#4B89C8"/>
<path d="M51.8272 53.4862C47.126 49.006 43.1716 46.8746 38.6461 46.8746C36.2735 46.8746 33.813 47.4835 31.1328 48.6145C34.2524 45.0477 35.7462 41.7853 35.9659 38.349C36.0977 35.7826 35.5265 33.1292 34.2963 30.1714C38.031 33.3902 41.3702 34.7822 44.973 34.7822C47.4335 34.7822 49.9379 34.1297 52.7499 32.8683C50.2016 36.0436 48.7956 39.0884 48.6638 42.4813C48.5759 45.7871 49.6304 49.2669 51.8272 53.4862Z" fill="#70CAEE"/>
<path d="M46.8204 46.8296C44.0963 45.3507 41.46 44.6547 38.6481 44.6547C37.9451 44.6547 37.2421 44.6982 36.5391 44.7852C37.5496 42.6973 38.1208 40.6529 38.2526 38.5215C38.2966 37.5211 38.2966 36.5206 38.1647 35.4767C40.4055 36.5641 42.6463 37.0426 45.019 37.0426C45.8977 37.0426 46.7764 36.9556 47.6991 36.8251C46.9083 38.652 46.5128 40.4789 46.4689 42.4363C46.381 43.8718 46.5128 45.3072 46.8204 46.8296Z" fill="#DCEFF5"/>
<path d="M53.8957 36.5287C54.2032 37.3116 54.4229 38.0946 54.5987 38.9211C54.7305 39.7475 54.7744 40.574 54.7744 41.4004C54.7305 43.0533 54.2911 44.7063 53.6321 46.1852C53.2806 46.9247 52.8851 47.6206 52.4018 48.2731C51.9185 48.9256 51.3912 49.5345 50.8201 50.1C49.6338 51.2309 48.2717 52.1009 46.7778 52.7099C45.284 53.3188 43.6583 53.6668 42.0326 53.6668C40.4069 53.6668 38.7813 53.3623 37.2874 52.7969C35.7935 52.1879 34.3436 51.3179 33.2012 50.187C32.0149 49.0561 31.0483 47.7076 30.3453 46.2287C29.6863 44.7498 29.2908 43.0968 29.2469 41.4439C29.2029 39.791 29.4666 38.0946 30.0817 36.5722C30.6968 35.0062 31.6195 33.5708 32.8058 32.3529C33.9921 31.1349 35.442 30.178 36.9798 29.482C37.7707 29.134 38.6055 28.9165 39.4403 28.7426C40.2751 28.5686 41.1539 28.4816 41.9887 28.4816C42.8674 28.4816 43.7022 28.5686 44.537 28.7426C45.3718 28.9165 46.2067 29.1775 46.9975 29.482C48.5793 30.1345 50.0292 31.1349 51.2155 32.3094C52.3139 33.5273 53.2806 34.9627 53.8957 36.5287ZM52.8412 36.9636C51.6109 34.1363 49.2383 31.9179 46.3824 30.787C44.9764 30.2215 43.4386 29.917 41.9447 29.917C40.4069 29.917 38.9131 30.2215 37.5071 30.787C34.6512 31.9179 32.3225 34.1798 31.0483 36.9636C30.4332 38.3556 30.0817 39.878 30.0378 41.4439C29.9938 43.0099 30.2574 44.5323 30.8286 46.0112C31.3998 47.4901 32.2346 48.8386 33.377 49.9695C34.4754 51.1005 35.8375 52.0139 37.2874 52.6664C38.7813 53.3188 40.363 53.6233 41.9887 53.6233C42.7796 53.6233 43.6144 53.5363 44.4052 53.4058C45.1961 53.2318 45.987 53.0144 46.7339 52.7099C48.2278 52.1009 49.5898 51.1874 50.6883 50.013C51.2594 49.4475 51.7427 48.7951 52.1382 48.1426C52.5776 47.4466 52.8851 46.7507 53.1927 46.0112C53.7199 44.5323 53.9835 42.9664 53.8957 41.4004C53.8078 39.878 53.4563 38.3556 52.8412 36.9636Z" fill="#DCEFF5"/>
</svg>
