<svg width="190" height="77" viewBox="0 0 190 77" fill="none" xmlns="http://www.w3.org/2000/svg">
<rect x="17.1382" y="19.9336" width="160" height="50" rx="13.2968" transform="rotate(-0.673265 17.1382 19.9336)" fill="#F14B64"/>
<path d="M107.521 55.9063C108.581 55.7368 109.987 55.413 110.646 55.1867C112.678 54.4894 114.162 54.6961 117.634 56.1607L120.858 57.5201L127.666 57.8117C131.454 57.974 135.351 57.9857 136.451 57.838C137.537 57.6922 139.483 57.4778 140.775 57.3616C142.066 57.2457 143.766 56.947 144.551 56.6985C145.527 56.3899 146.076 56.3494 146.282 56.5713C146.646 56.9631 146.824 56.8406 144.016 58.1302C141.163 59.4403 139.428 59.8869 134.414 60.6018C132.244 60.9112 129.588 61.4751 128.513 61.8552C127.437 62.2349 126.333 62.5397 126.059 62.5323C125.785 62.5249 125.073 62.7687 124.477 63.0739C123.881 63.3792 122.231 63.97 120.811 64.3868C118.703 65.0047 117.616 65.1329 114.898 65.0832L111.567 65.0223L109.398 66.815C108.206 67.8006 106.941 68.9287 106.588 69.3215C106.138 69.8229 105.421 70.1085 104.185 70.2797C101.047 70.7137 100.991 70.7564 102.165 71.8122L103.18 72.7262L102.407 73.3184C100.278 74.9478 92.6861 75.8449 89.4222 74.8528C87.5578 74.286 86.3451 73.0694 86.4679 71.8889C86.55 71.1018 86.3859 70.806 85.5271 70.1904C84.955 69.7806 84.2205 69.2178 83.8948 68.9405C83.2753 68.4123 82.6662 68.4101 78.1396 68.9191C76.0011 69.1595 73.8273 69.7735 71.2713 70.8589C70.1662 71.3277 68.9291 71.4612 65.043 71.5295C62.376 71.5764 58.4201 71.6737 56.2522 71.7456C54.0843 71.8174 52.2478 71.8193 52.1713 71.7496C51.9421 71.5407 52.8939 71.0714 53.5219 71.0831C54.455 71.1009 60.1452 68.7056 60.0394 68.3396C59.9073 67.8821 57.5879 67.2261 55.829 67.1483C53.8163 67.0596 51.9576 67.5072 48.9053 68.8156C45.2689 70.3742 42.2518 70.9429 34.7803 71.478C32.4545 71.6447 31.599 71.5984 30.9992 71.2732C30.5729 71.0422 29.1093 70.4974 27.7469 70.0629C25.3061 69.2846 25.2525 69.2807 24.1186 69.8097C23.4114 70.1398 22.0237 70.3764 20.5202 70.4238C17.1335 70.5307 13.5513 69.4793 9.87236 67.2983C8.79096 66.6572 2.3287 64.4424 1.45462 64.4133C1.04604 64.3994 0.511161 64.2388 0.266174 64.0564C-0.275749 63.652 6.7301 64.1248 8.58163 64.6173C10.9379 65.244 12.1764 65.1035 13.28 64.0842C14.1974 63.2367 14.4234 63.1692 15.692 63.363C16.4619 63.4805 18.2473 63.6956 19.6596 63.8407C21.0719 63.9858 22.6728 64.3242 23.2172 64.5923C24.8944 65.4182 27.8183 65.8186 30.1949 65.5482C31.8753 65.3566 32.7804 65.0427 34.2739 64.1331C35.8897 63.149 36.1968 62.826 36.2167 62.0893C36.2389 61.2697 36.353 61.1943 38.0156 60.8999C39.3704 60.66 40.0637 60.3283 40.9419 59.4995C42.0694 58.4354 42.1484 58.4128 44.8094 58.3911C48.2208 58.3634 51.7912 59.2043 51.6337 59.998C51.552 60.4111 51.7673 60.5244 52.6815 60.5491C53.3354 60.5668 54.4519 60.9388 55.2668 61.4101C56.056 61.8665 58.143 62.7044 59.9046 63.2715C63.5235 64.4367 65.3161 64.4749 68.1938 63.4476C69.3666 63.0291 70.5446 62.8863 72.412 62.9368C74.1066 62.9823 75.1997 62.8678 75.5718 62.6057C76.2484 62.1289 76.1842 62.0814 73.579 61.13C72.023 60.562 71.5578 60.2549 71.57 59.8044C71.58 59.436 71.306 59.1378 70.8343 59.0036C69.7641 58.6985 69.9157 58.3144 71.2409 57.9723C73.4892 57.3919 74.5068 57.3761 75.8625 57.9004C76.6183 58.1924 78.2108 58.4508 79.484 58.4877C80.7335 58.524 82.22 58.7032 82.7867 58.8857C83.6059 59.1498 83.9287 59.1205 84.36 58.7434C85.0975 58.0987 87.0079 58.4986 88.976 59.709C89.8038 60.2184 90.9857 60.8743 91.6024 61.1666C92.2195 61.4592 92.7316 61.7879 92.7411 61.8973C92.8382 63.0232 93.1011 63.7191 93.745 64.5545C94.7213 65.8213 96.7718 67.0441 97.5762 66.8394C99.2884 66.4033 99.9238 65.9934 100.415 65.0082C101.041 63.7514 102.266 62.9637 103.949 62.7357C105.101 62.5799 105.157 62.5236 104.999 61.6823C104.86 60.9368 104.991 60.6743 105.813 60.0541C106.767 59.3336 106.783 59.2846 106.425 58.181C106.223 57.5575 105.948 57.0445 105.815 57.0409C105.682 57.0373 105.578 56.85 105.584 56.6246C105.591 56.3652 106.302 56.1017 107.521 55.9063Z" fill="#F14B64"/>
<path d="M80.8724 24.4292C79.8016 24.4958 78.3711 24.6827 77.6931 24.8445C75.6035 25.3427 74.1464 24.9941 70.8311 23.2017L67.753 21.5381L61.0046 20.5921C57.2505 20.0657 53.3722 19.6786 52.2637 19.7197C51.1678 19.7601 49.2104 19.7861 47.9137 19.7773C46.6174 19.7683 44.8969 19.9018 44.0907 20.0735C43.0896 20.2866 42.5398 20.2741 42.3561 20.0334C42.0317 19.6084 41.8423 19.7131 44.7617 18.7C47.7279 17.6709 49.4977 17.3935 54.557 17.1649C56.7471 17.066 59.4446 16.7606 60.5516 16.4858C61.6586 16.2114 62.7871 16.0144 63.059 16.0482C63.331 16.0819 64.0633 15.9079 64.6859 15.6615C65.3087 15.4151 67.0076 14.986 68.4614 14.7079C70.6186 14.2959 71.7133 14.273 74.4139 14.5843L77.7232 14.9658L80.0548 13.3904C81.3371 12.5242 82.7045 11.5233 83.0936 11.1663C83.5899 10.7106 84.3307 10.4953 85.5778 10.444C88.743 10.3143 88.8025 10.2772 87.7365 9.11327L86.8137 8.10567L87.6404 7.59073C89.916 6.17395 97.5592 6.0124 100.712 7.3143C102.514 8.05802 103.603 9.38582 103.368 10.549C103.21 11.3245 103.345 11.6347 104.14 12.3302C104.67 12.7932 105.347 13.4241 105.645 13.7315C106.21 14.3169 106.816 14.3778 111.371 14.3073C113.523 14.274 115.745 13.8723 118.394 13.0381C119.539 12.6779 120.784 12.6642 124.658 12.9706C127.317 13.1808 131.264 13.465 133.429 13.6024C135.594 13.7397 137.422 13.9147 137.491 13.9915C137.699 14.2215 136.707 14.5969 136.083 14.5248C135.156 14.4172 129.261 16.2532 129.331 16.6276C129.419 17.0957 131.664 17.9721 133.407 18.219C135.402 18.5012 137.295 18.2347 140.459 17.2264C144.229 16.0253 147.287 15.75 154.775 15.9371C157.106 15.9952 157.953 16.1237 158.519 16.5052C158.921 16.7761 160.325 17.4594 161.639 18.0231C163.994 19.0329 164.047 19.0419 165.226 18.6247C165.962 18.3642 167.366 18.2624 168.867 18.36C172.249 18.5799 175.713 19.9715 179.165 22.4967C180.179 23.239 186.398 26.066 187.265 26.1793C187.671 26.2324 188.187 26.4438 188.414 26.649C188.914 27.1036 181.986 25.9582 180.191 25.2896C177.906 24.4388 176.66 24.4594 175.463 25.3676C174.468 26.1228 174.237 26.1682 172.993 25.8531C172.238 25.662 170.481 25.2759 169.09 24.9954C167.698 24.715 166.137 24.2239 165.621 23.9046C164.031 22.921 161.159 22.2408 158.768 22.281C157.077 22.3099 156.146 22.5351 154.572 23.2966C152.869 24.1205 152.532 24.4123 152.441 25.1438C152.34 25.9574 152.219 26.0214 150.536 26.1543C149.164 26.2626 148.442 26.526 147.488 27.2664C146.264 28.2169 146.183 28.2317 143.532 27.997C140.134 27.696 136.661 26.515 136.894 25.7402C137.015 25.3369 136.812 25.2033 135.904 25.0907C135.255 25.0101 134.18 24.5323 133.414 23.9847C132.672 23.4544 130.676 22.4193 128.977 21.6852C125.487 20.1768 123.707 19.9661 120.743 20.7113C119.536 21.015 118.349 21.0436 116.496 20.8134C114.813 20.6049 113.714 20.6136 113.319 20.8387C112.599 21.248 112.659 21.3015 115.16 22.4994C116.654 23.2147 117.087 23.5651 117.032 24.0124C116.987 24.3781 117.231 24.7013 117.687 24.8803C118.723 25.2872 118.535 25.6548 117.183 25.8677C114.889 26.2289 113.875 26.1465 112.576 25.4941C111.852 25.1306 110.292 24.7199 109.028 24.5606C107.788 24.4041 106.325 24.0825 105.779 23.8463C104.989 23.5045 104.665 23.5026 104.199 23.8364C103.403 24.4071 101.54 23.825 99.6977 22.4306C98.9228 21.8438 97.8096 21.0772 97.2239 20.7268C96.6379 20.3761 96.1598 19.9996 96.1609 19.8898C96.1727 18.7598 95.9781 18.0418 95.4177 17.1483C94.5679 15.7933 92.6447 14.3786 91.8244 14.505C90.0782 14.7741 89.4062 15.1209 88.8226 16.0541C88.0779 17.2448 86.7826 17.9107 85.0856 17.9756C83.9245 18.0198 83.8633 18.0704 83.9391 18.923C84.0061 19.6784 83.8504 19.9271 82.9725 20.4653C81.9536 21.0905 81.933 21.1378 82.183 22.2707C82.3241 22.9108 82.5477 23.4478 82.6799 23.4642C82.8118 23.4806 82.8973 23.677 82.8695 23.9008C82.8376 24.1583 82.1049 24.3522 80.8724 24.4292Z" fill="#F14B64"/>
<path d="M33.31 32.9414H60.31L55.486 39.2054H40.798V42.3374H58.942L54.406 48.2054H40.798V57.0254H33.31V32.9414ZM94.2352 57.0254H66.2272L70.7272 50.8334H76.7752C78.2152 50.8334 79.9072 50.8334 81.0592 50.9054C80.4112 50.0414 79.4032 48.5654 78.6112 47.4134L74.2912 41.0414L62.9872 57.0254H54.1672L69.6112 35.2454C70.6192 33.8414 72.0952 32.5454 74.4352 32.5454C76.6672 32.5454 78.1432 33.7334 79.1872 35.2454L94.2352 57.0254ZM114.799 46.6934L127.363 57.0254H106.267C98.0954 57.0254 91.7234 52.8854 91.7234 44.9654C91.7234 36.3614 97.5914 32.5454 109.327 32.5454C121.027 32.5454 126.931 36.3614 126.931 44.9654C126.931 46.4774 126.571 47.8814 125.887 48.9974H117.895C119.047 48.1334 119.515 46.7654 119.515 44.9654C119.515 39.7814 116.815 38.8094 109.327 38.8094C101.839 38.8094 99.1394 39.7814 99.1394 44.9654C99.1394 49.4294 101.839 50.8334 106.267 50.8334H107.815C108.787 50.8334 109.867 50.8694 110.731 50.9414C110.011 50.4734 108.967 49.7174 108.139 49.0694L105.079 46.6934H114.799ZM139.19 42.5534H152.294C158.162 42.5534 161.33 44.7494 161.33 49.1414C161.33 54.0734 158.342 57.0254 150.998 57.0254H128.57L133.358 50.8334H151.574C153.338 50.8334 154.13 50.3294 154.13 49.0694C154.13 47.8454 153.338 47.3414 151.574 47.3414H138.47C132.278 47.3414 129.434 44.5694 129.434 40.4294C129.434 35.8934 132.458 32.9414 139.766 32.9414H160.682L155.894 39.2054H139.19C137.462 39.2054 136.634 39.6374 136.634 40.8614C136.634 42.0854 137.462 42.5534 139.19 42.5534Z" fill="black"/>
</svg>
