<svg width="921" height="246" viewBox="0 0 921 246" fill="none" xmlns="http://www.w3.org/2000/svg">
<path fill-rule="evenodd" clip-rule="evenodd" d="M153.105 150.254C155.66 149.146 161.163 147.404 165.334 146.383C170.136 145.207 172.883 143.936 172.824 142.919C172.773 142.035 172.295 141.337 171.763 141.368C171.231 141.399 169.964 139.484 168.948 137.113C167.15 132.917 167.197 132.719 170.763 129.578C173.835 126.874 174.27 125.803 173.464 122.934C172.553 119.695 172.758 119.456 177.301 118.457C183.942 116.997 188.567 113.502 190.646 108.373C192.276 104.353 194.675 102.535 201.362 100.25C204.504 99.1775 213.098 103.27 217.419 107.896C220.269 110.947 221.552 113.581 222.317 117.953C222.391 118.378 224.546 119.491 227.107 120.427C229.666 121.363 234.603 123.529 238.078 125.243C246.339 129.314 254.098 130.234 256.825 127.462C258.42 125.841 259.699 125.617 263.057 126.374C265.38 126.897 271.373 127.096 276.373 126.816C281.466 126.53 287.909 127.003 291.024 127.891C296.61 129.484 300.667 129.079 309.446 126.049C314.62 124.263 315.096 122.709 310.723 121.877C308.795 121.511 307.602 120.437 307.518 118.992C307.415 117.225 305.456 116.181 299.055 114.484C288.338 111.642 288.066 111.478 290.607 109.384C292.004 108.232 296.328 107.415 303.107 107.021C310.577 106.588 315.231 105.632 319.772 103.598C330.913 98.6074 338.081 98.1517 352.915 101.488C360.136 103.112 368.747 105.685 372.05 107.205C375.46 108.774 380.041 109.852 382.657 109.7C386.314 109.488 387.212 109.859 387.024 111.503C386.661 114.661 401.193 116.745 414.8 115.485C425.413 114.501 425.721 114.386 429.865 109.843C433.092 106.303 435.748 104.771 441.075 103.375C447.612 101.662 448.042 101.328 447.856 98.1147C447.688 95.2254 448.806 93.8581 454.925 89.4622C460.581 85.3993 464.088 83.8655 470.731 82.5485C480.126 80.6879 491.93 81.2671 498.901 83.932C501.164 84.7971 507.667 85.5804 513.352 85.6712C519.038 85.7619 526.236 86.0007 529.348 86.2005C534.476 86.5301 535.356 86.19 538.733 82.5642C542.796 78.2037 547.692 77.2357 557.307 78.892C564.862 80.1938 592.983 79.6776 590.684 78.2787C589.645 77.6476 587.456 77.1998 585.821 77.2837C582.323 77.4647 555.788 70.9817 551.256 68.8387C535.842 61.5482 521.192 58.6444 507.711 60.2061C501.726 60.8994 496.266 62.2936 493.554 63.8238C489.206 66.2763 488.991 66.2791 478.988 64.0585C473.404 62.8185 467.38 61.1812 465.601 60.4217C463.098 59.3518 459.668 59.4595 450.441 60.8973C420.8 65.5137 408.949 68.7572 394.958 76.0833C383.214 82.233 375.945 84.6118 367.882 84.9444C360.836 85.2339 351.359 83.4506 350.678 81.7052C350.133 80.3091 372.041 69.0163 375.771 68.7708C378.282 68.6046 381.923 66.4471 380.939 65.7071C380.61 65.4601 373.281 66.0879 364.652 67.101C356.023 68.114 340.267 69.8307 329.638 70.9147C314.151 72.4943 309.258 73.4341 305.004 75.6417C295.166 80.7514 286.696 83.8876 278.241 85.5503C260.345 89.0702 257.913 89.2671 255.264 87.4099C253.871 86.4348 250.75 84.4809 248.33 83.0709C244.696 80.9525 243.941 79.8504 244.006 76.7436C244.1 72.0834 238.852 67.733 231.22 66.1452C217.861 63.3659 187.859 69.4393 179.91 76.5329L177.022 79.1109L181.382 82.344C186.418 86.0786 186.21 86.2644 173.831 89.0221C168.954 90.1092 166.19 91.4687 164.562 93.5825C163.285 95.2384 158.615 100.079 154.185 104.338L146.129 112.084L132.815 112.97C121.95 113.694 117.653 114.563 109.448 117.692C103.92 119.802 97.5335 122.67 95.2561 124.066C92.9799 125.462 90.2194 126.656 89.1235 126.719C88.0276 126.783 83.7224 128.348 79.5577 130.197C75.393 132.047 64.9829 135.15 56.4241 137.094C36.6525 141.584 29.8781 143.917 18.9291 150.006C8.15324 156 8.82425 155.46 10.4077 156.87C11.3045 157.669 13.4801 157.325 17.2718 155.788C20.325 154.55 27.0086 152.808 32.1232 151.919C37.239 151.028 44.9332 149.532 49.2225 148.594C53.5609 147.645 69.1208 146.375 84.2917 145.731L111.562 144.573L124.886 148.803C139.237 153.36 145.229 153.668 153.105 150.254Z" fill="#0D0425"/>
<path fill-rule="evenodd" clip-rule="evenodd" d="M524.025 83.0202C526.731 81.6154 530.526 79.1273 532.46 77.4918C536.746 73.8659 553.338 65.8789 560.283 64.098C563.071 63.3833 566.613 62.2587 568.154 61.5983C570.828 60.4527 570.784 60.4066 567.206 60.6041C565.144 60.7174 560.474 61.6787 556.828 62.7404C553.182 63.8022 549.713 64.2514 549.12 63.7384C547.279 62.1461 540.169 65.1456 535.306 69.5657C532.752 71.8866 528.591 74.4804 526.06 75.3282C522.84 76.4078 520.897 77.9468 519.585 80.4588C517.993 83.5075 516.958 84.1579 512.711 84.7814C509.961 85.1845 506.649 85.0253 505.35 84.4262C502.296 83.0212 497.634 84.3804 483.11 90.9096C471.538 96.1132 470.994 96.2433 459.462 96.5742C438.247 97.1804 429.232 98.6955 409.503 104.968C394.157 109.846 390.876 111.227 390.232 113.071C389.531 115.079 388.41 115.435 378.671 116.741C372.738 117.536 365.987 118.519 363.667 118.924C358.469 119.833 350.12 120.152 352.047 119.369C354.89 118.215 352.715 116.849 348.089 116.885C345.472 116.906 340.969 115.771 338.081 114.365C331.136 110.985 325.522 110.637 319.659 113.224C313.542 115.925 305.809 121.979 305.279 124.485C305.053 125.549 303.146 126.961 301.038 127.622C298.859 128.306 295.759 130.651 293.851 133.056C290.012 137.899 284.872 139.924 279.059 138.887C276.851 138.493 273.238 138.828 271.029 139.631C264.667 141.943 264.551 141.916 260.739 137.093C258.746 134.572 256.396 132.735 255.516 133.012C254.636 133.288 253.033 132.647 251.951 131.588C250.36 130.028 248.802 130.034 243.757 131.617C236.1 134.02 234.114 135.512 234.963 138.219C235.968 141.422 228.425 153.158 225.685 152.656C222.765 152.121 205.944 152.679 196.234 153.633C190.766 154.169 186.572 155.332 181.907 157.605C178.28 159.373 170.837 162.693 165.366 164.983C159.896 167.274 155.234 169.877 155.006 170.769C154.559 172.53 141.2 175.674 140.716 174.133C140.572 173.673 137.371 173.925 133.603 174.695C129.835 175.465 126.399 175.605 125.967 175.007C125.536 174.41 123.924 174.316 122.386 174.799C120.566 175.37 119.38 175.013 118.993 173.781C118.476 172.134 117.404 172.31 110.833 175.123C98.1877 180.535 94.9919 182.371 95.4842 183.939C95.7424 184.762 94.3715 186.32 92.4389 187.401C90.5048 188.481 88.0848 190.354 87.058 191.562C86.0324 192.77 82.5228 195.259 79.2588 197.092C75.9963 198.926 69.8134 202.906 65.5205 205.937C61.2279 208.968 53.9974 213.272 49.4531 215.502C39.7388 220.269 11.7328 237.426 10.6053 239.301C9.26042 241.538 11.2164 241.483 14.3852 239.197C23.0543 232.939 42.0325 222.36 63.8808 211.604C95.6228 195.977 94.7202 196.345 136.228 182.097C162.794 172.976 172.414 169.248 174.199 167.384C180.082 161.235 210.373 154.898 222.69 157.239C228.21 158.289 229.559 157.497 234.34 150.409C239.097 143.351 240.762 141.927 247.954 138.75C253.955 136.101 254.284 136.098 256.644 138.709C263.622 146.426 263.508 146.365 269.544 145.685C274.02 145.18 275.546 144.593 275.889 143.244C276.232 141.896 277.014 141.595 279.128 141.996C283.884 142.898 293.046 139.353 295.596 135.627C296.843 133.804 300.473 130.997 303.663 129.389C306.851 127.782 311.758 125.051 314.567 123.32C320.076 119.923 327.655 118.183 333.479 118.978C338.605 119.676 338.371 120.581 332.338 123.408C320.184 129.102 318.715 129.992 319.548 131.153C320.029 131.822 323.425 131.572 327.265 130.584C331.036 129.613 335.434 129.234 337.035 129.742C339.001 130.365 343.036 129.696 349.445 127.684C356.344 125.519 359.567 125.028 361.223 125.894C362.71 126.671 365.771 126.374 370.018 125.04C373.6 123.916 379.018 122.853 382.057 122.678C385.096 122.503 388.383 121.689 389.362 120.868C392.582 118.169 397.81 116.62 403.863 116.571C410.371 116.518 418.203 113.884 418.229 111.74C418.239 110.996 416.283 110.092 413.883 109.729C409.574 109.079 409.651 109.032 420.074 105.955C428.467 103.475 431.181 103.127 433.328 104.247C435.19 105.22 437.684 105.102 441.38 103.866C447.306 101.882 457.407 100.141 472.32 98.5312C482.859 97.3933 514.785 87.816 524.025 83.0202Z" fill="#1D0C32"/>
<path fill-rule="evenodd" clip-rule="evenodd" d="M386.387 95.6752C383.346 95.4741 378.87 94.7181 376.443 93.996C371.063 92.3944 352.66 91.7363 345.583 92.8921C342.743 93.3559 339.048 93.7472 337.371 93.7606C334.462 93.7841 334.484 93.7244 337.84 92.4697C339.775 91.746 344.438 90.7524 348.204 90.262C351.97 89.7715 355.327 88.7913 355.664 88.0833C356.712 85.8861 364.427 85.7807 370.656 87.8778C373.927 88.9788 378.778 89.6852 381.437 89.4462C384.82 89.1427 387.217 89.7729 389.426 91.5474C392.108 93.7011 393.317 93.8815 397.457 92.7486C400.138 92.0142 403.108 90.5393 404.058 89.4693C406.291 86.9571 411.107 86.3313 427.03 86.4841C439.717 86.607 440.268 86.5079 450.964 82.1835C470.639 74.2261 479.504 71.9965 500.092 69.8256C516.106 68.1359 519.665 68.084 520.995 69.5153C522.443 71.0728 523.613 70.9487 533.058 68.2374C538.811 66.5855 545.389 64.7764 547.677 64.2167C552.803 62.9628 560.578 59.9054 558.499 59.9616C555.431 60.0452 556.876 57.9218 561.128 56.0982C563.532 55.067 567.202 52.2211 569.284 49.7743C574.288 43.8909 579.291 41.3204 585.699 41.337C592.386 41.3561 601.898 43.7988 603.39 45.8811C604.023 46.7661 606.337 47.2932 608.532 47.0534C610.803 46.8055 614.583 47.7094 617.296 49.1471C622.755 52.042 628.276 51.8346 633.185 48.552C635.049 47.3053 638.493 46.1629 640.839 46.0118C647.594 45.5769 647.689 45.5055 649.245 39.558C650.059 36.4492 651.474 33.8238 652.392 33.7236C653.309 33.6236 654.52 32.3931 655.085 30.9892C655.918 28.9217 657.347 28.3019 662.603 27.7281C670.581 26.8571 672.999 27.4264 673.307 30.2468C673.671 33.5833 685.29 41.3063 687.598 39.7475C690.058 38.0854 705.69 31.847 714.966 28.8246C720.19 27.1219 724.499 26.5039 729.683 26.7139C733.715 26.8777 741.865 26.9324 747.795 26.8352C753.724 26.7381 759.039 27.2523 759.605 27.9775C760.722 29.4113 774.22 26.931 774.045 25.3249C773.992 24.8462 777.025 23.7927 780.786 22.9856C784.546 22.1785 787.749 20.9283 787.905 20.2072C788.06 19.4874 789.499 18.7544 791.102 18.5794C792.997 18.3725 793.941 17.5703 793.801 16.2861C793.613 14.5703 794.666 14.3015 801.814 14.2411C815.568 14.1243 819.232 14.5235 819.41 16.1574C819.504 17.0147 821.385 17.8917 823.589 18.1062C825.794 18.3193 828.762 19.0641 830.187 19.759C831.612 20.454 835.825 21.3252 839.55 21.6945C843.274 22.0651 850.534 23.2296 855.683 24.2831C860.831 25.3377 869.181 26.3784 874.238 26.5974C885.049 27.0655 917.586 31.5432 919.371 32.8088C921.5 34.3176 919.687 35.0524 915.867 34.2298C905.415 31.9764 883.787 29.9012 859.459 28.8162C824.114 27.2392 825.088 27.2146 781.352 30.8183C753.357 33.1243 743.05 33.57 740.668 32.5782C732.811 29.3069 702.523 35.6568 692.181 42.7429C687.546 45.9199 685.992 45.7357 678.769 41.1616C671.579 36.6059 669.483 35.9697 661.621 35.9458C655.061 35.9275 654.759 36.0569 653.645 39.3949C650.35 49.2635 650.429 49.1621 644.627 50.9608C640.325 52.2944 638.692 52.369 637.837 51.2715C636.981 50.174 636.145 50.2117 634.369 51.428C630.375 54.1617 620.56 54.5914 616.729 52.2021C614.855 51.0327 610.405 49.9178 606.838 49.7252C603.272 49.5325 597.682 48.9995 594.414 48.5412C588.005 47.6401 580.365 49.088 575.349 52.1528C570.935 54.8494 571.511 55.5844 578.172 55.7528C591.59 56.0913 593.292 56.3166 592.995 57.7145C592.823 58.5203 589.612 59.6542 585.698 60.2901C581.855 60.9135 577.674 62.3314 576.411 63.4394C574.86 64.7984 570.896 65.8047 564.218 66.5338C557.03 67.3185 553.882 68.1626 552.712 69.6203C551.661 70.9283 548.739 71.8844 544.313 72.3675C540.581 72.775 535.192 73.9746 532.338 75.0342C529.485 76.0937 526.147 76.6668 524.92 76.3077C520.888 75.1276 515.478 75.8062 509.914 78.1902C503.932 80.7529 495.701 81.4831 494.817 79.5298C494.51 78.8519 495.938 77.2391 497.99 75.9437C501.677 73.6195 501.587 73.6072 490.806 74.971C482.123 76.0678 479.497 76.8377 477.981 78.725C476.665 80.3634 474.333 81.2561 470.452 81.6067C464.228 82.1678 454.277 84.6257 439.971 89.1356C429.861 92.3222 396.775 96.3604 386.387 95.6752Z" fill="#0D0425"/>
</svg>
