<svg width="84" height="83" viewBox="0 0 84 83" fill="none" xmlns="http://www.w3.org/2000/svg">
<path d="M46.6986 28.5275C38.8141 24.9673 27.9017 29.5708 24.2718 37.6021C20.6346 45.6605 25.3224 54.8784 33.18 58.4314C41.0645 61.9916 50.9976 59.5287 54.6348 51.4703C58.299 43.4192 54.5832 32.0878 46.6986 28.5275ZM35.9005 57.0112C29.2843 54.3409 23.6131 46.2087 26.6088 39.5708C29.6045 32.9329 38.8333 28.4384 45.5995 30.6567C51.0896 32.4463 55.8257 41.3103 53.5446 49.0661C51.4209 56.343 42.4625 59.667 35.9005 57.0112Z" fill="#ED6E23"/>
<path d="M39.1121 29.3973C39.1121 29.3973 30.8276 28.8918 26.3265 35.6133C26.3265 35.6133 29.1276 32.8296 29.8496 33.1259C30.5716 33.4221 29.7434 34.824 29.7434 34.824C29.7434 34.824 30.8791 31.9189 39.1121 29.3973Z" fill="#F59E4C"/>
<path d="M45.432 54.9969C45.432 54.9969 47.5487 53.0453 44.7383 48.9338C44.7383 48.9338 48.0339 52.8568 50.4979 51.6642C49.4341 53.5794 46.8245 56.1807 45.432 54.9969Z" fill="#ED6E23"/>
<path d="M41.4904 27.306C41.4904 27.306 47.5325 26.9273 50.9437 25.1199C54.3621 23.2854 66.6207 13.6576 66.6207 13.6576C66.6207 13.6576 52.4591 27.9 55.2495 30.3558C58.0399 32.8117 62.0964 29.3531 62.0964 29.3531C62.0964 29.3531 55.7746 35.5341 57.0852 37.5645C58.403 39.5679 61.3461 38.9668 61.3461 38.9668C61.3461 38.9668 56.6458 40.7183 56.056 44.7583C56.0487 44.7853 54.7067 31.0442 41.4904 27.306Z" fill="#ED6E23"/>
<path d="M54.3037 25.7875C55.1843 25.097 55.8446 24.5791 55.8446 24.5791C55.8446 24.5791 51.352 29.7736 52.3039 31.7368C53.2558 33.7001 56.0834 33.097 56.0834 33.097C56.0834 33.097 52.4515 37.5668 56.1255 39.9698C56.1255 39.9698 55.1464 40.0549 54.6806 44.3887C55.0525 42.0274 54.1553 37.589 50.991 33.9328C48.6462 31.22 43.9893 29.1326 43.9893 29.1326L44.5663 29.1424C48.0767 29.1276 51.5251 27.9381 54.3037 25.7875Z" fill="#F59E4C"/>
<path d="M23.4449 46.9637C23.4449 46.9637 24.9397 50.5779 22.2692 52.7575C22.2692 52.7575 24.9114 51.8731 25.327 54.648C25.7499 57.396 15.8537 68.2648 15.8537 68.2648C15.8537 68.2648 26.8833 56.1942 29.8977 58.2468C32.9048 60.3264 29.8639 65.1862 29.8639 65.1862C29.8639 65.1862 33.2039 58.6695 36.7458 59.6185L23.4449 46.9637Z" fill="#ED6E23"/>
<path d="M26.1934 46.9766C26.1934 46.9766 25.3828 50.002 24.5868 50.9179C24.5868 50.9179 29.7505 52.7358 26.0848 56.7911C26.0848 56.7911 28.243 54.7927 30.6524 56.0752C33.0689 57.3308 31.8169 59.9484 31.8169 59.9484C31.8169 59.9484 33.2582 57.3815 35.3096 57.7285C35.2898 57.6942 27.0153 54.7243 26.1934 46.9766Z" fill="#F59E4C"/>
<path d="M29.4592 49.3865C29.4592 49.3865 31.5635 51.0505 35.1187 47.5156C35.1187 47.5156 31.8281 51.4688 33.4757 53.6474C31.3957 52.9743 28.5778 50.9453 29.4592 49.3865Z" fill="#ED6E23"/>
<path d="M34.7143 28.3843C34.7143 28.3843 28.7931 26.7977 21.875 15.7373C21.875 15.7373 29.6392 28.1824 26.9638 33.5165L34.7143 28.3843Z" fill="#ED6E23"/>
<path d="M53.1069 53.724C53.1069 53.724 52.7214 58.9478 59.7193 67.6555C59.7193 67.6555 51.8498 57.8747 46.781 58.5142L53.1069 53.724Z" fill="#ED6E23"/>
<path d="M33.3738 26.6652C33.3738 26.6652 38.6758 23.4247 44.8974 25.7287C44.8974 25.7287 38.8012 22.416 33.3738 26.6652Z" fill="#FEDE67"/>
<path d="M47.8832 60.6623C47.8832 60.6623 42.4696 63.6703 36.3402 61.1304C36.3402 61.1304 42.2829 64.6915 47.8832 60.6623Z" fill="#FEDE67"/>
<path d="M25.7477 32.8442C25.7477 32.8442 23.0753 35.1391 22.9227 38.196C22.9227 38.196 21.4294 34.9007 18.897 34.0774C18.897 34.0774 22.089 35.2512 21.9989 33.3162C21.9431 31.3615 15.8242 25.3213 15.8242 25.3213C15.8242 25.3213 22.0783 31.3977 25.7477 32.8442Z" fill="#FEDE67"/>
<path d="M57.3585 47.2495C57.3585 47.2495 57.5101 50.7933 55.3697 52.9413C55.3697 52.9413 58.7839 51.7716 61.1319 53.0666C61.1319 53.0666 58.0954 51.5292 59.5624 50.272C61.0294 49.0149 69.6329 49.3514 69.6329 49.3514C69.6329 49.3514 60.9087 48.9246 57.3585 47.2495Z" fill="#FEDE67"/>
</svg>
