<svg width="375" height="312" viewBox="0 0 375 312" fill="none" xmlns="http://www.w3.org/2000/svg">
<path fill-rule="evenodd" clip-rule="evenodd" d="M255.079 180.057C252.3 179.875 246.609 178.911 242.432 177.914C237.624 176.766 234.599 176.642 234.187 177.574C233.828 178.384 233.935 179.223 234.422 179.438C234.91 179.654 235.162 181.935 234.983 184.509C234.665 189.064 234.534 189.218 229.926 190.383C225.958 191.384 225.081 192.139 224.488 195.06C223.819 198.357 223.528 198.476 219.03 197.289C212.456 195.554 206.744 196.55 202.552 200.163C199.266 202.995 196.301 203.516 189.309 202.494C186.024 202.013 180.248 194.447 178.517 188.357C177.376 184.341 177.438 181.412 178.755 177.174C178.883 176.762 177.475 174.787 175.624 172.785C173.775 170.783 170.373 166.6 168.065 163.489C162.576 156.094 156.094 151.731 152.401 152.951C150.242 153.664 149.003 153.279 146.361 151.072C144.533 149.546 139.293 146.631 134.718 144.596C130.056 142.523 124.541 139.159 122.176 136.947C117.934 132.978 114.14 131.485 104.947 130.17C99.5279 129.395 98.3946 130.56 101.905 133.299C103.453 134.505 104.024 136.005 103.438 137.329C102.722 138.947 103.988 140.771 108.907 145.204C117.142 152.629 117.309 152.899 114.092 153.601C112.323 153.987 108.104 152.738 101.893 149.992C95.0502 146.965 90.4734 145.69 85.5055 145.425C73.3146 144.775 66.7303 141.906 55.0585 132.161C49.3763 127.418 42.8923 121.196 40.6481 118.335C38.3311 115.382 34.7484 112.33 32.3523 111.27C29.0023 109.788 28.3733 109.048 29.2913 107.672C31.0563 105.028 19.0813 96.5352 6.40159 91.4407C-3.48878 87.4673 -3.81535 87.429 -9.57681 89.5782C-14.0644 91.2525 -17.1267 91.4019 -22.5033 90.2105C-29.101 88.7482 -29.6361 88.8484 -30.9384 91.7925C-32.1093 94.4392 -33.7279 95.145 -41.1793 96.2602C-48.0667 97.2906 -51.8875 97.0528 -58.3982 95.19C-67.6053 92.5534 -77.8416 86.6458 -82.8251 81.0908C-84.4427 79.2876 -89.8699 75.6201 -94.886 72.9422C-99.9021 70.2643 -106.196 66.7637 -108.874 65.1642C-113.285 62.5284 -114.223 62.4293 -118.883 64.1117C-124.49 66.1347 -129.287 64.7591 -137.083 58.8937C-143.209 54.2844 -168.46 41.8978 -167.055 44.1922C-166.419 45.2282 -164.676 46.6264 -163.183 47.2988C-159.988 48.736 -139.345 66.6245 -136.294 70.6007C-125.912 84.1277 -114.206 93.403 -101.5 98.1722C-95.8595 100.289 -90.3659 101.543 -87.2545 101.421C-82.2659 101.226 -82.0735 101.321 -74.1895 107.866C-69.7894 111.52 -65.1784 115.728 -63.9428 117.216C-62.205 119.312 -59.1047 120.782 -50.2397 123.719C-21.7634 133.152 -9.73907 135.681 6.05372 135.555C19.3097 135.449 26.8624 136.654 34.1869 140.041C40.587 143.002 48.2029 148.918 48.0112 150.782C47.8584 152.272 23.2112 152.31 19.7806 150.825C17.4716 149.826 13.2467 150.082 13.7845 151.19C13.9644 151.56 20.7707 154.349 28.9092 157.39C37.0476 160.43 51.848 166.101 61.7986 169.992C76.2971 175.661 81.079 177.061 85.8711 177.04C96.9569 176.988 105.924 178.068 114.205 180.451C131.732 185.495 133.986 186.431 135.494 189.293C136.288 190.797 138.171 193.96 139.681 196.321C141.946 199.865 142.113 201.19 140.637 203.924C138.424 208.027 141.105 214.294 147.169 219.193C157.783 227.768 187.246 236.07 197.557 233.391L201.304 232.417L198.903 227.55C196.128 221.927 196.398 221.857 208.67 225.058C213.505 226.319 216.585 226.373 218.999 225.236C220.892 224.346 227.256 222.173 233.144 220.409L243.848 217.198L256.097 222.492C266.092 226.811 270.312 228.001 279.04 228.966C284.922 229.614 291.913 229.98 294.576 229.778C297.239 229.577 300.24 229.776 301.244 230.22C302.248 230.664 306.792 231.238 311.342 231.496C315.892 231.752 326.57 233.748 335.071 235.929C354.71 240.966 361.802 241.985 374.324 241.571C386.647 241.161 385.804 241.334 385.04 239.357C384.607 238.237 382.514 237.549 378.439 237.184C375.158 236.89 368.416 235.387 363.46 233.842C358.503 232.297 350.975 230.113 346.731 228.988C342.438 227.85 328.016 221.872 314.227 215.515L289.439 204.088L279.519 194.239C268.834 183.629 263.645 180.618 255.079 180.057Z" fill="#0D0425"/>
<path fill-rule="evenodd" clip-rule="evenodd" d="M-105.59 70.423C-108.638 70.4367 -113.151 70.9161 -115.619 71.4876C-121.087 72.7554 -139.495 72.281 -146.488 70.6924C-149.294 70.0548 -152.958 69.437 -154.631 69.3206C-157.533 69.1183 -157.515 69.1792 -154.242 70.6379C-152.356 71.4791 -147.762 72.7576 -144.034 73.4786C-140.305 74.1996 -137.015 75.3844 -136.721 76.1117C-135.811 78.3692 -128.116 78.9487 -121.771 77.2385C-118.438 76.3407 -113.552 75.9339 -110.914 76.3359C-107.556 76.8468 -105.124 76.3651 -102.81 74.7298C-100.001 72.745 -98.7829 72.6394 -94.7208 74.0246C-92.0899 74.9224 -89.2163 76.5771 -88.3342 77.7035C-86.2597 80.3482 -81.4913 81.269 -65.589 82.0953C-52.9181 82.7526 -52.3747 82.8854 -41.9647 87.8592C-22.8157 97.0111 -14.1043 99.7815 6.31103 103.214C22.1902 105.885 25.74 106.156 27.1556 104.809C28.6962 103.343 29.8563 103.539 39.1165 106.826C44.7574 108.828 51.2119 111.038 53.4609 111.738C58.4998 113.304 66.0727 116.834 64.0009 116.65C60.9437 116.378 62.2551 118.586 66.3871 120.668C68.7238 121.845 72.2114 124.911 74.1387 127.481C78.7722 133.661 83.6074 136.534 90.0041 136.911C96.68 137.304 106.324 135.45 107.941 133.464C108.628 132.619 110.969 132.235 113.146 132.61C115.397 132.997 119.226 132.327 122.022 131.059C127.649 128.505 133.146 129.051 137.844 132.63C139.628 133.988 142.995 135.34 145.327 135.636C152.043 136.485 152.133 136.562 153.321 142.594C153.942 145.747 155.194 148.454 156.103 148.611C157.012 148.767 158.145 150.069 158.623 151.505C159.327 153.62 160.716 154.327 165.927 155.223C173.836 156.582 176.284 156.163 176.765 153.367C177.334 150.059 189.405 143.065 191.613 144.763C193.966 146.573 209.185 153.76 218.258 157.347C223.368 159.368 227.63 160.25 232.817 160.359C236.852 160.443 244.989 160.89 250.902 161.351C256.814 161.813 262.151 161.626 262.761 160.937C263.963 159.575 277.283 162.88 277.009 164.472C276.928 164.947 279.89 166.185 283.594 167.222C287.297 168.258 290.418 169.703 290.529 170.432C290.64 171.16 292.031 171.981 293.62 172.254C295.499 172.577 296.391 173.435 296.172 174.709C295.88 176.41 296.914 176.743 304.045 177.242C317.766 178.205 321.447 178.031 321.726 176.411C321.872 175.562 323.803 174.802 326.016 174.723C328.23 174.646 331.238 174.085 332.704 173.479C334.168 172.873 338.427 172.263 342.168 172.123C345.908 171.982 353.226 171.266 358.429 170.531C363.633 169.795 372.031 169.27 377.092 169.362C387.911 169.559 420.661 167.09 422.521 165.937C424.739 164.562 422.974 163.717 419.111 164.303C408.54 165.91 386.825 166.651 362.477 166.239C327.101 165.64 328.073 165.724 284.64 159.439C256.841 155.416 246.581 154.337 244.142 155.181C236.099 157.963 206.258 149.763 196.371 142.055C191.94 138.599 190.378 138.687 182.888 142.808C175.431 146.913 173.3 147.42 165.452 146.96C158.903 146.575 158.609 146.427 157.702 143.027C155.021 132.975 155.093 133.081 149.413 130.929C145.201 129.333 143.576 129.158 142.654 130.201C141.733 131.244 140.9 131.155 139.203 129.832C135.384 126.858 125.615 125.825 121.644 127.975C119.702 129.027 115.191 129.866 111.619 129.839C108.048 129.812 102.435 130 99.1458 130.257C92.6933 130.762 85.1567 128.847 80.3388 125.48C76.0986 122.517 76.7196 121.819 83.3784 122.06C96.7912 122.547 98.5042 122.427 98.2931 121.014C98.171 120.199 95.0359 118.87 91.1691 117.994C87.3709 117.136 83.2855 115.463 82.0933 114.28C80.6284 112.828 76.7335 111.58 70.1132 110.442C62.9872 109.217 59.8964 108.181 58.8186 106.654C57.8505 105.284 54.9919 104.15 50.6047 103.395C46.9048 102.759 41.5997 101.231 38.816 99.9976C36.0335 98.7647 32.737 97.9875 31.4908 98.2705C27.3936 99.2005 22.035 98.1906 16.6284 95.469C10.8151 92.5434 2.64469 91.3085 1.64191 93.2038C1.29376 93.8615 2.62035 95.5591 4.58928 96.9782C8.12562 99.5247 8.03585 99.5314 -2.64137 97.5074C-11.2401 95.8789 -13.8138 94.949 -15.2117 92.972C-16.4244 91.2558 -18.697 90.2214 -22.549 89.633C-28.7266 88.6903 -38.5074 85.6253 -52.509 80.2445C-62.4042 76.4423 -95.1793 70.3777 -105.59 70.423Z" fill="#1D0C32"/>
</svg>
