<svg width="90" height="91" viewBox="0 0 90 91" fill="none" xmlns="http://www.w3.org/2000/svg">
<path d="M39.7602 30.9818C39.7602 30.9818 29.4921 33.0057 27.9043 40.0737C27.9043 40.0737 31.2564 33.4416 44.4531 34.5936C57.6499 35.7457 59.273 45.5849 59.273 45.5849C59.273 45.5849 56.9795 36.7732 60.9667 38.2678C60.9667 38.2989 51.3338 28.8956 39.7602 30.9818Z" fill="white"/>
<path d="M41.2773 32.5074C41.2773 32.5074 50.0987 30.7015 57.2263 36.7109C57.2263 36.7109 55.7444 37.2714 56.9088 39.015C56.9441 39.015 53.3449 32.2583 41.2773 32.5074Z" fill="#AEAEAE"/>
<path d="M50.3814 66.1679C39.1253 69.5618 28.1869 63.4279 24.5878 56.7958C21.0239 50.2259 23.5998 43.9674 23.6703 43.8428C23.6351 43.9674 22.6118 48.5756 25.8228 47.9218C27.9752 47.4858 27.4582 46.1158 28.0581 43.8428C24.8471 61.0926 39.7605 62.0579 42.8656 62.5249C41.2072 62.3381 36.9729 62.0579 38.4902 63.6458C40.3956 65.5763 50.3814 66.1679 50.3814 66.1679Z" fill="white"/>
<path d="M27.9041 49.1035C27.9041 49.1347 27.9041 49.6951 27.8335 50.3801C27.8335 49.9753 27.8335 49.5394 27.9041 49.1035Z" fill="#AEAEAE"/>
<path d="M31.3167 61.4098C26.6032 59.8122 24.7914 53.153 24.7914 53.153L24.7393 52.9375C24.7393 52.9375 25.3927 54.8073 26.2418 54.9061C26.8015 54.9735 26.6483 53.5911 26.4869 52.5909C27.2853 55.6423 29.5849 58.0772 31.323 59.3551C30.9402 59.2703 30.5938 59.2527 30.4003 59.4515C29.6754 60.0324 31.2671 61.3711 31.3167 61.4098Z" fill="#AEAEAE"/>
<path d="M29.9155 62.4609C29.9155 62.4609 32.2091 64.4537 30.6565 67.5985C30.6565 67.5985 31.9621 65.0453 36.0552 65.668L29.9155 62.4609Z" fill="white"/>
<path d="M59.273 48.7295C59.273 48.7295 60.2257 60.2501 49.252 61.7447C49.252 61.7447 55.1446 61.1219 56.062 62.274C56.9442 63.4261 53.7685 65.0763 53.7685 65.0763C53.7685 65.0763 62.1311 62.5854 59.273 48.7295Z" fill="white"/>
<path d="M60.9668 40.5098C62.3076 44.2773 64.5659 52.8088 60.9668 57.1991C60.9668 57.1991 65.0246 53.8052 64.0013 48.2006C63.2603 43.966 60.9668 40.5098 60.9668 40.5098Z" fill="white"/>
<path d="M45.1592 30.7949C45.1592 30.7949 49.5699 30.2344 53.9805 24.0693C53.9805 24.0693 50.8401 29.1135 51.8634 32.5074L45.1592 30.7949Z" fill="white"/>
<path d="M59.9436 14.7598C59.8025 14.9466 57.7207 17.9046 55.4624 22.0769C56.9797 19.8973 58.4969 17.4687 59.9436 14.7598Z" fill="white"/>
<path d="M73.4228 67.5993C73.2111 67.4436 70.2118 65.2329 65.8364 62.6797C68.0594 64.3299 70.6 65.9802 73.4228 67.5993Z" fill="white"/>
<path d="M25.8931 76.5977C26.0342 76.3798 27.9043 73.3595 29.9156 69.0938C28.5395 71.3356 27.1633 73.8265 25.8931 76.5977Z" fill="white"/>
<path d="M24.4817 38.5172C23.7407 34.8119 19.7887 30.6707 17.354 28.46C21.6941 31.5425 28.6806 33.255 28.6806 33.255C23.8112 33.1928 24.4817 38.3303 24.4817 38.5172Z" fill="white"/>
<path d="M20.8473 47.4215C19.9299 46.2695 18.8713 45.6156 18.8713 45.6156C19.6123 44.9306 20.1416 43.9654 19.0477 42.3151C18.2362 41.1008 15.4839 39.4817 14.1431 38.7344C17.2482 40.2289 23.035 41.3499 23.035 41.3499C19.5417 44.4947 20.812 47.3281 20.8473 47.4215Z" fill="#CDCDCD"/>
<path d="M65.6243 48.0766C65.6243 48.0766 72.6108 48.7305 75.8571 47.9209C75.8571 47.9209 70.6348 48.855 69.047 50.1005C67.4239 51.3459 67.6003 52.4046 68.059 53.2764C68.059 53.2764 66.7887 53.6189 65.5185 54.4596C65.4832 54.4285 67.812 52.0621 65.6243 48.0766Z" fill="#CDCDCD"/>
<path d="M43.3243 28.1485C43.3243 28.1485 38.0315 27.5569 35.5615 29.4251C35.5615 29.4251 38.4196 28.1797 43.3243 28.1485Z" fill="#CDCDCD"/>
<path d="M46.4648 68.7197C46.4648 68.7197 51.6871 69.6227 54.2982 67.9102C54.3335 67.9102 51.3342 68.9688 46.4648 68.7197Z" fill="#CDCDCD"/>
<path d="M20.1771 53.1836C20.1771 53.1836 21.3768 59.0996 25.2935 61.1546C25.2935 61.1235 19.4361 59.2553 20.1771 53.1836Z" fill="#CDCDCD"/>
</svg>
