<svg width="91" height="91" viewBox="0 0 91 91" fill="none" xmlns="http://www.w3.org/2000/svg">
<path d="M78.0845 21.4743C46.9046 44.9454 48.3415 46.5576 75.2587 84.0165C46.5694 47.8852 45.6115 45.9412 13.9526 68.7959C45.1325 45.3248 44.3662 42.9065 18.3111 8.24512C45.2762 44.1393 46.4257 44.329 78.0845 21.4743Z" fill="#4B89C8"/>
<path d="M56.5797 59.2648C51.4549 54.3809 47.1443 52.0575 42.2111 52.0575C39.6248 52.0575 36.9426 52.7213 34.021 53.9542C37.4216 50.066 39.05 46.5098 39.2895 42.7639C39.4332 39.9663 38.8105 37.0739 37.4695 33.8496C41.5406 37.3584 45.1806 38.8757 49.108 38.8757C51.7902 38.8757 54.5202 38.1645 57.5855 36.7894C54.8076 40.2508 53.2749 43.57 53.1312 47.2685C53.0355 50.8721 54.1849 54.6654 56.5797 59.2648Z" fill="#70CAEE"/>
<path d="M51.1206 52.0085C48.1511 50.3963 45.2774 49.6377 42.2121 49.6377C41.4457 49.6377 40.6794 49.6851 39.9131 49.7799C41.0147 47.5039 41.6373 45.2754 41.781 42.952C41.8289 41.8614 41.8289 40.7708 41.6852 39.6328C44.1279 40.8182 46.5705 41.3398 49.1569 41.3398C50.1148 41.3398 51.0727 41.245 52.0785 41.1027C51.2164 43.0942 50.7853 45.0857 50.7374 47.2194C50.6417 48.7842 50.7853 50.3489 51.1206 52.0085Z" fill="#DCEFF5"/>
<path d="M58.8315 40.7798C59.1667 41.6333 59.4062 42.4868 59.5978 43.3878C59.7415 44.2887 59.7894 45.1896 59.7894 46.0905C59.7415 47.8923 59.2625 49.6941 58.5441 51.3063C58.1609 52.1124 57.7299 52.871 57.203 53.5823C56.6762 54.2935 56.1014 54.9574 55.4788 55.5738C54.1856 56.8066 52.7008 57.7549 51.0724 58.4188C49.444 59.0826 47.6718 59.4619 45.8997 59.4619C44.1276 59.4619 42.3554 59.13 40.727 58.5136C39.0986 57.8498 37.518 56.9014 36.2727 55.6686C34.9796 54.4358 33.9259 52.9659 33.1595 51.3537C32.4411 49.7416 32.01 47.9397 31.9621 46.1379C31.9143 44.3361 32.2016 42.4868 32.8722 40.8273C33.5427 39.1203 34.5485 37.5555 35.8417 36.2279C37.1348 34.9002 38.7154 33.8571 40.3917 33.0984C41.2538 32.7191 42.1639 32.482 43.0739 32.2923C43.9839 32.1026 44.9418 32.0078 45.8518 32.0078C46.8097 32.0078 47.7197 32.1026 48.6297 32.2923C49.5398 32.482 50.4498 32.7665 51.3119 33.0984C53.0361 33.8096 54.6167 34.9002 55.9098 36.1805C57.1072 37.5081 58.1609 39.0729 58.8315 40.7798ZM57.682 41.254C56.3409 38.1719 53.7545 35.7537 50.6413 34.5209C49.1087 33.9045 47.4324 33.5726 45.8039 33.5726C44.1276 33.5726 42.4991 33.9045 40.9665 34.5209C37.8533 35.7537 35.3148 38.2194 33.9259 41.254C33.2553 42.7713 32.8722 44.4309 32.8243 46.1379C32.7764 47.8449 33.0637 49.5045 33.6864 51.1166C34.309 52.7288 35.219 54.1987 36.4643 55.4315C37.6617 56.6643 39.1465 57.6601 40.727 58.3713C42.3554 59.0826 44.0797 59.4145 45.8518 59.4145C46.7139 59.4145 47.6239 59.3197 48.4861 59.1774C49.3482 58.9878 50.2103 58.7507 51.0245 58.4188C52.653 57.7549 54.1377 56.7592 55.3351 55.4789C55.9577 54.8625 56.4846 54.1513 56.9156 53.44C57.3946 52.6814 57.7299 51.9227 58.0651 51.1166C58.6399 49.5045 58.9272 47.7975 58.8315 46.0905C58.7357 44.4309 58.3525 42.7713 57.682 41.254Z" fill="#DCEFF5"/>
</svg>
