<svg width="90" height="91" viewBox="0 0 90 91" fill="none" xmlns="http://www.w3.org/2000/svg">
<path d="M46.7738 65.0656C45.5144 65.179 44.3122 65.1223 43.0527 64.9523C41.8505 64.7822 40.6483 64.4989 39.4462 64.1021C37.099 63.3087 34.9809 62.0052 33.2062 60.4183C32.2902 59.6248 31.4888 58.718 30.8018 57.8112C30.0576 56.8478 29.4279 55.8276 28.9127 54.8075C27.825 52.7105 27.1952 50.3868 26.9662 48.0632C26.7373 45.7395 26.9662 43.3591 27.6532 41.0921C28.3402 38.8252 29.4851 36.7282 30.9736 34.8579C32.462 32.9876 34.2939 31.4574 36.412 30.2673C38.5302 29.0771 40.8773 28.3403 43.2817 28.0569C45.6861 27.7736 48.205 27.9436 50.5521 28.6237C52.8993 29.3038 55.1892 30.3806 57.1356 31.9108C59.082 33.441 60.7422 35.368 61.9443 37.5216C63.1465 39.6753 63.8908 42.1123 64.177 44.606C64.2915 45.8528 64.2915 47.0997 64.177 48.3465C64.0625 49.5934 63.8335 50.8402 63.4328 52.0304C63.0893 53.2206 62.5741 54.3541 61.9443 55.4876C61.3146 56.5644 60.6277 57.5845 59.8262 58.548C58.2233 60.4183 56.2196 62.0052 53.987 63.1387C51.6971 64.2155 49.2354 64.8956 46.7738 65.0656ZM46.6021 63.3654C51.1246 62.8553 55.3037 60.5883 58.1088 57.1311C59.54 55.4309 60.5704 53.4473 61.2574 51.3503C61.9444 49.2533 62.1733 47.043 62.0016 44.8327C61.6581 40.4121 59.4827 36.1614 56.0479 33.271C54.3305 31.7975 52.3268 30.664 50.1514 29.9272C47.976 29.1904 45.6861 28.9071 43.339 29.0204C41.0491 29.1904 38.7592 29.7572 36.641 30.7773C34.5801 31.7975 32.6337 33.271 31.1453 35.0279C29.5996 36.7849 28.4547 38.8818 27.7105 41.0921C27.367 42.2256 27.0807 43.3591 26.9662 44.5493C26.8517 45.7395 26.8517 46.873 26.9662 48.0632C27.1952 50.3868 27.8822 52.7105 29.0844 54.6941C29.6569 55.7143 30.3438 56.6777 31.1453 57.5278C31.9468 58.378 32.8055 59.1714 33.7214 59.9082C35.5533 61.3251 37.6715 62.2885 39.9041 62.8553C42.0795 63.4787 44.3694 63.5921 46.6021 63.3654Z" fill="#9CFFFF"/>
<path d="M38.6446 29.7548C38.4156 30.0381 42.9381 26.8077 48.2049 28.9613C47.5751 28.9046 43.2816 25.0507 42.5946 18.6465C42.5946 18.6465 42.7091 26.3543 38.6446 29.7548Z" fill="#9CFFFF"/>
<path d="M42.3091 64.5538C42.3091 64.5538 47.2324 66.7641 51.2397 62.7402C50.6672 62.9669 47.5758 68.1244 48.6635 74.7553C48.6063 74.7553 47.1179 66.8208 42.3091 64.5538Z" fill="#9CFFFF"/>
<path d="M37.614 34.8538L33.3205 26.0126L25.6493 22.6687C24.6189 20.005 20.5543 15.6977 16.9478 11.6738L27.5385 21.4219C29.8856 23.5189 33.2632 24.369 37.614 24.0289C36.2973 26.1259 36.4691 29.9231 37.614 34.8538Z" fill="#4B89C8"/>
<path d="M37.6141 43.6396L31.7749 49.1938C31.7749 49.1938 35.7822 47.7202 37.6141 49.1938C39.446 50.6673 40.0758 56.2781 40.0758 56.2781V43.6396L37.6141 47.2102V43.6396Z" fill="#4B89C8"/>
<path d="M31.7748 54.5156L22.2145 61.77L29.4849 59.503L16.9478 80.246C22.3862 71.6881 27.5958 62.6201 35.8966 59.503C35.8966 59.503 31.4313 61.0332 31.7176 58.8796C32.061 56.7826 31.7748 54.5156 31.7748 54.5156Z" fill="#4B89C8"/>
<path d="M59.0246 38.2566C60.3985 38.37 55.647 47.2113 55.647 47.2113C60.9137 37.8032 66.6385 29.6987 73.3364 24.0312C67.0392 27.7718 57.0782 39.1634 52.4984 39.1068C48.7773 39.0501 49.3498 32.0791 49.3498 32.0791L46.2012 47.2113C46.2012 47.2113 51.0099 41.4304 57.2499 39.1068" fill="#4B89C8"/>
<path d="M46.259 52.8193C46.259 52.8193 46.1445 57.6934 44.0264 59.2236C44.0264 59.2236 47.2322 57.5234 49.4649 58.4301C51.6975 59.3369 61.1433 68.6883 61.1433 68.6883C61.1433 68.6883 51.6403 60.017 51.5258 57.41C51.4685 55.7664 55.9338 58.3735 55.9338 58.3735C55.9338 58.3735 49.9228 54.2362 49.5221 53.9528C49.1214 53.6695 51.0678 57.1833 49.5221 56.7866C47.8619 56.3332 46.259 52.8193 46.259 52.8193Z" fill="#4B89C8"/>
<path d="M35.953 29.4643C35.953 29.4643 34.9798 26.1772 34.6936 25.6671C34.4073 25.1571 28.4536 23.5702 26.5645 22.21C26.5645 22.21 32.2319 24.7037 34.1211 24.817C36.0103 24.9304 36.5255 24.647 36.5255 24.647C36.5255 24.647 35.495 26.7439 35.953 29.4643Z" fill="#9CFFFF"/>
<path d="M48.9489 37.4606C48.9489 37.4606 48.7772 41.9946 47.6895 44.0916C47.6895 44.0916 55.7041 38.4241 58.2802 37.744C60.8563 37.0072 59.7114 39.2742 59.7114 39.2742C59.7114 39.2742 63.7187 32.6433 64.9781 31.5098C64.9781 31.5098 61.3716 35.9304 59.7114 36.5538C57.994 37.1772 51.6395 40.5777 49.9793 41.4845L48.9489 37.4606Z" fill="#9CFFFF"/>
<path d="M36.526 45.8486L34.8086 47.6056C34.8086 47.6056 38.3579 47.3789 39.3884 51.0627V46.132C39.3884 46.132 39.1021 48.229 38.3579 48.059C37.671 47.9456 36.297 47.2655 36.526 45.8486Z" fill="#9CFFFF"/>
<path d="M26.5645 59.3339L30.8008 56.2734C30.8008 56.2734 29.8848 58.8238 31.316 59.9573L26.5645 65.6815L30.3428 59.7306C30.3428 59.7306 29.4841 58.9938 29.8275 57.8603L26.5645 59.3339Z" fill="#9CFFFF"/>
<path d="M46.8309 54.915C46.8309 54.915 47.1171 56.6153 46.2012 57.4087C46.2012 57.4087 49.407 57.1254 50.781 58.4289C50.781 58.4289 50.781 56.2752 51.8114 56.2752C51.8114 56.2752 50.4947 55.7652 50.3802 57.2954C50.3802 57.2954 48.6628 57.5221 47.9758 56.672C47.2889 55.8218 46.8309 54.915 46.8309 54.915Z" fill="#70CAEE"/>
</svg>
