<svg width="442" height="83" viewBox="0 0 442 83" fill="none" xmlns="http://www.w3.org/2000/svg">
<rect width="404.635" height="49.0537" rx="13.2968" transform="matrix(0.999962 -0.00870814 0.0158551 0.999874 23.1265 20.9072)" fill="#F14B64"/>
<path d="M145.089 56.8809C146.519 56.7114 148.416 56.3876 149.306 56.1612C152.047 55.464 154.05 55.6707 158.736 57.1353L163.086 58.4947L172.273 58.7862C177.384 58.9486 182.643 58.9603 184.127 58.8126C185.593 58.6668 188.219 58.4524 189.962 58.3362C191.704 58.2203 193.998 57.9216 195.058 57.6731C196.375 57.3645 197.115 57.324 197.393 57.5459C197.884 57.9377 198.125 57.8152 194.335 59.1048C190.485 60.4149 188.144 60.8615 181.379 61.5764C178.45 61.8858 174.866 62.4497 173.415 62.8298C171.964 63.2095 170.474 63.5143 170.104 63.5069C169.735 63.4995 168.774 63.7433 167.97 64.0485C167.165 64.3538 164.939 64.9445 163.023 65.3613C160.179 65.9793 158.711 66.1075 155.044 66.0578L150.549 65.9969L147.623 67.7896C146.013 68.7752 144.306 69.9033 143.83 70.2961C143.223 70.7975 142.256 71.0831 140.587 71.2543C136.353 71.6883 136.278 71.731 137.861 72.7868L139.231 73.7008L138.188 74.293C135.316 75.9224 125.071 76.8195 120.667 75.8274C118.151 75.2606 116.514 74.044 116.68 72.8634C116.791 72.0764 116.569 71.7806 115.41 71.165C114.639 70.7552 113.647 70.1924 113.208 69.9151C112.372 69.3869 111.55 69.3847 105.442 69.8937C102.556 70.1341 99.6228 70.748 96.1736 71.8335C94.6824 72.3023 93.013 72.4358 87.7692 72.5041C84.1703 72.551 78.8322 72.6483 75.9068 72.7202C72.9814 72.792 70.5034 72.7939 70.4 72.7242C70.0908 72.5153 71.3752 72.046 72.2225 72.0577C73.4817 72.0755 81.1601 69.6802 81.0173 69.3142C80.839 68.8567 77.7092 68.2007 75.3358 68.1229C72.6199 68.0342 70.1116 68.4818 65.9929 69.7902C61.0859 71.3488 57.0146 71.9175 46.9327 72.4525C43.7941 72.6193 42.6398 72.573 41.8304 72.2478C41.2551 72.0168 39.2802 71.472 37.4418 71.0375C34.148 70.2592 34.0758 70.2553 32.5457 70.7843C31.5914 71.1144 29.7188 71.351 27.6899 71.3984C23.12 71.5053 18.2861 70.4539 13.3218 68.2729C11.8625 67.6318 3.14235 65.417 1.96287 65.3878C1.41152 65.374 0.689759 65.2134 0.359173 65.031C-0.372099 64.6266 9.08161 65.0994 11.5801 65.5919C14.7596 66.2186 16.4309 66.0781 17.92 65.0588C19.158 64.2113 19.463 64.1438 21.1748 64.3376C22.2137 64.4551 24.623 64.6702 26.5287 64.8153C28.4345 64.9604 30.5948 65.2988 31.3294 65.5669C33.5925 66.3928 37.5381 66.7932 40.745 66.5228C43.0126 66.3312 44.234 66.0173 46.2493 65.1077C48.4296 64.1236 48.8441 63.8006 48.8709 63.0639C48.9008 62.2443 49.0548 62.1689 51.2983 61.8745C53.1265 61.6346 54.062 61.3029 55.2471 60.4741C56.7685 59.41 56.8752 59.3874 60.4659 59.3657C65.0693 59.338 69.8871 60.1789 69.6746 60.9725C69.5643 61.3857 69.8549 61.499 71.0885 61.5237C71.9708 61.5414 73.4775 61.9133 74.5771 62.3847C75.6421 62.8411 78.4582 63.679 80.8354 64.2461C85.7187 65.4112 88.1377 65.4495 92.0209 64.4222C93.6034 64.0037 95.193 63.8609 97.7129 63.9114C99.9996 63.9569 101.475 63.8424 101.977 63.5803C102.89 63.1035 102.803 63.056 99.2876 62.1046C97.188 61.5366 96.5603 61.2295 96.5767 60.779C96.5902 60.4106 96.2205 60.1124 95.584 59.9782C94.1399 59.673 94.3444 59.289 96.1326 58.9469C99.1664 58.3665 100.54 58.3507 102.369 58.875C103.389 59.167 105.538 59.4254 107.256 59.4623C108.942 59.4986 110.948 59.6778 111.713 59.8603C112.818 60.1244 113.254 60.0951 113.836 59.718C114.831 59.0733 117.409 59.4732 120.064 60.6836C121.181 61.193 122.776 61.8489 123.609 62.1412C124.441 62.4338 125.132 62.7625 125.145 62.8719C125.276 63.9978 125.631 64.6937 126.5 65.5291C127.817 66.7958 130.584 68.0187 131.67 67.814C133.98 67.3779 134.837 66.968 135.5 65.9828C136.345 64.726 137.999 63.9383 140.269 63.7103C141.823 63.5545 141.899 63.4982 141.686 62.6568C141.498 61.9114 141.675 61.6489 142.784 61.0287C144.071 60.3082 144.093 60.2592 143.61 59.1556C143.337 58.5321 142.967 58.0191 142.787 58.0155C142.608 58.0119 142.467 57.8246 142.476 57.5992C142.485 57.3398 143.444 57.0763 145.089 56.8809Z" fill="#F14B64"/>
<path d="M321.849 68.4809C320.778 68.5475 319.348 68.7345 318.67 68.8962C316.58 69.3945 315.123 69.0458 311.808 67.2535L308.73 65.5898L301.981 64.6438C298.227 64.1174 294.349 63.7303 293.24 63.7714C292.144 63.8118 290.187 63.8378 288.89 63.8291C287.594 63.82 285.873 63.9535 285.067 64.1252C284.066 64.3384 283.516 64.3258 283.333 64.0851C283.008 63.6601 282.819 63.7649 285.738 62.7517C288.704 61.7226 290.474 61.4452 295.534 61.2166C297.724 61.1177 300.421 60.8123 301.528 60.5376C302.635 60.2632 303.764 60.0661 304.036 60.0999C304.308 60.1337 305.04 59.9597 305.662 59.7132C306.285 59.4668 307.984 59.0377 309.438 58.7597C311.595 58.3476 312.69 58.3248 315.39 58.636L318.7 59.0176L321.031 57.4421C322.314 56.576 323.681 55.575 324.07 55.218C324.566 54.7623 325.307 54.547 326.554 54.4958C329.72 54.366 329.779 54.3289 328.713 53.165L327.79 52.1574L328.617 51.6425C330.893 50.2257 338.536 50.0641 341.689 51.366C343.49 52.1098 344.58 53.4376 344.344 54.6008C344.186 55.3762 344.321 55.6865 345.117 56.3819C345.647 56.8449 346.324 57.4759 346.621 57.7833C347.187 58.3687 347.793 58.4296 352.347 58.359C354.499 58.3257 356.722 57.924 359.371 57.0899C360.516 56.7296 361.76 56.716 365.635 57.0223C368.294 57.2326 372.241 57.5167 374.405 57.6541C376.57 57.7915 378.398 57.9664 378.468 58.0432C378.676 58.2732 377.683 58.6487 377.059 58.5765C376.132 58.4689 370.238 60.3049 370.308 60.6794C370.395 61.1475 372.641 62.0239 374.384 62.2708C376.379 62.5529 378.272 62.2865 381.436 61.2782C385.206 60.0771 388.263 59.8017 395.752 59.9889C398.083 60.047 398.93 60.1754 399.495 60.5569C399.898 60.8279 401.302 61.5111 402.616 62.0749C404.971 63.0846 405.023 63.0937 406.203 62.6764C406.939 62.416 408.343 62.3142 409.844 62.4118C413.225 62.6317 416.689 64.0232 420.141 66.5485C421.156 67.2907 427.375 70.1177 428.242 70.231C428.647 70.2841 429.164 70.4955 429.39 70.7007C429.891 71.1554 422.963 70.01 421.168 69.3413C418.883 68.4906 417.636 68.5111 416.44 69.4193C415.445 70.1746 415.213 70.2199 413.969 69.9049C413.214 69.7137 411.458 69.3276 410.066 69.0472C408.675 68.7667 407.114 68.2757 406.598 67.9564C405.008 66.9727 402.136 66.2925 399.745 66.3328C398.053 66.3616 397.122 66.5869 395.548 67.3483C393.845 68.1722 393.508 68.4641 393.417 69.1955C393.316 70.0091 393.196 70.0732 391.512 70.206C390.141 70.3143 389.419 70.5777 388.465 71.3181C387.24 72.2686 387.159 72.2835 384.509 72.0488C381.11 71.7477 377.638 70.5667 377.871 69.792C377.992 69.3887 377.788 69.2551 376.881 69.1424C376.232 69.0619 375.156 68.5841 374.391 68.0364C373.649 67.5061 371.652 66.471 369.954 65.7369C366.464 64.2286 364.683 64.0178 361.72 64.7631C360.512 65.0667 359.326 65.0953 357.472 64.8652C355.79 64.6567 354.691 64.6653 354.295 64.8904C353.576 65.2998 353.635 65.3532 356.137 66.5512C357.631 67.2664 358.064 67.6169 358.008 68.0641C357.963 68.4299 358.207 68.753 358.664 68.9321C359.699 69.3389 359.512 69.7066 358.16 69.9194C355.866 70.2806 354.851 70.1982 353.553 69.5458C352.828 69.1823 351.268 68.7717 350.005 68.6123C348.764 68.4559 347.302 68.1343 346.756 67.8981C345.966 67.5563 345.641 67.5543 345.176 67.8881C344.38 68.4588 342.517 67.8768 340.674 66.4823C339.899 65.8956 338.786 65.1289 338.2 64.7786C337.614 64.4278 337.136 64.0513 337.137 63.9416C337.149 62.8115 336.955 62.0935 336.394 61.2C335.544 59.8451 333.621 58.4304 332.801 58.5567C331.055 58.8258 330.383 59.1726 329.799 60.1059C329.055 61.2965 327.759 61.9625 326.062 62.0273C324.901 62.0715 324.84 62.1221 324.916 62.9748C324.983 63.7301 324.827 63.9788 323.949 64.517C322.93 65.1422 322.91 65.1895 323.16 66.3224C323.301 66.9625 323.524 67.4995 323.656 67.5159C323.788 67.5323 323.874 67.7287 323.846 67.9525C323.814 68.21 323.082 68.4039 321.849 68.4809Z" fill="#F14B64"/>
<path d="M304.076 14.802C302.726 14.7387 300.929 14.5578 300.082 14.4C297.47 13.914 295.607 14.2602 291.306 16.0312L287.313 17.675L278.724 18.6202C273.946 19.1462 269.019 19.5353 267.62 19.4973C266.237 19.4597 263.763 19.4383 262.124 19.4496C260.484 19.4612 258.317 19.3335 257.308 19.1662C256.055 18.9585 255.359 18.972 255.113 19.2093C254.677 19.6283 254.444 19.5256 258.073 20.5166C261.76 21.5231 263.981 21.7925 270.364 22.0068C273.127 22.0995 276.519 22.3944 277.901 22.6625C279.284 22.9302 280.699 23.1217 281.045 23.0879C281.391 23.0541 282.306 23.2238 283.078 23.4651C283.851 23.7063 285.973 24.125 287.794 24.3956C290.496 24.7966 291.879 24.8168 295.312 24.5048L299.519 24.1223L302.371 25.6679C303.94 26.5177 305.608 27.4999 306.078 27.8504C306.678 28.2979 307.601 28.5082 309.175 28.5561C313.168 28.6771 313.241 28.7135 311.823 29.8612L310.595 30.8548L311.609 31.3599C314.4 32.7494 324.053 32.8924 328.119 31.6044C330.441 30.8687 331.9 29.5596 331.673 28.4153C331.52 27.6525 331.71 27.3468 332.758 26.6607C333.456 26.2039 334.35 25.5815 334.745 25.2783C335.496 24.701 336.266 24.6398 342.02 24.6997C344.738 24.7279 347.524 25.1186 350.822 25.934C352.248 26.2861 353.82 26.2969 358.737 25.9873C362.112 25.7748 367.119 25.4868 369.865 25.347C372.61 25.2073 374.932 25.0313 375.024 24.9556C375.301 24.7287 374.069 24.3613 373.276 24.4336C372.097 24.5415 364.757 22.7469 364.868 22.3783C365.007 21.9174 367.899 21.0501 370.118 20.8035C372.657 20.5216 375.035 20.7798 378.974 21.7655C383.667 22.9397 387.516 23.2043 396.995 23.0043C399.945 22.9422 401.024 22.814 401.762 22.4374C402.287 22.1699 404.104 21.4945 405.8 20.9369C408.838 19.9381 408.906 19.9291 410.372 20.3373C411.286 20.5921 413.055 20.6893 414.959 20.5901C419.247 20.3666 423.711 18.9897 428.229 16.4972C429.557 15.7645 437.591 12.9692 438.695 12.8559C439.21 12.8028 439.877 12.5936 440.175 12.3912C440.836 11.9427 432.007 13.0845 429.697 13.7464C426.756 14.5885 425.182 14.5709 423.724 13.6795C422.512 12.9383 422.222 12.8942 420.63 13.2069C419.664 13.3966 417.42 13.7803 415.643 14.0592C413.867 14.3382 411.863 14.8247 411.192 15.1401C409.122 16.1115 405.45 16.787 402.429 16.7524C400.292 16.7276 399.129 16.5078 397.185 15.7617C395.082 14.9545 394.674 14.6679 394.603 13.9482C394.525 13.1477 394.376 13.0849 392.256 12.9577C390.529 12.854 389.632 12.5963 388.471 11.8697C386.98 10.9368 386.879 10.9223 383.513 11.1589C379.199 11.4623 374.736 12.6319 374.984 13.3939C375.113 13.7906 374.847 13.9225 373.693 14.0353C372.867 14.1159 371.479 14.5884 370.477 15.129C369.507 15.6525 366.92 16.6754 364.728 17.4015C360.224 18.8933 357.96 19.1045 354.259 18.3772C352.75 18.0809 351.252 18.0553 348.894 18.2857C346.755 18.4944 345.366 18.4882 344.879 18.2675C343.995 17.8661 344.073 17.8134 347.308 16.6292C349.241 15.9221 349.81 15.5763 349.767 15.1362C349.732 14.7764 350.06 14.4578 350.648 14.2806C351.982 13.878 351.767 13.5166 350.071 13.3099C347.193 12.9593 345.905 13.0425 344.223 13.6873C343.286 14.0466 341.288 14.454 339.681 14.6135C338.103 14.7701 336.235 15.0897 335.53 15.3233C334.51 15.6614 334.1 15.664 333.532 15.3364C332.56 14.7764 330.169 15.3532 327.755 16.7294C326.74 17.3085 325.286 18.0654 324.524 18.4115C323.762 18.7578 323.134 19.1294 323.129 19.2374C323.075 20.3496 322.786 21.0566 322.023 21.9372C320.866 23.2725 318.349 24.6688 317.319 24.5462C315.128 24.285 314.299 23.9452 313.618 23.0279C312.749 21.8576 311.152 21.2049 309.01 21.1447C307.545 21.1037 307.471 21.054 307.618 20.2147C307.749 19.4711 307.567 19.2267 306.49 18.6989C305.24 18.0857 305.217 18.0392 305.602 16.9236C305.819 16.2934 306.134 15.7644 306.303 15.748C306.47 15.7316 306.59 15.5381 306.569 15.3179C306.544 15.0645 305.63 14.8753 304.076 14.802Z" fill="#F14B64"/>
<path d="M55.0798 38.2557H57.6238L56.5678 41.7117H54.0478L53.3998 43.7517H55.9438L54.8878 47.1837H52.3678L51.1918 50.9997H48.4558L49.6318 47.1837H47.7598L46.6078 50.9997H43.8958L45.0478 47.1837H42.6958L43.7758 43.7517H46.1038L46.7278 41.7117H44.3998L45.4798 38.2557H47.7838L48.8158 34.9437H51.5278L50.5198 38.2557H52.3678L53.3758 34.9437H56.1118L55.0798 38.2557ZM50.6878 43.7517L51.3118 41.7117H49.4398L48.8398 43.7517H50.6878Z" fill="black"/>
<path d="M66.57 39.1197L69.57 34.9437H75.45V50.9997H70.482V39.1197H66.57Z" fill="black"/>
<path d="M95.2524 36.3837L97.8204 40.9197C99.2364 43.3917 99.8604 44.5917 100.412 45.7197C100.94 44.5917 101.564 43.4157 102.98 40.9437L105.548 36.3837C106.124 35.3517 106.988 34.6797 108.284 34.6797C109.532 34.6797 110.636 35.3997 111.068 36.8877L115.124 50.9997H110.18L108.668 45.4077C108.164 43.5837 107.828 42.2877 107.564 40.9917C107.036 42.1197 106.436 43.3437 105.332 45.4317L103.172 49.4637C102.332 51.0477 101.516 51.2637 100.316 51.2637C99.1164 51.2637 98.3004 51.0477 97.4604 49.4637L95.3004 45.4077C94.1244 43.1997 93.5484 42.0717 93.0444 40.9917C92.8044 42.2637 92.4444 43.6077 91.9644 45.4077L90.4524 50.9997H85.5804L89.7324 36.8877C90.1644 35.3997 91.2924 34.6797 92.5404 34.6797C93.8124 34.6797 94.6764 35.3277 95.2524 36.3837Z" fill="black"/>
<path d="M121.455 46.8717H135.111L131.919 50.9997H116.463V34.9437H135.063L131.847 39.1197H121.455V41.0397H134.175L131.319 44.6877H121.455V46.8717Z" fill="black"/>
<path d="M144.847 36.3837L147.415 40.9197C148.831 43.3917 149.455 44.5917 150.007 45.7197C150.535 44.5917 151.159 43.4157 152.575 40.9437L155.143 36.3837C155.719 35.3517 156.583 34.6797 157.879 34.6797C159.127 34.6797 160.231 35.3997 160.663 36.8877L164.719 50.9997H159.775L158.263 45.4077C157.759 43.5837 157.423 42.2877 157.159 40.9917C156.631 42.1197 156.031 43.3437 154.927 45.4317L152.767 49.4637C151.927 51.0477 151.111 51.2637 149.911 51.2637C148.711 51.2637 147.895 51.0477 147.055 49.4637L144.895 45.4077C143.719 43.1997 143.143 42.0717 142.639 40.9917C142.399 42.2637 142.039 43.6077 141.559 45.4077L140.047 50.9997H135.175L139.327 36.8877C139.759 35.3997 140.887 34.6797 142.135 34.6797C143.407 34.6797 144.271 35.3277 144.847 36.3837Z" fill="black"/>
<path d="M184.178 42.7437C185.57 43.1517 186.698 44.3997 186.698 46.3197C186.698 48.9837 185.234 50.9997 180.17 50.9997H166.058V41.2317H180.266C180.986 41.2317 181.658 40.9677 181.658 40.1517C181.658 39.3597 180.962 39.1197 180.266 39.1197H166.058L169.418 34.9437H180.05C183.89 34.9437 186.362 36.4317 186.362 39.3837C186.362 41.2797 185.282 42.3357 184.178 42.7437ZM180.194 44.6637H171.05V46.8717H180.194C181.274 46.8717 181.73 46.4877 181.73 45.7437C181.73 45.0477 181.274 44.6637 180.194 44.6637Z" fill="black"/>
<path d="M193.703 46.8717H207.359L204.167 50.9997H188.711V34.9437H207.311L204.095 39.1197H193.703V41.0397H206.423L203.567 44.6877H193.703V46.8717Z" fill="black"/>
<path d="M228.399 47.8797L231.351 50.9997H224.703L221.127 46.7517H213.495V50.9997H208.527V42.7917H222.495C224.031 42.7917 225.231 42.0957 225.231 40.9917C225.231 39.7437 224.199 39.1197 222.495 39.1197H208.527L211.767 34.9437H222.087C225.735 34.9437 230.343 36.0957 230.343 40.6797C230.343 43.1757 228.783 45.2397 226.143 45.7677C226.695 46.1757 227.295 46.7517 228.399 47.8797Z" fill="black"/>
<path d="M238.801 41.3517H247.537C251.449 41.3517 253.561 42.8157 253.561 45.7437C253.561 49.0317 251.569 50.9997 246.673 50.9997H231.721L234.913 46.8717H247.057C248.233 46.8717 248.761 46.5357 248.761 45.6957C248.761 44.8797 248.233 44.5437 247.057 44.5437H238.321C234.193 44.5437 232.297 42.6957 232.297 39.9357C232.297 36.9117 234.313 34.9437 239.185 34.9437H253.129L249.937 39.1197H238.801C237.649 39.1197 237.097 39.4077 237.097 40.2237C237.097 41.0397 237.649 41.3517 238.801 41.3517Z" fill="black"/>
<path d="M274.774 34.9437V50.9997H269.83V44.8077H260.278V50.9997H255.286V34.9437H260.278V40.6317H269.83V34.9437H274.774Z" fill="black"/>
<path d="M282.393 34.9437V50.9997H277.425V34.9437H282.393Z" fill="black"/>
<path d="M306.198 40.9677C306.198 44.5197 303.294 46.8957 298.302 46.8957H289.902V50.9997H284.958V42.7917H298.782C300.318 42.7917 301.206 42.0477 301.206 40.9437C301.206 39.8157 300.318 39.1197 298.782 39.1197H284.958L288.246 34.9437H298.326C303.294 34.9437 306.198 37.3917 306.198 40.9677Z" fill="black"/>
<path d="M326.12 46.8717H337.376L334.184 50.9997H326.12C320.552 50.9997 316.448 47.4717 316.448 42.8157C316.448 38.1117 320.552 34.9437 326.12 34.9437H337.376L334.184 39.1197H326.12C323.432 39.1197 321.416 40.7277 321.416 43.0317C321.416 45.3117 323.408 46.8717 326.12 46.8717Z" fill="black"/>
<path d="M343.589 46.8717H356.021L352.805 50.9997H338.621V34.9437H343.589V46.8717Z" fill="black"/>
<path d="M378.052 34.9437V43.9917C378.052 48.8397 374.716 51.2637 368.044 51.2637C360.316 51.2637 356.98 48.8397 356.98 43.9917V34.9437H361.924V43.9917C361.924 46.3677 362.932 47.1357 368.044 47.1357C371.86 47.1357 373.06 46.2477 373.06 43.9917V34.9437H378.052Z" fill="black"/>
<path d="M398.507 42.7437C399.899 43.1517 401.027 44.3997 401.027 46.3197C401.027 48.9837 399.563 50.9997 394.499 50.9997H380.387V41.2317H394.595C395.315 41.2317 395.987 40.9677 395.987 40.1517C395.987 39.3597 395.291 39.1197 394.595 39.1197H380.387L383.747 34.9437H394.379C398.219 34.9437 400.691 36.4317 400.691 39.3837C400.691 41.2797 399.611 42.3357 398.507 42.7437ZM394.523 44.6637H385.379V46.8717H394.523C395.603 46.8717 396.059 46.4877 396.059 45.7437C396.059 45.0477 395.603 44.6637 394.523 44.6637Z" fill="black"/>
</svg>
