<svg width="58" height="53" viewBox="0 0 58 53" fill="none" xmlns="http://www.w3.org/2000/svg">
<path fill-rule="evenodd" clip-rule="evenodd" d="M7.61212 6.63353C7.28241 6.63821 6.94495 6.45494 6.86201 6.22596C6.57373 6.56297 6.68352 6.85836 8.76575 8.0749C9.04678 8.42373 9.5792 8.62719 10.1137 8.66243C7.46706 10.7923 5.8968 14.1605 6.21513 17.799L7.80179 35.9347C8.1426 39.8302 10.5615 43.0446 13.8706 44.5812C12.7676 45.4355 11.8463 46.412 11.7784 46.9077C11.7346 47.2287 11.2185 47.6658 10.6313 47.8795C10.0241 48.1005 9.18648 48.8263 8.68907 49.5616C7.68858 51.0418 6.26426 51.6866 4.58998 51.4179C3.84656 51.19 4.05947 52.2449 4.66886 52.35C6.03935 52.5857 8.57954 51.456 9.23458 50.32C9.55486 49.7642 10.5345 48.8958 11.4117 48.3905C11.8415 48.1429 12.4265 48.1186 13.0016 48.0947C13.6001 48.0698 14.1879 48.0454 14.5789 47.7702C15.6723 47 17.2109 45.9768 18.6122 45.5516C18.8138 45.5454 19.0165 45.5335 19.22 45.5157L20.4309 45.4098C21.2223 45.5084 21.1372 45.5499 20.404 45.9081C20.1587 46.028 19.8408 46.1832 19.4589 46.388C16.1081 48.1841 15.7069 48.4616 15.9662 48.8037C16.1158 49.0009 17.0775 48.9013 18.1515 48.5771C19.2062 48.2583 20.4507 48.1128 20.9161 48.2535C21.4875 48.4259 22.6231 48.1959 24.4089 47.5459C26.3311 46.8463 27.239 46.6758 27.7268 46.9234C28.1648 47.1455 29.0302 47.0341 30.2137 46.6034C31.2117 46.2401 32.7333 45.8817 33.595 45.8072C34.4564 45.7328 35.3766 45.4646 35.6397 45.2113C36.5047 44.3784 37.9632 43.8756 39.6849 43.8169C41.536 43.7537 43.7149 42.9068 43.6817 42.2635C43.6729 42.0928 43.3352 41.9023 42.8682 41.7813C43.1286 41.5805 43.379 41.3678 43.6188 41.1443C43.8288 41.078 44.0576 41.0028 44.3059 40.9176C45.4115 40.5376 46.0051 40.4699 46.444 40.4199C46.9348 40.3639 47.2324 40.33 47.8362 39.9065C47.8362 39.9065 45.7592 39.5076 44.8574 39.7686C46.3692 37.7619 47.1729 35.2108 46.9367 32.5109L45.35 14.3752C45.1138 11.675 43.8791 9.30199 42.0415 7.58822C42.8322 7.75562 43.7577 7.97418 44.9858 8.26418L45.174 8.30861C48.7792 9.15973 51.9703 10.1845 53.4963 10.9816C54.0541 11.2727 54.3333 11.1392 54.0358 10.7235C53.7863 10.3747 49.0032 8.50581 47.4009 8.13096C46.6514 7.95561 45.4225 7.50217 44.6701 7.12289C43.9177 6.74391 42.8525 6.28696 42.3032 6.10729C41.7537 5.92791 41.1381 5.61557 40.9351 5.41331C40.7319 5.21106 40.2999 4.95937 39.9746 4.85451C39.6494 4.74935 39.3808 4.49211 39.3779 4.28289C39.3722 3.88417 38.8322 3.69906 36.7846 3.39412C35.7205 3.2356 35.5605 3.27496 35.5664 3.6937C35.5709 4.00709 35.4203 4.17787 35.1356 4.18192C34.895 4.18534 34.6716 4.32744 34.6392 4.49743C34.6232 4.58156 34.4949 4.67887 34.3004 4.7683C34.1779 4.77478 34.055 4.78339 33.9318 4.79416L29.1162 5.21548C28.9478 5.18113 28.7698 5.1507 28.5877 5.12591C27.7042 5.00573 26.4925 4.79516 25.8948 4.65797C25.1262 4.48171 24.4774 4.52654 23.6785 4.81103C22.9316 5.07688 21.9112 5.51527 21.0558 5.92067L18.5335 6.14135C18.0071 5.51495 17.4696 4.61174 17.4629 4.14536C17.4531 3.45708 17.1007 3.26107 15.9027 3.27811C15.1135 3.28933 14.8929 3.40431 14.7427 3.88324C14.6407 4.20845 14.4447 4.47612 14.3071 4.47808C14.1693 4.48004 13.9252 5.07951 13.7645 5.81024C13.6534 6.31506 13.5805 6.63953 13.4851 6.84532C13.1837 6.94203 12.8886 7.05178 12.6003 7.17388C12.5474 7.1712 12.4911 7.16799 12.4315 7.16453C12.0806 7.14421 11.5536 7.33654 11.2604 7.59235C10.4882 8.26585 9.66426 8.1822 8.88911 7.35117C8.50384 6.93842 7.95306 6.62868 7.61212 6.63353Z" fill="#47358E"/>
<path d="M13.8513 17.1328L36.7596 15.1286L37.0101 17.9921L14.1018 19.9963L13.8513 17.1328Z" fill="#D9D9D9"/>
<path d="M14.5194 24.7689L37.4276 22.7647L37.6782 25.6282L14.7699 27.6324L14.5194 24.7689Z" fill="#D9D9D9"/>
<path d="M15.1875 32.405L38.0957 30.4008L38.3462 33.2643L15.438 35.2685L15.1875 32.405Z" fill="#D9D9D9"/>
</svg>
