<svg width="486" height="115" viewBox="0 0 486 115" fill="none" xmlns="http://www.w3.org/2000/svg">
<rect x="97.2275" y="32.7021" width="320" height="59" rx="11" transform="rotate(-2.63358 97.2275 32.7021)" fill="#F14B64"/>
<path fill-rule="evenodd" clip-rule="evenodd" d="M41.6854 78.3393C39.251 78.9855 35.7402 80.3349 33.8834 81.3372C29.7686 83.5598 14.9561 86.9851 9.04435 87.0814C6.67184 87.1201 3.61679 87.3543 2.25629 87.6028C-0.104554 88.0337 -0.0779507 88.0821 2.83417 88.6487C4.51251 88.9757 8.44403 89.1132 11.5708 88.954C14.6975 88.7948 17.5681 89.1235 17.9501 89.6846C19.1354 91.4262 25.4044 90.3205 30.1308 87.5369C32.6128 86.0754 36.4364 84.7106 38.6272 84.5053C41.4155 84.2434 43.2615 83.3254 44.7803 81.4449C46.6236 79.1625 47.5761 78.8186 51.1042 79.1581C53.3894 79.3786 56.0221 80.1959 56.9555 80.9759C59.15 82.8064 63.1487 82.6016 76.0291 79.9989C86.292 77.924 86.7533 77.9246 96.0836 80.0126C113.247 83.8559 120.773 84.4127 137.789 83.0999C151.025 82.0799 153.918 81.5726 154.776 80.126C155.711 78.5517 156.678 78.4777 164.747 79.3621C169.663 79.901 175.271 80.4481 177.21 80.5782C181.556 80.8696 188.325 82.3129 186.632 82.5868C184.133 82.9903 185.629 84.6063 189.354 85.5268C191.46 86.0474 194.87 87.9443 196.932 89.7417C201.888 94.0638 206.336 95.5152 211.526 94.5067C216.943 93.4527 224.277 89.8602 225.167 87.8244C225.545 86.9592 227.339 86.1434 229.155 86.0105C231.033 85.8731 233.958 84.5034 235.937 82.8366C239.917 79.4811 244.423 78.8043 248.904 80.8873C250.605 81.6786 253.571 82.1342 255.496 81.9013C261.036 81.2302 261.124 81.2773 263.296 86.1898C264.432 88.7576 265.981 90.8131 266.74 90.7575C267.498 90.7021 268.668 91.5804 269.341 92.7093C270.332 94.3719 271.586 94.6871 275.933 94.369C282.531 93.8862 284.404 93.0176 284.222 90.5257C284.006 87.5779 292.239 79.0828 294.348 80.0756C296.596 81.1342 310.219 84.1152 318.199 85.2952C322.694 85.9603 326.28 85.8275 330.449 84.8412C333.692 84.0737 340.287 82.762 345.108 81.9262C349.928 81.0905 354.157 79.8203 354.504 79.104C355.19 77.6882 366.508 77.7436 366.612 79.1627C366.643 79.5856 369.262 80.028 372.433 80.144C375.604 80.2601 378.391 80.8466 378.628 81.4473C378.864 82.0469 380.143 82.4589 381.468 82.3619C383.036 82.2471 383.923 82.7959 384.006 83.9305C384.117 85.4465 385.012 85.516 390.813 84.4596C401.978 82.4269 404.886 81.5126 404.78 80.069C404.725 79.3115 406.114 78.2598 407.868 77.732C409.622 77.2052 411.913 76.0993 412.962 75.276C414.01 74.4528 417.291 73.0442 420.253 72.1462C423.214 71.2473 428.92 69.1118 432.93 67.4002C436.941 65.6875 443.548 63.4904 447.613 62.516C456.302 60.4331 481.984 51.5051 483.237 50.1314C484.732 48.4936 483.149 48.1382 480.18 49.4437C472.055 53.0179 454.845 58.1717 435.296 62.8861C406.894 69.736 407.688 69.6062 371.692 73.2685C348.653 75.6132 340.232 76.826 338.453 78.0551C332.587 82.1088 307.07 81.305 297.603 76.7688C293.36 74.7347 292.129 75.1354 286.977 80.2198C281.848 85.2831 279.867 76.5687 273.5 77.809C268.186 78.8427 268.154 83.6072 266.74 80.8873C262.559 72.8466 262.785 77.6834 257.808 77.0247C254.117 76.5365 252.783 76.7252 252.257 77.809C251.732 78.8928 251.048 78.99 249.423 78.2114C245.768 76.4621 237.748 77.6123 235.009 80.2772C233.67 81.5812 230.234 83.2379 227.373 83.9582C224.513 84.6784 220.578 82.2778 218 83.1819C212.944 84.9571 205.15 87.4046 200.615 85.5268C196.625 83.8749 197.847 84.3612 203.22 83.1819C214.041 80.807 215.386 80.3476 214.931 79.1824C214.668 78.5108 211.892 78.0263 208.624 78.0824C205.413 78.1384 201.808 77.5583 200.615 76.7941C199.15 75.857 195.783 75.6 190.26 76.0042C184.315 76.4392 181.634 76.1963 180.463 75.1145C179.411 74.144 176.896 73.7689 173.236 74.0368C170.149 74.2627 165.598 74.0591 163.123 73.5837C160.649 73.1082 157.856 73.1294 156.917 73.6308C153.83 75.2791 149.341 75.5305 144.468 74.3277C139.227 73.0349 132.445 73.6791 132.028 75.509C131.883 76.144 133.287 77.3201 135.149 78.1242C138.492 79.5665 138.422 79.5909 129.476 80.0817C122.271 80.4782 120.025 80.2185 118.507 78.8183C117.19 77.6027 115.164 77.1908 111.965 77.4891C106.835 77.9684 98.3947 77.3822 86.1107 75.6934C77.4295 74.5004 49.9986 76.134 41.6854 78.3393Z" fill="#F14B64"/>
<path fill-rule="evenodd" clip-rule="evenodd" d="M130.673 32.7623C129.186 32.2153 127.051 31.0364 125.929 30.1431C123.442 28.1623 114.382 25.3075 110.737 25.3555C109.274 25.3748 107.394 25.2272 106.561 25.0269C105.114 24.6794 105.132 24.6335 106.942 24.036C107.985 23.6912 110.414 23.4709 112.34 23.5467C114.265 23.6224 116.044 23.2482 116.293 22.715C117.065 21.0599 120.907 21.9467 123.758 24.4374C125.256 25.7452 127.583 26.9312 128.93 27.0719C130.644 27.2515 131.762 28.0662 132.655 29.788C133.739 31.8777 134.319 32.1768 136.504 31.7772C137.919 31.5178 139.562 30.6925 140.157 29.9419C141.553 28.1801 144.016 28.2781 151.902 30.4094C158.186 32.1086 158.471 32.0973 164.277 29.9282C174.957 25.9361 179.613 25.2401 190.082 26.0693C198.225 26.7133 199.998 27.1198 200.494 28.4516C201.034 29.9008 201.629 29.9474 206.628 28.9326C209.674 28.3142 213.147 27.6719 214.347 27.5051C217.035 27.1313 221.246 25.6246 220.207 25.4082C218.674 25.0895 219.635 23.5445 221.955 22.5973C223.267 22.0616 225.415 20.2094 226.729 18.4817C229.888 14.3272 232.667 12.8671 235.846 13.6883C239.163 14.5467 243.605 17.7323 244.106 19.614C244.319 20.4136 245.407 21.134 246.525 21.2157C247.68 21.3003 249.453 22.5119 250.635 24.0232C253.013 27.0659 255.777 27.593 258.59 25.5419C259.659 24.7628 261.499 24.2678 262.681 24.4405C266.084 24.9382 266.139 24.8921 267.595 20.2509C268.355 17.825 269.359 15.868 269.826 15.9022C270.292 15.9363 271.035 15.0883 271.477 14.0176C272.127 12.4409 272.908 12.117 275.583 12.3128C279.643 12.6099 280.778 13.3778 280.607 15.7105C280.405 18.4701 285.287 26.2161 286.611 25.2391C288.023 24.1974 296.498 21.0937 301.45 19.8046C304.239 19.0782 306.448 19.1186 308.998 19.9429C310.98 20.5843 315.02 21.6559 317.975 22.3244C320.929 22.9928 323.508 24.0809 323.706 24.7421C324.096 26.0491 331.081 25.733 331.178 24.4046C331.207 24.0086 332.834 23.5341 334.793 23.3516C336.752 23.1691 338.486 22.556 338.646 21.9891C338.805 21.4233 339.604 21.0084 340.419 21.0681C341.384 21.1387 341.945 20.6052 342.022 19.543C342.126 18.1238 342.68 18.038 346.235 18.8897C353.076 20.5284 354.849 21.3149 354.75 22.6663C354.698 23.3754 355.531 24.3257 356.6 24.778C357.67 25.2293 359.058 26.2092 359.686 26.954C360.314 27.6988 362.305 28.9384 364.112 29.7083C365.918 30.4792 369.389 32.3415 371.823 33.8472C374.258 35.3539 378.283 37.2527 380.769 38.0683C386.081 39.8117 401.719 47.5546 402.46 48.8091C403.344 50.3046 402.36 50.6737 400.558 49.5231C395.628 46.3729 385.13 41.9589 373.178 38.0101C355.813 32.2725 356.3 32.3753 334.175 29.7937C320.014 28.1408 314.847 27.2041 313.778 26.0971C310.253 22.4462 294.489 23.7933 288.543 28.2531C285.877 30.2529 285.127 29.9073 282.066 25.2765C279.02 20.6649 278.052 19.8832 274.152 18.8729C270.898 18.0311 270.733 18.0983 269.797 20.6728C267.03 28.2841 267.081 28.2117 263.994 28.9433C261.706 29.4858 260.886 29.3406 260.588 28.3401C260.289 27.3396 259.869 27.2648 258.848 28.0303C256.552 29.7503 251.631 28.8628 250.003 26.4365C249.207 25.2493 247.125 23.7814 245.377 23.1752C243.629 22.569 240.915 21.4309 239.345 20.6463C236.267 19.1055 232.309 19.3202 229.467 21.1807C226.967 22.8176 227.169 23.4881 230.456 24.4646C237.077 26.4312 237.897 26.829 237.589 27.9285C237.411 28.5622 235.687 29.0797 233.671 29.1037C231.692 29.1263 229.454 29.7526 228.7 30.4946C227.774 31.4044 225.69 31.7232 222.292 31.4745C218.634 31.2068 216.974 31.4965 216.226 32.5346C215.555 33.4661 213.994 33.8753 211.742 33.7105C209.843 33.5715 207.03 33.868 205.491 34.3701C203.954 34.8722 202.231 34.9176 201.663 34.471C199.797 33.0028 197.033 32.8728 193.998 34.1106C190.734 35.4409 186.565 34.9974 186.35 33.2972C186.275 32.7072 187.169 31.5754 188.337 30.7805C190.433 29.3547 190.39 29.3335 184.882 29.0838C180.446 28.8815 179.054 29.1767 178.085 30.5206C177.244 31.6873 175.984 32.1195 174.017 31.9154C170.863 31.5873 165.641 32.3323 158.023 34.1972C152.638 35.5147 135.751 34.6289 130.673 32.7623Z" fill="#F14B64"/>
<path d="M114.031 50.9788L120.456 50.6832L124.827 72.5855L118.562 72.8737L114.031 50.9788ZM125.795 50.4377L130.622 50.2156L126.681 72.5002L121.887 72.7208L125.795 50.4377ZM127.073 50.3789L132.923 50.1098L138.477 71.9577L132.659 72.2253L127.073 50.3789ZM138.262 49.8642L143.696 49.6143L140.779 71.8518L135.536 72.0929L138.262 49.8642ZM146.092 49.5041L162.714 48.7395L162.957 54.0139L152.728 54.4844L152.86 57.3614L160.564 57.007L160.799 62.1216L153.095 62.476L153.257 65.9922L163.646 65.5144L163.889 70.7888L147.107 71.5607L146.092 49.5041ZM166.008 48.588L172.402 48.2939L173.166 64.9163L182.628 64.4811L182.878 69.9153L167.023 70.6446L166.008 48.588ZM183.319 58.7473C183.186 55.8704 183.497 53.5816 184.252 51.8812C185.028 50.1797 186.178 48.9416 187.701 48.1668C189.246 47.391 191.105 46.9531 193.279 46.8531C195.282 46.761 197.031 46.9475 198.526 47.4126C200.02 47.8564 201.22 48.6554 202.128 49.8096C203.034 50.9425 203.629 52.5061 203.913 54.5005L197.36 54.802C197.174 53.5505 196.743 52.7588 196.066 52.4269C195.387 52.0737 194.537 51.9206 193.514 51.9677C192.768 52.002 192.102 52.1394 191.515 52.38C190.927 52.5992 190.477 53.0257 190.164 53.6594C189.851 54.2931 189.725 55.2599 189.785 56.5599L189.964 60.4598C190.024 61.7597 190.229 62.722 190.578 63.3466C190.947 63.949 191.435 64.343 192.041 64.5286C192.648 64.7143 193.335 64.7895 194.102 64.7542C195.104 64.7081 195.925 64.4674 196.567 64.0321C197.209 63.5968 197.587 62.7573 197.701 61.5134L204.254 61.212C204.132 63.2037 203.662 64.8163 202.843 66.0499C202.045 67.2825 200.924 68.2097 199.479 68.8314C198.054 69.4308 196.34 69.7766 194.337 69.8688C192.696 69.9443 191.218 69.8307 189.901 69.5283C188.605 69.2035 187.478 68.6253 186.522 67.7937C185.586 66.9611 184.839 65.8102 184.281 64.341C183.742 62.8495 183.422 60.985 183.319 58.7473ZM222.137 58.5955L221.993 55.4628C221.907 53.6088 221.445 52.3701 220.605 51.7467C219.763 51.102 218.554 50.8159 216.977 50.8885C215.4 50.961 214.223 51.3569 213.444 52.076C212.665 52.7739 212.318 54.0499 212.403 55.9039L212.547 59.0366C212.609 60.3792 212.837 61.3938 213.232 62.0804C213.626 62.767 214.181 63.222 214.896 63.4453C215.61 63.6474 216.5 63.7239 217.565 63.6749C218.631 63.6259 219.51 63.468 220.202 63.2013C220.894 62.9132 221.405 62.4092 221.735 61.6893C222.065 60.9693 222.199 59.9381 222.137 58.5955ZM205.909 57.484C205.776 54.607 206.11 52.3387 206.909 50.6789C207.73 49.0181 208.966 47.8186 210.62 47.0806C212.272 46.3212 214.313 45.8856 216.742 45.7739C219.171 45.6621 221.244 45.9085 222.959 46.513C224.672 47.0962 226.004 48.1775 226.952 49.7569C227.921 51.3354 228.472 53.5631 228.605 56.4401C228.746 59.5088 228.409 61.9269 227.593 63.6942C226.798 65.4393 225.574 66.7021 223.923 67.4828C222.271 68.2422 220.23 68.6778 217.801 68.7895C215.371 68.9013 213.299 68.6549 211.584 68.0504C209.868 67.4246 208.524 66.2798 207.55 64.6161C206.597 62.9301 206.05 60.5528 205.909 57.484ZM231.19 45.5898L236.943 45.3252L237.958 67.3818L232.204 67.6465L231.19 45.5898ZM241.546 64.5901L235.153 45.4075L240.843 45.1458L247.236 64.3283L241.546 64.5901ZM247.364 44.8458L252.383 44.615L247.811 64.3019L242.792 64.5327L247.364 44.8458ZM251.64 66.7525L250.625 44.6958L257.018 44.4018L258.033 66.4585L251.64 66.7525ZM260.908 44.2229L277.531 43.4583L277.773 48.7327L267.544 49.2032L267.676 52.0802L275.38 51.7258L275.615 56.8404L267.912 57.1948L268.073 60.711L278.462 60.2332L278.705 65.5076L261.923 66.2795L260.908 44.2229ZM291.521 48.2605L285.191 48.5517L284.941 43.1174L304.025 42.2396L304.275 47.6739L297.914 47.9665L298.678 64.5889L292.285 64.883L291.521 48.2605ZM321.594 54.0208L321.45 50.8881C321.365 49.034 320.902 47.7953 320.062 47.1719C319.221 46.5273 318.012 46.2412 316.435 46.3137C314.858 46.3862 313.68 46.7821 312.901 47.5013C312.122 48.1992 311.775 49.4752 311.86 51.3292L312.004 54.4619C312.066 55.8045 312.294 56.819 312.689 57.5056C313.084 58.1922 313.638 58.6472 314.353 58.8706C315.067 59.0727 315.957 59.1492 317.023 59.1002C318.088 59.0512 318.967 58.8933 319.66 58.6265C320.351 58.3384 320.862 57.8344 321.192 57.1145C321.522 56.3946 321.656 55.3634 321.594 54.0208ZM305.366 52.9093C305.234 50.0323 305.567 47.7639 306.366 46.1041C307.187 44.4433 308.424 43.2439 310.077 42.5058C311.729 41.7464 313.77 41.3109 316.199 41.1991C318.629 41.0874 320.701 41.3338 322.416 41.9383C324.13 42.5215 325.461 43.6028 326.409 45.1822C327.379 46.7607 327.93 48.9884 328.062 51.8653C328.203 54.9341 327.866 57.3521 327.05 59.1195C326.255 60.8645 325.032 62.1274 323.38 62.9081C321.728 63.6675 319.687 64.103 317.258 64.2148C314.829 64.3265 312.756 64.0802 311.041 63.4756C309.326 62.8498 307.981 61.7051 307.007 60.0414C306.054 58.3554 305.507 55.978 305.366 52.9093ZM341.343 45.9689L335.014 46.26L334.764 40.8257L353.847 39.9479L354.097 45.3822L347.736 45.6748L348.501 62.2972L342.107 62.5913L341.343 45.9689ZM356.245 39.8377L362.638 39.5436L363.01 47.631L370.139 47.3031L369.767 39.2157L376.16 38.9216L377.174 60.9783L370.781 61.2724L370.389 52.7374L363.26 53.0653L363.653 61.6003L357.259 61.8943L356.245 39.8377ZM380.063 38.7421L396.686 37.9775L396.928 43.2519L386.699 43.7224L386.832 46.5994L394.535 46.245L394.771 51.3596L387.067 51.714L387.229 55.2303L397.618 54.7524L397.86 60.0268L381.078 60.7987L380.063 38.7421Z" fill="white"/>
</svg>
