<svg width="162" height="68" viewBox="0 0 162 68" fill="none" xmlns="http://www.w3.org/2000/svg">
<rect x="31.3281" y="25.9453" width="99.8478" height="31.0515" rx="5.78926" transform="rotate(-7.29106 31.3281 25.9453)" fill="white"/>
<path fill-rule="evenodd" clip-rule="evenodd" d="M35.3277 46.4545C34.7037 46.8002 33.8292 47.5166 33.3844 48.0461C32.3987 49.2201 28.5706 51.0594 26.9651 51.1305C26.3207 51.1591 25.5023 51.2921 25.1466 51.4265C24.5295 51.6596 24.5397 51.6848 25.3681 51.9701C25.8456 52.1348 26.9257 52.1926 27.7683 52.0985C28.6108 52.0044 29.4134 52.1658 29.5519 52.4571C29.9815 53.3615 31.6227 52.7625 32.7408 51.2936C33.3279 50.5224 34.2867 49.7969 34.8713 49.6821C35.6153 49.5356 36.0623 49.0501 36.3613 48.0637C36.7241 46.8665 36.9627 46.6837 37.9452 46.8484C38.5816 46.9553 39.3492 47.3724 39.6514 47.776C40.3615 48.7232 42.9355 47.1453 45.8824 47.6361C50.7959 49.5805 52.8813 49.8443 57.4395 49.0993C60.985 48.5204 61.7424 48.2456 61.888 47.4878C62.0465 46.6632 62.3056 46.6212 64.5592 47.0541C65.932 47.3178 67.4941 47.5835 68.0308 47.6445C69.2332 47.7812 71.1667 48.5101 70.7218 48.659C70.0653 48.8784 70.5719 49.7161 71.6436 50.1832C72.2497 50.4474 73.2951 51.4249 73.9671 52.3553C75.5826 54.5926 76.8837 55.334 78.2368 54.7895C79.6488 54.2205 81.4283 52.3205 81.5463 51.2552C81.5963 50.8025 82.0355 50.3706 82.5225 50.2949C83.026 50.2166 83.7394 49.4917 84.1768 48.6151C85.0566 46.8505 86.2434 46.4815 87.5922 47.5524C88.1044 47.9592 88.9408 48.1863 89.451 48.058C90.9203 47.6884 90.9471 47.7126 91.8397 50.2677C92.3063 51.6033 92.8543 52.6702 93.0578 52.6385C93.261 52.6069 93.6338 53.061 93.8863 53.6475C94.2581 54.5114 94.6191 54.6714 95.7846 54.4901C97.5537 54.2149 98.011 53.7552 97.8089 52.4558C97.5697 50.9187 99.2942 46.4578 99.9299 46.9683C100.607 47.5126 104.503 49.0196 106.751 49.6071C108.017 49.9381 108.986 49.8561 110.062 49.3269C110.899 48.915 112.617 48.2074 113.88 47.7544C115.142 47.3013 116.217 46.6237 116.268 46.2488C116.368 45.5078 119.457 45.4967 119.572 46.2367C119.606 46.4572 120.347 46.6787 121.219 46.7281C122.09 46.7774 122.886 47.0735 122.987 47.386C123.088 47.698 123.462 47.9084 123.817 47.8532C124.238 47.7878 124.513 48.0709 124.605 48.6625C124.728 49.453 124.976 49.4861 126.493 48.9145C129.412 47.8146 130.149 47.3273 130.031 46.5746C129.97 46.1796 130.285 45.6261 130.73 45.3445C131.176 45.0635 131.733 44.4784 131.969 44.0452C132.204 43.6121 133.012 42.8656 133.764 42.3867C134.517 41.9072 135.941 40.773 136.93 39.8659C137.918 38.9583 139.585 37.7887 140.633 37.266C142.874 36.1487 149.329 31.4003 149.586 30.6792C149.893 29.8195 149.44 29.6397 148.711 30.3312C146.715 32.2246 142.339 34.9741 137.299 37.5026C129.976 41.1765 130.184 41.106 120.596 43.1438C114.46 44.4484 112.238 45.1109 111.829 45.7584C110.478 47.8939 103.473 47.5647 100.615 45.2317C99.334 44.1855 99.0229 44.3989 97.9294 47.0696C96.841 49.7292 95.7682 45.19 94.1084 45.8595C92.7232 46.4175 93.0059 48.9032 92.454 47.4894C90.8225 43.3093 91.18 45.8318 89.783 45.5058C88.7472 45.2642 88.3949 45.3673 88.318 45.9346C88.2411 46.5019 88.0607 46.555 87.57 46.1545C86.4666 45.2548 84.351 45.8832 83.7675 47.2832C83.4822 47.9682 82.6468 48.8446 81.911 49.2305C81.1755 49.6163 79.9561 48.3779 79.3087 48.8586C78.0391 49.8026 76.0642 51.107 74.7134 50.1434C73.5247 49.2957 73.8875 49.5451 75.2798 48.9109C78.0843 47.6337 78.4228 47.3893 78.2274 46.783C78.1147 46.4336 77.3285 46.1906 76.4409 46.2314C75.5692 46.272 74.5511 45.9821 74.1792 45.5876C73.7224 45.1039 72.789 44.9817 71.3082 45.2121C69.7142 45.4601 68.9686 45.3428 68.5832 44.7826C68.2372 44.28 67.5287 44.0933 66.5474 44.2459C65.7198 44.3747 64.4668 44.2846 63.763 44.0453C63.0594 43.806 62.2994 43.8269 62.0742 44.0918C61.3336 44.9626 60.1254 45.1096 58.7233 44.4993C57.2158 43.8435 55.4065 44.2035 55.4046 45.1596C55.404 45.4914 55.8588 46.1 56.4154 46.5129C57.4149 47.2535 57.3972 47.2665 54.9887 47.5541C53.0492 47.7865 52.4211 47.6589 51.9216 46.9338C51.4882 46.3043 50.9106 46.0966 50.0569 46.2635C48.688 46.5317 46.3514 46.2557 42.8997 45.4181C40.4604 44.8264 37.4588 45.2746 35.3277 46.4545Z" fill="white"/>
<path fill-rule="evenodd" clip-rule="evenodd" d="M14.8663 28.9012C14.063 28.6778 12.8928 28.1506 12.2659 27.73C10.8767 26.7973 6.00238 25.6869 4.0922 25.8679C3.32561 25.9405 2.33337 25.9435 1.88751 25.874C1.11382 25.7535 1.12106 25.7287 2.04501 25.3379C2.5775 25.1125 3.84226 24.8931 4.85555 24.8506C5.86884 24.808 6.78599 24.5357 6.89371 24.2453C7.22794 23.3442 9.28134 23.6452 10.8835 24.8298C11.7248 25.4519 12.9963 25.9745 13.7089 25.9908C14.6158 26.0117 15.2368 26.3913 15.779 27.2563C16.4369 28.3062 16.7538 28.4383 17.8828 28.1353C18.614 27.9388 19.4409 27.4356 19.7205 27.0165C20.3779 26.0327 21.6738 25.9788 25.9019 26.7598C29.2708 27.3825 29.4196 27.3645 32.3724 25.9786C37.804 23.428 40.2168 22.8639 45.7438 22.8515C50.0428 22.8414 50.9902 22.9788 51.3073 23.6562C51.6525 24.3934 51.9666 24.3924 54.5457 23.6464C56.1168 23.1919 57.9112 22.7065 58.5334 22.5677C59.9276 22.2568 62.0719 21.2865 61.5179 21.2174C60.7003 21.1157 61.1383 20.2642 62.3147 19.6682C62.9801 19.3311 64.0277 18.2677 64.6432 17.3053C66.1228 14.991 67.5178 14.1064 69.2204 14.4013C70.9973 14.7098 73.4633 16.191 73.8068 17.1566C73.9527 17.567 74.5542 17.8984 75.1439 17.8935C75.7536 17.8885 76.7353 18.4483 77.4199 19.1905C78.7972 20.685 80.2697 20.8434 81.6579 19.6472C82.185 19.1929 83.1294 18.8545 83.7567 18.8946C85.5631 19.0103 85.5901 18.9837 86.1551 16.487C86.4503 15.1819 86.8933 14.1125 87.1397 14.1105C87.3858 14.1084 87.7391 13.6318 87.9251 13.0514C88.1988 12.1965 88.5945 11.9932 90.006 11.9816C92.1485 11.9639 92.7767 12.3182 92.7869 13.5492C92.7989 15.0054 95.6905 18.86 96.3436 18.2909C97.0397 17.6841 101.353 15.6939 103.895 14.8061C105.327 14.3059 106.488 14.2326 107.86 14.556C108.928 14.8078 111.092 15.1973 112.671 15.4217C114.249 15.646 115.649 16.1066 115.781 16.445C116.041 17.1139 119.692 16.6496 119.686 15.9486C119.684 15.7397 120.517 15.4212 121.537 15.2418C122.557 15.0623 123.44 14.6666 123.5 14.3624C123.559 14.0588 123.961 13.8071 124.391 13.8035C124.9 13.7993 125.171 13.4955 125.166 12.935C125.16 12.1861 125.447 12.1174 127.348 12.4123C131.007 12.9795 131.97 13.3163 131.976 14.0294C131.979 14.4036 132.457 14.8665 133.037 15.058C133.618 15.249 134.388 15.7038 134.749 16.0676C135.11 16.4315 136.207 16.9967 137.188 17.3233C138.169 17.6505 140.069 18.479 141.41 19.1648C142.752 19.8511 144.944 20.6752 146.283 20.9968C149.144 21.6842 157.678 25.0776 158.12 25.704C158.648 26.4507 158.147 26.6864 157.153 26.1598C154.432 24.718 148.737 22.8513 142.298 21.2907C132.945 19.023 133.204 19.0561 121.488 18.6474C113.989 18.3855 111.239 18.115 110.631 17.58C108.626 15.8155 100.414 17.1958 97.4855 19.7894C96.1728 20.9523 95.7645 20.8031 93.9612 18.5048C92.166 16.2159 91.6251 15.8472 89.5362 15.4839C87.793 15.1814 87.7095 15.2237 87.3284 16.6142C86.202 20.725 86.2256 20.6848 84.6378 21.2005C83.4605 21.5829 83.0246 21.5417 82.8251 21.0297C82.6256 20.5176 82.4023 20.4963 81.8995 20.9415C80.7684 21.9419 78.149 21.6866 77.1915 20.4835C76.7233 19.8947 75.5686 19.2137 74.6255 18.9704C73.6827 18.7271 72.2105 18.2461 71.3536 17.9016C69.6731 17.2249 67.6057 17.5067 66.1947 18.6041C64.953 19.5696 65.0876 19.9127 66.8537 20.2844C70.4111 21.033 70.8579 21.2067 70.7432 21.7966C70.677 22.1366 69.7948 22.4818 68.7386 22.5805C67.7011 22.6769 66.554 23.1011 66.1902 23.5225C65.7434 24.0394 64.6642 24.2956 62.8708 24.3104C60.9405 24.3263 60.0822 24.5492 59.7343 25.1257C59.4218 25.643 58.6207 25.9244 57.4322 25.9342C56.43 25.9424 54.9672 26.2182 54.1817 26.5473C53.3965 26.8764 52.4947 26.9738 52.1779 26.7638C51.1362 26.0734 49.6809 26.1233 48.1416 26.9023C46.4865 27.7396 44.2804 27.6852 44.095 26.8025C44.0306 26.4962 44.4512 25.8643 45.0297 25.3974C46.0685 24.5599 46.0451 24.5506 43.1449 24.6551C40.8094 24.7385 40.0919 24.9528 39.6408 25.6992C39.2494 26.3471 38.6069 26.6277 37.5665 26.6047C35.8981 26.5674 33.1909 27.1813 29.2741 28.4851C26.506 29.4064 17.6098 29.6633 14.8663 28.9012Z" fill="white"/>
</svg>
