<svg width="548" height="114" viewBox="0 0 548 114" fill="none" xmlns="http://www.w3.org/2000/svg">
<rect y="34.2295" width="546.334" height="59" rx="11" transform="rotate(-1.86592 0 34.2295)" fill="#F14B64"/>
<path fill-rule="evenodd" clip-rule="evenodd" d="M73.4977 77.4889C71.0634 78.1351 67.5525 79.4845 65.6957 80.4869C61.581 82.7094 46.7685 86.1347 40.8567 86.231C38.4842 86.2697 35.4292 86.504 34.0687 86.7524C31.7078 87.1833 31.7344 87.2317 34.6465 87.7983C36.3249 88.1253 40.2564 88.2628 43.3831 88.1037C46.5098 87.9445 49.3805 88.2731 49.7625 88.8343C50.9477 90.5758 57.2167 89.4701 61.9432 86.6865C64.4251 85.225 68.2487 83.8602 70.4396 83.6549C73.2279 83.393 75.0738 82.475 76.5926 80.5945C78.436 78.3121 79.3884 77.9682 82.9166 78.3077C85.2018 78.5282 87.8345 79.3455 88.7679 80.1255C90.9623 81.956 101.069 78.9998 111.652 80.0123C128.815 83.8556 136.341 84.4124 153.358 83.0996C166.594 82.0796 169.486 81.5723 170.345 80.1257C171.28 78.5514 172.247 78.4774 180.316 79.3618C185.231 79.9007 190.839 80.4478 192.779 80.5779C197.125 80.8693 203.894 82.3126 202.201 82.5865C199.701 82.99 201.197 84.606 204.922 85.5265C207.029 86.0471 210.439 87.944 212.5 89.7414C217.457 94.0635 221.905 95.5149 227.095 94.5064C232.511 93.4524 239.846 89.8599 240.736 87.8241C241.113 86.9589 242.908 86.1431 244.724 86.0102C246.602 85.8728 249.527 84.5031 251.505 82.8363C255.486 79.4808 259.992 78.804 264.473 80.887C266.174 81.6783 269.14 82.1339 271.064 81.9009C276.605 81.2299 276.693 81.277 278.865 86.1895C280 88.7572 281.55 90.8128 282.309 90.7572C283.067 90.7018 284.237 91.5801 284.91 92.709C285.901 94.3716 287.154 94.6868 291.502 94.3687C298.1 93.8858 299.973 93.0173 299.79 90.5254C299.575 87.5776 307.807 79.0825 309.917 80.0753C312.165 81.1339 325.788 84.1149 333.768 85.2949C338.263 85.96 341.848 85.8272 346.018 84.8409C349.26 84.0734 355.856 82.7617 360.677 81.9259C365.497 81.0902 369.725 79.82 370.073 79.1037C370.759 77.6879 382.077 77.7433 382.181 79.1624C382.212 79.5853 384.831 80.0277 388.002 80.1437C391.173 80.2598 393.96 80.8463 394.196 81.447C394.433 82.0466 395.711 82.4586 397.037 82.3616C398.605 82.2468 399.492 82.7956 399.575 83.9302C399.686 85.4462 400.58 85.5157 406.382 84.4592C417.546 82.4266 420.454 81.5123 420.349 80.0687C420.293 79.3112 421.683 78.2595 423.436 77.7317C425.19 77.2049 427.482 76.099 428.531 75.2757C429.578 74.4525 432.859 73.0439 435.822 72.1459C438.783 71.247 444.488 69.1115 448.499 67.3999C452.51 65.6872 459.117 63.4901 463.182 62.5157C471.871 60.4328 497.553 51.5048 498.806 50.1311C500.3 48.4933 498.718 48.1379 495.748 49.4434C487.624 53.0176 470.414 58.1714 450.865 62.8858C422.463 69.7357 423.257 69.6059 387.261 73.2682C364.222 75.6129 355.801 76.8257 354.022 78.0548C348.156 82.1085 322.638 81.3047 313.172 76.7685C308.929 74.7344 307.698 75.1351 302.545 80.2195C297.416 85.2828 295.436 76.5684 289.069 77.8087C283.755 78.8424 283.723 83.6068 282.309 80.887C278.128 72.8463 278.354 77.6831 273.376 77.0244C269.686 76.5362 268.351 76.7249 267.826 77.8087C267.301 78.8925 266.617 78.9897 264.992 78.2111C261.336 76.4618 253.317 77.612 250.578 80.2769C249.239 81.5809 245.802 83.2376 242.941 83.9579C240.081 84.6781 236.147 82.2775 233.569 83.1816C228.513 84.9568 220.718 87.4043 216.184 85.5265C212.194 83.8746 213.416 84.3609 218.788 83.1816C229.61 80.8067 230.955 80.3473 230.5 79.1821C230.237 78.5105 227.461 78.026 224.192 78.0821C220.982 78.1381 217.377 77.558 216.184 76.7938C214.719 75.8567 211.352 75.5997 205.829 76.0039C199.884 76.4389 197.203 76.196 196.032 75.1142C194.98 74.1437 192.465 73.7686 188.805 74.0365C185.718 74.2624 181.167 74.0588 178.692 73.5834C176.218 73.1079 173.425 73.1291 172.486 73.6305C169.399 75.2788 164.91 75.5302 160.036 74.3274C154.796 73.0346 148.014 73.6788 147.596 75.5087C147.451 76.1437 148.856 77.3198 150.718 78.1239C154.061 79.5662 153.99 79.5906 145.044 80.0814C137.84 80.4779 135.594 80.2182 134.076 78.818C132.759 77.6024 130.732 77.1905 127.533 77.4888C122.404 77.9681 113.963 77.3819 101.679 75.6931C92.9982 74.5001 81.811 75.2836 73.4977 77.4889Z" fill="#F14B64"/>
<path fill-rule="evenodd" clip-rule="evenodd" d="M146.242 32.762C144.755 32.215 142.62 31.0361 141.498 30.1428C139.011 28.162 129.951 25.3072 126.306 25.3553C124.843 25.3746 122.963 25.227 122.13 25.0266C120.683 24.6791 120.701 24.6333 122.511 24.0358C123.554 23.691 125.983 23.4707 127.908 23.5464C129.834 23.6222 131.613 23.248 131.862 22.7147C132.634 21.0597 136.476 21.9464 139.327 24.4372C140.825 25.745 143.152 26.931 144.499 27.0717C146.213 27.2513 147.331 28.066 148.224 29.7878C149.308 31.8775 149.888 32.1766 152.073 31.777C153.488 31.5176 155.131 30.6923 155.725 29.9417C157.122 28.1799 159.585 28.2779 167.471 30.4092C173.755 32.1083 174.04 32.0971 179.846 29.928C190.525 25.9358 195.182 25.2398 205.651 26.0691C213.794 26.7131 215.567 27.1196 216.063 28.4513C216.603 29.9006 217.198 29.9471 222.197 28.9323C225.243 28.3139 228.716 27.6717 229.916 27.5048C232.604 27.131 236.814 25.6243 235.776 25.4079C234.243 25.0892 235.204 23.5442 237.524 22.597C238.836 22.0613 240.984 20.2092 242.298 18.4815C245.457 14.327 248.236 12.8668 251.415 13.688C254.732 14.5465 259.174 17.7321 259.675 19.6137C259.888 20.4134 260.976 21.1337 262.094 21.2155C263.249 21.3001 265.022 22.5117 266.204 24.023C268.581 27.0656 271.346 27.5928 274.159 25.5416C275.227 24.7625 277.068 24.2676 278.25 24.4403C281.653 24.938 281.708 24.8919 283.163 20.2507C283.924 17.8247 284.928 15.8678 285.395 15.9019C285.861 15.9361 286.604 15.088 287.046 14.0174C287.696 12.4406 288.477 12.1168 291.152 12.3125C295.212 12.6096 296.347 13.3775 296.176 15.7103C295.974 18.4699 300.856 26.2158 302.18 25.2389C303.592 24.1972 312.067 21.0934 317.019 19.8044C319.808 19.078 322.017 19.1183 324.566 19.9426C326.549 20.584 330.588 21.6557 333.543 22.3241C336.498 22.9925 339.077 24.0807 339.275 24.7419C339.665 26.0488 346.65 25.7328 346.747 24.4043C346.776 24.0084 348.403 23.5338 350.362 23.3513C352.321 23.1688 354.054 22.5557 354.214 21.9889C354.374 21.423 355.173 21.0082 355.988 21.0679C356.953 21.1385 357.513 20.605 357.591 19.5428C357.695 18.1236 358.248 18.0378 361.803 18.8895C368.645 20.5281 370.418 21.3146 370.319 22.666C370.267 23.3751 371.1 24.3255 372.169 24.7777C373.239 25.229 374.627 26.2089 375.255 26.9537C375.882 27.6985 377.874 28.9382 379.681 29.7081C381.487 30.479 384.957 32.3412 387.392 33.8469C389.827 35.3536 393.852 37.2525 396.338 38.068C401.65 39.8114 417.288 47.5544 418.029 48.8088C418.913 50.3043 417.928 50.6734 416.127 49.5229C411.197 46.3727 400.699 41.9587 388.746 38.0099C371.382 32.2722 371.869 32.375 349.744 29.7934C335.583 28.1405 330.416 27.2039 329.347 26.0969C325.822 22.4459 310.058 23.793 304.111 28.2529C301.446 30.2527 300.696 29.907 297.635 25.2763C294.589 20.6646 293.621 19.883 289.721 18.8726C286.467 18.0309 286.302 18.098 285.366 20.6726C282.598 28.2839 282.649 28.2114 279.563 28.9431C277.274 29.4855 276.455 29.3403 276.156 28.3399C275.858 27.3394 275.438 27.2646 274.417 28.0301C272.121 29.7501 267.199 28.8625 265.572 26.4363C264.776 25.249 262.694 23.7812 260.946 23.175C259.198 22.5688 256.484 21.4307 254.914 20.646C251.836 19.1053 247.878 19.3199 245.036 21.1805C242.535 22.8174 242.737 23.4879 246.025 24.4644C252.646 26.4309 253.466 26.8288 253.157 27.9282C252.98 28.5619 251.256 29.0795 249.24 29.1034C247.26 29.126 245.023 29.7524 244.269 30.4943C243.343 31.4042 241.259 31.723 237.861 31.4743C234.203 31.2066 232.543 31.4962 231.795 32.5344C231.124 33.4659 229.563 33.8751 227.311 33.7103C225.411 33.5713 222.599 33.8678 221.06 34.3698C219.522 34.8719 217.8 34.9173 217.232 34.4707C215.366 33.0026 212.602 32.8725 209.567 34.1103C206.303 35.4407 202.134 34.9972 201.919 33.297C201.844 32.7069 202.738 31.5752 203.906 30.7803C206.002 29.3545 205.959 29.3333 200.451 29.0836C196.015 28.8813 194.623 29.1765 193.654 30.5203C192.812 31.687 191.552 32.1192 189.586 31.9152C186.432 31.5871 181.21 32.332 173.591 34.1969C168.207 35.5145 151.32 34.6286 146.242 32.762Z" fill="#F14B64"/>
<path d="M50.9987 60.1032C53.3301 60.7433 55.2455 62.7907 55.3004 65.9902C55.3766 70.4295 52.9947 73.8309 44.5559 73.9758L21.0394 74.3796L20.7599 58.1019L44.4364 57.6955C45.6363 57.6749 46.7485 57.2157 46.7252 55.8559C46.7025 54.5361 45.5358 54.1561 44.376 54.176L20.6995 54.5825L26.1792 47.5274L43.8966 47.2232C50.2957 47.1133 54.4576 49.5222 54.5421 54.4415C54.5963 57.6011 52.8268 59.3917 50.9987 60.1032ZM44.4146 63.4167L29.1769 63.6783L29.2401 67.3577L44.4778 67.0961C46.2775 67.0652 47.0264 66.4123 47.0052 65.1725C46.9853 64.0126 46.2144 63.3858 44.4146 63.4167ZM66.9892 66.7097L89.7458 66.319L84.5447 73.2893L58.7885 73.7315L58.3292 46.9754L89.3246 46.4433L84.0849 53.4943L66.7674 53.7916L66.8223 56.9911L88.0192 56.6272L83.3643 62.788L66.9267 63.0702L66.9892 66.7097ZM107.05 66.0219L125.807 65.6999L120.606 72.6702L107.168 72.9009C97.889 73.0602 90.9491 67.2985 90.8159 59.5396C90.6813 51.7008 97.4296 46.3041 106.708 46.1448L125.466 45.8228L120.266 52.8731L106.828 53.1038C102.348 53.1807 99.0349 55.918 99.1008 59.7574C99.1661 63.5569 102.53 66.0995 107.05 66.0219ZM146.249 45.0259C159.247 44.8028 165.879 48.9295 166.043 58.4881C166.207 68.0467 159.721 72.4387 146.723 72.6619C133.685 72.8857 127.093 68.7182 126.929 59.1597C126.765 49.6011 133.211 45.2498 146.249 45.0259ZM146.604 65.7029C154.923 65.5601 157.903 64.3887 157.804 58.6296C157.705 52.8704 154.687 51.8421 146.368 51.9849C138.05 52.1277 135.069 53.2591 135.168 59.0182C135.266 64.7774 138.285 65.8457 146.604 65.7029ZM182.261 47.2481L186.671 54.7335C189.101 58.8124 190.175 60.7942 191.127 62.6582C191.975 60.7633 192.981 58.7858 195.27 54.6259L199.419 46.9535C200.349 45.2173 201.77 44.0727 203.93 44.0357C206.009 44 207.87 45.1682 208.632 47.6355L215.795 71.036L207.556 71.1774L204.876 61.902C203.984 58.8769 203.387 56.7268 202.91 54.5747C202.063 56.4695 201.098 58.5264 199.318 62.0375L195.834 68.8183C194.479 71.4819 193.126 71.8652 191.126 71.8995C189.126 71.9339 187.76 71.5973 186.315 68.9817L182.6 62.2845C180.577 58.6387 179.585 56.7754 178.714 54.9901C178.35 57.1167 177.789 59.3666 177.04 62.3799L174.681 71.7418L166.562 71.8812L173.077 48.2459C173.755 45.7539 175.614 44.5218 177.693 44.4861C179.813 44.4497 181.271 45.5048 182.261 47.2481ZM226.227 63.9759L248.983 63.5852L243.782 70.5555L218.026 70.9977L217.567 44.2416L248.562 43.7095L243.322 50.7605L226.005 51.0578L226.06 54.2573L247.257 53.8934L242.602 60.0542L226.164 60.3364L226.227 63.9759ZM308.071 69.4518L276.956 69.9859L281.837 63.0211L288.556 62.9058C290.156 62.8783 292.036 62.846 293.317 62.9041C292.581 61.9566 291.433 60.336 290.531 59.0713L285.61 52.0748L273.357 70.0477L263.558 70.216L280.3 45.725C281.393 44.146 283.008 42.678 285.608 42.6334C288.087 42.5908 289.75 43.8825 290.939 45.5423L308.071 69.4518ZM322.193 42.4454L332.352 42.271L344.695 59.8217L356.948 41.8487L366.707 41.6812L350.004 66.1715C348.871 67.7511 347.256 69.2191 344.697 69.263C342.217 69.3056 340.555 68.0139 339.366 66.3541L322.193 42.4454ZM377.256 41.5L377.715 68.2561L369.436 68.3982L368.977 41.6422L377.256 41.5ZM390.23 61.1602L410.947 60.8046L405.706 67.7756L382.069 68.1814L381.61 41.4253L389.888 41.2832L390.23 61.1602ZM421.183 60.6288L441.9 60.2732L436.659 67.2441L413.022 67.6499L412.563 40.8939L420.842 40.7518L421.183 60.6288ZM485.081 66.4128L453.966 66.947L458.847 59.9822L465.566 59.8668C467.166 59.8394 469.046 59.8071 470.327 59.8651C469.59 58.9176 468.442 57.2971 467.541 56.0324L462.62 49.0358L450.366 67.0088L440.568 67.177L457.31 42.686C458.403 41.107 460.018 39.6391 462.618 39.5945C465.097 39.5519 466.76 40.8436 467.948 42.5034L485.081 66.4128ZM495.171 39.4757L495.63 66.2317L487.352 66.3738L486.892 39.6178L495.171 39.4757ZM527.108 66.1314C526.068 66.1492 525.064 65.9264 523.764 64.7486L507.113 50.3123L507.383 66.0299L499.864 66.159L499.483 43.9623C499.422 40.4028 501.557 38.926 503.917 38.8854C504.917 38.8683 505.921 39.0911 507.261 40.2682L523.911 54.7046L523.642 38.9869L531.2 38.8571L531.581 61.0138C531.642 64.5733 529.508 66.0902 527.108 66.1314Z" fill="black"/>
</svg>
