<svg width="527" height="34" viewBox="0 0 527 34" fill="none" xmlns="http://www.w3.org/2000/svg">
<g opacity="0.71">
<path d="M242.1 12.1998L248.3 11.1998C243.9 9.2998 239 7.1998 237.4 6.6998C234.4 5.7998 230.8 6.6998 230.8 6.6998L219.7 8.1998C224.2 10.1998 228.6 12.0998 228.6 12.0998H242.1V12.1998Z" fill="#99A5EC"/>
<path d="M501.9 31.5998L508 9.3998L495.6 4.2998L483.3 9.8998L501.9 31.5998L145.6 29.0998H141.2L501.9 31.5998Z" fill="#6F78B7"/>
<path d="M424.6 11.2998L395.4 2.2998L384.4 4.8998L413.8 13.8998C413.9 13.9998 420.1 12.3998 424.6 11.2998Z" fill="#9EAAF2"/>
<path d="M291.5 13.1004L286.6 11.9004L285.8 12.0004L288 14.0004L291.5 13.1004Z" fill="#B58DC0"/>
<path d="M219.8 8.3C215.8 6.6 211.6 4.8 210.2 4.4C207.2 3.5 203.6 4.4 203.6 4.4L147.4 12.2L118.5 26L149 27L174.6 14.6L219.8 8.3Z" fill="#9EAAF2"/>
<path d="M269.4 14.6L285.8 12L284.2 10.5L269.8 12.2L259.2 9.5L248.2 11.2C252.3 13 255.8 14.6 255.8 14.6H269.4Z" fill="#9EAAF2"/>
<path opacity="0.58" d="M456.3 12.9004C457.8 13.0004 469.2 16.4004 469.2 16.4004L483.3 10.0004L480.8 7.00039L468.4 1.90039L441.8 14.0004C441.8 14.0004 430.5 10.6004 428.9 10.5004C428.4 10.5004 426.7 10.8004 424.6 11.3004L441.1 16.4004C441.2 16.4004 454.8 12.8004 456.3 12.9004Z" fill="#6F78B7"/>
<path d="M311.5 12.9L315.3 16.4L355.7 6.4L371.6 8.1L384.4 5L368.1 0L344.3 5.7L328.4 4L291.5 13.1L297.2 14.6L311.5 12.9Z" fill="#9EAAF2"/>
<path d="M483.3 9.90039L469.2 16.3004C469.2 16.3004 457.9 12.9004 456.3 12.8004C454.8 12.7004 441.2 16.3004 441.2 16.3004L424.7 11.2004C420.2 12.2004 413.9 13.9004 413.9 13.9004L384.5 4.90039L371.7 8.00039L355.8 6.30039L315.4 16.3004L311.6 12.8004L297.2 14.5004L291.6 13.1004L288 14.0004L285.8 12.0004L269.4 14.6004H256C256 14.6004 252.4 13.0004 248.4 11.2004L242.2 12.2004H228.8C228.8 12.2004 224.4 10.3004 219.9 8.30039L174.8 14.6004L147 27L502.1 31.6004L483.3 9.90039Z" fill="#96A2EC"/>
<path d="M483.3 9.90039L469.2 16.3004C469.2 16.3004 457.9 12.9004 456.3 12.8004C454.8 12.7004 441.2 16.3004 441.2 16.3004L424.7 11.2004C420.2 12.2004 413.9 13.9004 413.9 13.9004L384.5 4.90039L371.7 8.00039L355.8 6.30039L315.4 16.3004L311.6 12.8004L297.2 14.5004L291.6 13.1004L288 14.0004L285.8 12.0004L269.4 14.6004H256C256 14.6004 252.4 13.0004 248.4 11.2004L242.2 12.2004H228.8C228.8 12.2004 224.4 10.3004 219.9 8.30039L174.8 14.6004L147 27L248.4 30.5H262L323 23.5L351 24.7664L358 22.5L432 30.5L454.5 32L483.3 9.90039Z" fill="#8E9AE4"/>
</g>
</svg>
