<svg width="416" height="34" viewBox="0 0 416 34" fill="none" xmlns="http://www.w3.org/2000/svg">
<g clip-path="url(#clip0_23_773)">
<g opacity="0.71">
<path d="M173.1 12.1998L166.9 11.1998C171.3 9.2998 176.2 7.1998 177.8 6.6998C180.8 5.7998 184.4 6.6998 184.4 6.6998L195.5 8.1998C191 10.1998 186.6 12.0998 186.6 12.0998H173.1V12.1998Z" fill="#99A5EC"/>
<path d="M-86.6999 31.5998L-92.7999 9.3998L-80.3999 4.2998L-68.0999 9.8998L-86.6999 31.5998L269.6 29.0998H274L-86.6999 31.5998Z" fill="#B58DC0"/>
<path d="M-9.39984 11.2998L19.8002 2.2998L30.8002 4.8998L1.40018 13.8998C1.30018 13.9998 -4.89984 12.3998 -9.39984 11.2998Z" fill="#9EAAF2"/>
<path d="M123.7 13.0999L128.6 11.8999L129.4 11.9999L127.2 13.9999L123.7 13.0999Z" fill="#B58DC0"/>
<path d="M195.4 8.3C199.4 6.6 203.6 4.8 205 4.4C208 3.5 211.6 4.4 211.6 4.4L267.8 12.2L301.2 28.9L269.6 29.1L240.6 14.6L195.4 8.3Z" fill="#9EAAF2"/>
<path d="M145.8 14.6L129.4 12L131 10.5L145.4 12.2L156 9.5L167 11.2C162.9 13 159.4 14.6 159.4 14.6H145.8Z" fill="#9EAAF2"/>
<path d="M103.7 12.9L99.9002 16.4L59.5002 6.4L43.6002 8.1L30.8002 5L47.1002 0L70.9002 5.7L86.8002 4L123.7 13.1L118 14.6L103.7 12.9Z" fill="#9EAAF2"/>
<path d="M-68.0999 9.8999L-53.9999 16.2999C-53.9999 16.2999 -42.6999 12.8999 -41.0999 12.7999C-39.5999 12.6999 -25.9999 16.2999 -25.9999 16.2999L-9.49988 11.1999C-4.99988 12.1999 1.30014 13.8999 1.30014 13.8999L30.7001 4.8999L43.5001 7.9999L59.4001 6.2999L99.8002 16.2999L103.6 12.7999L118 14.4999L123.6 13.0999L127.2 13.9999L129.4 11.9999L145.8 14.5999H159.2C159.2 14.5999 162.8 12.9999 166.8 11.1999L173 12.1999H186.4C186.4 12.1999 190.8 10.2999 195.3 8.2999L240.4 14.5999L269.4 29.0999L-86.8999 31.5999L-68.0999 9.8999Z" fill="#B58DC0"/>
<path d="M-68.0999 9.8999L-53.9999 16.2999C-53.9999 16.2999 -42.6999 12.8999 -41.0999 12.7999C-39.5999 12.6999 -25.9999 16.2999 -25.9999 16.2999L-9.49988 11.1999C-4.99988 12.1999 1.30014 13.8999 1.30014 13.8999L30.7001 4.8999L43.5001 7.9999L59.4001 6.2999L99.8002 16.2999L103.6 12.7999L118 14.4999L123.6 13.0999L127.2 13.9999L129.4 11.9999L145.8 14.5999H159.2C159.2 14.5999 162.8 12.9999 166.8 11.1999L173 12.1999H186.4C186.4 12.1999 190.8 10.2999 195.3 8.2999L240.4 14.5999L269.4 29.0999L-86.8999 31.5999L-68.0999 9.8999Z" fill="#8E9AE4"/>
</g>
</g>
<defs>
<clipPath id="clip0_23_773">
<rect width="415.2" height="34" fill="white"/>
</clipPath>
</defs>
</svg>
