<svg width="226" height="20" viewBox="0 0 226 20" fill="none" xmlns="http://www.w3.org/2000/svg">
<path fill-rule="evenodd" clip-rule="evenodd" d="M169.859 13.9821C168.85 13.8815 166.695 13.7914 165.068 13.782C163.196 13.7708 162.109 13.647 162.105 13.4445C162.101 13.2684 162.266 13.1095 162.47 13.0912C162.675 13.0729 163.11 12.6388 163.436 12.1264C164.014 11.2195 163.991 11.1829 162.541 10.7292C161.291 10.3387 161.096 10.1482 161.329 9.54755C161.592 8.86958 161.507 8.83199 159.739 8.84396C157.154 8.86127 156.495 12.2713 155.562 11.3589C154.83 10.6438 153.874 15.1214 151.249 14.9789C150.016 14.9121 147.11 10.7869 145.576 11.8938C144.565 12.6237 142.645 9.91307 142.468 10.8071C142.451 10.8939 141.654 11.2113 140.697 11.5126C139.741 11.8136 137.906 12.4654 136.619 12.9612C133.56 14.1395 130.61 14.6756 129.491 14.256C128.837 14.0106 128.341 14.0253 127.073 14.3278C126.196 14.5369 123.904 14.8506 121.98 15.0245C120.02 15.2018 117.563 15.5899 116.392 15.9069C114.293 16.4759 112.727 16.5821 109.281 16.3889C107.25 16.2751 107.026 15.9917 108.681 15.6278C109.41 15.4676 109.839 15.2019 109.833 14.9143C109.825 14.5625 110.548 14.2676 112.957 13.641C116.99 12.5916 117.09 12.5469 116.06 12.252C115.494 12.0898 113.815 12.1274 111.206 12.3605C108.33 12.6176 106.521 12.6429 104.726 12.4514C100.322 11.9813 97.5623 12.2201 91.964 13.5552C89.2387 14.205 86.0061 15.105 84.7802 15.5548C83.5144 16.0193 81.7868 16.4409 80.78 16.531C79.3724 16.6568 79.0382 16.7708 79.1539 17.0851C79.3767 17.689 73.861 18.7642 68.6112 19.1399C64.5163 19.4329 64.3952 19.4244 62.6861 18.7216C61.3549 18.1741 60.296 17.9948 58.2168 17.9645C55.6652 17.9274 55.4914 17.8816 55.4775 17.2417C55.465 16.6664 55.0003 16.449 52.5377 15.8657C50.2615 15.3266 48.8761 15.186 46.2946 15.2315C42.6436 15.2964 38.1335 15.9509 35.5319 16.7938C34.6875 17.0674 32.2152 17.5192 30.038 17.7975C27.8608 18.0758 25.1076 18.4524 23.9198 18.6343C21.9626 18.934 21.6164 18.9074 20.2252 18.3498C18.5519 17.6793 16.6491 17.7135 13.0073 18.4793C10.1455 19.0811 -0.648646 20.2679 0.195366 19.8878C0.57691 19.7162 1.40408 19.528 2.03326 19.4696C3.37925 19.3449 13.3797 16.8557 15.0598 16.2271C20.7756 14.0886 26.3148 12.8471 31.5245 12.5363C33.8373 12.3983 35.9674 12.4221 37.0476 12.5985C38.7798 12.8811 38.8623 12.8718 42.6381 11.9773C44.7456 11.4779 47.0116 10.8803 47.6734 10.6496C48.6046 10.3247 49.9223 10.1888 53.4979 10.0485C64.9838 9.5976 69.6133 9.6919 75.1717 10.4902C79.8371 11.1604 82.6869 11.2947 85.7868 10.9907C88.4957 10.7248 92.0815 9.94028 92.2961 9.56621C92.468 9.26698 83.7694 8.05203 82.3328 8.1747C81.366 8.25705 79.9127 8 80.2705 7.80952C80.3901 7.74592 83.2164 7.53352 86.5512 7.33726C89.886 7.141 95.972 6.75645 100.076 6.48249C106.055 6.08333 107.956 6.04381 109.645 6.28267C113.552 6.83581 116.883 7.06391 120.168 7.00324C127.122 6.87492 128.06 6.8022 129.026 6.31596C129.534 6.06059 130.679 5.53379 131.569 5.1459C132.906 4.56323 133.166 4.31219 133.059 3.70476C132.899 2.79356 134.795 1.69846 137.679 1.03694C142.727 -0.121089 154.389 -0.302288 157.625 0.727147L158.801 1.10131L157.215 1.9362C155.384 2.90059 155.468 2.92756 160.287 2.90225C162.186 2.8924 163.282 3.03285 163.962 3.37351C164.496 3.64034 166.414 4.37736 168.226 5.01112L171.52 6.16387L176.647 5.72806C180.832 5.37246 182.502 5.3463 185.731 5.58521C187.906 5.74652 190.431 6.01746 191.341 6.18732C192.251 6.35722 193.341 6.46533 193.762 6.42761C194.184 6.38989 195.876 6.50022 197.522 6.67266C199.168 6.84535 203.241 6.97803 206.574 6.96773C214.273 6.94409 216.932 7.09211 221.291 7.78676C225.581 8.47066 225.31 8.3954 224.74 8.74494C224.417 8.94289 223.574 8.97505 222.08 8.84681C220.876 8.74352 218.268 8.70742 216.284 8.76698C214.299 8.82634 211.309 8.88494 209.64 8.89724C207.952 8.90956 201.953 9.37279 196.12 9.94128L185.634 10.963L180.639 12.4043C175.258 13.9571 172.969 14.292 169.859 13.9821Z" fill="black"/>
</svg>
