<svg width="303" height="27" viewBox="0 0 303 27" fill="none" xmlns="http://www.w3.org/2000/svg">
<path fill-rule="evenodd" clip-rule="evenodd" d="M300.785 0.3487C300.648 0.4935 297.045 1.1635 292.78 1.83715C288.515 2.51082 283.071 3.39602 280.684 3.80488C278.296 4.21313 274.456 4.79335 272.151 5.09356C269.543 5.43349 267.969 5.91549 267.984 6.37009C268.002 6.8858 264.491 7.43583 256.041 8.24269C239.361 9.83482 233.8 9.97586 233.76 8.80696C233.722 7.6845 233.684 7.68577 225.308 9.05721C218.973 10.0946 213.123 10.5722 204.25 10.7744C198.27 10.9115 200.472 10.4049 209.15 9.64903C213.597 9.26158 219.609 8.61691 222.512 8.21616C225.414 7.8154 231.492 7.02902 236.019 6.46815C240.546 5.9079 244.244 5.29705 244.238 5.1113C244.207 4.23447 219.028 6.06315 213.127 7.37082C211.229 7.79107 197.122 8.52938 179.453 9.13309C150.075 10.1368 149.016 10.2134 148.239 11.3851C147.458 12.5619 147.138 12.5832 137.467 12.0884C131.986 11.8077 124.972 11.4968 121.881 11.3968C118.79 11.2975 113.587 11.0287 110.32 10.8002C98.8352 9.99722 88.5167 10.2348 82.3298 11.4451C77.0172 12.4849 75.9065 13.019 75.335 14.8132C75.2297 15.1435 71.8021 15.6001 67.7186 15.8283C63.6344 16.0566 55.6713 16.5299 50.0225 16.8801C44.3737 17.2297 38.3514 17.6007 36.6395 17.7032C34.9277 17.8063 28.7392 18.0068 22.8868 18.1492C11.0648 18.4363 0.830244 19.3928 0.858231 20.2079C0.868281 20.5006 1.22757 20.7367 1.65599 20.7331C2.09748 20.729 1.92848 21.13 1.26542 21.6573C-0.634436 23.1702 0.713773 23.4674 4.99764 22.4792C7.20456 21.9701 9.41247 21.6897 9.90409 21.8559C10.3963 22.0219 16.2253 22.1427 22.8586 22.1241C29.4919 22.1061 36.4697 22.2959 38.3653 22.5468C40.2608 22.7971 45.6107 23.2805 50.254 23.621C60.5548 24.3751 62.17 24.5456 66.4248 25.3283C69.0187 25.8055 69.8704 25.7764 70.2073 25.1991C70.4459 24.789 71.7785 24.3036 73.1682 24.1197C75.2484 23.8449 75.9356 24.0398 77.0578 25.2207C78.7702 27.0244 82.1243 27.0603 83.648 25.2916C84.2262 24.6204 84.5051 23.785 84.2679 23.4352C84.0307 23.0854 84.0898 22.791 84.3995 22.7804C84.7091 22.7698 86.6601 21.602 88.7348 20.1853C92.4558 17.6442 94.6705 17.0712 97.9226 17.808C98.6965 17.9834 99.167 18.4066 98.9673 18.7486C98.7381 19.1413 99.4885 19.2135 101.008 18.9444C105.178 18.2061 114.614 17.3264 114.262 17.7092C113.978 18.0162 106.064 19.4562 92.628 21.6447C90.5705 21.9799 90.1211 22.2265 90.8733 22.607C92.6304 23.4939 112.973 20.993 123.314 18.6178C126.835 17.8093 129.7 17.5622 133.544 17.7361C141.833 18.1099 142.482 18.2957 141.196 19.9253C140.116 21.294 141.52 24.0931 143.046 23.614C144.926 23.0236 148.901 22.4669 155.302 21.8977C163.884 21.1347 167.587 20.5267 168.527 19.7256C169.058 19.2744 174.113 18.934 183.459 18.7193C191.231 18.5406 197.395 18.2169 197.157 17.9992C196.474 17.3735 193.671 17.2821 175.527 17.294C166.153 17.2998 158.311 17.1475 158.101 16.9546C157.46 16.3672 183.284 15.691 189.03 16.145C202.33 17.1961 208.223 17.1764 218.414 16.0464C232.13 14.525 238.486 13.8888 251.05 12.778C256.865 12.2637 263.347 11.5125 265.454 11.1089C267.561 10.7047 271.612 10.1705 274.458 9.92157C280.604 9.38306 279.945 9.54933 279.911 8.54724C279.891 7.97898 281.844 7.33599 286.233 6.46662C293.332 5.06114 302.214 1.97853 302.569 0.797332C302.783 0.0895931 301.371 -0.265912 300.785 0.3487ZM245.644 4.84852C246.255 4.98301 247.096 4.94389 247.512 4.76206C247.928 4.58022 247.428 4.47069 246.4 4.51803C245.373 4.56538 245.032 4.71403 245.644 4.84852ZM242.349 8.01371C242.804 8.17494 243.341 8.13458 243.541 7.92465C243.741 7.71472 243.369 7.58307 242.713 7.63178C241.988 7.68591 241.845 7.83577 242.349 8.01371Z" fill="black"/>
</svg>
