<svg width="375" height="116" viewBox="0 0 375 116" fill="none" xmlns="http://www.w3.org/2000/svg">
<path d="M-185.995 66.1386L565.451 35.0183L565.388 50.3811L-186.058 81.5013L-185.995 66.1386Z" fill="#F14B64"/>
<path fill-rule="evenodd" clip-rule="evenodd" d="M-139.215 58.9994C-139.49 59.1172 -140.074 59.291 -140.513 59.3856C-141.018 59.4946 -141.314 59.6312 -141.321 59.7577C-141.327 59.8676 -141.287 59.9577 -141.232 59.9579C-141.178 59.9582 -141.072 60.2051 -140.998 60.5067C-140.867 61.0405 -140.874 61.0646 -141.278 61.4265C-141.626 61.7381 -141.684 61.8676 -141.637 62.2293C-141.585 62.6376 -141.609 62.6657 -142.085 62.7547C-142.782 62.8849 -143.298 63.2826 -143.575 63.9023C-143.792 64.388 -144.06 64.595 -144.772 64.8269C-145.106 64.9358 -145.933 64.3631 -146.316 63.7567C-146.569 63.3569 -146.667 63.0207 -146.69 62.473C-146.692 62.4199 -146.898 62.2654 -147.148 62.1298C-147.398 61.9943 -147.875 61.6881 -148.209 61.4492C-149.001 60.8815 -149.782 60.7083 -150.096 61.0309C-150.279 61.2196 -150.412 61.2375 -150.746 61.1181C-150.977 61.0355 -151.586 60.965 -152.101 60.9615C-152.624 60.958 -153.277 60.8501 -153.584 60.7163C-154.134 60.4761 -154.554 60.4954 -155.489 60.8037C-156.039 60.9855 -156.108 61.1744 -155.671 61.311C-155.479 61.3711 -155.371 61.5133 -155.38 61.6929C-155.392 61.9127 -155.205 62.057 -154.572 62.3163C-153.513 62.7504 -153.487 62.7728 -153.773 63.0129C-153.93 63.1449 -154.382 63.2131 -155.08 63.2101C-155.848 63.2067 -156.336 63.2896 -156.825 63.5069C-158.026 64.0402 -158.764 64.0418 -160.237 63.515C-160.954 63.2585 -161.802 62.8738 -162.12 62.6603C-162.449 62.4398 -162.903 62.2712 -163.172 62.27C-163.548 62.2683 -163.635 62.2155 -163.596 62.0132C-163.519 61.6246 -164.977 61.2552 -166.383 61.3074C-167.479 61.3482 -167.512 61.3601 -167.992 61.8914C-168.367 62.3054 -168.657 62.4749 -169.219 62.6072C-169.908 62.7695 -169.956 62.8075 -169.977 63.2072C-169.997 63.5665 -170.128 63.7274 -170.808 64.2254C-171.437 64.6856 -171.814 64.8489 -172.509 64.9613C-173.492 65.12 -174.691 64.958 -175.369 64.5745C-175.59 64.45 -176.244 64.3032 -176.824 64.2485C-177.403 64.1938 -178.136 64.1092 -178.451 64.0606C-178.971 63.9806 -179.065 64.016 -179.455 64.4395C-179.925 64.9488 -180.437 65.0313 -181.399 64.7526C-182.154 64.5335 -185.033 64.3825 -184.816 64.5734C-184.718 64.6596 -184.5 64.7318 -184.332 64.7339C-183.972 64.7382 -181.343 65.7444 -180.907 66.0446C-179.424 67.0659 -177.964 67.5377 -176.567 67.4473C-175.947 67.4071 -175.372 67.2761 -175.076 67.1072C-174.601 66.8365 -174.579 66.8378 -173.585 67.1894C-173.03 67.3858 -172.435 67.6347 -172.263 67.7425C-172.021 67.8942 -171.669 67.907 -170.709 67.7994C-167.623 67.4539 -166.372 67.1426 -164.85 66.3417C-163.574 65.6694 -162.801 65.4302 -161.973 65.4506C-161.25 65.4686 -160.304 65.7621 -160.257 65.9836C-160.219 66.1607 -162.598 67.3926 -162.982 67.3945C-163.241 67.396 -163.64 67.6355 -163.549 67.7347C-163.518 67.7678 -162.762 67.7461 -161.867 67.6865C-160.973 67.6269 -159.342 67.5346 -158.243 67.4816C-156.641 67.4042 -156.13 67.3252 -155.667 67.0841C-154.598 66.5261 -153.694 66.2022 -152.809 66.0608C-150.937 65.7615 -150.686 65.7557 -150.439 66.0061C-150.309 66.1375 -150.015 66.4035 -149.785 66.5967C-149.44 66.887 -149.377 67.0294 -149.423 67.4139C-149.491 67.9906 -149.009 68.5699 -148.25 68.825C-146.92 69.2715 -143.779 68.7482 -142.878 67.93L-142.551 67.6326L-142.956 67.1986C-143.423 66.6973 -143.4 66.6759 -142.1 66.4288C-141.589 66.3314 -141.289 66.184 -141.096 65.9345C-140.945 65.7391 -140.407 65.175 -139.901 64.681L-138.981 63.7827L-137.61 63.7747C-136.491 63.7681 -136.041 63.6933 -135.164 63.3682C-134.573 63.149 -133.885 62.8424 -133.634 62.6868C-133.384 62.5313 -133.087 62.4044 -132.975 62.4049C-132.862 62.4054 -132.402 62.2444 -131.954 62.0471C-131.505 61.8496 -130.403 61.5447 -129.504 61.3693C-127.428 60.9641 -126.707 60.7267 -125.512 60.0559C-124.336 59.3955 -124.412 59.4572 -124.556 59.2704C-124.637 59.1646 -124.864 59.1906 -125.27 59.352C-125.598 59.4821 -126.302 59.6469 -126.836 59.718C-127.37 59.7893 -128.174 59.9158 -128.624 59.9992C-129.079 60.0836 -130.685 60.1221 -132.243 60.0859L-135.043 60.021L-136.351 59.395C-137.759 58.7205 -138.368 58.6366 -139.215 58.9994Z" fill="#F14B64"/>
<path fill-rule="evenodd" clip-rule="evenodd" d="M176.269 45.8504C175.993 45.9669 175.409 46.138 174.97 46.2306C174.464 46.3374 174.167 46.4726 174.16 46.599C174.154 46.7089 174.193 46.7992 174.248 46.7997C174.303 46.8002 174.408 47.0476 174.481 47.3495C174.61 47.8839 174.603 47.9079 174.198 48.268C173.849 48.5781 173.791 48.7072 173.836 49.0692C173.887 49.4777 173.863 49.5056 173.386 49.5925C172.689 49.7195 172.172 50.1149 171.893 50.7333C171.674 51.2181 171.406 51.4238 170.693 51.6525C170.359 51.7599 169.534 51.1834 169.152 50.5754C168.901 50.1744 168.804 49.8378 168.782 49.2901C168.78 49.2369 168.575 49.0815 168.325 48.9448C168.076 48.8082 167.6 48.4998 167.267 48.2594C166.476 47.6882 165.696 47.5114 165.381 47.8326C165.197 48.0204 165.064 48.0377 164.731 47.9168C164.5 47.8332 163.891 47.76 163.377 47.7541C162.853 47.7482 162.201 47.6374 161.894 47.5022C161.344 47.2596 160.925 47.2769 159.989 47.581C159.437 47.7603 159.369 47.9489 159.805 48.0875C159.997 48.1484 160.105 48.2911 160.095 48.4707C160.082 48.6904 160.269 48.8356 160.901 49.0976C161.958 49.5366 161.984 49.5591 161.697 49.7979C161.54 49.9291 161.088 49.9953 160.39 49.9892C159.622 49.9822 159.134 50.063 158.644 50.278C157.442 50.8059 156.704 50.8042 155.232 50.2707C154.516 50.0111 153.669 49.6225 153.352 49.4076C153.024 49.1856 152.57 49.0149 152.301 49.0125C151.925 49.0091 151.838 48.9559 151.878 48.7538C151.956 48.3656 150.499 47.9896 149.093 48.0355C147.996 48.0712 147.963 48.083 147.481 48.6122C147.106 49.0244 146.815 49.1926 146.253 49.3224C145.563 49.4816 145.515 49.5194 145.492 49.919C145.472 50.2782 145.34 50.4385 144.659 50.9333C144.028 51.3907 143.65 51.5523 142.955 51.6615C141.971 51.8158 140.773 51.6484 140.096 51.2618C139.876 51.1363 139.222 50.9866 138.643 50.9293C138.063 50.8719 137.331 50.784 137.016 50.734C136.496 50.6516 136.402 50.6866 136.01 51.1084C135.539 51.6155 135.026 51.6957 134.066 51.4126C133.311 51.1901 130.433 51.0261 130.649 51.218C130.747 51.3046 130.965 51.3778 131.133 51.3807C131.493 51.3866 134.119 52.4047 134.554 52.7069C136.034 53.7348 137.492 54.2132 138.889 54.1291C139.509 54.0917 140.085 53.9633 140.382 53.7957C140.858 53.5272 140.88 53.5286 141.873 53.8847C142.427 54.0836 143.021 54.3352 143.193 54.4437C143.434 54.5965 143.786 54.611 144.747 54.5077C147.834 54.1762 149.086 53.8705 150.61 53.0765C151.889 52.41 152.662 52.1743 153.489 52.1985C154.213 52.2197 155.158 52.5174 155.205 52.7391C155.242 52.9165 152.859 54.1376 152.475 54.1378C152.216 54.138 151.816 54.3757 151.907 54.4753C151.938 54.5086 152.694 54.4902 153.589 54.4347C154.483 54.3792 156.114 54.2943 157.214 54.2462C158.816 54.1761 159.328 54.0993 159.791 53.8604C160.861 53.3073 161.767 52.9875 162.652 52.8501C164.525 52.5592 164.776 52.5545 165.023 52.806C165.152 52.9381 165.446 53.2054 165.675 53.3996C166.018 53.6915 166.081 53.8341 166.034 54.2184C165.964 54.7948 166.444 55.3762 167.203 55.6347C168.531 56.0872 171.674 55.5782 172.578 54.764L172.906 54.4681L172.502 54.0323C172.036 53.529 172.06 53.5076 173.36 53.2664C173.872 53.1713 174.172 53.0253 174.366 52.7767C174.517 52.582 175.057 52.0203 175.564 51.5287L176.487 50.6345L177.858 50.6327C178.977 50.6312 179.428 50.5584 180.306 50.2373C180.898 50.0208 181.587 49.7173 181.838 49.5629C182.088 49.4084 182.386 49.2829 182.498 49.2839C182.611 49.285 183.071 49.126 183.52 48.9307C183.97 48.7353 185.073 48.4354 185.972 48.2641C188.049 47.8682 188.771 47.6341 189.968 46.9687C191.146 46.3137 191.071 46.3751 190.927 46.1876C190.846 46.0814 190.619 46.1064 190.212 46.266C189.884 46.3945 189.179 46.5561 188.646 46.6249C188.112 46.6937 187.306 46.8166 186.856 46.898C186.401 46.9803 184.795 47.0116 183.238 46.9683L180.438 46.8907L179.132 46.2589C177.725 45.578 177.117 45.4914 176.269 45.8504Z" fill="#F14B64"/>
<path fill-rule="evenodd" clip-rule="evenodd" d="M-119.326 66.7875C-118.801 66.6709 -117.683 66.4995 -116.841 66.4067C-115.872 66.2997 -115.307 66.1644 -115.3 66.0379C-115.294 65.928 -115.376 65.8377 -115.481 65.8372C-115.587 65.8367 -115.802 65.5893 -115.96 65.2874C-116.239 64.7529 -116.227 64.7288 -115.466 64.3685C-114.81 64.0582 -114.705 63.929 -114.812 63.567C-114.934 63.1584 -114.889 63.1304 -113.974 63.0434C-112.636 62.9161 -111.66 62.5204 -111.156 61.9017C-110.762 61.4168 -110.256 61.2109 -108.894 60.9818C-108.254 60.8743 -106.631 61.4506 -105.862 62.0587C-105.354 62.4597 -105.148 62.7963 -105.076 63.3442C-105.069 63.3974 -104.664 63.5527 -104.175 63.6894C-103.687 63.826 -102.751 64.1343 -102.096 64.3746C-100.539 64.9457 -99.0233 65.1222 -98.4347 64.8008C-98.0905 64.6129 -97.834 64.5955 -97.1845 64.7163C-96.7353 64.7998 -95.5556 64.8729 -94.5634 64.8785C-93.5525 64.8842 -92.289 64.9949 -91.6901 65.13C-90.6158 65.3725 -89.8076 65.355 -88.0194 65.0504C-86.9655 64.8709 -86.8434 64.6822 -87.6919 64.5438C-88.0659 64.4829 -88.2821 64.3402 -88.2726 64.1606C-88.2608 63.9408 -88.6289 63.7956 -89.862 63.5338C-91.9267 63.0951 -91.9774 63.0726 -91.4379 62.8337C-91.1412 62.7023 -90.2727 62.636 -88.9271 62.6418C-87.4443 62.6485 -86.5081 62.5675 -85.5748 62.3522C-83.2848 61.8238 -81.8613 61.8252 -78.9927 62.3583C-77.5962 62.6178 -75.9426 63.0061 -75.3179 63.221C-74.6729 63.4429 -73.7878 63.6134 -73.2686 63.6157C-72.5427 63.619 -72.3722 63.6722 -72.439 63.8743C-72.5677 64.2627 -69.736 64.6382 -67.0267 64.5919C-64.9134 64.5557 -64.8505 64.5439 -63.9502 64.0144C-63.2491 63.6019 -62.697 63.4336 -61.62 63.3036C-60.2983 63.1441 -60.2073 63.1062 -60.186 62.7066C-60.1669 62.3472 -59.9215 62.1869 -58.6339 61.6916C-57.4437 61.2339 -56.7234 61.0722 -55.388 60.9626C-53.4995 60.8079 -51.1792 60.9749 -49.851 61.3614C-49.4199 61.4868 -48.15 61.6363 -47.0291 61.6935C-45.9081 61.7506 -44.4912 61.8383 -43.8803 61.8882C-42.8737 61.9704 -42.6939 61.9353 -41.9615 61.5134C-41.0805 61.0059 -40.0962 60.9255 -38.2278 61.2083C-36.7597 61.4306 -31.198 61.5936 -31.6266 61.4017C-31.8203 61.3151 -32.2443 61.242 -32.5688 61.2392C-33.2628 61.2334 -38.3849 60.216 -39.2408 59.9139C-42.1526 58.8863 -44.9927 58.4083 -47.6827 58.493C-48.877 58.5306 -49.9801 58.6592 -50.5432 58.8269C-51.4462 59.0957 -51.4886 59.0943 -53.4236 58.7384C-54.5035 58.5398 -55.6634 58.2883 -56.0009 58.1798C-56.4758 58.0271 -57.155 58.0127 -59.0028 58.1164C-64.9388 58.4491 -67.3374 58.7553 -70.2324 59.5501C-72.6623 60.2172 -74.1404 60.4533 -75.7385 60.4294C-77.1349 60.4084 -78.9739 60.111 -79.0768 59.8892C-79.1592 59.7119 -74.6294 58.4896 -73.8884 58.4893C-73.3898 58.4889 -72.6318 58.251 -72.8128 58.1514C-72.8733 58.1181 -74.3317 58.1368 -76.0537 58.1926C-77.7757 58.2485 -80.9178 58.334 -83.0361 58.3826C-86.1225 58.4533 -87.1056 58.5302 -87.9853 58.7694C-90.0202 59.3231 -91.7493 59.6433 -93.4487 59.781C-97.0458 60.0727 -97.5295 60.0775 -98.0191 59.826C-98.2765 59.6939 -98.8573 59.4267 -99.3098 59.2325C-99.9891 58.9407 -100.118 58.798 -100.049 58.4136C-99.9464 57.837 -100.904 57.2557 -102.382 56.9974C-104.97 56.5452 -111.003 57.0555 -112.701 57.8703L-113.318 58.1663L-112.515 58.6021C-111.588 59.1054 -111.633 59.1268 -114.127 59.3685C-115.109 59.4639 -115.68 59.61 -116.039 59.8587C-116.322 60.0536 -117.331 60.6156 -118.283 61.1075L-120.013 62.0022L-122.658 62.0045C-124.816 62.0065 -125.681 62.0795 -127.357 62.4009C-128.487 62.6178 -129.8 62.9216 -130.275 63.0761C-130.749 63.2307 -131.316 63.3563 -131.533 63.3554C-131.751 63.3544 -132.629 63.5136 -133.485 63.7091C-134.341 63.9047 -136.452 64.2051 -138.177 64.3768C-142.162 64.7735 -143.542 65.0079 -145.814 65.6739C-148.05 66.3296 -147.908 66.2681 -147.62 66.4556C-147.458 66.5618 -147.022 66.5367 -146.246 66.3769C-145.62 66.2482 -144.269 66.0863 -143.243 66.0174C-142.217 65.9483 -140.671 65.8251 -139.807 65.7435C-138.933 65.661 -135.838 65.6292 -132.831 65.6718L-127.426 65.7484L-124.871 66.38C-122.12 67.0605 -120.943 67.1469 -119.326 66.7875Z" fill="#F14B64"/>
<path fill-rule="evenodd" clip-rule="evenodd" d="M196.134 53.7277C196.659 53.6134 197.777 53.447 198.62 53.3581C199.589 53.2555 200.155 53.1227 200.162 52.9963C200.168 52.8863 200.087 52.7957 199.981 52.7947C199.876 52.7938 199.661 52.5454 199.504 52.2428C199.227 51.707 199.239 51.683 200.002 51.3261C200.658 51.0189 200.764 50.8901 200.657 50.5277C200.537 50.1185 200.582 50.0908 201.498 50.0079C202.836 49.8866 203.813 49.4953 204.319 48.8789C204.714 48.3958 205.222 48.1922 206.584 47.9693C207.224 47.8647 208.845 48.4483 209.613 49.0598C210.119 49.4631 210.324 49.8007 210.394 50.3489C210.401 50.4021 210.806 50.5592 211.294 50.6981C211.782 50.8369 212.717 51.1494 213.371 51.3927C214.927 51.9708 216.442 52.1542 217.032 51.8355C217.376 51.6491 217.633 51.6328 218.282 51.7566C218.731 51.8421 219.91 51.9205 220.903 51.9307C221.913 51.9409 223.177 52.0573 223.775 52.1951C224.849 52.4424 225.657 52.4286 227.446 52.1321C228.501 51.9574 228.623 51.7693 227.775 51.627C227.401 51.5644 227.186 51.4208 227.196 51.2412C227.208 51.0215 226.841 50.8746 225.608 50.6072C223.545 50.1592 223.494 50.1364 224.035 49.9C224.332 49.77 225.2 49.7076 226.546 49.7195C228.029 49.7328 228.965 49.6562 229.899 49.4451C232.191 48.927 233.614 48.9349 236.482 49.4809C237.877 49.7467 239.53 50.1425 240.154 50.3602C240.798 50.585 241.683 50.7595 242.202 50.7642C242.928 50.7707 243.098 50.8247 243.031 51.0265C242.901 51.4143 245.731 51.8026 248.441 51.7685C250.554 51.7418 250.617 51.7304 251.519 51.2049C252.222 50.7957 252.774 50.6298 253.852 50.5047C255.174 50.3512 255.265 50.3137 255.287 49.9142C255.308 49.5549 255.554 49.3957 256.843 48.9063C258.034 48.4539 258.755 48.2955 260.091 48.192C261.98 48.0458 264.3 48.2233 265.627 48.6157C266.058 48.7431 267.327 48.8984 268.448 48.9606C269.569 49.0228 270.985 49.1168 271.596 49.1695C272.602 49.2563 272.782 49.222 273.516 48.8034C274.399 48.2999 275.383 48.224 277.251 48.5152C278.718 48.7441 284.279 48.9322 283.852 48.7384C283.658 48.651 283.234 48.5759 282.91 48.5717C282.216 48.5627 277.097 47.5222 276.242 47.2163C273.333 46.1755 270.494 45.6847 267.804 45.7572C266.61 45.7894 265.506 45.9131 264.943 46.0782C264.039 46.3429 263.996 46.3413 262.062 45.9767C260.983 45.7732 259.824 45.5165 259.487 45.4065C259.012 45.2516 258.333 45.2342 256.485 45.3295C250.548 45.6354 248.148 45.9307 245.251 46.7124C242.819 47.3685 241.34 47.5979 239.742 47.5668C238.345 47.5395 236.507 47.2337 236.405 47.0116C236.323 46.8338 240.857 45.632 241.598 45.6351C242.097 45.637 242.855 45.4025 242.675 45.3021C242.614 45.2685 241.156 45.2806 239.433 45.3287C237.711 45.3768 234.569 45.4481 232.45 45.487C229.364 45.5438 228.38 45.6163 227.5 45.8515C225.463 46.3959 223.733 46.7083 222.033 46.8384C218.435 47.1138 217.951 47.1164 217.463 46.8627C217.206 46.7295 216.626 46.4596 216.174 46.2633C215.495 45.9685 215.367 45.8253 215.437 45.4412C215.541 44.8651 214.586 44.2794 213.108 44.0144C210.522 43.5506 204.487 44.0336 202.787 44.8406L202.169 45.1339L202.97 45.5733C203.895 46.0808 203.851 46.1019 201.356 46.3324C200.373 46.4233 199.802 46.5668 199.442 46.8139C199.159 47.0075 198.148 47.565 197.195 48.0526L195.461 48.9394L192.816 48.9298C190.658 48.922 189.794 48.991 188.116 49.3049C186.986 49.5167 185.672 49.8145 185.196 49.9669C184.721 50.1193 184.154 50.2424 183.937 50.2404C183.719 50.2385 182.84 50.3937 181.984 50.5853C181.128 50.777 179.015 51.0679 177.289 51.2318C173.303 51.6105 171.923 51.8386 169.649 52.4944C167.411 53.1399 167.553 53.0791 167.84 53.2679C168.002 53.3748 168.438 53.3517 169.215 53.1954C169.84 53.0695 171.192 52.9137 172.218 52.8494C173.245 52.785 174.791 52.6688 175.655 52.5911C176.529 52.5125 179.625 52.4947 182.632 52.551L188.037 52.652L190.589 53.2951C193.338 53.988 194.516 54.0797 196.134 53.7277Z" fill="#F14B64"/>
<path fill-rule="evenodd" clip-rule="evenodd" d="M39.3547 52.5687C38.8301 52.6854 37.7121 52.8568 36.87 52.9496C35.9007 53.0565 35.3353 53.1918 35.3285 53.3183C35.3227 53.4283 35.4044 53.5186 35.5099 53.519C35.6157 53.5195 35.8312 53.7669 35.9889 54.0689C36.2682 54.6034 36.2553 54.6274 35.4944 54.9878C34.8389 55.298 34.7336 55.4272 34.8411 55.7892C34.9623 56.1978 34.9176 56.2258 34.0025 56.3128C32.6649 56.4402 31.6884 56.8359 31.1852 57.4545C30.7908 57.9395 30.2843 58.1454 28.9226 58.3744C28.2829 58.482 26.66 57.9056 25.8904 57.2976C25.3828 56.8966 25.1771 56.5599 25.1051 56.012C25.0981 55.9588 24.6928 55.8035 24.2041 55.6668C23.7157 55.5303 22.78 55.222 22.1249 54.9816C20.5674 54.4106 19.052 54.234 18.4634 54.5554C18.1192 54.7434 17.8627 54.7608 17.2133 54.6399C16.7641 54.5564 15.5844 54.4833 14.5922 54.4777C13.5813 54.472 12.3178 54.3614 11.7189 54.2263C10.6446 53.9838 9.83634 54.0012 8.04821 54.3058C6.99426 54.4853 6.87218 54.674 7.7207 54.8124C8.09468 54.8733 8.3109 55.016 8.30133 55.1957C8.28962 55.4154 8.65766 55.5606 9.89077 55.8225C11.9555 56.2611 12.0062 56.2837 11.4667 56.5226C11.17 56.6539 10.3014 56.7203 8.95585 56.7144C7.47305 56.7078 6.53687 56.7887 5.60362 57.004C3.31358 57.5324 1.89011 57.531 -0.978561 56.9979C-2.37505 56.7385 -4.02864 56.3501 -4.65335 56.1352C-5.29836 55.9133 -6.18339 55.7428 -6.70258 55.7405C-7.42848 55.7372 -7.59899 55.6841 -7.5322 55.4819C-7.40356 55.0935 -10.2352 54.718 -12.9446 54.7644C-15.0579 54.8006 -15.1208 54.8123 -16.021 55.3418C-16.7221 55.7543 -17.2742 55.9226 -18.3513 56.0526C-19.673 56.2121 -19.7639 56.25 -19.7852 56.6497C-19.8044 57.009 -20.0497 57.1694 -21.3374 57.6646C-22.5276 58.1223 -23.2478 58.284 -24.5832 58.3936C-26.4718 58.5483 -28.7921 58.3813 -30.1202 57.9948C-30.5514 57.8694 -31.8212 57.7199 -32.9422 57.6627C-34.0631 57.6056 -35.48 57.5179 -36.0909 57.4681C-37.0975 57.3858 -37.2773 57.4209 -38.0097 57.8428C-38.8908 58.3503 -39.875 58.4307 -41.7434 58.1479C-43.2116 57.9256 -48.7732 57.7627 -48.3447 57.9545C-48.1509 58.0411 -47.7269 58.1142 -47.4025 58.117C-46.7084 58.1229 -41.5864 59.1402 -40.7305 59.4423C-37.8187 60.4699 -34.9786 60.9479 -32.2885 60.8633C-31.0943 60.8257 -29.9911 60.697 -29.428 60.5293C-28.5251 60.2605 -28.4826 60.2619 -26.5476 60.6178C-25.4677 60.8165 -24.3078 61.0679 -23.9703 61.1764C-23.4954 61.3291 -22.8163 61.3435 -20.9684 61.2398C-15.0325 60.9071 -12.6338 60.6009 -9.73887 59.8061C-7.30897 59.139 -5.83078 58.9029 -4.23277 58.9268C-2.83632 58.9478 -0.997324 59.2452 -0.89446 59.467C-0.812069 59.6443 -5.34181 60.8667 -6.0828 60.867C-6.58146 60.8673 -7.33945 61.1052 -7.15843 61.2048C-7.09793 61.2381 -5.63951 61.2195 -3.91752 61.1636C-2.19553 61.1077 0.946536 61.0222 3.06483 60.9737C6.15128 60.903 7.13437 60.826 8.01407 60.5868C10.0489 60.0332 11.778 59.713 13.4775 59.5752C17.0746 59.2835 17.5583 59.2788 18.0478 59.5302C18.3053 59.6623 18.8861 59.9296 19.3385 60.1238C20.0178 60.4156 20.1468 60.5582 20.078 60.9426C19.9751 61.5192 20.9327 62.1006 22.4108 62.3589C24.9984 62.811 31.0318 62.3007 32.7296 61.486L33.3464 61.1899L32.544 60.7541C31.6171 60.2508 31.6615 60.2295 34.1555 59.9877C35.1381 59.8924 35.7085 59.7463 36.0682 59.4975C36.3503 59.3027 37.3597 58.7406 38.3115 58.2487L40.0421 57.354L42.6869 57.3517C44.8453 57.3497 45.7094 57.2768 47.3859 56.9553C48.5157 56.7385 49.8284 56.4346 50.3033 56.2801C50.778 56.1256 51.3446 55.9999 51.5621 56.0009C51.7797 56.0018 52.658 55.8426 53.5137 55.6472C54.3695 55.4516 56.481 55.1512 58.206 54.9795C62.191 54.5827 63.5708 54.3483 65.8426 53.6823C68.0786 53.0267 67.9364 53.0881 67.6492 52.9006C67.4866 52.7945 67.0508 52.8195 66.2744 52.9793C65.6492 53.108 64.298 53.2699 63.2721 53.3388C62.2459 53.4079 60.6997 53.5311 59.8358 53.6127C58.9621 53.6953 55.8669 53.7271 52.8598 53.6844L47.4544 53.6078L44.9001 52.9763C42.149 52.2958 40.9714 52.2093 39.3547 52.5687Z" fill="#F14B64"/>
<path fill-rule="evenodd" clip-rule="evenodd" d="M354.862 40.2272C354.337 40.3415 353.218 40.5078 352.376 40.5968C351.406 40.6994 350.84 40.8321 350.833 40.9586C350.827 41.0685 350.908 41.1592 351.014 41.1601C351.12 41.1611 351.334 41.4094 351.491 41.7121C351.769 42.2478 351.756 42.2718 350.994 42.6287C350.337 42.936 350.232 43.0647 350.338 43.4272C350.458 43.8363 350.413 43.8641 349.498 43.947C348.16 44.0683 347.182 44.4596 346.677 45.0759C346.281 45.559 345.774 45.7627 344.411 45.9855C343.771 46.0902 342.15 45.5066 341.382 44.895C340.876 44.4918 340.671 44.1542 340.601 43.606C340.594 43.5528 340.19 43.3956 339.701 43.2567C339.213 43.118 338.279 42.8054 337.624 42.5622C336.068 41.9841 334.554 41.8007 333.964 42.1194C333.619 42.3058 333.363 42.322 332.713 42.1982C332.265 42.1127 331.085 42.0343 330.093 42.0242C329.082 42.0139 327.819 41.8976 327.22 41.7598C326.147 41.5124 325.338 41.5263 323.549 41.8227C322.495 41.9975 322.372 42.1856 323.22 42.3279C323.594 42.3904 323.81 42.5341 323.8 42.7137C323.787 42.9334 324.155 43.0802 325.387 43.3477C327.45 43.7957 327.501 43.8184 326.961 44.0549C326.664 44.1849 325.795 44.2473 324.449 44.2353C322.967 44.222 322.03 44.2987 321.096 44.5098C318.804 45.0278 317.381 45.02 314.514 44.4739C313.118 44.2082 311.466 43.8124 310.842 43.5947C310.197 43.3699 309.313 43.1953 308.794 43.1907C308.068 43.1841 307.897 43.1302 307.965 42.9284C308.095 42.5406 305.264 42.1523 302.555 42.1864C300.441 42.213 300.378 42.2245 299.476 42.7499C298.774 43.1592 298.221 43.325 297.144 43.4502C295.822 43.6037 295.731 43.6411 295.708 44.0407C295.688 44.3999 295.442 44.5592 294.153 45.0486C292.961 45.5009 292.24 45.6594 290.904 45.7629C289.015 45.909 286.696 45.7315 285.369 45.3391C284.938 45.2117 283.668 45.0565 282.548 44.9943C281.427 44.9321 280.01 44.838 279.399 44.7854C278.393 44.6986 278.213 44.7328 277.479 45.1515C276.597 45.6549 275.612 45.7309 273.745 45.4396C272.277 45.2107 266.716 45.0226 267.144 45.2164C267.337 45.3039 267.761 45.3789 268.086 45.3832C268.78 45.3921 273.899 46.4326 274.754 46.7386C277.662 47.7793 280.501 48.2702 283.191 48.1976C284.386 48.1654 285.489 48.0418 286.053 47.8766C286.957 47.6119 286.999 47.6135 288.933 47.9781C290.012 48.1817 291.171 48.4384 291.509 48.5484C291.983 48.7032 292.662 48.7207 294.51 48.6253C300.448 48.3195 302.847 48.0241 305.745 47.2425C308.177 46.5864 309.656 46.357 311.254 46.3881C312.65 46.4154 314.488 46.7211 314.59 46.9433C314.672 47.121 310.139 48.3228 309.398 48.3198C308.899 48.3179 308.14 48.5523 308.321 48.6528C308.381 48.6863 309.84 48.6743 311.562 48.6262C313.284 48.5781 316.426 48.5068 318.545 48.4678C321.632 48.4111 322.615 48.3386 323.496 48.1034C325.532 47.5589 327.262 47.2466 328.962 47.1165C332.56 46.8411 333.044 46.8385 333.533 47.0922C333.79 47.2254 334.37 47.4953 334.822 47.6915C335.5 47.9864 335.629 48.1296 335.559 48.5137C335.454 49.0898 336.41 49.6755 337.887 49.9404C340.473 50.4043 346.508 49.9212 348.209 49.1142L348.826 48.8209L348.025 48.3816C347.1 47.8741 347.145 47.8529 349.639 47.6224C350.622 47.5316 351.193 47.388 351.554 47.1409C351.836 46.9473 352.848 46.3899 353.801 45.9023L355.534 45.0155L358.179 45.0251C360.338 45.0329 361.202 44.9638 362.88 44.6499C364.01 44.4382 365.324 44.1403 365.799 43.9879C366.274 43.8356 366.841 43.7125 367.059 43.7144C367.276 43.7164 368.155 43.5611 369.012 43.3696C369.868 43.1778 371.98 42.887 373.706 42.7231C377.692 42.3444 379.073 42.1162 381.347 41.4605C383.585 40.815 383.442 40.8758 383.156 40.687C382.994 40.5801 382.558 40.6032 381.781 40.7595C381.155 40.8853 379.803 41.0411 378.777 41.1054C377.751 41.1698 376.204 41.2861 375.34 41.3637C374.466 41.4423 371.371 41.4601 368.364 41.4039L362.958 41.3029L360.406 40.6598C357.657 39.9669 356.48 39.8751 354.862 40.2272Z" fill="#F14B64"/>
<path fill-rule="evenodd" clip-rule="evenodd" d="M543.616 31.5975C543.091 31.7105 541.972 31.8739 541.129 31.9608C540.159 32.0609 539.593 32.1922 539.586 32.3186C539.58 32.4285 539.661 32.5194 539.766 32.5206C539.872 32.5218 540.086 32.7707 540.243 33.0738C540.519 33.6102 540.506 33.6342 539.744 33.9891C539.087 34.2947 538.981 34.4232 539.086 34.7859C539.206 35.1953 539.161 35.223 538.245 35.3036C536.907 35.4214 535.929 35.8102 535.422 36.4253C535.026 36.9074 534.518 37.1097 533.155 37.3291C532.515 37.4321 530.895 36.8443 530.128 36.2308C529.622 35.8263 529.418 35.4882 529.349 34.9398C529.342 34.8866 528.938 34.7284 528.45 34.5883C527.962 34.4483 527.028 34.1334 526.374 33.8884C524.819 33.3064 523.305 33.1191 522.714 33.4363C522.369 33.6218 522.113 33.6374 521.464 33.5119C521.015 33.4253 519.836 33.3439 518.843 33.3312C517.833 33.3183 516.57 33.1988 515.971 33.0595C514.898 32.8094 514.09 32.8211 512.3 33.113C511.245 33.2851 511.122 33.4728 511.97 33.6173C512.344 33.6808 512.559 33.825 512.549 34.0046C512.536 34.2242 512.903 34.372 514.135 34.6426C516.198 35.0959 516.249 35.1188 515.708 35.3538C515.411 35.4831 514.542 35.5433 513.196 35.5279C511.713 35.5108 510.777 35.5851 509.842 35.7937C507.55 36.3059 506.126 36.2945 503.26 35.7411C501.865 35.4718 500.213 35.0718 499.589 34.8525C498.945 34.626 498.061 34.4492 497.542 34.4432C496.816 34.4348 496.646 34.3805 496.714 34.1788C496.844 33.7914 494.014 33.3958 491.305 33.423C489.191 33.4442 489.128 33.4556 488.225 33.9787C487.522 34.3861 486.969 34.5506 485.891 34.6729C484.569 34.8231 484.478 34.8603 484.455 35.2598C484.434 35.6189 484.188 35.7776 482.897 36.2637C481.705 36.713 480.984 36.8696 479.648 36.9697C477.759 37.111 475.439 36.9276 474.113 36.5318C473.682 36.4033 472.413 36.2448 471.292 36.1797C470.172 36.1147 468.755 36.017 468.144 35.9628C467.138 35.8734 466.958 35.9072 466.224 36.324C465.34 36.8251 464.356 36.8986 462.489 36.6026C461.021 36.3699 455.46 36.1676 455.888 36.3625C456.081 36.4504 456.505 36.5266 456.829 36.5317C457.523 36.5424 462.641 37.5959 463.495 37.904C466.402 38.9523 469.24 39.4503 471.93 39.3847C473.125 39.3555 474.229 39.2347 474.793 39.071C475.697 38.8086 475.739 38.8103 477.673 39.1798C478.752 39.3861 479.91 39.6458 480.247 39.7566C480.721 39.9127 481.401 39.9319 483.249 39.8413C489.187 39.5506 491.587 39.2614 494.486 38.4872C496.919 37.8373 498.398 37.6117 499.996 37.6468C501.393 37.6777 503.23 37.9882 503.332 38.2106C503.414 38.3885 498.878 39.5787 498.137 39.5738C497.638 39.5706 496.879 39.8031 497.059 39.904C497.12 39.9377 498.578 39.9294 500.301 39.8857C502.023 39.842 505.166 39.7787 507.284 39.7452C510.371 39.6963 511.354 39.6264 512.235 39.3934C514.273 38.8542 516.004 38.5462 517.704 38.4205C521.302 38.1543 521.786 38.153 522.274 38.4079C522.531 38.5418 523.111 38.8131 523.562 39.0105C524.24 39.3071 524.368 39.4506 524.298 39.8345C524.192 40.4104 525.147 40.9985 526.624 41.2672C529.209 41.7377 535.245 41.27 536.947 40.4674L537.565 40.1757L536.765 39.7343C535.841 39.2244 535.885 39.2034 538.38 38.9793C539.363 38.8909 539.935 38.7489 540.295 38.5027C540.578 38.3098 541.591 37.755 542.545 37.2698L544.28 36.3874L546.925 36.4038C549.083 36.4171 549.948 36.3503 551.626 36.0407C552.757 35.8318 554.071 35.5373 554.547 35.3862C555.022 35.235 555.589 35.1134 555.807 35.1159C556.024 35.1184 564.741 36.5373 565.598 36.3479C566.455 36.1583 563.839 35.7326 565.565 35.5731C569.552 35.2046 567.824 33.5484 570.099 32.8985C572.338 32.2587 572.196 32.3191 571.909 32.1296C571.747 32.0223 571.311 32.0443 570.534 32.1986C569.908 32.3228 568.556 32.4752 567.53 32.5368C566.503 32.5987 564.957 32.7109 564.092 32.7864C563.218 32.8627 560.123 32.8726 557.116 32.8087L551.711 32.6939L549.159 32.0443C546.411 31.3444 545.234 31.2496 543.616 31.5975Z" fill="#F14B64"/>
<path fill-rule="evenodd" clip-rule="evenodd" d="M149.577 54.4695C149.055 54.4039 147.941 54.3413 147.101 54.3306C146.133 54.3181 145.572 54.2377 145.569 54.1117C145.567 54.0021 145.652 53.9037 145.758 53.893C145.863 53.8822 146.088 53.6133 146.256 53.2955C146.553 52.7329 146.541 52.71 145.791 52.4233C145.145 52.1766 145.044 52.0574 145.163 51.6844C145.299 51.2633 145.255 51.2396 144.341 51.2418C143.006 51.2448 142.041 50.9438 141.557 50.3732C141.179 49.926 140.678 49.7692 139.322 49.6727C138.685 49.6274 137.04 50.3631 136.249 51.0473C135.727 51.4985 135.51 51.8558 135.419 52.4116C135.41 52.4656 134.999 52.6607 134.505 52.8453C134.011 53.0298 133.064 53.4299 132.4 53.7346C130.82 54.4586 129.297 54.7834 128.718 54.5189C128.379 54.3643 128.123 54.3719 127.469 54.5564C127.016 54.6838 125.832 54.8722 124.838 54.9747C123.825 55.0791 122.556 55.3133 121.951 55.507C120.867 55.8548 120.058 55.9162 118.277 55.7857C117.228 55.7088 117.112 55.5317 117.966 55.3102C118.343 55.2127 118.564 55.0487 118.561 54.8697C118.556 54.6507 118.93 54.4694 120.174 54.0867C122.256 53.4457 122.308 53.4182 121.775 53.2316C121.483 53.129 120.615 53.1473 119.267 53.2846C117.782 53.4359 116.847 53.4463 115.919 53.3217C113.643 53.016 112.217 53.1564 109.326 53.9704C107.918 54.3666 106.249 54.9169 105.616 55.1932C104.963 55.4784 104.071 55.7356 103.55 55.7886C102.823 55.8627 102.651 55.9326 102.711 56.1286C102.827 56.505 99.9778 57.1576 97.2656 57.3757C95.15 57.5457 95.0874 57.5401 94.2035 57.0976C93.5149 56.7529 92.9676 56.6382 91.8932 56.6131C90.5747 56.5824 90.4848 56.5533 90.4769 56.1551C90.4697 55.797 90.2293 55.6603 88.9561 55.29C87.7793 54.9477 87.0633 54.856 85.7294 54.8766C83.8429 54.9061 81.5133 55.2999 80.17 55.8166C79.734 55.9843 78.457 56.258 77.3323 56.4247C76.2077 56.5913 74.7855 56.8175 74.1719 56.9271C73.1609 57.1077 72.982 57.0901 72.2625 56.739C71.397 56.3167 70.4139 56.3322 68.533 56.7979C67.0549 57.1638 61.4788 57.87 61.9145 57.636C62.1114 57.5304 62.5386 57.4157 62.8636 57.3812C63.559 57.3077 68.7234 55.7886 69.5909 55.4025C72.5418 54.0889 75.4026 53.3329 78.0941 53.1551C79.2891 53.0762 80.3897 53.0974 80.9481 53.2104C81.8435 53.3915 81.8861 53.3859 83.8361 52.8406C84.9245 52.5362 86.0947 52.1711 86.4364 52.0295C86.9171 51.8301 87.5979 51.7495 89.4453 51.6729C95.3798 51.4267 97.7721 51.4993 100.645 52.0127C103.057 52.4437 104.529 52.5359 106.131 52.356C107.53 52.1986 109.382 51.7212 109.493 51.4891C109.581 51.3034 105.085 50.5212 104.343 50.5933C103.843 50.6416 103.092 50.4773 103.277 50.3598C103.338 50.3206 104.799 50.1969 106.521 50.0848C108.244 49.9727 111.389 49.7516 113.509 49.5934C116.598 49.3629 117.58 49.344 118.453 49.4978C120.473 49.8537 122.194 50.0056 123.892 49.9777C127.485 49.9187 127.969 49.8762 128.468 49.5766C128.73 49.4192 129.321 49.0948 129.781 48.8561C130.471 48.4975 130.605 48.342 130.549 47.9637C130.465 47.3962 131.444 46.7204 132.933 46.3174C135.54 45.6119 141.566 45.5341 143.239 46.1844L143.847 46.4208L143.029 46.9356C142.083 47.5302 142.127 47.5473 144.617 47.546C145.598 47.5455 146.165 47.6362 146.517 47.8502C146.793 48.0179 147.785 48.4823 148.722 48.8821L150.425 49.6093L153.074 49.3535C155.236 49.1447 156.099 49.1334 157.768 49.2918C158.892 49.3987 160.197 49.5749 160.667 49.6833C161.138 49.7917 161.701 49.8623 161.919 49.8401C162.137 49.8179 163.011 49.8916 163.862 50.0038C164.712 50.1162 166.817 50.211 168.539 50.2146C172.518 50.2229 173.892 50.323 176.145 50.7684C178.363 51.2068 178.222 51.1592 177.929 51.375C177.762 51.4972 177.326 51.5147 176.554 51.4304C175.932 51.3625 174.584 51.3322 173.559 51.3633C172.533 51.3943 170.989 51.4218 170.126 51.4245C169.254 51.4271 166.155 51.6974 163.141 52.0337L157.724 52.638L155.145 53.52C152.366 54.4701 151.184 54.6717 149.577 54.4695Z" fill="#F14B64"/>
<path fill-rule="evenodd" clip-rule="evenodd" d="M465.08 42.6264C464.559 42.5584 463.445 42.4908 462.604 42.4763C461.637 42.4594 461.075 42.3765 461.073 42.2504C461.071 42.1409 461.157 42.0429 461.262 42.0326C461.368 42.0222 461.593 41.7544 461.762 41.4373C462.062 40.8761 462.05 40.8532 461.301 40.5631C460.655 40.3135 460.554 40.1939 460.675 39.8214C460.812 39.4009 460.768 39.377 459.854 39.3751C458.519 39.372 458.176 41.4905 457.694 40.9178C457.317 40.4689 456.819 43.25 455.463 43.1474C454.826 43.0992 453.327 40.5168 452.534 41.1974C452.011 41.6462 451.021 39.9492 450.928 40.5045C450.919 40.5585 450.508 40.7517 450.013 40.9341C449.519 41.1163 448.57 41.5122 447.905 41.8138C446.323 42.5307 444.798 42.8486 444.22 42.5815C443.882 42.4253 443.626 42.4318 442.971 42.6133C442.518 42.7387 441.333 42.9217 440.339 43.0197C439.326 43.1195 438.056 43.3479 437.451 43.539C436.365 43.8818 435.556 43.9396 433.776 43.801C432.726 43.7193 432.611 43.5418 433.466 43.3241C433.843 43.2284 434.065 43.0653 434.062 42.8863C434.058 42.6674 434.432 42.4877 435.677 42.1106C437.762 41.4791 437.814 41.4519 437.282 41.2628C436.989 41.1589 436.122 41.1733 434.773 41.3045C433.287 41.4491 432.352 41.4552 431.425 41.3265C429.15 41.0105 427.724 41.1444 424.83 41.9453C423.421 42.3351 421.75 42.8779 421.116 43.1513C420.462 43.4335 419.569 43.6867 419.049 43.7374C418.321 43.8082 418.148 43.8773 418.208 44.0736C418.323 44.4505 415.472 45.0902 412.759 45.296C410.643 45.4564 410.58 45.4505 409.697 45.004C409.01 44.6563 408.463 44.5391 407.388 44.5091C406.07 44.4724 405.98 44.443 405.974 44.0447C405.968 43.6867 405.728 43.5489 404.456 43.1728C403.28 42.8252 402.564 42.7303 401.23 42.7449C399.343 42.7658 397.012 43.149 395.668 43.6597C395.231 43.8254 393.953 44.0934 392.828 44.2549C391.703 44.4165 390.28 44.6362 389.666 44.743C388.654 44.919 388.476 44.9007 387.757 44.5463C386.893 44.1201 385.91 44.1312 384.027 44.5883C382.548 44.9476 376.97 45.6286 377.406 45.3965C377.603 45.2918 378.031 45.1791 378.356 45.1461C379.052 45.0756 384.221 43.58 385.09 43.1978C388.045 41.8976 390.908 41.1545 393.6 40.9889C394.795 40.9154 395.896 40.9416 396.454 41.0571C397.349 41.2422 397.391 41.2369 399.343 40.7004C400.432 40.4009 401.604 40.0411 401.946 39.901C402.427 39.7038 403.108 39.6263 404.956 39.5581C410.891 39.3387 413.284 39.4221 416.155 39.9485C418.565 40.3904 420.038 40.4892 421.64 40.3165C423.04 40.1655 424.893 39.6965 425.004 39.4648C425.093 39.2795 420.6 38.4771 419.857 38.5458C419.357 38.5919 418.607 38.4242 418.792 38.3076C418.854 38.2686 420.314 38.1515 422.037 38.0472C423.761 37.9428 426.906 37.736 429.026 37.5874C432.116 37.3709 433.099 37.3565 433.971 37.5141C435.99 37.8791 437.711 38.0388 439.408 38.0186C443.002 37.9758 443.486 37.9356 443.986 37.6382C444.249 37.482 444.84 37.1603 445.301 36.9236C445.992 36.5682 446.127 36.4133 446.072 36.0348C445.99 35.4669 446.971 34.7956 448.461 34.3993C451.07 33.7056 457.097 33.6551 458.768 34.3129L459.375 34.552L458.555 35.0631C457.608 35.6534 457.652 35.6707 460.142 35.6806C461.123 35.6846 461.689 35.7779 462.04 35.9935C462.316 36.1624 463.307 36.6312 464.242 37.0352L465.944 37.7701L468.594 37.5263C470.756 37.3273 471.619 37.32 473.287 37.4858C474.411 37.5978 475.716 37.7799 476.186 37.8904C476.656 38.001 477.219 38.0741 477.437 38.0529C477.655 38.0316 478.529 38.1093 479.379 38.2254C480.229 38.3416 482.334 38.4459 484.056 38.4573C488.035 38.4836 489.408 38.5899 491.66 39.0454C493.877 39.4939 493.736 39.4456 493.442 39.6601C493.275 39.7815 492.839 39.7971 492.067 39.7093C491.445 39.6386 490.098 39.6022 489.072 39.6287C488.047 39.6551 486.502 39.6756 485.639 39.6743C484.767 39.673 481.667 39.9293 478.652 40.2519L473.233 40.8318L470.651 41.702C467.87 42.6396 466.687 42.8358 465.08 42.6264Z" fill="#F14B64"/>
<path fill-rule="evenodd" clip-rule="evenodd" d="M-167.14 83.7571C-167.104 83.6589 -166.748 83.5378 -166.349 83.4881C-165.949 83.4387 -165.105 83.1524 -164.473 82.8523C-162.433 81.8842 -159.891 80.9643 -158.696 80.7619C-158.056 80.6538 -157.205 80.4792 -156.806 80.3747C-155.288 79.9763 -152.561 79.4918 -151.857 79.4951C-151.454 79.4971 -150.795 79.466 -150.393 79.4263C-149.992 79.3866 -149.498 79.3448 -149.297 79.3332C-148.706 79.2998 -143.939 79.4397 -143.937 79.4906C-143.927 79.7078 -141.639 79.5069 -140.722 79.2086C-139.361 78.7661 -129.871 78.1781 -128.58 78.4562C-128.091 78.5615 -127.593 78.6482 -127.472 78.649C-127.35 78.6499 -126.718 78.768 -126.067 78.9122C-122.312 79.7409 -121.675 79.8002 -118.87 79.5801C-117.354 79.4614 -116.064 79.284 -116.004 79.186C-115.944 79.0883 -115.237 78.8083 -114.432 78.5645C-113.059 78.1484 -112.047 77.5215 -112.564 77.4073C-112.686 77.3802 -113.973 77.3853 -115.424 77.4186C-117.893 77.4755 -121.542 76.7007 -121.567 76.1142C-121.583 75.7582 -120.519 75.4421 -117.295 74.8449C-115.085 74.4351 -114.181 74.1399 -114.029 73.7781C-113.914 73.5028 -113.719 73.272 -113.597 73.2654C-113.242 73.2462 -112.484 72.4634 -112.499 72.1316C-112.513 71.8124 -113.699 70.9815 -113.924 71.1338C-113.996 71.1826 -113.98 70.9725 -113.889 70.6669C-113.749 70.1972 -113.767 70.1139 -114.005 70.1268C-114.16 70.1351 -114.343 70.2897 -114.412 70.4698C-114.551 70.8352 -117.257 69.7515 -117.567 69.2061C-117.671 69.0231 -117.73 68.647 -117.698 68.3696C-117.638 67.8586 -118.019 67.6878 -118.844 67.8564C-119.044 67.8971 -119.469 67.78 -119.789 67.5961C-120.109 67.4122 -120.975 67.234 -121.713 67.2C-122.452 67.1655 -123.455 67.0744 -123.942 66.9972C-126.002 66.6702 -129.922 66.7344 -129.812 67.093C-129.644 67.6426 -128.291 68.3753 -126.805 68.7215C-126.074 68.8919 -125.445 69.0963 -125.408 69.1754C-125.197 69.6223 -125.983 69.74 -127.386 69.4716C-132.33 68.5264 -134.318 67.9524 -134.704 67.3601C-135.035 66.8506 -135.225 66.8071 -135.852 67.0964C-136.266 67.2871 -136.792 67.3289 -137.022 67.1893C-137.251 67.0493 -137.799 67.0172 -138.238 67.1175C-138.677 67.2182 -139.136 67.3003 -139.257 67.3002C-139.378 67.3001 -140.115 67.3323 -140.896 67.3718C-141.721 67.4134 -142.361 67.2921 -142.425 67.0824C-142.501 66.8326 -142.588 66.8398 -142.707 67.1054C-142.818 67.3548 -143.362 67.4359 -144.26 67.3378C-145.58 67.1933 -146.304 67.196 -147.762 67.3501C-148.544 67.4329 -157.888 67.943 -158.993 67.9636C-159.416 67.9714 -159.943 68.0143 -160.163 68.0589C-160.383 68.1034 -164.314 68.3821 -168.9 68.678C-173.486 68.9739 -177.561 69.3566 -177.957 69.5287C-178.353 69.7005 -179.281 70.1736 -180.018 70.5795C-180.756 70.9854 -181.389 71.3192 -181.425 71.3212C-181.461 71.3232 -181.442 71.4826 -181.383 71.6758C-181.324 71.8689 -181.226 71.9447 -181.164 71.8437C-181.103 71.7431 -180.858 71.7899 -180.62 71.9477C-177.825 73.8033 -177.764 73.8151 -173.571 73.3709C-172.305 73.2366 -171.237 73.1925 -171.199 73.273C-171.161 73.3531 -172.445 73.8507 -174.052 74.3785C-178.055 75.694 -179.862 76.4345 -180.782 77.1376C-181.527 77.7069 -182.957 77.9122 -183.916 77.587C-184.521 77.382 -184.833 77.9215 -184.539 78.6627C-184.42 78.9608 -184.369 79.207 -184.425 79.21C-184.528 79.2156 -184.381 79.5392 -183.722 80.7523C-183.373 81.3947 -183.124 81.4251 -179.45 81.2732C-177.305 81.1843 -175.312 81.2579 -175.022 81.4364C-174.532 81.7379 -174.564 81.7674 -175.472 81.8499C-176.487 81.9422 -176.893 82.4667 -176.176 82.7601C-175.824 82.9043 -174.253 83.2726 -172.285 83.6724C-171.318 83.869 -167.205 83.9366 -167.14 83.7571ZM-177.396 82.3082C-177.358 82.1312 -177.496 81.9954 -177.702 82.0066C-178.151 82.0309 -178.178 82.2325 -177.765 82.4626C-177.599 82.5548 -177.433 82.4851 -177.396 82.3082ZM-179.014 82.407C-178.29 82.1919 -178.412 82.1532 -179.745 82.1762C-180.625 82.1916 -181.311 82.2752 -181.27 82.3618C-181.136 82.646 -179.901 82.6711 -179.014 82.407ZM-172.168 79.5838C-173.496 79.6746 -175.14 79.8006 -175.823 79.864C-176.669 79.9424 -177.555 79.7415 -178.601 79.2348C-180.166 78.4764 -180.576 77.9479 -179.64 77.8972C-179.354 77.8817 -177.48 77.5351 -175.476 77.1273C-173.472 76.7191 -171.793 76.4701 -171.744 76.5738C-171.695 76.6773 -171.78 76.7848 -171.934 76.8124C-172.15 76.8512 -172.128 76.9199 -171.835 77.1165C-171.438 77.3843 -169.872 77.2019 -166.143 76.4534C-164.904 76.2046 -162.148 75.8327 -160.019 75.6271C-156.394 75.2768 -156.207 75.2885 -157.077 75.8104C-157.588 76.117 -158.461 76.5348 -159.017 76.7388C-161.014 77.4717 -164.366 78.8407 -164.998 79.1823C-165.353 79.3736 -166.569 79.5051 -167.699 79.4744C-168.83 79.444 -170.841 79.4929 -172.168 79.5838ZM-145.19 77.6444C-152.393 78.0533 -153.749 78.0548 -153.38 77.6552C-152.895 77.1309 -151.674 76.5516 -150.097 76.0982C-149.539 75.9376 -149.05 75.6533 -149.009 75.4664C-148.964 75.2592 -148.277 75.1813 -147.257 75.2665C-146.335 75.344 -145.481 75.4038 -145.36 75.3994C-145.24 75.3953 -144.377 75.495 -143.444 75.6211C-141.847 75.8366 -137.158 75.8989 -133.782 75.7491C-132.639 75.6984 -132.279 75.7899 -132.311 76.1231C-132.416 77.2474 -132.985 77.5265 -134.789 77.3387C-135.761 77.2372 -140.442 77.3749 -145.19 77.6444ZM-143.246 71.5537C-143.891 71.4686 -144.453 71.3272 -144.494 71.2396C-144.617 70.9803 -140.129 70.8169 -138.861 71.0344L-137.693 71.2346L-138.783 71.4692C-140.053 71.7424 -141.594 71.7719 -143.246 71.5537Z" fill="#F14B64"/>
<path fill-rule="evenodd" clip-rule="evenodd" d="M-55.1223 78.311C-55.174 78.2175 -55.6057 78.1391 -56.0817 78.1368C-56.5576 78.1348 -57.581 77.9497 -58.3559 77.7258C-60.8553 77.0036 -63.9432 76.3888 -65.3732 76.3286C-66.1398 76.2967 -67.1604 76.2235 -67.6411 76.1667C-69.4717 75.9498 -72.7365 75.7899 -73.567 75.8763C-74.0431 75.926 -74.8238 75.9728 -75.3017 75.9808C-75.7796 75.9888 -76.3659 76.0055 -76.6045 76.0177C-77.3056 76.0543 -82.9206 76.7568 -82.9184 76.8076C-82.909 77.0248 -85.6289 77.0952 -86.7404 76.9068C-88.3885 76.6274 -99.6484 77.1637 -101.146 77.5929C-101.713 77.7553 -102.294 77.9005 -102.437 77.9156C-102.579 77.9307 -103.315 78.123 -104.07 78.3434C-108.425 79.6115 -109.171 79.7457 -112.503 79.8581C-114.305 79.9192 -115.844 79.8951 -115.924 79.8046C-116.004 79.7145 -116.866 79.5196 -117.839 79.3721C-119.5 79.1204 -120.753 78.6162 -120.154 78.4415C-120.012 78.4001 -118.492 78.2531 -116.776 78.1149C-113.855 77.8797 -109.621 76.6778 -109.646 76.0913C-109.662 75.7353 -110.947 75.5464 -114.81 75.3332C-117.458 75.1866 -118.552 74.9998 -118.766 74.6577C-118.928 74.3974 -119.18 74.1909 -119.325 74.1987C-119.745 74.2215 -120.714 73.5323 -120.728 73.2005C-120.742 72.8813 -119.42 71.9144 -119.14 72.0394C-119.051 72.0795 -119.089 71.8723 -119.225 71.579C-119.435 71.1282 -119.421 71.0432 -119.139 71.0279C-118.956 71.018 -118.725 71.1502 -118.627 71.3211C-118.428 71.6682 -115.336 70.2705 -115.021 69.6911C-114.915 69.4968 -114.881 69.1157 -114.945 68.8435C-115.064 68.3421 -114.63 68.1272 -113.641 68.1975C-113.401 68.2144 -112.91 68.0477 -112.549 67.8269C-112.189 67.6061 -111.183 67.3265 -110.315 67.2054C-109.446 67.0839 -108.271 66.8748 -107.703 66.7404C-105.301 66.1716 -100.668 65.7724 -100.764 66.1421C-100.91 66.7088 -102.438 67.5976 -104.16 68.1176C-105.007 68.3735 -105.73 68.6511 -105.767 68.7343C-105.974 69.2038 -105.035 69.2281 -103.403 68.7951C-97.6561 67.2707 -95.3625 66.4648 -94.9635 65.83C-94.6205 65.2839 -94.4005 65.2182 -93.6321 65.4319C-93.126 65.5727 -92.5008 65.5522 -92.2428 65.3862C-91.9849 65.2198 -91.3417 65.1231 -90.8136 65.1711C-90.2854 65.2193 -89.7363 65.2468 -89.5935 65.2324C-89.4506 65.218 -88.577 65.163 -87.6519 65.11C-86.6734 65.0539 -85.93 64.8576 -85.874 64.6414C-85.8076 64.3839 -85.7044 64.3808 -85.539 64.631C-85.3836 64.866 -84.7345 64.8824 -83.6827 64.6786C-82.1381 64.379 -81.2834 64.2961 -79.5474 64.2772C-78.6169 64.2672 -67.5375 63.6708 -66.23 63.5606C-65.7297 63.5184 -65.1043 63.4989 -64.8405 63.5173C-64.5768 63.5357 -59.9085 63.3484 -54.4668 63.101C-49.0251 62.8536 -44.1771 62.7528 -43.6934 62.8772C-43.2098 63.0014 -42.0703 63.3625 -41.1612 63.6791C-40.2522 63.9958 -39.4733 64.2532 -39.4305 64.2509C-39.3876 64.2486 -39.3948 64.4095 -39.4462 64.6086C-39.4977 64.8077 -39.6068 64.8947 -39.6889 64.8015C-39.771 64.7087 -40.0558 64.7842 -40.3219 64.9693C-43.4468 67.1457 -43.5168 67.1646 -48.5095 67.218C-50.0172 67.234 -51.2813 67.3162 -51.3185 67.4008C-51.3558 67.485 -49.7935 67.8284 -47.8469 68.1637C-42.9961 68.9994 -40.7936 69.5228 -39.641 70.1136C-38.7079 70.5919 -37.0001 70.6272 -35.8984 70.1903C-35.2035 69.9149 -34.7839 70.4148 -35.0617 71.187C-35.1733 71.4975 -35.2106 71.7486 -35.1443 71.745C-35.0216 71.7383 -35.1652 72.0776 -35.8284 73.3624C-36.1799 74.0428 -36.4711 74.1024 -40.8225 74.3853C-43.364 74.5504 -45.7098 74.859 -46.0355 75.0709C-46.5854 75.4287 -46.5448 75.4542 -45.465 75.4291C-44.2576 75.4009 -43.7295 75.8748 -44.548 76.2514C-44.9496 76.4365 -46.7699 76.9885 -49.0558 77.6188C-50.179 77.9286 -55.0277 78.4818 -55.1223 78.311ZM-43.1505 75.6577C-43.2115 75.4861 -43.0615 75.3347 -42.8174 75.3215C-42.2857 75.2927 -42.234 75.49 -42.7006 75.7678C-42.887 75.8791 -43.0895 75.8293 -43.1505 75.6577ZM-41.2313 75.5649C-42.1063 75.4364 -41.9659 75.3835 -40.3898 75.2489C-39.3494 75.1603 -38.531 75.1623 -38.5713 75.2533C-38.7027 75.5519 -40.1592 75.7228 -41.2313 75.5649ZM-49.5791 73.5648C-48.0036 73.4984 -46.05 73.4295 -45.2377 73.4118C-44.2323 73.39 -43.2042 73.0853 -42.0179 72.4577C-40.2422 71.5183 -39.8072 70.944 -40.9168 71.0041C-41.2564 71.0225 -43.5013 70.899 -45.9057 70.7301C-48.31 70.5608 -50.3166 70.5115 -50.3644 70.6205C-50.4124 70.7291 -50.3012 70.826 -50.1175 70.8354C-49.8587 70.8484 -49.8784 70.9193 -50.2053 71.1495C-50.6495 71.463 -52.5145 71.4664 -56.9877 71.1623C-58.4747 71.0613 -61.7637 71.0168 -64.2966 71.0638C-68.609 71.1436 -68.8287 71.1773 -67.7521 71.5938C-67.1197 71.8384 -66.0496 72.1509 -65.3741 72.2882C-62.9474 72.7815 -58.8608 73.7474 -58.0818 74.0125C-57.6449 74.1609 -56.1976 74.1482 -54.8655 73.984C-53.5334 73.8202 -51.1545 73.6312 -49.5791 73.5648ZM-81.6129 74.8228C-73.0709 74.3786 -71.4689 74.2198 -71.9428 73.8659C-72.5647 73.4016 -74.0613 72.9695 -75.9652 72.7047C-76.6389 72.6109 -77.2439 72.3859 -77.3097 72.2047C-77.3826 72.0039 -78.2004 72.0075 -79.3964 72.2127C-80.4783 72.3988 -81.4804 72.5592 -81.6235 72.5691C-81.7665 72.5793 -82.7753 72.7804 -83.8651 73.0161C-85.7306 73.4192 -91.2605 74.0352 -95.2599 74.2849C-96.6139 74.3695 -97.0302 74.503 -96.9618 74.8309C-96.7313 75.9369 -96.0331 76.1474 -93.9213 75.7475C-92.7827 75.5316 -87.244 75.1156 -81.6129 74.8228ZM-84.4824 68.9929C-83.7288 68.8319 -83.0789 68.625 -83.0386 68.5329C-82.9187 68.2605 -88.232 68.6281 -89.7088 68.9944L-91.0683 69.3314L-89.7594 69.4361C-88.2348 69.5579 -86.4119 69.405 -84.4824 68.9929Z" fill="#F14B64"/>
<path fill-rule="evenodd" clip-rule="evenodd" d="M-41.312 59.3615C-41.2676 59.4602 -40.8433 59.5858 -40.3692 59.6404C-39.8951 59.6947 -38.8894 59.9916 -38.1342 60.2996C-35.6984 61.2933 -32.668 62.2449 -31.2477 62.4622C-30.4862 62.5782 -29.4747 62.7634 -29 62.8729C-27.1924 63.2901 -23.9513 63.8085 -23.1171 63.8139C-22.6389 63.8168 -21.8574 63.8561 -21.3806 63.9007C-20.9037 63.9454 -20.3183 63.9933 -20.0796 64.0074C-19.3782 64.0481 -13.7297 63.9668 -13.728 63.916C-13.7209 63.6988 -11.0053 63.928 -9.91203 64.2378C-8.29088 64.6972 2.96993 65.4024 4.49488 65.1401C5.07211 65.0409 5.66177 64.9602 5.80524 64.9609C5.94871 64.9616 6.6959 64.8511 7.46567 64.7149C11.901 63.9321 12.655 63.8807 15.9837 64.1354C17.7838 64.2729 19.3161 64.4662 19.3886 64.565C19.4613 64.6635 20.3051 64.9523 21.2642 65.2062C22.8996 65.6394 24.1105 66.2791 23.4997 66.387C23.3554 66.4126 21.8298 66.3916 20.1096 66.3404C17.1808 66.2531 12.8703 66.9832 12.8511 67.5697C12.8394 67.9257 14.1056 68.255 17.9388 68.8922C20.5667 69.3295 21.643 69.6359 21.8298 69.9998C21.9717 70.2766 22.2067 70.5099 22.3522 70.518C22.7727 70.5416 23.6856 71.3341 23.6747 71.6659C23.6643 71.9851 22.273 72.8017 22.0043 72.6466C21.9179 72.5968 21.9403 72.8073 22.0537 73.1141C22.2284 73.5858 22.2088 73.6689 21.9263 73.6531C21.7428 73.6428 21.5232 73.4859 21.4382 73.3049C21.266 72.9376 18.0791 73.9884 17.7209 74.5303C17.6012 74.712 17.5385 75.0876 17.5818 75.3655C17.6615 75.8775 17.2131 76.0437 16.2325 75.8648C15.9951 75.8216 15.4932 75.9335 15.1171 76.1136C14.7411 76.2936 13.7179 76.4612 12.8433 76.4862C11.9686 76.5116 10.7815 76.5903 10.2052 76.6615C7.76898 76.9633 3.12186 76.8508 3.24506 76.4934C3.43415 75.9456 5.02389 75.2292 6.77936 74.9012C7.643 74.7397 8.38465 74.543 8.42758 74.4643C8.66895 74.0198 7.73528 73.8924 6.07642 74.1437C0.234082 75.0284 -2.11254 75.578 -2.55827 76.1659C-2.94149 76.6716 -3.16565 76.7127 -3.91513 76.4155C-4.40878 76.2197 -5.03335 76.1713 -5.30308 76.3082C-5.57265 76.4454 -6.22085 76.4708 -6.74354 76.365C-7.26621 76.2588 -7.81123 76.171 -7.95468 76.1697C-8.09813 76.1683 -8.97288 76.127 -9.89868 76.0778C-10.878 76.0261 -11.6336 76.1396 -11.7058 76.3486C-11.7916 76.5975 -11.8946 76.5893 -12.0405 76.3221C-12.1775 76.0711 -12.8231 75.9833 -13.8866 76.0704C-15.4485 76.1987 -16.3065 76.1871 -18.0377 76.0149C-18.9658 75.9225 -30.0513 75.297 -31.3625 75.2627C-31.8642 75.2497 -32.4889 75.2003 -32.7503 75.153C-33.0118 75.1057 -37.6778 74.7784 -43.1191 74.4259C-48.5603 74.0733 -53.3989 73.6402 -53.8714 73.4631C-54.3439 73.2864 -55.452 72.8017 -56.3338 72.3865C-57.2156 71.9713 -57.9722 71.6295 -58.015 71.6271C-58.0579 71.6247 -58.0386 71.4653 -57.9723 71.2729C-57.9058 71.0804 -57.7905 71.0058 -57.7157 71.1075C-57.641 71.2089 -57.3515 71.1652 -57.0723 71.0102C-53.7933 69.1882 -53.7222 69.1771 -48.743 69.6732C-47.2394 69.8232 -45.9735 69.8805 -45.93 69.8004C-45.8865 69.7207 -47.4172 69.2071 -49.3315 68.6592C-54.1018 67.2938 -56.2568 66.5306 -57.3605 65.8159C-58.254 65.2372 -59.9532 65.0141 -61.0841 65.3277C-61.7974 65.5253 -62.1776 64.9817 -61.8422 64.2438C-61.7075 63.947 -61.6513 63.7013 -61.7176 63.6976C-61.8403 63.6907 -61.6715 63.3689 -60.9131 62.1633C-60.5113 61.5249 -60.2167 61.4975 -55.8591 61.6948C-53.3141 61.8102 -50.9531 61.7611 -50.6125 61.5861C-50.0374 61.2906 -50.0759 61.2607 -51.1538 61.1669C-52.3591 61.0621 -52.8494 60.5323 -52.0052 60.2476C-51.591 60.1076 -49.7352 59.7586 -47.4096 59.3829C-46.2669 59.1981 -41.3932 59.1811 -41.312 59.3615ZM-53.4428 60.6847C-53.3951 60.8622 -53.556 60.9964 -53.8003 60.9827C-54.3322 60.9528 -54.3687 60.7507 -53.8827 60.5256C-53.6886 60.4354 -53.4906 60.5072 -53.4428 60.6847ZM-55.3623 60.5658C-54.5001 60.79 -54.644 60.8272 -56.2248 60.7877C-57.2682 60.7615 -58.0836 60.6695 -58.0366 60.5833C-57.8829 60.3006 -56.4186 60.2907 -55.3623 60.5658ZM-47.1957 63.4748C-48.7706 63.3675 -50.7226 63.2212 -51.5334 63.1494C-52.5369 63.0605 -53.5844 63.2506 -54.8141 63.7446C-56.6549 64.4841 -57.1319 65.0077 -56.0217 65.07C-55.6819 65.0891 -53.4543 65.459 -51.0711 65.8917C-48.6882 66.3247 -46.6924 66.5945 -46.6365 66.4913C-46.5805 66.3885 -46.6839 66.2798 -46.8662 66.2503C-47.1231 66.2089 -47.0981 66.1404 -46.7549 65.9473C-46.2885 65.6843 -44.4298 65.8861 -39.9955 66.6809C-38.5214 66.945 -35.2474 67.3511 -32.7199 67.5831C-28.4167 67.9781 -28.1951 67.9688 -29.2364 67.4359C-29.8479 67.1229 -30.8905 66.6941 -31.5533 66.4832C-33.934 65.7253 -37.9329 64.3143 -38.689 63.9648C-39.1131 63.769 -40.5563 63.6225 -41.8961 63.6393C-43.236 63.6558 -45.6208 63.5821 -47.1957 63.4748ZM-15.1795 65.7475C-23.725 65.2497 -25.3335 65.2315 -24.8881 65.6359C-24.3036 66.1664 -22.845 66.761 -20.968 67.2341C-20.3038 67.4015 -19.7179 67.692 -19.6661 67.8795C-19.6088 68.0874 -18.7936 68.1738 -17.5862 68.1011C-16.494 68.035 -15.4832 67.9856 -15.3399 67.9916C-15.1966 67.9971 -14.1762 67.908 -13.0723 67.7934C-11.1829 67.5975 -5.62574 67.5929 -1.62146 67.7844C-0.265864 67.8492 0.159125 67.7621 0.115788 67.4284C-0.0299661 66.3023 -0.70972 66.016 -2.84443 66.1816C-3.99533 66.2712 -9.54608 66.0757 -15.1795 65.7475ZM-12.7625 71.865C-13.5256 71.9423 -14.1889 72.0767 -14.2361 72.1639C-14.3762 72.4218 -9.05368 72.6406 -7.55438 72.4386L-6.17404 72.2528L-7.47042 72.0046C-8.98043 71.7156 -10.8085 71.6672 -12.7625 71.865Z" fill="#F14B64"/>
<path fill-rule="evenodd" clip-rule="evenodd" d="M109.397 73.7566C109.32 73.6645 108.667 73.598 107.945 73.609C107.224 73.6204 105.676 73.4637 104.506 73.2612C100.731 72.6081 96.0619 72.079 93.8946 72.0588C92.7326 72.0483 91.1864 72.0035 90.4586 71.9601C87.6873 71.7942 82.7396 71.7254 81.478 71.8352C80.7548 71.8983 79.5699 71.9671 78.8449 71.9884C78.1199 72.0098 77.2304 72.0429 76.8683 72.0618C75.8042 72.1181 67.2728 72.9785 67.275 73.0293C67.2844 73.2466 63.158 73.3932 61.4765 73.2357C58.9832 73.002 41.8946 73.8541 39.6137 74.3258C38.7503 74.5042 37.8663 74.6659 37.6494 74.685C37.4324 74.7042 36.3132 74.9172 35.1621 75.1591C28.5298 76.5506 27.3948 76.7058 22.3391 76.9116C19.6052 77.0232 17.2708 77.0422 17.1519 76.9538C17.033 76.8658 15.7306 76.6948 14.2571 76.5744C11.7447 76.3688 9.85487 75.8991 10.7681 75.7074C10.9839 75.662 13.2921 75.4723 15.8974 75.2858C20.333 74.9686 26.7815 73.6468 26.7561 73.0602C26.7407 72.7043 24.796 72.5512 18.9422 72.4458C14.929 72.3732 13.2735 72.2167 12.9574 71.8801C12.7172 71.6241 12.3403 71.4244 12.1196 71.4363C11.4818 71.4709 10.0282 70.8079 10.0138 70.4761C9.99999 70.1569 12.0274 69.1519 12.448 69.2692C12.5832 69.3068 12.5299 69.1004 12.3299 68.8106C12.0221 68.3651 12.044 68.2797 12.4725 68.2564C12.7509 68.2414 13.0974 68.3673 13.2427 68.5357C13.5371 68.8776 18.2573 67.3916 18.7485 66.8028C18.9126 66.6053 18.9725 66.2227 18.8814 65.952C18.7133 65.4533 19.3758 65.226 20.8747 65.2687C21.2375 65.2789 21.986 65.0983 22.5378 64.8671C23.0895 64.636 24.6207 64.3279 25.9406 64.1823C27.2605 64.0363 29.0477 63.7941 29.9123 63.6437C33.5672 63.007 40.6028 62.4776 40.4497 62.8504C40.2147 63.4219 37.8779 64.3545 35.2546 64.9234C33.964 65.2033 32.861 65.5015 32.8034 65.5858C32.4798 66.0616 33.9031 66.0597 36.3875 65.5805C45.1373 63.8934 48.6338 63.0223 49.253 62.3756C49.7854 61.8192 50.1205 61.7474 51.2811 61.9398C52.0455 62.0666 52.9941 62.0286 53.3892 61.8551C53.784 61.6813 54.7615 61.5665 55.5615 61.5997C56.3615 61.6333 57.1935 61.6454 57.4105 61.627C57.6275 61.6086 58.9537 61.529 60.3578 61.4501C61.843 61.3665 62.9748 61.1492 63.0646 60.9312C63.1711 60.6715 63.3276 60.6655 63.5729 60.9114C63.8033 61.1423 64.7874 61.1406 66.387 60.9071C68.7363 60.5639 70.0344 60.457 72.6675 60.3895C74.079 60.3534 90.8951 59.4462 92.8805 59.2993C93.6401 59.243 94.5891 59.206 94.9887 59.217C95.3883 59.228 102.472 58.9099 110.731 58.5099C118.989 58.1098 126.344 57.8733 127.074 57.9843C127.805 58.095 129.525 58.4247 130.897 58.7163C132.268 59.008 133.444 59.2438 133.509 59.2403C133.574 59.2368 133.559 59.3981 133.477 59.5989C133.394 59.7997 133.227 59.8898 133.105 59.7989C132.982 59.7082 132.549 59.7917 132.141 59.9845C127.353 62.251 127.246 62.2719 119.673 62.4651C117.387 62.5234 115.468 62.641 115.409 62.7267C115.351 62.8121 117.712 63.1122 120.657 63.3934C127.995 64.0944 131.324 64.5568 133.059 65.116C134.463 65.5688 137.052 65.5563 138.733 65.0881C139.793 64.7929 140.418 65.2816 139.979 66.0626C139.803 66.3766 139.741 66.629 139.842 66.6235C140.028 66.6134 139.802 66.9572 138.768 68.2621C138.22 68.9531 137.777 69.021 131.171 69.4259C127.313 69.6623 123.749 70.037 123.25 70.2583C122.408 70.6319 122.469 70.6563 124.107 70.601C125.939 70.5389 126.729 70.9987 125.479 71.3986C124.866 71.5951 122.093 72.1988 118.612 72.8938C116.902 73.2355 109.536 73.925 109.397 73.7566ZM127.612 70.7651C127.523 70.595 127.754 70.4392 128.125 70.4191C128.932 70.3754 129.006 70.5715 128.292 70.8627C128.007 70.9793 127.701 70.9351 127.612 70.7651ZM130.525 70.6185C129.201 70.5143 129.415 70.4574 131.808 70.2785C133.388 70.1606 134.629 70.1397 134.566 70.232C134.36 70.5347 132.147 70.7466 130.525 70.6185ZM117.909 68.8496C120.3 68.739 123.265 68.6153 124.497 68.5749C126.022 68.5249 127.588 68.191 129.401 67.5295C132.115 66.5392 132.788 65.9521 131.104 66.0433C130.588 66.0713 127.187 66.0104 123.544 65.9086C119.901 65.8064 116.859 65.8132 116.784 65.9236C116.709 66.0338 116.875 66.1277 117.154 66.1319C117.546 66.1377 117.515 66.2093 117.014 66.4489C116.333 66.7751 113.505 66.8308 106.727 66.6515C104.474 66.592 99.4873 66.6395 95.645 66.7574C89.1031 66.9581 88.769 66.9979 90.3926 67.3848C91.3462 67.612 92.9621 67.8949 93.9835 68.0134C97.6527 68.4394 103.829 69.2922 105.004 69.5358C105.664 69.6722 107.859 69.6189 109.883 69.4172C111.907 69.2159 115.519 68.9602 117.909 68.8496ZM69.2993 71.0057C82.2639 70.3219 84.6971 70.118 83.9862 69.7769C83.0535 69.3294 80.7933 68.9388 77.9118 68.7269C76.8923 68.6518 75.9797 68.4435 75.884 68.2639C75.778 68.0649 74.5377 68.0914 72.7192 68.3304C71.0742 68.547 69.5508 68.7356 69.3336 68.7495C69.1164 68.7637 67.5821 68.9933 65.924 69.2598C63.0859 69.7156 54.6856 70.4871 48.6145 70.8491C46.5592 70.9717 45.9248 71.117 46.0213 71.4433C46.3461 72.5443 47.4002 72.7354 50.612 72.2759C52.3435 72.0279 60.7528 71.4564 69.2993 71.0057ZM65.0778 65.2489C66.2243 65.0667 67.2145 64.8413 67.2778 64.748C67.4657 64.472 59.3993 64.9887 57.1515 65.3967L55.0821 65.7723L57.0649 65.8404C59.3744 65.9197 62.1423 65.7156 65.0778 65.2489Z" fill="#F14B64"/>
<path fill-rule="evenodd" clip-rule="evenodd" d="M187.178 69.0185C187.136 68.9248 186.791 68.8437 186.413 68.8384C186.034 68.8335 185.217 68.642 184.598 68.4134C182.6 67.6759 180.135 67.042 178.996 66.9729C178.386 66.9362 177.573 66.8566 177.19 66.7968C175.73 66.5685 173.131 66.3882 172.471 66.4694C172.093 66.516 171.472 66.558 171.092 66.563C170.712 66.5679 170.246 66.5809 170.056 66.5916C169.498 66.6238 165.04 67.2907 165.042 67.3415C165.053 67.5586 162.889 67.612 162.003 67.4167C160.688 67.127 151.735 67.5924 150.549 68.012C150.1 68.1707 149.64 68.3123 149.527 68.3265C149.413 68.3407 148.831 68.5282 148.232 68.7438C144.784 69.9839 144.192 70.1134 141.542 70.2048C140.109 70.2546 138.884 70.2209 138.82 70.1299C138.755 70.0393 138.067 69.8391 137.29 69.6856C135.966 69.4235 134.962 68.9117 135.437 68.7409C135.549 68.7004 136.756 68.5631 138.12 68.4356C140.441 68.2189 143.794 67.0442 143.767 66.4578C143.75 66.1019 142.725 65.9051 139.648 65.6678C137.539 65.5046 136.666 65.311 136.492 64.9677C136.359 64.7066 136.156 64.4985 136.041 64.5055C135.707 64.5256 134.927 63.8306 134.911 63.4989C134.896 63.1798 135.936 62.2217 136.16 62.3484C136.232 62.3891 136.199 62.1817 136.086 61.8877C135.914 61.4358 135.923 61.351 136.148 61.3374C136.293 61.3287 136.478 61.4622 136.559 61.6338C136.722 61.9819 139.164 60.6043 139.407 60.0272C139.488 59.8336 139.511 59.4529 139.456 59.1804C139.355 58.6785 139.698 58.4665 140.486 58.543C140.677 58.5614 141.065 58.3978 141.349 58.1794C141.633 57.961 142.43 57.6879 143.119 57.5722C143.808 57.4562 144.741 57.2546 145.191 57.1239C147.095 56.5705 150.776 56.2005 150.705 56.5695C150.596 57.1349 149.392 58.0137 148.028 58.5226C147.357 58.7731 146.786 59.046 146.757 59.1289C146.599 59.5968 147.347 59.627 148.639 59.2045C153.192 57.717 155.007 56.9258 155.316 56.2939C155.582 55.7502 155.756 55.686 156.37 55.9044C156.774 56.0483 157.272 56.0317 157.475 55.8673C157.678 55.7027 158.188 55.6101 158.609 55.6613C159.03 55.7129 159.467 55.7438 159.581 55.7303C159.694 55.7168 160.389 55.6673 161.124 55.6202C161.902 55.5702 162.491 55.3787 162.533 55.163C162.582 54.906 162.664 54.9035 162.799 55.1547C162.926 55.3905 163.442 55.411 164.277 55.2139C165.502 54.9241 166.181 54.8467 167.562 54.8387C168.302 54.8345 177.11 54.3079 178.149 54.206C178.546 54.1669 179.043 54.1514 179.254 54.1714C179.464 54.1914 183.176 54.0335 187.502 53.8204C191.829 53.6072 195.685 53.537 196.071 53.6644C196.458 53.7915 197.369 54.1595 198.097 54.4818C198.824 54.804 199.447 55.0661 199.481 55.0641C199.515 55.062 199.512 55.2228 199.473 55.4215C199.435 55.6202 199.349 55.7065 199.283 55.6128C199.216 55.5195 198.99 55.5932 198.781 55.7765C196.323 57.9322 196.268 57.9506 192.296 57.9727C191.096 57.9793 190.092 58.0535 190.063 58.1378C190.035 58.2217 191.282 58.5748 192.835 58.9221C196.706 59.7878 198.465 60.3248 199.39 60.9225C200.138 61.4064 201.498 61.4524 202.369 61.0227C202.918 60.7518 203.258 61.254 203.047 62.0241C202.963 62.3338 202.936 62.5844 202.989 62.5813C203.086 62.5754 202.977 62.9136 202.466 64.1936C202.195 64.8714 201.964 64.9292 198.505 65.1846C196.485 65.3336 194.623 65.6274 194.366 65.8371C193.933 66.1913 193.966 66.2171 194.825 66.1987C195.785 66.1781 196.212 66.6552 195.565 67.0264C195.248 67.2089 193.807 67.7492 191.996 68.3648C191.107 68.6674 187.256 69.1899 187.178 69.0185ZM196.669 66.4417C196.619 66.2699 196.736 66.1195 196.93 66.1078C197.353 66.0823 197.396 66.2799 197.029 66.5546C196.882 66.6647 196.72 66.6136 196.669 66.4417ZM198.195 66.3611C197.497 66.2271 197.608 66.1751 198.861 66.0505C199.687 65.9684 200.339 65.9756 200.308 66.0663C200.207 66.3639 199.05 66.5256 198.195 66.3611ZM191.527 64.3096C192.78 64.2531 194.333 64.1965 194.98 64.1839C195.779 64.1684 196.593 63.8703 197.529 63.2505C198.93 62.3227 199.268 61.7514 198.386 61.8046C198.116 61.8208 196.328 61.6833 194.413 61.4994C192.498 61.315 190.901 61.2532 190.864 61.3618C190.827 61.4701 190.917 61.5676 191.063 61.5781C191.269 61.5928 191.255 61.6636 190.998 61.8916C190.648 62.2021 189.164 62.1938 185.601 61.8618C184.417 61.7515 181.799 61.6864 179.784 61.7175C176.354 61.7702 176.18 61.8025 177.042 62.2255C177.548 62.474 178.404 62.793 178.943 62.9345C180.88 63.4427 184.144 64.4339 184.768 64.7037C185.117 64.8548 186.269 64.8511 187.326 64.6954C188.384 64.54 190.275 64.3661 191.527 64.3096ZM166.055 65.3659C172.846 64.9756 174.119 64.8269 173.737 64.4701C173.236 64.0022 172.04 63.561 170.521 63.2843C169.984 63.1863 169.5 62.9576 169.445 62.7761C169.385 62.575 168.734 62.5734 167.785 62.7711C166.927 62.9503 166.131 63.1043 166.018 63.1132C165.904 63.1226 165.104 63.3172 164.24 63.546C162.761 63.9372 158.369 64.5182 155.19 64.7427C154.114 64.8187 153.784 64.9496 153.843 65.2776C154.041 66.3846 154.599 66.5993 156.274 66.2129C157.177 66.0043 161.579 65.6232 166.055 65.3659ZM163.696 59.5209C164.294 59.3648 164.808 59.162 164.839 59.0702C164.931 58.7988 160.708 59.1328 159.538 59.4896L158.461 59.818L159.503 59.9308C160.718 60.0621 162.166 59.9208 163.696 59.5209Z" fill="#F14B64"/>
<path fill-rule="evenodd" clip-rule="evenodd" d="M339.997 53.9438C339.926 54.0332 338.068 54.4309 335.87 54.8275C333.671 55.224 330.864 55.7458 329.633 55.9876C328.402 56.2289 326.423 56.5695 325.234 56.7441C323.889 56.9417 323.078 57.2333 323.085 57.5163C323.094 57.8373 321.284 58.1609 316.928 58.618C308.329 59.52 305.463 59.5782 305.443 58.8506C305.424 58.1519 305.404 58.1525 301.086 58.9614C297.82 59.5732 294.804 59.8393 290.23 59.9179C287.148 59.9714 288.283 59.6679 292.757 59.2437C295.049 59.0262 298.149 58.6571 299.645 58.4231C301.142 58.1892 304.275 57.7322 306.609 57.4072C308.943 57.0827 310.849 56.7223 310.846 56.6066C310.831 56.0608 297.851 57.0648 294.808 57.8472C293.83 58.0986 286.558 58.483 277.45 58.7646C262.306 59.233 261.76 59.275 261.359 60C260.955 60.7281 260.791 60.7397 255.806 60.3803C252.981 60.1765 249.366 59.9457 247.773 59.867C246.179 59.7888 243.498 59.5938 241.814 59.4343C235.895 58.8735 230.576 58.9664 227.386 59.6867C224.647 60.3055 224.074 60.6319 223.778 61.7453C223.723 61.9503 221.956 62.2162 219.851 62.3365C217.746 62.4568 213.641 62.709 210.729 62.8969C207.817 63.0844 204.713 63.2832 203.83 63.3379C202.948 63.3929 199.758 63.4847 196.741 63.5422C190.647 63.658 185.371 64.1988 185.385 64.7061C185.39 64.8883 185.575 65.0371 185.796 65.0372C186.023 65.037 185.936 65.2856 185.594 65.6102C184.613 66.5416 185.308 66.7336 187.517 66.1415C188.655 65.8364 189.793 65.6737 190.046 65.7797C190.3 65.8857 193.304 65.9919 196.724 66.0155C200.143 66.0396 203.739 66.1948 204.716 66.3611C205.693 66.5269 208.45 66.8562 210.843 67.0928C216.152 67.6168 216.985 67.7315 219.177 68.2412C220.514 68.552 220.953 68.5384 221.127 68.1809C221.251 67.927 221.938 67.632 222.654 67.525C223.727 67.3651 224.081 67.49 224.658 68.2308C225.54 69.3623 227.268 69.4025 228.055 68.31C228.354 67.8954 228.498 67.377 228.376 67.1581C228.254 66.9392 228.285 66.7563 228.444 66.7513C228.604 66.7464 229.611 66.0301 230.681 65.1595C232.601 63.5981 233.743 63.2533 235.419 63.7291C235.817 63.8424 236.06 64.1082 235.956 64.32C235.838 64.5631 236.225 64.612 237.008 64.4526C239.158 64.0154 244.022 63.5182 243.841 63.7545C243.694 63.944 239.614 64.798 232.687 66.0884C231.626 66.286 231.394 66.4371 231.781 66.6778C232.687 67.2391 243.174 65.7911 248.506 64.3681C250.322 63.8837 251.798 63.7452 253.779 63.8738C258.052 64.1505 258.386 64.2696 257.722 65.2768C257.165 66.1228 257.886 67.872 258.673 67.582C259.642 67.2247 261.692 66.8994 264.992 66.5792C269.416 66.1501 271.325 65.7915 271.81 65.298C272.084 65.02 274.69 64.8351 279.508 64.7512C283.514 64.6814 286.691 64.5127 286.569 64.376C286.217 63.983 284.772 63.9112 275.42 63.822C270.588 63.7758 266.546 63.6393 266.438 63.5182C266.108 63.1492 279.42 62.8658 282.381 63.1789C289.236 63.9037 292.273 63.9228 297.527 63.2739C304.598 62.4001 307.875 62.038 314.352 61.4137C317.35 61.1245 320.691 60.6915 321.777 60.4516C322.864 60.2113 324.953 59.9005 326.419 59.7607C329.588 59.4583 329.248 59.5582 329.231 58.9345C329.222 58.5808 330.229 58.1911 332.492 57.6734C336.152 56.8366 340.732 54.9656 340.916 54.2325C341.027 53.7932 340.299 53.5645 339.997 53.9438ZM311.571 56.4506C311.886 56.5375 312.32 56.5177 312.534 56.4067C312.749 56.2958 312.491 56.225 311.961 56.249C311.432 56.273 311.256 56.3637 311.571 56.4506ZM309.871 58.4027C310.105 58.5054 310.382 58.4832 310.485 58.3536C310.588 58.224 310.396 58.1401 310.058 58.1669C309.685 58.1968 309.611 58.2893 309.871 58.4027Z" fill="#F14B64"/>
<path fill-rule="evenodd" clip-rule="evenodd" d="M294.002 64.0732C294.074 63.9847 295.935 63.6081 298.136 63.2367C300.339 62.8653 303.149 62.3754 304.382 62.1478C305.615 61.9205 307.598 61.6024 308.787 61.4414C310.134 61.2591 310.948 60.9768 310.942 60.6938C310.936 60.3727 312.749 60.0698 317.109 59.6623C325.715 58.8583 328.582 58.8328 328.596 59.5605C328.609 60.2593 328.628 60.259 332.954 59.4994C336.225 58.9248 339.242 58.6931 343.817 58.6666C346.9 58.6482 345.762 58.9387 341.285 59.312C338.991 59.5033 335.888 59.8371 334.39 60.054C332.892 60.2708 329.755 60.6921 327.418 60.9904C325.082 61.2884 323.172 61.6271 323.175 61.7427C323.185 62.2886 336.173 61.4325 339.222 60.6849C340.203 60.4447 347.478 60.1432 356.589 59.9653C371.736 59.6694 372.282 59.6337 372.69 58.9133C373.099 58.1899 373.264 58.1802 378.246 58.5963C381.069 58.8322 384.683 59.1042 386.275 59.201C387.868 59.2973 390.548 59.5228 392.23 59.7015C398.146 60.3296 403.465 60.2973 406.661 59.6134C409.405 59.0259 409.98 58.7061 410.285 57.5961C410.341 57.3918 412.11 57.146 414.216 57.0497C416.323 56.9534 420.43 56.748 423.343 56.5933C426.257 56.439 429.363 56.2756 430.246 56.2309C431.129 56.1859 434.319 56.1305 437.337 56.1073C443.432 56.061 448.712 55.5803 448.702 55.0729C448.699 54.8906 448.515 54.7397 448.294 54.7372C448.066 54.7348 448.156 54.4872 448.501 54.1665C449.488 53.2464 448.795 53.0465 446.581 53.6134C445.441 53.9054 444.302 54.0552 444.049 53.9463C443.796 53.8375 440.793 53.6971 437.374 53.6345C433.955 53.5715 430.359 53.3753 429.384 53.198C428.408 53.0211 425.653 52.6604 423.262 52.3966C417.957 51.8121 417.125 51.6879 414.937 51.1534C413.602 50.8274 413.163 50.836 412.986 51.1915C412.861 51.4439 412.172 51.731 411.454 51.8299C410.381 51.9776 410.027 51.8486 409.456 51.1013C408.583 49.96 406.855 49.9001 406.059 50.9835C405.758 51.3947 405.609 51.9113 405.729 52.1316C405.85 52.3519 405.818 52.5344 405.658 52.5375C405.498 52.5406 404.486 53.2454 403.409 54.1037C401.477 55.6431 400.332 55.9748 398.66 55.48C398.262 55.3622 398.022 55.0937 398.127 54.8831C398.247 54.6414 397.861 54.588 397.076 54.7384C394.922 55.1512 390.054 55.5929 390.238 55.3587C390.386 55.1709 394.473 54.3634 401.41 53.1521C402.473 52.9666 402.706 52.8182 402.32 52.573C401.42 52.0015 390.921 53.3299 385.577 54.692C383.758 55.1557 382.28 55.2774 380.3 55.1262C376.029 54.8009 375.696 54.678 376.368 53.6784C376.932 52.839 376.224 51.0817 375.435 51.3627C374.463 51.709 372.411 52.0109 369.108 52.2934C364.681 52.6722 362.769 53.009 362.28 53.4969C362.004 53.7717 359.396 53.9269 354.578 53.9559C350.571 53.9801 347.392 54.1126 347.513 54.2507C347.862 54.6477 349.306 54.7359 358.658 54.9315C363.49 55.0328 367.531 55.2153 367.638 55.3377C367.965 55.7103 354.651 55.8421 351.692 55.4953C344.842 54.6925 341.805 54.6388 336.546 55.2279C329.468 56.021 326.189 56.3458 319.706 56.8963C316.706 57.1512 313.361 57.5461 312.273 57.7736C311.185 58.0015 309.094 58.2886 307.626 58.4116C304.455 58.6779 304.795 58.5819 304.807 59.2057C304.814 59.5595 303.804 59.9377 301.537 60.4295C297.87 61.2246 293.275 63.0432 293.085 63.7741C292.971 64.2121 293.697 64.4491 294.002 64.0732ZM322.448 61.8905C322.134 61.7999 321.7 61.8149 321.485 61.9234C321.269 62.0318 321.527 62.1056 322.057 62.0876C322.586 62.0697 322.763 61.981 322.448 61.8905ZM324.164 59.958C323.93 59.8526 323.653 59.8717 323.549 60C323.445 60.1284 323.636 60.2145 323.975 60.1915C324.349 60.166 324.423 60.0743 324.164 59.958Z" fill="#F14B64"/>
<path d="M-60.7987 66.8216L-59.571 66.7796L-59.4142 71.3587L-60.642 71.4008L-60.7987 66.8216ZM-58.1798 71.3165L-60.301 66.8046L-58.9737 66.7591L-56.8525 71.271L-58.1798 71.3165ZM-57.5825 71.296L-57.7393 66.7168L-56.5116 66.6748L-56.3548 71.254L-57.5825 71.296ZM-55.7047 66.6472L-52.3599 66.5327L-52.3213 67.6609L-54.3388 67.7299L-54.3161 68.3936L-52.8494 68.3434L-52.8108 69.4716L-54.2774 69.5218L-54.2206 71.1809L-55.5479 71.2264L-55.7047 66.6472ZM-50.8013 67.6088L-52.1154 67.6538L-52.154 66.5256L-48.192 66.39L-48.1534 67.5182L-49.474 67.5634L-49.3559 71.0144L-50.6832 71.0598L-50.8013 67.6088ZM-46.5277 66.333L-43.0767 66.2148L-43.0392 67.3098L-45.1629 67.3825L-45.1425 67.9798L-43.5431 67.9251L-43.5067 68.9869L-45.1061 69.0417L-45.0811 69.7717L-42.9243 69.6978L-42.8868 70.7929L-46.3709 70.9121L-46.5277 66.333ZM-41.0219 68.0049L-40.8715 67.9333L-39.8113 66.103L-38.484 66.0576L-40.0547 68.696L-40.2042 68.7941L-41.3468 70.7401L-42.6741 70.7856L-41.0219 68.0049ZM-40.9401 68.8392L-41.0772 68.7177L-42.8309 66.2064L-41.3974 66.1573L-40.2929 67.754L-40.1765 67.8563L-38.2276 70.6333L-39.6611 70.6824L-40.9401 68.8392ZM-38.3851 68.3265C-38.4056 67.7292 -38.3354 67.2551 -38.1747 66.9041C-38.0095 66.5529 -37.768 66.2988 -37.45 66.1418C-37.1276 65.9845 -36.7407 65.8982 -36.2895 65.8828C-35.8736 65.8685 -35.5111 65.9115 -35.202 66.0116C-34.8931 66.1074 -34.6459 66.2761 -34.4605 66.5178C-34.2752 66.7551 -34.1555 67.081 -34.1014 67.4955L-35.4619 67.5421C-35.4974 67.2819 -35.585 67.1166 -35.7247 67.0461C-35.8646 66.9712 -36.0407 66.9373 -36.2531 66.9446C-36.408 66.9499 -36.5466 66.9768 -36.6689 67.0253C-36.7915 67.0693 -36.8859 67.1567 -36.9523 67.2875C-37.0187 67.4182 -37.0473 67.6185 -37.038 67.8884L-37.0103 68.698C-37.0011 68.9679 -36.961 69.1681 -36.8901 69.2985C-36.8149 69.4244 -36.7146 69.5074 -36.5892 69.5474C-36.4638 69.5874 -36.3215 69.6046 -36.1622 69.5992C-35.9543 69.5921 -35.7832 69.5441 -35.6489 69.4554C-35.5146 69.3666 -35.4342 69.1933 -35.4076 68.9355L-34.0471 68.8889C-34.0772 69.3019 -34.1788 69.6354 -34.3517 69.8894C-34.5202 70.1432 -34.7551 70.3328 -35.0564 70.4583C-35.3535 70.5792 -35.71 70.6468 -36.1259 70.661C-36.4665 70.6727 -36.7731 70.6455 -37.0456 70.5796C-37.3138 70.509 -37.5461 70.3863 -37.7425 70.2114C-37.9346 70.0364 -38.0868 69.7958 -38.1991 69.4895C-38.3072 69.1787 -38.3692 68.7911 -38.3851 68.3265ZM-33.5982 65.8903L-32.2709 65.8448L-32.1528 69.2958L-30.1884 69.2286L-30.1498 70.3568L-33.4414 70.4695L-33.5982 65.8903ZM-29.867 68.5797L-29.9634 65.7658L-28.6361 65.7204L-28.5397 68.5343C-28.5321 68.7555 -28.4998 68.9249 -28.4426 69.0425C-28.3811 69.1556 -28.2966 69.2302 -28.1891 69.2664C-28.0771 69.3024 -27.9415 69.3177 -27.7822 69.3123C-27.6229 69.3068 -27.4909 69.2824 -27.3861 69.2389C-27.2768 69.1953 -27.1976 69.1151 -27.1485 68.9982C-27.095 68.8768 -27.0721 68.7055 -27.0797 68.4843L-27.176 65.6704L-25.9815 65.6295L-25.8851 68.4434C-25.8697 68.8946 -25.928 69.2599 -26.0602 69.539C-26.188 69.818 -26.3913 70.0243 -26.6702 70.1579C-26.9493 70.287 -27.3078 70.3591 -27.7459 70.3741C-28.1839 70.3891 -28.5576 70.3421 -28.8669 70.2331C-29.1764 70.1197 -29.4177 69.9286 -29.5908 69.6599C-29.7595 69.391 -29.8516 69.031 -29.867 68.5797ZM-25.3175 68.7296L-23.957 68.683C-23.9474 68.8333 -23.9126 68.945 -23.8525 69.0183C-23.7924 69.0915 -23.7132 69.1397 -23.615 69.1629C-23.5123 69.186 -23.3924 69.1952 -23.2553 69.1905C-23.0385 69.1831 -22.869 69.1507 -22.747 69.0934C-22.6206 69.0315 -22.5606 68.9076 -22.567 68.7218C-22.5705 68.62 -22.6107 68.5439 -22.6878 68.4934C-22.7648 68.4428 -22.8679 68.4065 -22.9971 68.3843C-23.1264 68.3622 -23.2709 68.345 -23.4308 68.3328C-23.5863 68.3204 -23.7507 68.3038 -23.9242 68.2832C-24.0932 68.2624 -24.2583 68.2282 -24.4194 68.1806C-24.576 68.1328 -24.7202 68.0624 -24.8518 67.9695C-24.9836 67.8721 -25.0898 67.7451 -25.1705 67.5884C-25.2513 67.4272 -25.296 67.2228 -25.3045 66.975C-25.3166 66.6211 -25.2488 66.3353 -25.1013 66.1176C-24.9538 65.8955 -24.738 65.7309 -24.4537 65.6237C-24.1695 65.5165 -23.8327 65.4563 -23.4434 65.4429C-23.054 65.4296 -22.7117 65.4666 -22.4163 65.5539C-22.121 65.6413 -21.8878 65.7905 -21.7167 66.0017C-21.5457 66.2085 -21.4497 66.4887 -21.4287 66.8423L-22.7892 66.8889C-22.8043 66.7078 -22.868 66.5926 -22.9805 66.5433C-23.0886 66.4894 -23.2312 66.4655 -23.4081 66.4716C-23.5364 66.476 -23.6489 66.4909 -23.7455 66.5164C-23.8376 66.5417 -23.9092 66.5862 -23.9602 66.6499C-24.0111 66.7137 -24.0346 66.8031 -24.0307 66.9181C-24.0274 67.0155 -23.9872 67.0894 -23.9102 67.1399C-23.8333 67.186 -23.7302 67.2223 -23.6008 67.2489C-23.4716 67.2711 -23.327 67.2905 -23.1669 67.3071C-23.007 67.3194 -22.8425 67.3381 -22.6733 67.3633C-22.5043 67.3841 -22.3392 67.4183 -22.1781 67.466C-22.017 67.5136 -21.8707 67.5817 -21.7393 67.6702C-21.6078 67.7587 -21.5018 67.8769 -21.4215 68.0248C-21.3411 68.1726 -21.2971 68.3594 -21.2893 68.585C-21.2762 68.9699 -21.3453 69.2801 -21.4967 69.5157C-21.6437 69.751 -21.8636 69.9247 -22.1566 70.0366C-22.4497 70.1441 -22.8041 70.2049 -23.22 70.2192C-23.5342 70.2299 -23.8161 70.2108 -24.0658 70.1617C-24.3156 70.1127 -24.531 70.0293 -24.7122 69.9115C-24.889 69.7935 -25.0294 69.6388 -25.1334 69.4475C-25.2376 69.2517 -25.2989 69.0124 -25.3175 68.7296ZM-20.7984 65.452L-19.4711 65.4066L-19.3143 69.9858L-20.6416 70.0312L-20.7984 65.452ZM-19.0579 65.3924L-17.6576 65.3445L-16.1867 69.8787L-17.5539 69.9255L-19.0579 65.3924ZM-15.6467 65.2756L-14.4389 65.2343L-15.6293 69.8596L-16.7973 69.8996L-15.6467 65.2756ZM-14.0258 65.2201L-10.5748 65.102L-10.5373 66.197L-12.661 66.2697L-12.6406 66.867L-11.0412 66.8122L-11.0048 67.8741L-12.6042 67.9288L-12.5792 68.6589L-10.4223 68.585L-10.3849 69.68L-13.869 69.7993L-14.0258 65.2201ZM-8.56236 65.0331L-5.11139 64.9149L-5.07389 66.0099L-7.19757 66.0827L-7.17712 66.6799L-5.57772 66.6252L-5.54137 67.687L-7.14076 67.7418L-7.11577 68.4718L-4.95891 68.3979L-4.92142 69.493L-8.40557 69.6123L-8.56236 65.0331ZM-3.05651 66.705L-2.90614 66.6334L-1.84593 64.8031L-0.51863 64.7577L-2.08936 67.3961L-2.23882 67.4942L-3.38144 69.4402L-4.70874 69.4857L-3.05651 66.705ZM-2.97479 67.5393L-3.11183 67.4178L-4.86553 64.9065L-3.43205 64.8574L-2.32758 66.4541L-2.21113 66.5564L-0.262297 69.3334L-1.69578 69.3825L-2.97479 67.5393ZM0.916977 64.7085L2.085 64.6685L0.868032 69.2947L-0.339808 69.3361L0.916977 64.7085ZM0.884493 68.4171L0.850409 67.4217L3.05372 67.3462L3.08781 68.3417L0.884493 68.4171ZM1.47444 64.6894L2.84156 64.6426L4.41191 69.1734L3.01162 69.2213L1.47444 64.6894ZM4.65876 64.5804L5.85333 64.5395L6.01011 69.1187L4.81554 69.1596L4.65876 64.5804ZM6.76131 68.5481L5.48168 64.5522L6.66298 64.5118L7.94261 68.5077L6.76131 68.5481ZM8.01682 64.4654L9.05875 64.4298L8.06206 68.5036L7.02013 68.5393L8.01682 64.4654ZM8.85053 69.0214L8.69374 64.4423L10.021 64.3968L10.1778 68.976L8.85053 69.0214ZM10.8286 64.3692L13.2509 64.2862C13.7996 64.2674 14.2092 64.3952 14.48 64.6694C14.7551 64.9434 14.9014 65.3349 14.9188 65.8437C14.9361 66.348 14.8167 66.7419 14.5606 67.0253C14.3088 67.3041 13.9086 67.4529 13.36 67.4717L12.265 67.5092L12.3127 68.9029L10.9854 68.9483L10.8286 64.3692ZM13.5611 65.9699L13.5542 65.7708C13.5505 65.6602 13.5119 65.5685 13.4385 65.4957C13.365 65.4185 13.2597 65.3822 13.1225 65.3869L12.1934 65.4187L12.2275 66.4142L13.1566 66.3824C13.2938 66.3777 13.3965 66.3387 13.4649 66.2655C13.5332 66.1923 13.5653 66.0938 13.5611 65.9699ZM15.4042 64.2125L16.7315 64.1671L16.8496 67.618L18.814 67.5508L18.8526 68.679L15.5609 68.7917L15.4042 64.2125ZM19.189 64.0829L22.64 63.9647L22.6775 65.0598L20.5538 65.1325L20.5743 65.7298L22.1737 65.675L22.21 66.7368L20.6106 66.7916L20.6356 67.5216L22.7925 67.4478L22.83 68.5428L19.3458 68.6621L19.189 64.0829ZM23.2183 67.0678L24.5788 67.0212C24.5884 67.1714 24.6232 67.2832 24.6833 67.3565C24.7434 67.4297 24.8225 67.4779 24.9208 67.5011C25.0234 67.5242 25.1434 67.5334 25.2805 67.5287C25.4973 67.5213 25.6667 67.4889 25.7888 67.4316C25.9151 67.3696 25.9751 67.2458 25.9688 67.06C25.9653 66.9582 25.925 66.8821 25.848 66.8315C25.771 66.781 25.6678 66.7447 25.5386 66.7225C25.4094 66.7004 25.2649 66.6832 25.105 66.6709C24.9495 66.6585 24.7851 66.642 24.6116 66.6214C24.4426 66.6006 24.2775 66.5664 24.1164 66.5188C23.9597 66.471 23.8156 66.4006 23.6839 66.3077C23.5522 66.2103 23.4459 66.0833 23.3653 65.9266C23.2844 65.7654 23.2398 65.561 23.2313 65.3132C23.2192 64.9593 23.2869 64.6735 23.4345 64.4558C23.5819 64.2337 23.7978 64.0691 24.082 63.9619C24.3663 63.8547 24.7031 63.7944 25.0924 63.7811C25.4817 63.7678 25.8241 63.8048 26.1194 63.8921C26.4148 63.9795 26.648 64.1287 26.8191 64.3399C26.9901 64.5467 27.0861 64.8269 27.107 65.1805L25.7465 65.2271C25.7315 65.046 25.6677 64.9308 25.5553 64.8815C25.4472 64.8276 25.3046 64.8037 25.1276 64.8098C24.9993 64.8142 24.8869 64.8291 24.7903 64.8545C24.6981 64.8798 24.6266 64.9244 24.5756 64.9881C24.5246 65.0519 24.5011 65.1413 24.5051 65.2563C24.5084 65.3537 24.5486 65.4276 24.6256 65.4781C24.7025 65.5242 24.8056 65.5605 24.935 65.5871C25.0642 65.6093 25.2088 65.6287 25.3688 65.6453C25.5287 65.6576 25.6933 65.6763 25.8624 65.7015C26.0315 65.7223 26.1965 65.7565 26.3576 65.8042C26.5187 65.8518 26.665 65.9199 26.7965 66.0084C26.928 66.0969 27.0339 66.2151 27.1143 66.363C27.1946 66.5108 27.2387 66.6976 27.2464 66.9232C27.2596 67.3081 27.1905 67.6183 27.0391 67.8538C26.8921 68.0892 26.6722 68.2628 26.3792 68.3748C26.0861 68.4822 25.7316 68.5431 25.3157 68.5573C25.0016 68.5681 24.7197 68.549 24.4699 68.4999C24.2202 68.4509 24.0047 68.3675 23.8235 68.2496C23.6467 68.1317 23.5063 67.977 23.4023 67.7857C23.2982 67.5899 23.2368 67.3506 23.2183 67.0678Z" fill="#471828"/>
<path d="M84.0948 60.9409L87.5458 60.8227L87.5833 61.9177L85.4596 61.9904L85.48 62.5877L87.0794 62.533L87.1158 63.5948L85.5164 63.6496L85.5414 64.3796L87.6983 64.3057L87.7357 65.4007L84.2516 65.52L84.0948 60.9409ZM89.6007 62.6127L89.751 62.5412L90.8112 60.7109L92.1385 60.6655L90.5678 63.3039L90.4183 63.402L89.2757 65.348L87.9484 65.3935L89.6007 62.6127ZM89.6824 63.4471L89.5453 63.3256L87.7916 60.8143L89.2251 60.7652L90.3296 62.3619L90.446 62.4642L92.3949 65.2412L90.9614 65.2903L89.6824 63.4471ZM92.2374 62.9344C92.217 62.3371 92.2871 61.863 92.4478 61.512C92.613 61.1608 92.8545 60.9067 93.1725 60.7497C93.4949 60.5924 93.8818 60.5061 94.333 60.4907C94.7489 60.4764 95.1114 60.5194 95.4205 60.6195C95.7294 60.7153 95.9766 60.884 96.162 61.1257C96.3473 61.363 96.467 61.6889 96.5211 62.1034L95.1606 62.15C95.1251 61.8898 95.0375 61.7245 94.8978 61.654C94.7579 61.5791 94.5818 61.5452 94.3694 61.5525C94.2146 61.5578 94.0759 61.5847 93.9536 61.6332C93.8311 61.6772 93.7366 61.7646 93.6702 61.8954C93.6038 62.0261 93.5752 62.2264 93.5845 62.4963L93.6122 63.3059C93.6214 63.5758 93.6615 63.776 93.7324 63.9064C93.8076 64.0323 93.9079 64.1153 94.0333 64.1553C94.1587 64.1953 94.301 64.2125 94.4603 64.2071C94.6682 64.2 94.8393 64.152 94.9736 64.0633C95.1079 63.9745 95.1883 63.8012 95.215 63.5434L96.5754 63.4968C96.5453 63.9098 96.4437 64.2433 96.2708 64.4972C96.1023 64.7511 95.8674 64.9407 95.5661 65.0662C95.269 65.1871 94.9125 65.2547 94.4967 65.2689C94.156 65.2806 93.8494 65.2534 93.577 65.1875C93.3088 65.1169 93.0764 64.9942 92.88 64.8193C92.688 64.6443 92.5358 64.4037 92.4234 64.0974C92.3153 63.7866 92.2533 63.399 92.2374 62.9344ZM97.0243 60.4982L98.3516 60.4527L98.4697 63.9037L100.434 63.8364L100.473 64.9646L97.1811 65.0773L97.0243 60.4982ZM100.756 63.1876L100.659 60.3737L101.986 60.3283L102.083 63.1421C102.09 63.3634 102.123 63.5328 102.18 63.6504C102.241 63.7635 102.326 63.8381 102.433 63.8743C102.545 63.9103 102.681 63.9256 102.84 63.9202C103 63.9147 103.132 63.8903 103.236 63.8468C103.346 63.8032 103.425 63.723 103.474 63.6061C103.527 63.4847 103.55 63.3134 103.543 63.0922L103.446 60.2783L104.641 60.2374L104.737 63.0513C104.753 63.5025 104.694 63.8678 104.562 64.1469C104.435 64.4259 104.231 64.6322 103.952 64.7658C103.673 64.8949 103.315 64.967 102.877 64.982C102.439 64.997 102.065 64.95 101.756 64.841C101.446 64.7276 101.205 64.5365 101.032 64.2678C100.863 63.9989 100.771 63.6389 100.756 63.1876ZM105.305 63.3375L106.666 63.2909C106.675 63.4412 106.71 63.5529 106.77 63.6262C106.83 63.6994 106.909 63.7476 107.008 63.7708C107.11 63.7939 107.23 63.8031 107.367 63.7984C107.584 63.791 107.753 63.7586 107.876 63.7013C108.002 63.6393 108.062 63.5155 108.056 63.3297C108.052 63.2279 108.012 63.1518 107.935 63.1012C107.858 63.0507 107.755 63.0144 107.625 62.9922C107.496 62.9701 107.352 62.9529 107.192 62.9406C107.036 62.9282 106.872 62.9117 106.698 62.8911C106.529 62.8703 106.364 62.8361 106.203 62.7885C106.046 62.7407 105.902 62.6703 105.771 62.5774C105.639 62.48 105.533 62.353 105.452 62.1963C105.371 62.0351 105.327 61.8307 105.318 61.5829C105.306 61.229 105.374 60.9432 105.521 60.7255C105.669 60.5034 105.885 60.3388 106.169 60.2316C106.453 60.1244 106.79 60.0642 107.179 60.0508C107.568 60.0375 107.911 60.0745 108.206 60.1618C108.502 60.2492 108.735 60.3984 108.906 60.6096C109.077 60.8164 109.173 61.0966 109.194 61.4502L107.833 61.4968C107.818 61.3157 107.754 61.2005 107.642 61.1512C107.534 61.0973 107.391 61.0734 107.214 61.0795C107.086 61.0839 106.974 61.0988 106.877 61.1242C106.785 61.1495 106.713 61.1941 106.662 61.2578C106.611 61.3216 106.588 61.411 106.592 61.526C106.595 61.6234 106.635 61.6973 106.712 61.7478C106.789 61.7939 106.892 61.8302 107.022 61.8568C107.151 61.879 107.296 61.8984 107.456 61.915C107.615 61.9273 107.78 61.946 107.949 61.9712C108.118 61.992 108.283 62.0262 108.444 62.0739C108.605 62.1215 108.752 62.1896 108.883 62.2781C109.015 62.3666 109.121 62.4848 109.201 62.6327C109.281 62.7805 109.325 62.9673 109.333 63.1929C109.346 63.5778 109.277 63.888 109.126 64.1235C108.979 64.3589 108.759 64.5325 108.466 64.6445C108.173 64.7519 107.818 64.8128 107.402 64.827C107.088 64.8378 106.806 64.8187 106.557 64.7696C106.307 64.7206 106.091 64.6372 105.91 64.5193C105.733 64.4014 105.593 64.2467 105.489 64.0554C105.385 63.8596 105.324 63.6203 105.305 63.3375ZM109.824 60.0599L111.151 60.0145L111.308 64.5937L109.981 64.6391L109.824 60.0599ZM111.565 60.0003L112.965 59.9524L114.436 64.4866L113.069 64.5334L111.565 60.0003ZM114.976 59.8835L116.184 59.8422L114.993 64.4675L113.825 64.5075L114.976 59.8835ZM116.597 59.828L120.048 59.7099L120.085 60.8049L117.962 60.8776L117.982 61.4749L119.581 61.4201L119.618 62.482L118.018 62.5367L118.043 63.2667L120.2 63.1929L120.238 64.2879L116.754 64.4072L116.597 59.828ZM121.972 61.9163C121.952 61.3191 122.022 60.8449 122.182 60.4939C122.348 60.1427 122.589 59.8886 122.907 59.7316C123.229 59.5744 123.616 59.488 124.068 59.4726C124.483 59.4583 124.846 59.5013 125.155 59.6015C125.464 59.6972 125.711 59.8659 125.897 60.1076C126.082 60.3449 126.202 60.6708 126.256 61.0853L124.895 61.1319C124.86 60.8718 124.772 60.7064 124.632 60.6359C124.492 60.561 124.316 60.5271 124.104 60.5344C123.949 60.5397 123.811 60.5666 123.688 60.6151C123.566 60.6592 123.471 60.7466 123.405 60.8773C123.338 61.008 123.31 61.2083 123.319 61.4782L123.347 62.2879C123.356 62.5577 123.396 62.7579 123.467 62.8884C123.542 63.0142 123.642 63.0972 123.768 63.1372C123.893 63.1772 124.036 63.1945 124.195 63.189C124.403 63.1819 124.574 63.134 124.708 63.0452C124.842 62.9564 124.923 62.7831 124.95 62.5253L126.31 62.4787C126.28 62.8917 126.178 63.2252 126.005 63.4792C125.837 63.733 125.602 63.9226 125.301 64.0481C125.004 64.169 124.647 64.2366 124.231 64.2508C123.891 64.2625 123.584 64.2354 123.312 64.1694C123.043 64.0988 122.811 63.9761 122.615 63.8012C122.423 63.6262 122.27 63.3856 122.158 63.0794C122.05 62.7686 121.988 62.3809 121.972 61.9163ZM130.027 61.9794L130.005 61.329C129.992 60.9441 129.899 60.6859 129.726 60.5545C129.553 60.4187 129.303 60.3564 128.975 60.3676C128.648 60.3788 128.402 60.4581 128.239 60.6054C128.076 60.7484 128.001 61.0123 128.014 61.3972L128.036 62.0476C128.046 62.3263 128.09 62.5374 128.171 62.6808C128.251 62.8242 128.365 62.92 128.513 62.9681C128.66 63.0118 128.845 63.0298 129.066 63.0222C129.287 63.0147 129.47 62.984 129.614 62.9304C129.759 62.8723 129.866 62.7689 129.936 62.6204C130.006 62.4718 130.037 62.2581 130.027 61.9794ZM126.662 61.7092C126.642 61.1119 126.717 60.6421 126.887 60.2996C127.061 59.957 127.32 59.7111 127.665 59.562C128.01 59.4085 128.434 59.3231 128.939 59.3058C129.443 59.2885 129.873 59.3447 130.227 59.4743C130.581 59.5995 130.855 59.8271 131.048 60.1571C131.245 60.487 131.354 60.9506 131.374 61.5479C131.396 62.185 131.32 62.6859 131.147 63.0507C130.977 63.4108 130.721 63.6699 130.376 63.8278C130.031 63.9814 129.607 64.0668 129.102 64.0841C128.598 64.1013 128.169 64.0452 127.814 63.9155C127.46 63.7815 127.184 63.5407 126.986 63.1931C126.792 62.841 126.684 62.3463 126.662 61.7092ZM131.937 59.3028L133.264 59.2574L133.383 62.7083L135.347 62.6411L135.386 63.7693L132.094 63.882L131.937 59.3028ZM135.722 59.1732L137.049 59.1278L137.167 62.5787L139.132 62.5115L139.17 63.6397L135.879 63.7524L135.722 59.1732ZM139.507 59.0436L142.958 58.9255L142.995 60.0205L140.872 60.0932L140.892 60.6905L142.491 60.6357L142.528 61.6976L140.928 61.7523L140.953 62.4823L143.11 62.4085L143.148 63.5035L139.664 63.6228L139.507 59.0436ZM143.482 61.1798C143.462 60.5826 143.532 60.1084 143.693 59.7574C143.858 59.4063 144.099 59.1521 144.417 58.9951C144.74 58.8379 145.127 58.7515 145.578 58.7361C145.994 58.7219 146.356 58.7648 146.665 58.865C146.974 58.9607 147.221 59.1294 147.407 59.3711C147.592 59.6084 147.712 59.9343 147.766 60.3488L146.405 60.3954C146.37 60.1353 146.282 59.97 146.143 59.8994C146.003 59.8245 145.827 59.7907 145.614 59.7979C145.459 59.8032 145.321 59.8301 145.198 59.8786C145.076 59.9227 144.981 60.0101 144.915 60.1408C144.849 60.2715 144.82 60.4718 144.829 60.7417L144.857 61.5514C144.866 61.8212 144.906 62.0214 144.977 62.1519C145.052 62.2778 145.153 62.3607 145.278 62.4007C145.403 62.4407 145.546 62.458 145.705 62.4525C145.913 62.4454 146.084 62.3975 146.218 62.3087C146.353 62.2199 146.433 62.0467 146.46 61.7888L147.82 61.7423C147.79 62.1552 147.689 62.4887 147.516 62.7427C147.347 62.9965 147.112 63.1862 146.811 63.3116C146.514 63.4325 146.157 63.5001 145.741 63.5144C145.401 63.526 145.094 63.4989 144.822 63.4329C144.554 63.3623 144.321 63.2396 144.125 63.0647C143.933 62.8897 143.781 62.6491 143.668 62.3429C143.56 62.0321 143.498 61.6444 143.482 61.1798ZM149.258 59.8393L147.944 59.8843L147.905 58.7561L151.867 58.6204L151.906 59.7486L150.585 59.7938L150.703 63.2448L149.376 63.2902L149.258 59.8393ZM152.365 58.6034L153.692 58.5579L153.849 63.1371L152.522 63.1825L152.365 58.6034ZM157.772 61.0294L157.75 60.3791C157.736 59.9941 157.643 59.736 157.471 59.6046C157.298 59.4688 157.047 59.4065 156.72 59.4177C156.393 59.4289 156.147 59.5082 155.984 59.6555C155.821 59.7984 155.746 60.0623 155.759 60.4472L155.781 61.0976C155.791 61.3763 155.835 61.5874 155.916 61.7308C155.996 61.8743 156.11 61.97 156.258 62.0181C156.405 62.0618 156.59 62.0798 156.811 62.0723C157.032 62.0647 157.215 62.0341 157.359 61.9804C157.504 61.9223 157.611 61.819 157.681 61.6704C157.751 61.5218 157.781 61.3082 157.772 61.0294ZM154.407 60.7593C154.387 60.162 154.462 59.6921 154.631 59.3497C154.806 59.007 155.065 58.7612 155.41 58.6121C155.755 58.4585 156.179 58.3731 156.684 58.3558C157.188 58.3386 157.617 58.3947 157.972 58.5244C158.326 58.6495 158.6 58.8772 158.793 59.2072C158.99 59.5371 159.099 60.0007 159.119 60.5979C159.141 61.235 159.065 61.736 158.892 62.1007C158.722 62.4609 158.465 62.7199 158.121 62.8779C157.776 63.0314 157.352 63.1168 156.847 63.1341C156.343 63.1514 155.914 63.0952 155.559 62.9656C155.205 62.8316 154.928 62.5907 154.731 62.2432C154.537 61.891 154.429 61.3964 154.407 60.7593ZM159.682 58.3528L160.91 58.3108L161.067 62.89L159.839 62.932L159.682 58.3528ZM162.301 62.8477L160.18 58.3358L161.507 58.2904L163.628 62.8023L162.301 62.8477ZM162.898 62.8273L162.741 58.2481L163.969 58.2061L164.126 62.7852L162.898 62.8273Z" fill="#471828"/>
<path d="M224.314 55.2192L227.765 55.101L227.802 56.196L225.679 56.2688L225.699 56.866L227.298 56.8113L227.335 57.8731L225.735 57.9279L225.76 58.6579L227.917 58.584L227.955 59.6791L224.471 59.7984L224.314 55.2192ZM229.82 56.8911L229.97 56.8195L231.03 54.9892L232.358 54.9438L230.787 57.5822L230.637 57.6803L229.495 59.6263L228.167 59.6718L229.82 56.8911ZM229.901 57.7254L229.764 57.6039L228.011 55.0926L229.444 55.0435L230.549 56.6402L230.665 56.7425L232.614 59.5195L231.18 59.5686L229.901 57.7254ZM232.456 57.2127C232.436 56.6154 232.506 56.1413 232.667 55.7903C232.832 55.4391 233.074 55.185 233.392 55.028C233.714 54.8708 234.101 54.7844 234.552 54.769C234.968 54.7547 235.33 54.7977 235.639 54.8979C235.948 54.9936 236.196 55.1623 236.381 55.404C236.566 55.6413 236.686 55.9672 236.74 56.3817L235.38 56.4283C235.344 56.1682 235.257 56.0028 235.117 55.9323C234.977 55.8574 234.801 55.8235 234.588 55.8308C234.434 55.8361 234.295 55.863 234.173 55.9115C234.05 55.9556 233.956 56.043 233.889 56.1737C233.823 56.3044 233.794 56.5047 233.803 56.7746L233.831 57.5842C233.84 57.8541 233.881 58.0543 233.951 58.1848C234.027 58.3106 234.127 58.3936 234.252 58.4336C234.378 58.4736 234.52 58.4909 234.679 58.4854C234.887 58.4783 235.058 58.4303 235.193 58.3416C235.327 58.2528 235.407 58.0795 235.434 57.8217L236.794 57.7751C236.764 58.1881 236.663 58.5216 236.49 58.7756C236.321 59.0294 236.086 59.219 235.785 59.3445C235.488 59.4654 235.132 59.533 234.716 59.5472C234.375 59.5589 234.068 59.5318 233.796 59.4658C233.528 59.3952 233.295 59.2725 233.099 59.0976C232.907 58.9226 232.755 58.682 232.642 58.3758C232.534 58.065 232.472 57.6773 232.456 57.2127ZM237.243 54.7765L238.571 54.7311L238.689 58.182L240.653 58.1148L240.692 59.243L237.4 59.3557L237.243 54.7765ZM240.974 57.4659L240.878 54.652L242.205 54.6066L242.302 57.4205C242.309 57.6417 242.342 57.8111 242.399 57.9287C242.46 58.0418 242.545 58.1164 242.652 58.1526C242.764 58.1887 242.9 58.2039 243.059 58.1985C243.219 58.193 243.351 58.1686 243.455 58.1251C243.565 58.0815 243.644 58.0013 243.693 57.8844C243.746 57.763 243.769 57.5917 243.762 57.3705L243.665 54.5566L244.86 54.5157L244.956 57.3296C244.972 57.7809 244.913 58.1461 244.781 58.4252C244.654 58.7042 244.45 58.9105 244.171 59.0441C243.892 59.1733 243.534 59.2453 243.096 59.2603C242.658 59.2753 242.284 59.2283 241.975 59.1193C241.665 59.0059 241.424 58.8148 241.251 58.5461C241.082 58.2773 240.99 57.9172 240.974 57.4659ZM245.524 57.6158L246.885 57.5692C246.894 57.7195 246.929 57.8312 246.989 57.9045C247.049 57.9777 247.128 58.0259 247.227 58.0492C247.329 58.0722 247.449 58.0814 247.586 58.0767C247.803 58.0693 247.972 58.0369 248.095 57.9796C248.221 57.9177 248.281 57.7938 248.275 57.608C248.271 57.5062 248.231 57.4301 248.154 57.3796C248.077 57.329 247.974 57.2927 247.844 57.2706C247.715 57.2484 247.571 57.2312 247.411 57.219C247.255 57.2066 247.091 57.1901 246.917 57.1694C246.748 57.1486 246.583 57.1144 246.422 57.0668C246.265 57.019 246.121 56.9486 245.99 56.8557C245.858 56.7583 245.752 56.6313 245.671 56.4746C245.59 56.3135 245.546 56.109 245.537 55.8612C245.525 55.5073 245.593 55.2215 245.74 55.0038C245.888 54.7817 246.104 54.6171 246.388 54.5099C246.672 54.4027 247.009 54.3425 247.398 54.3291C247.787 54.3158 248.13 54.3528 248.425 54.4402C248.721 54.5275 248.954 54.6768 249.125 54.8879C249.296 55.0947 249.392 55.3749 249.413 55.7285L248.052 55.7751C248.037 55.594 247.973 55.4788 247.861 55.4295C247.753 55.3756 247.61 55.3517 247.433 55.3578C247.305 55.3622 247.193 55.3771 247.096 55.4026C247.004 55.4279 246.932 55.4724 246.881 55.5362C246.83 55.5999 246.807 55.6893 246.811 55.8043C246.814 55.9017 246.854 55.9756 246.931 56.0261C247.008 56.0722 247.111 56.1085 247.241 56.1351C247.37 56.1573 247.515 56.1767 247.675 56.1934C247.834 56.2056 247.999 56.2243 248.168 56.2495C248.337 56.2703 248.502 56.3045 248.663 56.3522C248.824 56.3998 248.971 56.4679 249.102 56.5564C249.234 56.6449 249.34 56.7631 249.42 56.911C249.5 57.0588 249.544 57.2456 249.552 57.4712C249.565 57.8561 249.496 58.1663 249.345 58.4019C249.198 58.6372 248.978 58.8109 248.685 58.9228C248.392 59.0303 248.037 59.0911 247.621 59.1054C247.307 59.1161 247.025 59.097 246.776 59.0479C246.526 58.9989 246.31 58.9155 246.129 58.7977C245.952 58.6797 245.812 58.525 245.708 58.3337C245.604 58.1379 245.543 57.8986 245.524 57.6158ZM250.043 54.3382L251.37 54.2928L251.527 58.872L250.2 58.9174L250.043 54.3382ZM251.784 54.2786L253.184 54.2307L254.655 58.7649L253.288 58.8117L251.784 54.2786ZM255.195 54.1619L256.403 54.1205L255.212 58.7458L254.044 58.7858L255.195 54.1619ZM256.816 54.1064L260.267 53.9882L260.304 55.0832L258.181 55.1559L258.201 55.7532L259.8 55.6985L259.837 56.7603L258.237 56.8151L258.262 57.5451L260.419 57.4712L260.457 58.5662L256.973 58.6855L256.816 54.1064ZM262.191 56.1947C262.171 55.5974 262.241 55.1232 262.401 54.7722C262.567 54.4211 262.808 54.167 263.126 54.0099C263.448 53.8527 263.835 53.7664 264.287 53.7509C264.702 53.7367 265.065 53.7796 265.374 53.8798C265.683 53.9755 265.93 54.1442 266.116 54.3859C266.301 54.6232 266.421 54.9491 266.475 55.3636L265.114 55.4102C265.079 55.1501 264.991 54.9848 264.851 54.9142C264.711 54.8393 264.535 54.8055 264.323 54.8127C264.168 54.818 264.029 54.8449 263.907 54.8934C263.785 54.9375 263.69 55.0249 263.624 55.1556C263.557 55.2863 263.529 55.4866 263.538 55.7565L263.566 56.5662C263.575 56.8361 263.615 57.0362 263.686 57.1667C263.761 57.2926 263.861 57.3755 263.987 57.4155C264.112 57.4555 264.255 57.4728 264.414 57.4673C264.622 57.4602 264.793 57.4123 264.927 57.3235C265.061 57.2348 265.142 57.0615 265.169 56.8036L266.529 56.7571C266.499 57.17 266.397 57.5035 266.224 57.7575C266.056 58.0113 265.821 58.201 265.52 58.3264C265.223 58.4474 264.866 58.5149 264.45 58.5292C264.11 58.5408 263.803 58.5137 263.531 58.4477C263.262 58.3772 263.03 58.2544 262.834 58.0796C262.642 57.9045 262.489 57.6639 262.377 57.3577C262.269 57.0469 262.207 56.6592 262.191 56.1947ZM270.246 56.2577L270.224 55.6073C270.211 55.2224 270.118 54.9643 269.945 54.8329C269.772 54.697 269.522 54.6347 269.194 54.646C268.867 54.6572 268.621 54.7364 268.458 54.8838C268.295 55.0267 268.22 55.2906 268.233 55.6755L268.255 56.3259C268.265 56.6046 268.309 56.8157 268.39 56.9591C268.47 57.1026 268.584 57.1983 268.732 57.2464C268.879 57.2901 269.064 57.3081 269.285 57.3005C269.506 57.293 269.689 57.2624 269.833 57.2087C269.978 57.1506 270.085 57.0473 270.155 56.8987C270.225 56.7501 270.256 56.5364 270.246 56.2577ZM266.881 55.9875C266.861 55.3903 266.936 54.9204 267.106 54.5779C267.28 54.2353 267.539 53.9895 267.884 53.8403C268.229 53.6868 268.653 53.6014 269.158 53.5841C269.662 53.5668 270.092 53.623 270.446 53.7526C270.8 53.8778 271.074 54.1054 271.267 54.4355C271.464 54.7653 271.573 55.2289 271.593 55.8262C271.615 56.4633 271.539 56.9642 271.366 57.329C271.196 57.6891 270.94 57.9482 270.595 58.1062C270.25 58.2597 269.826 58.3451 269.321 58.3624C268.817 58.3797 268.388 58.3235 268.033 58.1939C267.679 58.0598 267.403 57.819 267.205 57.4714C267.011 57.1193 266.903 56.6247 266.881 55.9875ZM272.156 53.5811L273.483 53.5357L273.602 56.9866L275.566 56.9194L275.605 58.0476L272.313 58.1603L272.156 53.5811ZM275.941 53.4515L277.268 53.4061L277.386 56.8571L279.351 56.7898L279.389 57.918L276.098 58.0307L275.941 53.4515ZM279.726 53.3219L283.177 53.2038L283.214 54.2988L281.091 54.3715L281.111 54.9688L282.71 54.914L282.747 55.9759L281.147 56.0306L281.172 56.7606L283.329 56.6868L283.367 57.7818L279.883 57.9011L279.726 53.3219ZM283.701 55.4582C283.681 54.8609 283.751 54.3867 283.912 54.0357C284.077 53.6846 284.318 53.4305 284.636 53.2734C284.959 53.1162 285.346 53.0299 285.797 53.0144C286.213 53.0002 286.575 53.0431 286.884 53.1433C287.193 53.239 287.44 53.4077 287.626 53.6494C287.811 53.8867 287.931 54.2126 287.985 54.6271L286.624 54.6737C286.589 54.4136 286.501 54.2483 286.362 54.1778C286.222 54.1028 286.046 54.069 285.833 54.0763C285.678 54.0816 285.54 54.1084 285.417 54.1569C285.295 54.201 285.2 54.2884 285.134 54.4191C285.068 54.5498 285.039 54.7502 285.048 55.02L285.076 55.8297C285.085 56.0996 285.125 56.2997 285.196 56.4302C285.271 56.5561 285.372 56.639 285.497 56.679C285.622 56.719 285.765 56.7363 285.924 56.7308C286.132 56.7237 286.303 56.6758 286.437 56.587C286.572 56.4983 286.652 56.325 286.679 56.0672L288.039 56.0206C288.009 56.4336 287.908 56.767 287.735 57.021C287.566 57.2748 287.331 57.4645 287.03 57.59C286.733 57.7109 286.376 57.7784 285.96 57.7927C285.62 57.8043 285.313 57.7772 285.041 57.7112C284.773 57.6407 284.54 57.518 284.344 57.3431C284.152 57.168 284 56.9274 283.887 56.6212C283.779 56.3104 283.717 55.9227 283.701 55.4582ZM289.477 54.1176L288.163 54.1626L288.124 53.0344L292.086 52.8987L292.125 54.0269L290.804 54.0722L290.922 57.5231L289.595 57.5686L289.477 54.1176ZM292.584 52.8817L293.911 52.8362L294.068 57.4154L292.741 57.4609L292.584 52.8817ZM297.991 55.3078L297.969 54.6574C297.955 54.2725 297.862 54.0143 297.69 53.8829C297.517 53.7471 297.266 53.6848 296.939 53.696C296.612 53.7072 296.366 53.7865 296.203 53.9338C296.04 54.0767 295.965 54.3406 295.978 54.7256L296 55.3759C296.01 55.6547 296.054 55.8657 296.135 56.0092C296.215 56.1526 296.329 56.2484 296.477 56.2964C296.624 56.3401 296.809 56.3582 297.03 56.3506C297.251 56.343 297.434 56.3124 297.578 56.2587C297.722 56.2006 297.83 56.0973 297.9 55.9487C297.97 55.8001 298 55.5865 297.991 55.3078ZM294.626 55.0376C294.606 54.4403 294.681 53.9704 294.85 53.628C295.025 53.2854 295.284 53.0395 295.629 52.8904C295.974 52.7368 296.398 52.6514 296.903 52.6342C297.407 52.6169 297.836 52.6731 298.191 52.8027C298.545 52.9279 298.819 53.1555 299.012 53.4855C299.209 53.8154 299.318 54.279 299.338 54.8763C299.36 55.5134 299.284 56.0143 299.111 56.379C298.941 56.7392 298.684 56.9982 298.34 57.1562C297.995 57.3098 297.571 57.3952 297.066 57.4124C296.562 57.4297 296.133 57.3735 295.778 57.2439C295.424 57.1099 295.147 56.8691 294.95 56.5215C294.756 56.1693 294.648 55.6747 294.626 55.0376ZM299.901 52.6312L301.129 52.5891L301.286 57.1683L300.058 57.2103L299.901 52.6312ZM302.52 57.126L300.399 52.6141L301.726 52.5687L303.847 57.0806L302.52 57.126ZM303.117 57.1056L302.96 52.5264L304.188 52.4844L304.345 57.0636L303.117 57.1056Z" fill="#471828"/>
</svg>
