<svg width="368" height="244" viewBox="0 0 368 244" fill="none" xmlns="http://www.w3.org/2000/svg">
<path d="M11 6H80.5413C85.9856 6 91.0563 8.76841 94.0003 13.3481L182.038 150.3L274.051 13.0887C277.022 8.65836 282.006 6 287.34 6H354L222.101 202.625C213.164 215.3 200.528 227 180.805 227C161.698 227 149.063 216.275 140.126 202.625L11 6Z" fill="url(#paint0_linear_1921_1439)"/>
<path d="M5.84847 3.22H11H80.5413C86.9316 3.22 92.8833 6.46942 96.3388 11.8448L182.087 145.235L271.742 11.5403C275.23 6.34025 281.079 3.22 287.34 3.22H354H359.212L356.309 7.54869L224.409 204.174L224.391 204.201L224.373 204.227C215.21 217.221 201.846 229.78 180.805 229.78C160.426 229.78 147.037 218.254 137.802 204.151L137.8 204.148M5.84847 3.22L140.126 202.625L137.8 204.148M5.84847 3.22L8.67628 7.52601L137.8 204.148M5.84847 3.22L137.8 204.148" stroke="url(#paint1_linear_1921_1439)" stroke-opacity="0.36" stroke-width="5.56"/>
<mask id="mask0_1921_1439" style="mask-type:alpha" maskUnits="userSpaceOnUse" x="2" y="4" width="366" height="240">
<path d="M5 5.79297H87.1563L184.515 159.913L286.078 5.79297H365L226.563 215.799C217.183 229.337 203.922 241.833 183.221 241.833C163.167 241.833 149.906 230.378 140.526 215.799L5 5.79297Z" fill="url(#paint2_linear_1921_1439)"/>
<path d="M5 5.01345H3.5692L4.34503 6.21565L139.87 216.221C149.331 230.925 162.804 242.612 183.221 242.612C204.298 242.612 217.764 229.868 227.204 216.243L227.209 216.236L227.214 216.228L365.651 6.222L366.448 5.01345H365H286.078H285.658L285.427 5.36404L184.529 158.476L87.8154 5.37665L87.5859 5.01345H87.1563H5Z" stroke="url(#paint3_linear_1921_1439)" stroke-opacity="0.6" stroke-width="1.55904"/>
</mask>
<g mask="url(#mask0_1921_1439)">
<g opacity="0.2">
<path d="M229.861 381.746C218.737 395.938 208.112 409.398 197.924 422.054L201.291 422.285C204.596 418.13 207.966 413.979 211.345 409.69C208.553 413.95 205.697 418.206 202.91 422.396L205.435 422.57C212.799 411.459 220.24 400.145 227.887 388.636C230.284 385.532 232.746 382.432 235.143 379.327C225.957 393.721 216.637 408.175 207.313 422.699L215.277 423.247C216.916 420.855 218.623 418.399 220.262 416.007C228.777 404.141 237.652 391.673 246.889 378.604C241.367 387.198 235.844 395.792 230.391 404.321C225.65 410.743 221.042 417.104 216.571 423.336L223.176 423.79C229.122 415.712 235.214 407.366 241.518 398.756C236.004 407.211 230.494 415.597 225.118 423.923L227.708 424.101C239.164 407.637 250.969 390.78 262.98 373.728C251.612 390.894 240.39 407.791 229.521 424.226L232.758 424.449C264.274 379.243 297.429 331.646 330.305 284.377C298.445 332.063 266.325 379.732 235.996 424.671L238.715 424.858C280.749 362.567 325.149 296.613 367.473 232.743L368.501 215.631C358.249 230.439 347.86 245.376 337.475 260.244C333.03 266.06 328.65 271.881 324.269 277.701C321.799 280.94 319.394 284.183 316.993 287.357C326.872 272.246 336.752 257.134 346.562 242.087C354.039 231.262 361.447 220.503 368.846 209.881L369.724 195.264C368.308 197.184 366.893 199.104 365.542 201.028C366.966 198.97 368.39 196.911 369.749 194.848L370.077 189.375C357.563 207.227 344.971 225.283 332.306 243.472C322.343 257.813 312.233 272.422 302.051 287.165C292.653 299.666 283.467 311.904 274.499 323.739C279.656 315.815 284.748 307.887 289.905 299.964C319.057 255.152 346.046 213.879 370.791 176.416L371.123 170.874C366.977 177.128 362.827 183.451 358.607 189.839C315.575 253.591 270.96 319.878 229.861 381.746ZM270.182 325.251C264.38 334.173 258.574 343.165 252.699 352.222C251.292 354.003 249.949 355.789 248.542 357.571C255.682 346.931 262.896 336.158 270.182 325.251ZM229.705 393.005C238.096 379.947 246.625 366.76 255.227 353.439C259.246 348.22 263.269 342.931 267.426 337.583C254.672 356.183 242.047 374.793 229.705 393.005ZM272.035 350.699C274.513 347.322 277.056 343.949 279.535 340.571C274.735 347.963 269.935 355.354 265.074 362.672C258.402 372.022 251.81 381.099 245.499 389.847C254.205 376.951 263.118 363.859 272.035 350.699ZM258.438 376.824C261.944 371.5 265.453 366.107 268.963 360.714C270.172 358.988 271.445 357.267 272.723 355.477C286.774 335.852 300.98 315.821 315.268 295.517C311.267 301.502 307.202 307.483 303.202 313.469C288.57 334.097 273.577 355.327 258.438 376.824ZM297.234 317.58C298.451 315.716 299.664 313.921 300.881 312.057C302.508 309.874 304.199 307.694 305.83 305.441C302.921 309.485 300.077 313.533 297.234 317.58ZM351.175 245.396C355.766 239.311 360.349 233.366 364.867 227.416C356.714 238.681 348.346 250.279 339.763 262.21C343.544 256.627 347.394 250.979 351.175 245.396ZM361.532 235.325C328.648 282.733 294.779 331.394 262.476 377.797C275.199 358.638 288.133 339.215 301.205 319.662C305.399 313.69 309.654 307.791 313.914 301.823C330.46 278.544 346.353 256.403 361.532 235.325ZM319.217 268.728C320.133 267.539 320.989 266.276 321.906 265.087C318.206 270.398 314.507 275.708 310.738 281.084C313.586 276.967 316.369 272.845 319.217 268.728ZM322.31 270.262C319.024 275.184 315.738 280.106 312.448 285.097C293.371 313.697 273.541 342.942 253.594 371.97C263.413 356.784 273.292 341.673 283.232 326.635C296.177 308.117 309.207 289.257 322.31 270.262Z" fill="#9195B6"/>
<path d="M273.399 404.843C267.891 412.117 262.461 419.187 257.233 426.131L259.628 426.296C259.77 426.097 259.908 425.967 260.05 425.768C259.908 425.967 259.835 426.101 259.693 426.3L262.412 426.487C265.459 422.314 268.505 418.141 271.62 413.903C268.893 418.168 266.171 422.363 263.448 426.559L265.391 426.692C273.124 414.842 280.874 402.714 288.757 390.526C296.829 379.533 304.974 368.407 313.123 357.211C316.574 352.787 319.957 348.429 323.408 344.005C307.655 367.061 292.564 388.84 278.26 409.421C274.014 415.181 269.702 420.937 265.391 426.692L267.981 426.87C271.465 421.892 275.023 416.781 278.649 411.604C309.565 369.905 338.941 328.935 362.599 295.501C363.094 294.84 363.524 294.174 364.019 293.512L364.214 290.256C358.512 297.516 352.81 304.776 347.039 312.101C349.964 307.78 352.889 303.459 355.887 299.005C358.718 295.165 361.549 291.325 364.312 287.55L364.607 282.631C347.689 305.606 330.706 328.577 313.809 351.206C324.143 335.013 334.417 318.746 344.76 302.414C351.731 291.345 358.629 280.411 365.393 269.538L365.685 264.688C335.138 311.074 304.307 357.857 275.013 402.867C274.389 403.52 273.894 404.182 273.399 404.843ZM353.493 305.31C340.926 322.949 327.081 342.38 312.341 362.652C320.815 350.366 329.513 337.608 338.357 324.581C343.423 318.182 348.428 311.709 353.493 305.31ZM326.24 336.896C318.805 347.028 311.439 357.095 304.146 367.028C303.23 368.217 302.317 369.337 301.401 370.526C301.977 369.592 302.549 368.727 303.125 367.793C310.759 357.605 318.465 347.283 326.24 336.896ZM351.461 288.266C351.319 288.465 351.246 288.599 351.104 288.798C333.708 316.471 316.545 343.533 299.824 369.722C295.017 376.139 290.215 382.487 285.482 388.77C307.03 355.818 329.28 322.01 351.461 288.266ZM263.706 422.263C265.568 419.4 267.5 416.472 269.366 413.54C273.669 407.923 278.037 402.31 282.409 396.628C276.102 405.307 269.868 413.852 263.706 422.263Z" fill="#9195B6"/>
<path d="M326.044 301.196C296.031 343.027 266.329 385.088 238.715 424.858L240.334 424.969C267.947 385.2 297.507 343.338 327.099 302.034C329.65 298.523 332.21 294.873 334.899 291.232C304.066 336.971 273.444 382.447 244.801 425.277L246.549 425.397C283.477 370.198 323.442 310.965 362.336 253.328C363.751 251.408 365.167 249.488 366.587 247.499L366.795 244.035C364.227 247.823 361.728 251.547 359.16 255.336C346.756 272.43 335.552 287.938 326.044 301.196Z" fill="#9195B6"/>
<path d="M255.808 426.033C290.881 371.403 328.722 313.972 365.954 258.029L366.108 255.465C328.308 312.204 289.891 370.57 254.319 425.931L255.808 426.033Z" fill="#9195B6"/>
<path d="M285.138 428.05C310.617 394.603 336.637 359.732 361.919 325.228L362.048 323.08C335.419 359.439 309.043 394.842 283.779 427.956L285.138 428.05Z" fill="#9195B6"/>
<path d="M276.398 427.449L277.693 427.538C302.371 393.34 329.777 354.878 358.51 313.793C360.002 311.67 361.499 309.477 362.992 307.354L363.121 305.206C361.77 307.131 360.415 309.125 359.064 311.049C330.753 351.606 302.849 390.799 276.398 427.449Z" fill="#9195B6"/>
<path d="M294.462 428.691C315.359 397.92 336.876 366.565 358.385 335.349C336.989 366.851 315.662 398.288 295.109 428.735L295.433 428.758C316.975 396.988 339.232 364.153 361.617 331.328L361.78 328.627C338.774 362.035 315.686 395.716 293.297 428.611L294.462 428.691Z" fill="#9195B6"/>
<path d="M303.527 429.314C321.998 404.289 341.063 378.053 360.371 350.999L360.483 349.128C341.248 376.048 321.616 403.08 302.292 429.299L303.522 429.383L303.527 429.314Z" fill="#9195B6"/>
<path d="M321.656 430.56C334.669 411.977 347.188 394.056 358.782 377.462L358.886 375.731C345.718 394.72 332.984 412.975 320.684 430.494L321.656 430.56Z" fill="#9195B6"/>
<path d="M309.16 429.701C325.998 405.886 343.073 381.391 360.013 356.956L360.109 355.363C342.308 381.13 324.95 406.022 308.184 429.704L309.155 429.771L309.16 429.701Z" fill="#9195B6"/>
<path d="M278.34 427.582L279.246 427.645C300.814 397.615 323.282 366.674 345.862 336.019C351.525 328.339 357.118 320.724 362.707 313.178L362.795 311.723C356.995 319.533 351.19 327.412 345.309 335.494C322.586 366.348 299.981 397.419 278.34 427.582Z" fill="#9195B6"/>
<path d="M103.436 -117.783C70.7025 -72.87 40.8396 -31.3767 14.0628 6.36377C5.64231 17.7497 -2.77815 29.1357 -11.0691 40.5305L-11.7972 52.654C2.08306 33.7132 16.3893 14.1757 30.9794 -5.7597C53.9942 -37.1503 78.0028 -69.9334 102.084 -102.851C69.464 -55.4948 27.5967 6.18125 -12.7291 68.172L-13.4572 80.2955C0.658902 60.6754 15.6875 39.9354 31.4781 18.413C15.903 41.7588 0.693241 64.4341 -13.8025 86.0455L-15.4792 113.964C-14.6921 112.766 -13.9049 111.568 -13.1178 110.37C-12.8339 109.972 -12.4852 109.579 -12.2012 109.181C-13.2765 110.846 -14.4164 112.507 -15.4916 114.172L-16.2031 126.018C-15.1445 124.63 -14.0859 123.242 -13.0232 121.785C-13.3844 122.386 -13.7456 122.987 -14.1715 123.584C-14.8813 124.579 -15.5912 125.574 -16.2322 126.503L-20.0556 190.169C1.4557 159.997 26.5371 124.505 54.1783 85.363C26.818 128.489 1.26172 169.722 -20.864 206.878C-20.9371 207.012 -21.006 207.077 -21.0791 207.211L-21.8695 220.374C-16.481 211.84 -10.8127 202.978 -4.93344 193.852C25.028 153.965 59.687 107.306 96.7157 56.9146C87.4647 71.3042 78.4977 85.296 69.8146 98.8899C51.5544 125.808 33.7766 152.271 16.7734 177.745C2.68876 197.924 -10.4502 216.429 -22.6392 233.19L-24.5904 265.681C-20.0995 259.103 -15.3977 252.261 -10.6228 245.285C-15.406 252.4 -20.0514 259.385 -24.6237 266.235L-25.2187 276.142C-24.014 274.486 -22.8051 272.76 -21.5962 271.035C5.74853 232.498 36.0849 188.533 65.5944 145.346C32.0264 195.489 1.00563 242.189 -25.6222 282.862L-26.1964 292.422C16.1777 227.72 70.2062 146.498 128.298 60.4077C164.981 6.02707 199.712 -45.0791 231.144 -91.0558C231.282 -91.1854 231.359 -91.3888 231.497 -91.5184C206.024 -51.671 178.077 -8.51556 148.013 37.416C94.3269 119.427 39.4715 201.427 -5.78655 267.6C-13.1674 276.831 -19.9721 285.128 -26.2088 292.63L-27.0451 306.555C-26.5461 305.824 -26.0471 305.093 -25.4834 304.366C-17.2969 292.547 -8.61149 279.997 0.370381 266.841C2.34139 264.333 4.37716 261.829 6.42124 259.187C23.2354 237.944 41.7301 213.616 61.3981 187.074C50.103 204.105 39.0271 220.735 28.3813 236.698C23.4478 244.15 18.5185 251.532 13.6581 258.85C11.8332 261.09 10.0042 263.399 8.2482 265.574C-5.09797 282.116 -16.8533 295.986 -27.1117 307.663L-27.536 314.729C-22.103 308.703 -16.4424 302.136 -10.429 295.106C-15.2853 302.355 -20.0727 309.538 -24.7139 316.454C-25.7767 317.911 -26.8352 319.299 -27.8938 320.687L-30.053 356.642C-29.98 356.508 -29.8422 356.378 -29.7691 356.244C-22.5011 346.727 -14.3206 336.089 -5.30077 324.466C-14.1739 337.978 -22.5481 350.758 -30.4233 362.808L-31.4634 380.127C-25.2683 373.318 -17.3296 364.543 -7.2091 352.995C-9.07141 355.858 -10.9296 358.652 -12.7271 361.52C-19.8157 370.215 -26.1214 377.781 -31.7214 384.422L-32.0792 390.38C-31.2398 389.394 -30.4004 388.408 -29.5611 387.423C-29.9181 387.955 -30.2062 388.422 -30.5632 388.954C-31.058 389.615 -31.6135 390.203 -32.1083 390.865L-32.8488 403.196C-31.6358 401.401 -30.4228 399.607 -29.2056 397.742C-30.4436 399.953 -31.6816 402.163 -32.9154 404.305L-33.0277 406.175L-18.3302 407.186C-16.2736 404.336 -14.1399 401.283 -11.8641 398.03C-11.1792 397.451 -10.4943 396.872 -9.80518 396.224C-12.0495 400.035 -14.2207 403.712 -16.2583 407.328L-13.3447 407.528C-10.0085 401.775 -6.53457 395.893 -2.99586 390.014C13.3477 374.443 34.0776 351.869 59.267 322.158C38.7144 352.605 19.8132 380.452 3.49678 404.234C2.4988 405.696 1.50497 407.088 0.575894 408.485L3.87799 408.712C24.5393 378.621 49.5139 341.661 76.7203 301.098C87.1016 288.455 98.1928 274.818 109.795 260.243C81.1194 303.626 54.6294 344.169 32.1627 379.423C22.6605 391.5 14.6678 401.176 7.95705 408.993L15.8562 409.536C16.5785 408.333 17.3656 407.135 18.1527 405.937C20.7272 403.123 23.379 400.106 26.1038 396.954C23.1099 401.339 20.189 405.59 17.4059 409.712L23.1037 410.104C23.5296 409.507 23.9597 408.841 24.325 408.17C28.434 402.54 32.689 396.641 37.0819 390.613C52.8934 368.745 69.6423 345.34 86.8421 320.924C87.8276 319.67 88.7483 318.411 89.7339 317.157C85.2702 324.363 80.8713 331.574 76.5455 338.65C63.7933 358.294 51.8115 377.018 40.8716 394.63C37.8087 399.08 34.1007 404.53 30.0357 410.511L33.1436 410.724C35.8138 406.317 38.6177 401.849 41.4946 397.247C38.7513 401.789 36.1417 406.27 33.5968 410.756L46.3519 411.633C49.5734 406.706 52.9975 401.655 56.434 396.396C60.5263 391.043 64.7647 385.421 69.2099 379.605C82.2698 362.417 96.6158 343.299 112.024 322.724C98.6562 342.883 85.9289 362.112 74.0535 380.147C67.253 388.375 60.9473 395.941 55.007 402.837C52.3469 405.993 49.764 408.946 47.3231 411.699L49.1361 411.824C51.3702 409.265 53.6774 406.571 56.0536 403.813C59.5447 399.81 63.1172 395.534 66.9006 390.994C62.3241 397.914 57.9502 404.709 53.6577 411.231C53.4468 411.494 53.2359 411.758 53.025 412.022L54.8379 412.146C56.1282 410.148 57.4874 408.085 58.7776 406.087C71.3302 389.768 85.789 370.937 101.526 350.315C103.148 348.2 104.839 346.021 106.466 343.837C95.306 359.696 84.804 374.347 74.8866 387.926C69.2848 395.679 63.8416 402.957 58.6783 409.906C57.9809 410.693 57.2835 411.48 56.6509 412.271L77.8231 413.727C78.8169 412.334 79.7502 410.868 80.7481 409.406C81.1699 408.879 81.5875 408.421 82.0093 407.893C80.7232 409.822 79.4329 411.82 78.0821 413.745L84.233 414.167C100.289 391.481 117.294 367.051 134.527 342.08C136.498 339.572 138.473 336.995 140.444 334.487C121.713 362.763 103.975 389.647 87.5957 414.468L93.0344 414.842C120.003 373.915 150.671 327.677 183.585 278.672C198.547 259.04 213.668 238.933 228.732 218.682C182.658 288.695 136.741 357.188 97.7503 414.262C97.5394 414.526 97.2596 414.854 97.0487 415.118L102.552 415.497C104.312 413.252 106.141 410.943 107.97 408.634C124.785 387.391 143.279 363.063 162.947 336.521C151.729 353.349 140.86 369.784 130.352 385.617C123.283 395.079 116.432 404.138 109.939 412.665C109.16 413.725 108.317 414.78 107.538 415.839L108.509 415.906C113.027 409.956 117.687 403.807 122.485 397.528C120.055 401.187 117.694 404.781 115.268 408.371C113.443 410.611 111.614 412.92 109.858 415.095C109.647 415.358 109.436 415.622 109.225 415.886L130.268 417.333C157.652 377.06 187.554 333.83 218.15 289.883C187.855 335.312 159.265 378.353 133.372 417.615L141.53 418.176C145.384 412.459 149.303 406.746 153.36 400.903C156.178 397.271 159.062 393.643 162.018 389.882C174.059 374.501 186.66 358.464 199.549 341.959C181.251 369.5 164.223 395.389 148.976 418.688L157.069 419.245C188.611 370.354 225.664 315.234 267.634 255.095C269.273 252.703 270.977 250.316 272.616 247.925C280.155 238.217 287.699 228.44 295.247 218.595C287.108 230.695 278.824 243.065 270.26 255.762C264.762 263.941 259.188 272.322 253.549 280.7C218.172 330.648 185.791 377.256 157.263 419.258L168.788 420.05C170.131 418.265 171.473 416.479 172.881 414.697C171.668 416.492 170.455 418.287 169.242 420.082L180.378 420.847C212.878 375.501 249.073 324.912 286.072 272.849C300.663 255.07 315.326 237.157 329.99 219.244C297.802 266.977 265.09 315.857 234.232 362.013C220.528 382.357 207.103 402.372 194.104 421.791L197.406 422.018C210.117 403.066 223.185 383.583 236.407 363.693C272.835 309.225 311.905 250.834 349.504 195.265C356.8 186.375 364.03 177.481 371.321 168.661L371.621 163.673C370.291 165.251 368.957 166.899 367.691 168.481C369.046 166.488 370.401 164.494 371.687 162.565L372.02 157.023C364.032 168.786 355.898 180.818 347.695 192.914C345.939 195.089 344.187 197.195 342.431 199.37C331.835 212.345 321.105 225.381 310.44 238.421C331.249 209.105 352.071 179.581 372.411 150.511L373.231 136.863C362.704 151.93 351.901 167.257 341.017 182.856C333.549 193.542 326.081 204.228 318.548 214.91C317.769 215.969 316.995 216.959 316.216 218.019C318.573 214.494 320.861 211.034 323.145 207.643C339.658 182.762 356.678 157.011 373.499 131.316L374.098 121.341C369.121 128.442 364.074 135.607 359.028 142.773C362.172 138.051 365.316 133.328 368.392 128.67C370.311 125.95 372.229 123.229 374.148 120.509L374.889 108.178C374.394 108.839 373.83 109.566 373.335 110.228C373.838 109.427 374.41 108.562 374.914 107.762L375.405 99.5875C374.764 100.517 374.123 101.447 373.477 102.446C342.343 144.548 309.58 189.946 277.659 235.402C275.882 237.923 274.032 240.579 272.182 243.234C267.53 249.244 262.947 255.19 258.3 261.131C262.008 255.682 265.784 250.168 269.497 244.649C295.01 207.379 320.185 171.406 344.252 137.653C354.984 123.505 365.493 109.827 375.575 96.7472L376.091 88.1568C369.005 97.8954 361.708 107.898 354.329 118.173C351.364 122.073 348.399 125.973 345.435 129.874C356.133 114.123 366.401 99.038 376.299 84.6929L377.052 72.1538C339.424 122.783 300.953 176.623 269.251 221.677C306.715 165.124 343.913 109.735 377.799 60.7968L378.689 45.9715C369.647 59.0538 360.394 72.3997 351.002 85.8754C360.391 71.3561 369.715 56.8325 378.897 42.5077L379.788 27.6823C351.684 70.201 321.475 115.288 291.214 160.162C293.218 157.1 295.223 154.038 297.231 150.907C325.191 109.7 353.348 67.3937 379.834 26.9203L381.335 1.91129C377.834 7.16605 374.264 12.4856 370.617 18.0086C358.438 33.5186 345.605 50.1663 332.128 67.813C344.54 48.4235 356.526 29.6308 367.883 11.56C372.579 5.90042 377.202 0.374973 381.751 -5.0164L381.86 -6.81763C379.828 -4.38347 377.732 -1.9538 375.696 0.549635C377.813 -2.22646 379.865 -5.00701 381.91 -7.649L383.79 -38.9622C370.612 -18.721 356.513 2.7785 341.846 25.0738C325.398 47.8031 308.252 71.3191 290.827 95.1638C322.248 48.2821 353.135 1.64198 380.976 -40.8252C382.027 -42.0747 383.081 -43.3934 384.131 -44.6429L385.275 -63.6941C385.271 -63.6249 385.206 -63.6293 385.202 -63.56C381.191 -58.4794 377.111 -53.334 373.023 -48.05C377.243 -54.438 381.398 -60.8304 385.475 -67.0194L386.711 -87.5948C384.318 -84.5594 381.917 -81.3854 379.382 -78.1511C369.794 -65.7324 359.561 -52.3146 348.683 -37.8977C363.138 -58.8163 375.884 -77.2786 387.068 -93.5526L387.335 -97.9863C371.453 -74.9398 353.858 -49.3677 335.068 -22.2778C339.799 -29.6045 344.461 -36.8664 349.054 -44.0634C358.958 -59.5906 368.291 -74.2529 376.926 -88.1284C380.548 -93.2357 384.162 -98.2044 387.638 -103.044L388.283 -113.782C386.39 -111.477 384.496 -109.172 382.529 -106.734C384.525 -109.657 386.452 -112.516 388.379 -115.375L388.945 -124.797C380.04 -111.844 370.292 -97.8363 359.976 -83.033C356.28 -77.7916 352.516 -72.4854 348.614 -67.0495C360.529 -84.6645 371.885 -101.622 382.664 -117.646C383.021 -118.178 383.374 -118.641 383.731 -119.173C385.483 -121.278 387.235 -123.384 388.982 -125.42L389.344 -131.447C387.576 -129.064 385.803 -126.613 383.962 -124.096C385.832 -127.097 387.634 -130.034 389.436 -132.971L389.723 -137.751C384.391 -129.075 378.852 -120.204 373.236 -111.129C370.572 -107.904 367.774 -104.618 365.032 -101.189C373.709 -115.757 382.11 -130.066 390.166 -144.051L390.516 -149.87C387.829 -145.186 385.138 -140.432 382.313 -135.617C373.607 -120.564 364.131 -104.59 354.026 -87.8941C341.196 -72.3594 327.384 -55.6399 312.931 -37.9907C324.205 -54.6759 335.256 -70.8895 345.954 -86.6404C360.933 -108.706 374.56 -128.846 386.897 -146.989C388.179 -148.849 389.457 -150.639 390.734 -152.429L391.05 -157.694C381.883 -144.69 371.214 -129.424 358.885 -111.42C339.575 -83.2531 317.521 -50.5443 292.862 -13.4234C284.163 -2.8218 275.319 8.04805 266.272 19.0431C291.234 -17.7091 315.246 -52.718 337.018 -83.9854C358.287 -114.453 376.241 -139.513 391.175 -159.773L391.492 -165.038C376.78 -145.25 358.259 -119.393 334.787 -85.8083C307.896 -47.2409 277.603 -2.92501 246.284 43.3376C244.528 45.5125 242.776 47.6181 241.02 49.7929C230.423 62.7684 219.693 75.8041 209.028 88.8443C245.468 37.4382 282.005 -14.5177 315.96 -63.5208C322.791 -73.3465 329.343 -82.8436 335.684 -92.0769C343.208 -102.62 350.38 -112.701 357.207 -122.457C370.497 -141.299 382.026 -157.897 391.928 -172.312L392.581 -183.188C388.473 -177.558 384.144 -171.525 379.39 -164.896C342.007 -112.928 292.297 -41.9135 239.61 33.2096C232.142 43.8958 224.674 54.582 217.141 65.2637C216.362 66.3232 215.587 67.3134 214.873 68.3773C217.23 64.8525 219.519 61.3925 221.803 58.0019C253.68 10.0384 287.03 -40.8149 318.483 -89.2944C322.909 -95.8768 327.331 -102.39 331.615 -108.773C355.708 -140.786 376.651 -168.006 392.914 -188.73L394.583 -216.511C392.445 -213.388 390.1 -210.071 387.743 -206.546C383.202 -201.294 378.311 -195.647 373.194 -189.46C380.885 -200.618 387.79 -210.578 393.916 -219.478C394.26 -219.802 394.54 -220.131 394.885 -220.455L395.317 -227.66C394.822 -226.998 394.323 -226.267 393.893 -225.601C394.401 -226.471 394.912 -227.409 395.355 -228.283L396.024 -239.437C380.91 -220.511 360.463 -192.909 335.179 -157.292C330.778 -151.125 326.231 -144.69 321.541 -138.057C270.865 -72.6036 212.547 8.60171 167.698 72.2988C207.518 12.2211 246.997 -46.4889 282.505 -97.5417C318.435 -149.122 346.127 -186.939 367.263 -213.032C380.536 -229.441 389.784 -239.448 396.188 -245.408L396.525 -251.019C386.932 -242.844 371.821 -226.145 347.121 -193.757C353.775 -203.873 359.869 -213.332 365.4 -222.065C376.52 -238.343 385.485 -251.222 391.813 -260.248L383.525 -260.817C383.1 -260.221 382.734 -259.55 382.308 -258.953C375.309 -252.826 365.879 -243.04 352.867 -227.726C358.848 -237.471 365.199 -247.956 371.554 -258.51C372.199 -259.509 372.845 -260.508 373.49 -261.507L357.174 -262.629C355.936 -260.419 354.633 -258.213 353.265 -256.011C341.913 -243.435 325.165 -223.3 300.292 -191.272C320.072 -219.686 337.13 -243.903 350.897 -263.13L338.66 -263.971C336.795 -262.152 334.922 -260.194 332.985 -258.24C334.275 -260.238 335.496 -262.172 336.782 -264.101L331.538 -264.461C326.231 -256.2 320.571 -247.477 314.692 -238.351C308.135 -230.941 301.149 -222.865 293.935 -214.248C295.789 -216.973 297.639 -219.628 299.488 -222.283C310.458 -238.224 320.21 -252.301 328.814 -264.579L319.361 -265.229C296.748 -231.863 269.182 -191.811 238.197 -146.778C264.233 -187.352 289.873 -227.814 313.599 -265.625L288.089 -267.379C265.786 -235.939 241.022 -201.399 215.017 -165.693C230.411 -189.26 246.263 -213.978 261.951 -239.194C269.705 -249.235 277.038 -258.748 284.01 -267.659L274.751 -268.296C271.792 -263.421 268.7 -258.486 265.669 -253.477C261.685 -247.769 257.564 -241.93 253.438 -236.023C246.527 -227.038 239.405 -217.788 232.073 -208.275C238.58 -218.123 244.95 -227.842 251.243 -237.357C258.832 -247.895 266.284 -258.304 273.585 -268.376L266.204 -268.883C259.408 -258.568 252.462 -247.916 245.305 -237C220.196 -202.136 193.392 -165.023 165.882 -126.985C161.348 -120.758 156.877 -114.526 152.338 -108.23C173.279 -138.65 194.538 -170.022 215.27 -201.292C223.753 -213.717 232.029 -225.947 239.96 -237.854C244.349 -243.813 248.669 -249.707 252.92 -255.536C256.319 -260.172 259.645 -264.674 262.902 -269.11L243.672 -270.433C242.756 -269.243 241.77 -267.99 240.785 -266.736C241.576 -268.003 242.363 -269.201 243.219 -270.464L236.68 -270.913C200.056 -220.772 161.656 -168.109 125.583 -118.487C153.433 -161.092 180.021 -202.185 204.621 -240.492C212.668 -251.069 220.633 -261.373 228.388 -271.414L213.885 -272.411C193.601 -243.198 171.562 -211.81 147.985 -178.649C133.546 -159.051 118.603 -138.653 103.436 -117.783ZM-17.4549 399.107C-17.7953 399.362 -18.1399 399.686 -18.4802 399.941C-17.4989 398.756 -16.5176 397.571 -15.4631 396.253C-16.1083 397.252 -16.7492 398.181 -17.4549 399.107ZM15.7132 405.422C15.2955 405.88 14.8779 406.338 14.4603 406.797C15.093 406.005 15.7298 405.145 16.4313 404.289C16.2121 404.691 15.9971 405.024 15.7132 405.422ZM89.0724 397.457C88.9993 397.591 88.9304 397.656 88.7926 397.786C89.5025 396.791 90.1476 395.792 90.8616 394.728C90.2854 395.662 89.6445 396.592 89.0724 397.457ZM258.695 279.453C263.307 273.023 267.927 266.454 272.612 259.889C278.295 251.863 283.97 243.975 289.645 236.087C286.484 241.087 283.259 246.083 280.098 251.082C265.506 272.131 251.008 292.698 236.798 312.799C234.952 315.385 233.046 317.898 231.2 320.484C240.276 306.847 249.485 293.15 258.695 279.453ZM221.276 340.67C214.622 350.786 207.968 360.903 201.452 370.889C195.913 377.604 190.447 384.184 185.053 390.63C196.873 374.609 208.928 357.908 221.276 340.67ZM211.922 363.261C213.123 361.674 214.255 360.152 215.455 358.565C220.086 352.901 224.782 347.242 229.547 341.517C215.694 361.086 202.129 380.187 189.063 398.558C196.517 387.036 204.181 375.25 211.922 363.261ZM209.465 376.031C216.727 365.539 223.928 354.974 231.193 344.413C239.075 333.338 246.969 322.055 255.001 310.642C257.945 307.088 260.893 303.465 263.837 299.911C245.239 325.97 226.997 351.498 209.465 376.031ZM357.186 168.037C334.441 200.351 311.347 233.058 288.476 265.293C284.831 269.703 281.25 274.117 277.604 278.528C288.979 262.336 300.427 246.011 311.874 229.685C327.308 208.695 342.458 188.102 357.186 168.037ZM364.654 140.03C350.275 161.858 335.539 184.218 320.532 206.768C309.383 223.532 297.094 241.956 284.1 261.305C270.662 279.372 257.444 297.037 244.505 314.372C265.001 283.783 285.858 252.591 306.432 221.798C326.085 194.42 345.673 167.037 364.654 140.03ZM350.718 145.819C352.272 143.77 353.756 141.785 355.305 139.804C353.533 142.256 351.695 144.704 349.923 147.156C350.146 146.684 350.43 146.286 350.718 145.819ZM327.589 170.454C326.664 171.782 325.804 173.114 324.879 174.442C323.752 175.895 322.624 177.348 321.557 178.874C323.61 176.094 325.601 173.239 327.589 170.454ZM322.597 184.302C322.025 185.167 321.517 186.036 320.945 186.901C320.519 187.498 320.093 188.095 319.598 188.757C320.601 187.226 321.599 185.764 322.597 184.302ZM371.468 -148.815C370.324 -147.085 369.115 -145.359 367.902 -143.565C363.845 -137.722 359.509 -131.551 354.893 -125.051C341.603 -106.209 326.98 -85.719 311.371 -63.9754C333.195 -95.0305 353.515 -123.754 371.468 -148.815ZM342.021 -260.401C342.504 -260.855 342.986 -261.309 343.473 -261.832C342.629 -260.777 341.85 -259.717 341.007 -258.662C341.299 -259.199 341.66 -259.8 342.021 -260.401ZM52.1745 38.618C39.0837 57.4043 26.2852 75.6542 13.9898 93.104C8.97254 99.7849 4.09312 106.336 -0.709066 112.684C15.7684 89.4699 33.5841 64.539 52.1745 38.618ZM97.277 -48.7828C72.7154 -14.3682 48.4774 20.0687 25.5404 53.4124C23.2813 56.3874 21.0264 59.2931 18.8361 62.2033C31.8308 42.8539 45.6772 22.3109 60.4319 0.717292C65.1421 -6.263 69.9817 -13.2344 74.7607 -20.2795C86.2963 -35.9033 97.9781 -51.7953 109.867 -67.8818C105.716 -61.5587 101.497 -55.1707 97.277 -48.7828ZM138.29 -77.823C141.117 -81.5937 144.008 -85.36 146.896 -89.057C147.46 -89.7834 147.959 -90.5143 148.518 -91.1715C143.946 -84.3208 139.443 -77.535 134.943 -70.8184C124.6 -56.6431 114.326 -42.5325 104.128 -28.6253C105.978 -31.2807 107.759 -33.8712 109.609 -36.5266C119.146 -50.2704 128.688 -64.0836 138.29 -77.823ZM30.0353 54.3475C30.1083 54.2134 30.2461 54.0838 30.3192 53.9497C28.5989 56.6139 26.8744 59.3474 25.154 62.0116C23.6695 63.9965 22.1809 66.0506 20.6964 68.0354C23.6987 63.5115 26.8346 58.9273 30.0353 54.3475ZM6.69651 110.619C27.6862 82.6373 49.8972 52.7219 72.5425 22.0711C67.6215 29.3151 62.8341 36.4988 58.055 43.5439C47.319 57.7618 36.5058 72.1831 25.8179 86.6826C17.9944 96.7879 10.3902 106.491 3.07408 115.727C4.28295 114.001 5.48764 112.345 6.69651 110.619ZM70.2485 36.452C63.3042 45.9917 56.4288 55.4665 49.6349 64.6687C52.0609 61.079 54.487 57.4894 56.9819 53.835C61.354 48.1531 65.7345 42.3328 70.2485 36.452ZM-3.27709 133.794C-3.56104 134.192 -3.84915 134.659 -4.1331 135.057C-4.41289 135.385 -4.62793 135.718 -4.90772 136.047C-4.40872 135.316 -3.84083 134.52 -3.27709 133.794ZM-2.34177 140.954C0.0593276 137.78 2.52516 134.61 4.991 131.441C-0.253756 138.662 -5.36067 145.755 -10.3945 152.713C-7.76177 148.929 -5.05593 145.01 -2.34177 140.954ZM-4.71191 159.851C18.5447 126.599 45.1106 89.1221 74.0088 48.5363C68.8246 55.8318 63.7094 63.0625 58.663 70.2283C36.705 101.344 15.104 131.927 -4.71191 159.851ZM37.1003 129.405C39.3154 126.079 41.4659 122.749 43.7499 119.358C65.5808 89.2773 88.3116 58.2846 111.168 27.37C122.058 12.7453 132.949 -1.8794 143.766 -16.37C142.476 -14.3718 141.186 -12.3736 139.895 -10.3755C139.401 -9.71385 138.975 -9.11704 138.48 -8.45543C102.842 40.432 68.4375 87.1782 37.1003 129.405ZM136.791 31.5664C132.816 37.1364 128.837 42.7757 124.857 48.4149C130.342 40.4445 135.887 32.5477 141.437 24.5817C139.932 26.9129 138.361 29.2396 136.791 31.5664ZM213.266 -74.8246C221.202 -86.8004 229.069 -98.7113 236.867 -110.557C252.411 -132.305 266.945 -152.384 280.334 -170.732C264.813 -148.287 248.079 -124.047 230.476 -98.3363C224.818 -90.7255 219.079 -82.8421 213.266 -74.8246ZM84.9433 172.832C91.5264 163.894 97.98 154.946 104.425 146.138C96.1575 158.23 87.9627 170.188 79.9058 182.016C76.9201 186.263 73.9345 190.51 70.9572 194.618C75.5503 187.421 80.2124 180.159 84.9433 172.832ZM44.4591 227.717C47.2986 223.738 50.1423 219.69 53.0548 215.578C53.1279 215.443 53.2657 215.314 53.3388 215.18C46.0232 226.572 38.8454 237.835 31.8096 248.898C30.5359 250.62 29.2623 252.341 28.0576 253.997C33.3856 245.39 38.8555 236.583 44.4591 227.717ZM116.463 140.565C80.5166 194.579 46.8464 245.341 17.2329 290.26C7.72659 302.406 -1.00929 313.631 -8.90164 323.802C27.3449 269.113 71.1416 205.621 116.463 140.565ZM176.178 85.8902C174.402 88.4115 172.552 91.0668 170.702 93.7221C166.05 99.7325 161.398 105.743 156.815 111.689C160.527 106.17 164.3 100.725 168.077 95.2112C193.586 58.0097 218.701 21.9636 242.764 -11.7201C258.504 -32.4112 273.531 -52.0383 287.767 -70.3981C282.63 -62.821 277.421 -55.1099 272.066 -47.1305C240.936 -5.09819 208.168 40.3693 176.178 85.8902ZM253.756 -9.64264C251.984 -7.19067 250.146 -4.74319 248.305 -2.2264C248.593 -2.69353 248.877 -3.09139 249.165 -3.55852C250.654 -5.61263 252.207 -7.66226 253.756 -9.64264ZM226.105 21.0118C225.18 22.3395 224.32 23.6716 223.39 25.0685C222.263 26.5214 221.136 27.9743 220.004 29.4964C222.06 26.6466 224.048 23.8616 226.105 21.0118ZM221.047 34.8549C220.475 35.7199 219.968 36.5894 219.396 37.4544C218.97 38.0512 218.544 38.6479 218.049 39.3095C219.051 37.7785 220.049 36.3167 221.047 34.8549ZM110.373 213.814C111.57 212.296 112.705 210.705 113.902 209.187C118.533 203.523 123.229 197.864 127.998 192.07C114.145 211.639 100.58 230.74 87.514 249.111C95.0321 237.593 102.632 225.803 110.373 213.814ZM83.5688 241.188C95.3236 225.162 107.379 208.461 119.727 191.223C113.073 201.339 106.419 211.455 99.903 221.442C94.3636 228.156 88.8973 234.737 83.5688 241.188ZM129.579 194.961C137.461 183.886 145.355 172.603 153.387 161.191C156.331 157.637 159.279 154.013 162.223 150.459C143.625 176.519 125.379 202.116 107.916 226.584C115.182 216.023 122.383 205.457 129.579 194.961ZM168.706 106.385C163.209 114.563 157.639 122.875 151.999 131.253C114.923 183.519 81.1877 232.12 51.7222 275.658C84.0683 225.292 122.411 168.174 166.02 105.643C167.659 103.252 169.363 100.865 170.998 98.5423C178.537 88.8349 186.085 78.9889 193.629 69.2122C185.555 81.3177 177.202 93.7516 168.706 106.385ZM188.1 86.5707C184.939 91.5707 181.714 96.5661 178.553 101.566C163.961 122.614 149.458 143.251 135.253 163.283C133.407 165.869 131.501 168.381 129.655 170.967C138.727 157.4 147.867 143.768 157.081 130.002C161.693 123.571 166.313 117.002 170.998 110.438C176.811 102.42 182.49 94.463 188.1 86.5707ZM87.3785 215.642C100.91 194.938 114.992 173.716 129.419 152.169C131.601 149.397 133.787 146.556 135.969 143.785C120.439 166.369 104.029 190.631 87.3785 215.642ZM120.675 158.107C108.139 174.149 95.8832 189.862 83.8463 205.173C105.955 173.72 129.794 140.508 155.011 105.999C156.07 104.611 157.068 103.15 158.126 101.762C145.343 120.847 132.83 139.743 120.675 158.107ZM-22.7554 366.117C-23.6595 367.099 -24.5636 368.08 -25.403 369.066C-21.8726 363.326 -18.1355 357.392 -14.3253 351.323C4.49395 321.592 26.6665 287.987 51.7456 251.452C54.5643 247.819 57.4519 244.123 60.4042 240.43C72.4453 225.05 85.046 209.012 97.9348 192.507C59.7446 250.332 26.7427 300.792 4.39072 335.219C-6.01792 347.234 -15.0234 357.536 -22.7554 366.117ZM-17.4713 391.802C-18.1081 392.662 -18.7408 393.453 -19.4423 394.309C-2.93397 369.497 16.2886 340.629 37.3609 309.104C48.0678 295.371 59.3509 280.704 71.133 265.306C61.4413 279.457 52.0376 293.14 42.991 306.292C18.8535 341.222 -1.11275 369.483 -17.4713 391.802ZM36.7455 381.06C32.4714 386.192 28.4813 390.926 24.7793 395.193C26.9338 391.794 29.1615 388.26 31.3892 384.726C36.4753 377.981 41.9226 370.634 47.7958 362.69C49.1342 360.973 50.4726 359.257 51.8151 357.471C46.7188 365.468 41.6956 373.331 36.7455 381.06ZM51.0394 354.148C65.0903 332.367 80.8406 308.268 98.2258 281.847C107.383 267.937 116.751 253.765 126.399 239.263C128.796 236.158 131.257 233.058 133.719 229.958C114.864 259.2 95.7212 288.909 76.9228 318.294C68.5421 330.1 60.389 341.365 52.597 352.029C52.0333 352.755 51.5384 353.417 51.0394 354.148ZM220.757 120.885C217.471 125.806 214.185 130.728 210.894 135.719C191.749 164.385 171.914 193.698 151.963 222.795C161.782 207.61 171.661 192.498 181.602 177.46C194.55 158.873 207.65 139.948 220.757 120.885ZM209.185 131.706C212.033 127.589 214.816 123.467 217.663 119.35C218.58 118.161 219.432 116.968 220.353 115.709C216.653 121.02 212.953 126.331 209.185 131.706ZM259.978 85.9475C227.03 133.35 193.226 182.016 160.858 228.415C173.581 209.256 186.515 189.833 199.651 170.284C203.846 164.312 208.105 158.344 212.36 152.445C228.911 129.097 244.804 106.956 259.978 85.9475ZM238.205 112.902C241.99 107.249 245.84 101.601 249.621 96.0177C254.213 89.9336 258.796 83.988 263.314 78.038C255.161 89.3031 246.788 100.971 238.205 112.902ZM117.171 291.149C108.275 303.963 99.598 316.375 91.2007 328.458C101.884 311.871 112.989 294.757 124.374 277.314C136.398 260.054 148.839 242.336 161.492 224.355C146.273 247.168 131.404 269.589 117.171 291.149ZM201.58 164.156C187.017 184.719 171.959 205.944 156.885 227.446C160.39 222.122 163.9 216.729 167.41 211.336C168.618 209.61 169.892 207.889 171.101 206.164C185.083 186.604 199.358 166.508 213.581 146.199C209.645 152.189 205.645 158.175 201.58 164.156ZM143.949 240.4C152.656 227.503 161.569 214.412 170.486 201.252C172.964 197.875 175.442 194.497 177.985 191.124C173.121 198.511 168.321 205.903 163.521 213.294C156.852 222.575 150.326 231.656 143.949 240.4ZM195.616 168.198C196.833 166.334 198.05 164.47 199.267 162.606C200.894 160.422 202.589 158.173 204.285 155.925C201.372 160.038 198.524 164.155 195.616 168.198ZM151.146 202.844C149.739 204.625 148.392 206.481 146.985 208.262C154.129 197.554 161.343 186.78 168.629 175.873C162.896 184.731 157.021 193.787 151.146 202.844ZM153.738 204.066C157.757 198.846 161.781 193.558 165.873 188.205C153.183 206.81 140.562 225.35 128.221 243.562C136.612 230.505 145.14 217.318 153.738 204.066ZM65.2289 344.133C81.8293 319.953 99.7722 293.987 118.644 266.625C127.159 254.758 136.038 242.221 145.271 229.222C139.749 237.816 134.226 246.41 128.769 255.008C105.178 287.333 83.8775 317.242 65.2289 344.133ZM82.269 333.2C93.1548 316.488 104.596 299.188 116.463 281.292C124.032 271.099 131.824 260.435 139.973 249.24C132.816 260.156 125.797 270.942 118.846 281.664C104.332 302.509 89.8899 323.22 75.9264 343.546C78.0163 340.142 80.1103 336.669 82.269 333.2ZM59.0972 371.536C67.5759 359.18 76.5494 346.163 85.8758 332.683C76.5601 347.068 67.5889 361.129 58.9789 374.589C55.4212 379.701 51.9365 384.678 48.5897 389.526C48.1638 390.123 47.7337 390.789 47.3078 391.386C51.1471 384.833 55.0553 378.215 59.0972 371.536ZM59.0696 378.491C62.4123 373.712 65.8238 368.868 69.2437 363.886C59.7296 378.327 50.7792 392.042 42.4739 404.757C47.7935 396.289 53.3282 387.487 59.0696 378.491ZM71.8554 368.031C70.7927 369.488 69.6652 370.941 68.6066 372.329C61.3345 381.916 54.7032 390.573 48.6316 398.572C66.0209 372.082 85.9177 341.729 107.514 309.058C145.788 254.161 187.483 194.282 228.751 134.999C190.676 191.997 152.212 248.968 116.888 301.286C101.049 324.683 85.99 347.021 71.8554 368.031ZM288.328 66.4016C281.589 76.8597 274.853 87.2485 268.187 97.5724C257.09 112.392 245.851 127.41 234.664 142.64C243.374 129.674 252.145 116.782 260.783 103.95C269.641 91.7595 278.849 79.1756 288.328 66.4016ZM281.899 72.7768C298.881 47.6495 315.571 23.0586 331.552 -0.537616C321.088 15.6468 310.619 31.9005 300.159 48.0156C293.933 56.4221 287.78 64.6944 281.899 72.7768ZM186.982 213.447C191.55 206.665 196.118 199.884 200.687 193.103C204.718 187.676 208.685 182.244 212.713 176.886C223.603 162.262 234.494 147.637 245.311 133.146C244.021 135.145 242.731 137.143 241.44 139.141C240.946 139.803 240.52 140.399 240.025 141.061C221.958 165.835 204.184 190.074 186.982 213.447ZM254.204 149.618C257.457 145.251 260.645 140.879 263.829 136.576C258.357 144.339 252.945 152.175 247.469 160.007C246.767 160.863 246.062 161.788 245.36 162.644C248.281 158.393 251.21 154.004 254.204 149.618ZM242.986 174.029C241.485 176.291 239.915 178.617 238.345 180.944C234.369 186.514 230.39 192.153 226.411 197.793C231.952 189.965 237.501 181.999 242.986 174.029ZM218.877 198.736C219.595 197.602 220.378 196.474 221.097 195.34C221.307 195.077 221.518 194.813 221.729 194.549C220.735 195.942 219.806 197.339 218.877 198.736ZM236.236 175.999C236.447 175.736 236.662 175.403 236.808 175.134C236.877 175.07 236.881 175 236.946 175.005C236.731 175.338 236.516 175.671 236.236 175.999ZM212.647 172.569C212.01 173.429 211.373 174.29 210.737 175.151C194.662 197.071 178.713 219.069 163.039 240.808C183.379 211.738 204.473 182.024 225.614 152.592C228.166 149.08 230.725 145.43 233.415 141.789C226.425 152.091 219.503 162.328 212.647 172.569ZM179.311 222.102C174.958 228.55 170.673 234.933 166.389 241.317C149.544 264.158 133.344 286 118.004 306.51C137.58 279.335 158.206 250.911 179.311 222.102ZM100.843 349.781C88.2858 366.169 76.4348 381.632 65.6423 395.707C68.868 390.712 72.2273 385.656 75.5907 380.531C86.1788 367.694 97.8421 353.192 110.503 337.228C107.259 341.457 104.014 345.686 100.843 349.781ZM149.293 321.391C148.027 322.974 146.823 324.63 145.557 326.212C152.754 315.716 159.951 305.22 167.083 294.72C161.078 303.767 155.151 312.612 149.293 321.391ZM128.616 311.692C112.056 333.022 96.9374 352.017 83.3887 368.685C97.6944 346.991 113.059 323.909 129.137 299.763C150.707 270.777 173.985 239.335 198.269 206.292C197.332 207.828 196.334 209.29 195.396 210.825C184.515 227.468 173.702 244.046 163.161 260.433C151.392 277.78 139.829 294.933 128.616 311.692ZM194.58 262.315C206.146 245.094 217.924 227.608 229.847 209.855C239.977 194.9 249.901 180.139 259.674 165.715C269.867 151.878 279.905 138.446 289.664 125.344C276.766 145.256 263.377 165.761 249.558 186.932C246.405 191.794 243.188 196.651 240.035 201.512C224.683 222.23 209.416 242.606 194.58 262.315ZM278.789 150.543C287.226 138.88 296.162 126.486 305.386 113.625C303.752 115.948 302.113 118.339 300.474 120.731C286.867 140.525 273.054 160.514 259.237 180.572C265.822 170.521 272.342 160.465 278.789 150.543ZM232.402 221.439C240.524 209.615 248.646 197.791 256.767 185.967C245.144 203.046 233.517 220.194 222.101 237.078C225.533 231.888 228.966 226.698 232.402 221.439ZM133.359 398.346C132.085 400.067 130.812 401.788 129.607 403.444C135.004 394.772 140.474 385.966 146.012 377.094C148.852 373.116 151.696 369.068 154.608 364.955C154.681 364.821 154.819 364.692 154.892 364.558C147.577 375.95 140.399 387.213 133.359 398.346ZM181.463 331.325C178.473 335.641 175.492 339.818 172.511 343.996C177.104 336.799 181.762 329.606 186.432 322.206C193.015 313.267 199.469 304.32 205.918 295.442C197.715 307.538 189.52 319.496 181.463 331.325ZM185.83 313.817C192.14 304.025 198.595 293.964 205.12 283.839C210.945 275.614 216.774 267.319 222.603 259.025C217.227 267.351 211.851 275.676 206.471 284.071C199.493 294.165 192.589 304.125 185.83 313.817ZM188.932 365.02C202.463 344.316 216.545 323.093 230.972 301.547C233.154 298.775 235.34 295.934 237.522 293.163C221.992 315.746 205.582 340.009 188.932 365.02ZM222.229 307.485C209.693 323.527 197.437 339.24 185.464 354.555C207.573 323.103 231.347 289.886 256.565 255.377C257.623 253.989 258.621 252.527 259.68 251.139C246.892 270.294 234.38 289.19 222.229 307.485ZM369.364 88.6682C349.627 117.432 328.296 148.938 305.313 183.044C288.7 205.275 272.216 227.515 256.21 249.371C241.052 270.102 224.178 293.428 206.508 318.09C222.675 294.646 238.979 271.072 255.189 247.979C286.834 202.782 328.17 144.547 369.364 88.6682ZM259.01 202.747C250.981 215.203 242.882 227.724 234.715 240.31C228.386 249.336 222.127 258.296 216.01 267.058C220.955 259.398 225.975 251.605 231.062 243.746C238.633 232.441 246.333 221.144 253.972 209.774C256.317 206.457 258.666 203.071 261.015 199.685C260.3 200.749 259.655 201.748 259.01 202.747ZM229.294 236.39C227.139 239.789 224.985 243.189 222.761 246.653C193.708 287.646 165.867 325.8 140.513 359.326C162.137 327.283 184.994 293.099 208.165 258.032C225.569 232.377 243.33 206.191 261.156 180.008C283.968 146.586 306.775 113.234 328.986 81.1618C298.896 127.509 265.333 179.739 229.294 236.39ZM328.598 102.769C331.747 97.9772 334.895 93.1851 338.043 88.393C340.323 85.0716 342.607 81.6809 344.887 78.3595C339.52 86.5467 334.091 94.6602 328.598 102.769ZM364.612 27.0564C339.529 63.6611 314.309 99.2826 291.61 130.834C303.721 112.119 315.549 93.8028 327.023 75.9487C340.087 58.691 352.64 42.3719 364.612 27.0564ZM295.896 115.755C287.484 127.003 278.861 138.514 270.092 150.293C291.991 117.991 312.953 87.2245 332.689 58.4606C332.827 58.3309 332.905 58.1276 333.042 57.9979C321.203 76.5225 308.799 95.7734 295.896 115.755ZM338.42 38.8204C351.477 20.5883 363.748 3.55417 375.296 -12.2775C373.434 -9.41428 371.571 -6.55111 369.709 -3.68793C357.746 13.6455 345.137 31.9781 332.03 51.0416C326.367 58.7216 320.632 66.5357 314.819 74.5532C322.755 62.5774 330.622 50.6665 338.42 38.8204ZM300.01 85.1521C298.586 87.2106 297.101 89.1954 295.677 91.254C292.209 95.9545 288.673 100.72 285.136 105.485C290.092 98.7306 295.053 91.9067 300.01 85.1521ZM268.023 126.291C263.987 131.787 259.951 137.283 255.919 142.71C278.724 108.314 301.25 74.2464 322.988 41.3767C338.826 17.9794 354.23 -4.68253 368.843 -26.0772C369.825 -27.2619 370.741 -28.451 371.718 -29.5664C339.873 18.9557 304.203 72.7103 268.023 126.291ZM339.75 2.59989C339.819 2.53506 339.823 2.46579 339.892 2.40096C347.901 -9.7089 355.707 -21.6935 363.428 -33.3363C366.599 -37.4311 369.767 -41.4568 372.869 -45.4868C362.33 -30.2119 351.287 -14.1368 339.75 2.59989ZM381.506 -77.7964C380.504 -76.2653 379.498 -74.665 378.496 -73.1339C372.798 -65.9433 366.958 -58.5537 361.045 -51.0301C368.175 -60.4178 375.017 -69.3384 381.506 -77.7964ZM366.9 -55.4273C361.476 -47.3831 355.983 -39.2741 350.421 -31.1002C320.959 12.3685 289.36 58.9597 257.602 106.027C245.202 123.052 233.999 138.56 224.555 151.823C194.116 194.251 164.053 236.913 136.091 277.076C186.762 201.954 240.939 121.507 290.879 45.5689C298.709 34.2815 306.465 23.1282 314.08 12.1738C332.764 -12.0713 350.508 -34.7115 366.9 -55.4273ZM300.474 26.5422C289.896 40.2841 279.181 54.1557 268.527 68.101C270.235 65.6446 271.882 63.1144 273.59 60.658C302.109 18.794 327.89 -18.5975 350.854 -51.3133C334.925 -26.3919 318.013 -0.285849 300.474 26.5422ZM374.596 -99.1404C378.787 -105.043 382.831 -110.678 386.737 -116.183C380.461 -106.946 373.974 -97.4441 367.345 -87.7436C365.305 -85.1709 363.261 -82.5289 361.148 -79.8221C361.079 -79.7572 361.079 -79.7572 361.011 -79.6924C365.635 -86.3308 370.187 -92.835 374.596 -99.1404ZM366.423 -83.2158C372.9 -91.4659 378.943 -98.9807 384.628 -105.963C341.754 -42.687 289.21 34.3936 235.93 110.728C231.481 116.613 227.036 122.429 222.655 128.25C220.185 131.488 217.78 134.732 215.379 137.906C225.258 122.794 235.138 107.682 244.948 92.6357C259.192 71.9808 273.289 51.5941 287.094 31.7439C315 -8.56235 341.908 -47.4068 366.423 -83.2158ZM346.262 -57.1245C326.814 -28.8277 306.316 0.718549 285.667 30.6023C284.243 32.6609 282.819 34.7195 281.395 36.778C291.567 21.13 301.532 5.67647 311.355 -9.57813C316.535 -16.8044 321.581 -23.9703 326.619 -30.9976C333.405 -40.0612 339.911 -48.7962 346.262 -57.1245ZM324.663 -35.2363C326.895 -38.8392 329.127 -42.4422 331.355 -45.9759C333.205 -48.6312 335.054 -51.2866 336.904 -53.9419C337.687 -55.0707 338.466 -56.1301 339.249 -57.2589C337.817 -55.0618 336.445 -52.7909 335.013 -50.5938C331.649 -45.4687 328.156 -40.3525 324.663 -35.2363ZM285.26 22.2267C278.238 31.9698 271.079 41.8425 263.851 51.78C275.96 34.1783 287.79 16.9052 299.323 0.237797C294.73 7.43483 290.064 14.7659 285.26 22.2267ZM354.85 -84.2898C355.974 -85.6734 357.162 -87.0525 358.285 -88.4361C356.224 -85.517 354.099 -82.6023 352.034 -79.614C352.975 -81.2187 353.913 -82.7543 354.85 -84.2898ZM294.886 -11.4061C311.654 -31.8873 327.997 -51.7718 343.35 -70.333C338.375 -62.1884 333.262 -53.9141 328.007 -45.4409C315.63 -27.7185 302.815 -9.19138 289.565 10.071C270.301 37.4761 250.533 65.6813 230.822 94.0296C220.858 108.37 210.749 122.979 200.567 137.722C191.234 150.228 182.051 162.396 173.084 174.231C178.176 166.303 183.328 158.449 188.485 150.526C225.233 93.9931 258.583 43.1398 288.314 -1.56258C290.464 -4.89289 292.675 -8.14947 294.886 -11.4061ZM247.951 45.887C257.493 34.2303 267.104 22.5089 276.577 10.9171C270.215 20.4968 263.707 30.3447 257.054 40.4608C213.957 104.209 169.407 170.5 128.308 232.368C116.056 248.013 104.376 262.792 93.212 276.563C106.71 256.413 120.706 235.533 134.854 214.315C171.282 159.847 210.347 101.526 247.951 45.887ZM228.372 69.8619C196.188 117.526 163.472 166.475 132.614 212.63C112.398 242.892 92.6157 272.418 73.9088 300.278C68.0855 307.391 62.4166 314.097 56.9587 320.538C39.6765 340.915 20.2142 362.95 2.64519 380.524C6.25697 374.512 9.93349 368.504 13.5411 362.561C25.467 345.851 38.8774 327.156 53.1396 307.268C91.5982 253.635 137.371 189.723 184.45 123.536C199.049 105.619 213.713 87.7056 228.372 69.8619ZM255.641 18.5209C232.896 50.8343 209.737 83.5367 186.867 115.772C183.221 120.182 179.64 124.597 175.995 129.007C187.369 112.815 198.817 96.4899 210.265 80.1644C225.759 59.2477 240.973 38.6596 255.641 18.5209ZM219.048 57.3255C207.899 74.0889 195.61 92.513 182.615 111.862C169.178 129.929 155.959 147.594 143.02 164.93C163.517 134.34 184.374 103.149 204.947 72.3556C224.596 45.0465 244.189 17.5944 263.17 -9.41284C248.791 12.4153 233.99 34.7709 219.048 57.3255ZM257.544 -6.6693C260.688 -11.3921 263.832 -16.1149 266.976 -20.8377C272.165 -28.2025 277.219 -35.507 282.266 -42.6728C284.675 -45.9853 287.08 -49.2285 289.481 -52.4025C279.019 -37.3309 268.35 -22.065 257.544 -6.6693ZM289.612 -63.2454C283.804 -55.2971 277.866 -47.3578 271.855 -39.2844C275.588 -45.1493 279.252 -50.9493 282.912 -56.6801C289.069 -65.0218 295.149 -73.16 301.152 -81.0949C297.35 -75.1652 293.548 -69.2355 289.612 -63.2454ZM321.954 -113.542C319.91 -110.9 317.862 -108.189 315.749 -105.482C317.035 -107.411 318.386 -109.335 319.668 -111.195C321.006 -112.911 322.341 -114.559 323.675 -116.206C323.034 -115.276 322.526 -114.407 321.954 -113.542ZM388.254 -192.32C383.529 -186.176 378.52 -179.633 373.361 -172.754C374.586 -174.756 375.872 -176.685 377.098 -178.688C380.959 -183.431 384.677 -187.975 388.254 -192.32ZM359.425 -166.964C359.932 -167.833 360.44 -168.703 360.943 -169.503C364.037 -173.395 367.054 -177.083 369.929 -180.572C368.931 -179.11 368.002 -177.713 367.004 -176.251C364.551 -173.29 362.025 -170.194 359.425 -166.964ZM380.782 -214.051C378.425 -210.526 375.995 -206.867 373.487 -203.005C372.911 -202.071 372.27 -201.141 371.629 -200.211C368.693 -196.796 365.616 -193.181 362.461 -189.363C368.979 -198.306 375.132 -206.579 380.782 -214.051ZM371.754 -194.707C371.827 -194.841 371.96 -194.901 372.033 -195.035C370.8 -192.894 369.501 -190.758 368.202 -188.621C365.208 -184.235 362.077 -179.721 358.868 -175.002C363.306 -181.792 367.603 -188.384 371.754 -194.707ZM324.261 -135.713C335.536 -150.242 345.456 -162.777 354.231 -173.582C345.634 -160.33 336.533 -146.278 327.132 -131.551C304.634 -102.281 279.515 -68.322 252.845 -31.2699C249.884 -27.4388 246.919 -23.5384 244.019 -19.6336C273.119 -62.5011 299.175 -100.152 321.856 -132.47C322.639 -133.599 323.482 -134.654 324.261 -135.713ZM267.815 -60.7789C248.078 -32.015 226.751 -0.5779 203.764 33.5971C187.151 55.8281 170.667 78.068 154.661 99.9234C139.434 120.719 122.56 144.045 104.886 168.777C121.056 145.264 137.425 121.694 153.704 98.5359C185.281 53.404 226.621 -4.8998 267.815 -60.7789ZM157.457 53.3692C140.116 80.1414 122.482 107.45 104.986 134.629C97.94 144.787 91.0355 154.747 84.2771 164.439C98.6974 141.918 113.819 118.541 129.444 94.3637C137.08 83.0629 144.719 71.6929 152.358 60.3228C154.703 57.0058 156.987 53.6152 159.332 50.2982C158.751 51.3018 158.106 52.3009 157.457 53.3692ZM371.625 -242.366C341.143 -195.977 296.989 -131.953 249.449 -63.5024C279.912 -110.659 309.642 -157.518 335.998 -200.156C341.558 -207.217 346.826 -213.742 351.664 -219.6C359.093 -228.55 365.722 -236.094 371.625 -242.366ZM189.596 10.7802C213.299 -25.5717 239.651 -65.9847 266.039 -105.908C273.349 -116.119 280.305 -125.866 287.035 -135.073C256.492 -88.7566 223.131 -38.8083 189.596 10.7802ZM327.564 -217.779C319.597 -206.362 310.976 -193.807 301.702 -180.115C257.117 -114.313 196.955 -21.8955 127.745 86.9427C125.59 90.3423 123.435 93.7419 121.212 97.2063C92.1551 138.268 64.3821 176.358 39.0245 209.952C73.7075 158.564 111.447 101.752 148.879 44.6406C192.47 -21.9255 233.487 -85.6775 268.841 -141.749C275.343 -150.415 281.63 -158.748 287.697 -166.678C302.659 -186.31 316.039 -203.407 327.564 -217.779ZM318.353 -235.455C319.537 -236.765 320.721 -238.075 321.905 -239.385C323.993 -241.676 326.008 -243.833 328.023 -245.99C324.196 -239.645 320.159 -233.036 316.044 -226.223C307.425 -214.781 298.092 -202.276 288.045 -188.706C298.574 -204.886 308.681 -220.538 318.353 -235.455ZM267.355 -175.451C274.094 -183.752 280.684 -191.716 287.059 -199.347C290.489 -203.424 293.847 -207.367 297.135 -211.245C276.93 -180.079 254.31 -145.531 230.133 -108.864C224.67 -101.24 219.059 -93.3475 213.312 -85.3255C170.418 -24.9721 124.598 40.8148 81.4428 103.376C88.3806 92.8622 95.3872 82.2834 102.459 71.709C142.495 11.2983 183.313 -50.2413 221.568 -108.062C237.338 -131.394 252.738 -153.987 267.355 -175.451ZM166.634 -51.8054C147.623 -26.4697 128.373 -0.385348 109.183 25.7727C96.7916 42.6594 84.5254 59.6242 72.3363 76.3856C93.7574 44.4681 116.724 10.6394 140.955 -24.7717C178.006 -78.7792 214.491 -130.947 248.074 -178.098C220.975 -136.067 193.303 -93.1705 166.634 -51.8054ZM238.182 -189.839C236.904 -188.048 235.627 -186.258 234.345 -184.398C233.996 -184.005 233.712 -183.607 233.363 -183.213C234.99 -185.397 236.556 -187.655 238.182 -189.839ZM262.882 -207.062C224.93 -154.299 182.417 -93.7798 138.961 -30.5434C97.3546 30.0376 57.9448 88.6827 23.5273 141.063C45.075 105.954 68.3704 68.8089 92.5532 30.9597C149.247 -49.1748 209.62 -134.274 262.882 -207.062ZM141.996 -57.2557C144.912 -61.4377 147.764 -65.6241 150.612 -69.7412C151.468 -71.004 152.393 -72.3317 153.249 -73.5945C158.465 -80.3314 163.676 -86.999 168.823 -93.671C165.919 -89.6969 163.014 -85.7228 160.045 -81.7531C154.026 -73.5411 148.011 -65.3984 141.996 -57.2557ZM216.337 -175.758C199.223 -149.527 181.21 -122.384 162.313 -94.6056C160.317 -91.682 158.316 -88.6892 156.32 -85.7656C155.116 -84.1094 153.915 -82.5224 152.715 -80.9354C148.399 -75.1106 144.156 -69.4198 139.91 -63.6598C137.022 -59.9628 134.13 -56.1965 131.307 -52.4951C124.396 -43.5096 117.132 -34.0615 109.585 -24.2155C120.226 -40.1095 131.01 -56.2024 141.867 -72.4294C144.491 -76.0749 147.18 -79.716 149.805 -83.3615C169.372 -110.398 192.343 -142.139 216.337 -175.758ZM160.97 -137.201C161.112 -137.4 161.254 -137.599 161.396 -137.798C162.243 -138.922 163.026 -140.051 163.874 -141.175C162.884 -139.852 161.959 -138.524 160.97 -137.201ZM223.953 -247.372C220.306 -241.849 216.719 -236.252 213.003 -230.664C204.332 -219.435 195.506 -207.798 186.405 -195.903C199.3 -213.589 211.841 -230.814 223.953 -247.372ZM178.846 -179.379C168.987 -164.614 158.999 -149.858 149.019 -135.24C127.183 -103.977 105.191 -72.3075 83.747 -41.0872C77.354 -32.0661 71.0299 -23.1099 64.783 -14.357C37.1122 23.1132 10.573 59.0614 -13.1956 91.0958C13.4304 51.5363 42.3696 8.1013 71.979 -36.7485C86.0618 -55.8145 100.489 -75.2046 115.192 -94.854C136.961 -123.896 158.299 -152.271 178.846 -179.379ZM107.222 -96.3759C99.6306 -84.7242 91.9787 -73.1463 84.3916 -61.564C64.4064 -34.0693 45.6177 -8.09232 28.0294 16.2977C22.0831 24.3756 16.2704 32.393 10.5998 40.2116C35.0522 3.28525 61.0497 -35.5522 87.5213 -74.7049C96.3695 -87.8005 105.136 -100.623 113.696 -113.252C135.274 -144.533 157.326 -176.129 179.073 -206.98C179.215 -207.179 179.426 -207.443 179.568 -207.642C157.062 -172.808 132.852 -135.586 107.222 -96.3759ZM187.312 -226.17C178.441 -213.771 169.367 -201.248 160.22 -188.59C156.902 -184.227 153.585 -179.864 150.267 -175.501C153.459 -179.942 156.66 -184.522 159.925 -189.097C169.194 -201.608 178.324 -213.988 187.312 -226.17Z" fill="#9195B6"/>
<path d="M69.6444 -121.289C63.7985 -112.717 57.9442 -104.007 52.0941 -95.3662C32.9548 -67.8829 14.3875 -41.2646 -3.26729 -15.7662C-4.89376 -13.5824 -6.45133 -11.4635 -8.07781 -9.27976L-9.77108 18.916C3.11536 1.36778 16.7033 -17.0366 30.9929 -36.297C30.4208 -35.432 29.9094 -34.4933 29.3373 -33.6283C15.8455 -14.6609 2.70659 3.84393 -9.94167 21.7564L-10.3619 28.7534C-6.31349 23.0493 -2.19622 17.2804 1.92522 11.4422C0.480504 13.8471 -1.02896 16.2476 -2.47367 18.6526C-5.18368 22.64 -7.82477 26.5627 -10.4659 30.4853L-11.0608 40.3919C-9.49077 38.0652 -7.91655 35.6691 -6.33819 33.2038C18.4713 -4.25451 44.8443 -45.0139 71.7371 -86.8507C90.8348 -113.641 110.281 -140.825 129.642 -167.667C157.676 -204.695 184.911 -240.317 209.874 -272.756L201.781 -273.313C187.053 -253.248 171.956 -232.443 156.574 -211.24C146.057 -197.424 135.403 -183.479 124.614 -169.473C124.971 -170.005 125.264 -170.542 125.617 -171.005C132.772 -180.808 139.858 -190.547 146.802 -200.086C165.368 -225.592 183.223 -250.102 200.158 -273.355L196.791 -273.586C181.479 -252.448 165.542 -230.658 149.524 -208.595C151.536 -211.795 153.545 -214.927 155.493 -218.132C160.524 -226.133 165.552 -234.066 170.51 -241.933C177.982 -252.689 185.382 -263.31 192.648 -273.871L184.943 -274.401C184.59 -273.938 184.237 -273.475 183.88 -272.944C184.168 -273.411 184.521 -273.873 184.813 -274.41L181.317 -274.65C179.317 -271.657 177.317 -268.664 175.316 -265.672C170.89 -259.089 166.46 -252.437 162.03 -245.786C164.842 -250.392 167.585 -254.934 170.324 -259.406C173.951 -264.583 177.569 -269.621 181.058 -274.668L176.267 -274.997C174.538 -272.195 172.805 -269.322 171.072 -266.45C139.583 -222.773 105.09 -173.459 69.6444 -121.289ZM72.0655 -119.384C73.7045 -121.775 75.3476 -124.236 76.9865 -126.628C100.604 -160.481 123.711 -193.396 145.681 -224.719C140.13 -215.64 134.639 -206.488 129.019 -197.344C107.606 -167.721 85.6933 -137.368 63.8019 -107.361C66.5766 -111.344 69.3555 -115.396 72.0655 -119.384ZM6.64627 -19.5367C3.39332 -15.1692 0.148686 -10.9402 -3.09594 -6.71121C7.92767 -23.5528 19.2269 -40.6536 30.6598 -57.8149C39.2305 -69.5383 47.8744 -81.3958 56.583 -93.2489C39.9867 -69.1385 23.1546 -44.3487 6.64627 -19.5367ZM46.7825 -62.1323C44.3084 -58.8243 41.83 -55.447 39.36 -52.2082C42.2684 -56.2516 45.1769 -60.295 48.0853 -64.3384C47.651 -63.603 47.2168 -62.8677 46.7825 -62.1323ZM79.0197 -105.271C74.2864 -98.9881 69.6909 -92.8346 65.0955 -86.6812C65.7448 -87.7496 66.3899 -88.7487 66.9745 -89.8215C71.8372 -96.0957 76.7689 -102.435 81.6358 -108.778C80.784 -107.585 79.9363 -106.46 79.0197 -105.271ZM88.6168 -130.837C87.0551 -128.648 85.4975 -126.529 83.9399 -124.411C86.3701 -128.069 88.8609 -131.655 91.2912 -135.313C90.4227 -133.843 89.5542 -132.372 88.6168 -130.837ZM119.642 -167.868C112.203 -157.666 104.764 -147.465 97.3204 -137.195C108.282 -152.997 119.174 -168.735 129.928 -184.342C130.427 -185.073 130.922 -185.735 131.421 -186.466C127.538 -180.264 123.59 -174.066 119.642 -167.868ZM171.227 -249.536C151.774 -221.17 131.616 -191.878 111.118 -162.332C116.316 -170.948 121.506 -179.426 126.623 -187.77C126.765 -187.969 126.838 -188.103 126.98 -188.302C142.03 -209.388 156.847 -229.864 171.227 -249.536Z" fill="#9195B6"/>
<path d="M29.9286 -110.594C18.1987 -94.9836 6.61085 -79.5721 -4.76196 -64.4936L-5.33609 -54.9334C-0.492304 -61.974 4.35148 -69.0147 9.26418 -76.1202C34.7887 -110.329 60.7642 -145.551 85.9775 -179.991C98.6614 -197.414 114.249 -218.811 131.347 -242.608C139.97 -254.12 148.382 -265.367 156.717 -276.411L152.638 -276.691C140.566 -259.713 127.874 -242.152 114.687 -223.928C106.696 -213.209 98.5683 -202.359 90.367 -191.375C111.513 -220.877 132.281 -249.501 152.245 -276.649L149.073 -276.867C122.736 -241.044 95.0113 -202.673 66.9526 -163.073C54.3857 -145.433 42.0214 -127.919 29.9286 -110.594Z" fill="#9195B6"/>
<path d="M-7.07098 -26.0448L-7.34972 -21.4033C13.6792 -51.1217 35.6206 -81.9601 58.0568 -113.46C61.6103 -118.502 65.1597 -123.476 68.778 -128.514C43.1767 -91.9446 17.4293 -55.1073 -7.45789 -19.602L-7.72001 -15.2376C51.8674 -100.251 116.883 -193.378 174.005 -275.222L169.537 -275.53C133.672 -223.945 94.6895 -169.166 56.1329 -114.984C34.6257 -84.8806 13.3901 -54.9676 -7.07098 -26.0448Z" fill="#9195B6"/>
<path d="M-3.30165 -88.8099L-4.30431 -72.1141C9.14353 -91.4324 22.6769 -111.093 36.0808 -130.762C46.2887 -143.764 56.6469 -157.103 67.0781 -170.577C94.0812 -205.589 121.548 -241.821 147.717 -277.03L145.645 -277.172C120.181 -242.889 93.0679 -207.12 65.7161 -171.714C60.7803 -165.306 55.8486 -158.967 50.9169 -152.628C51.9838 -154.155 53.0549 -155.75 54.057 -157.282C59.5543 -165.46 65.3354 -174.036 71.3358 -183.015C95.5197 -216.551 119.008 -248.257 141.238 -277.406L138.778 -277.575C134.966 -272.55 131.153 -267.525 127.336 -262.431C131.024 -267.534 134.771 -272.563 138.39 -277.601L135.735 -277.784C133.614 -274.939 131.553 -272.019 129.428 -269.105C131.424 -272.028 133.351 -274.887 135.347 -277.811L130.037 -278.176C126.759 -273.393 123.417 -268.614 120.139 -263.831C79.7662 -205.391 37.0757 -145.163 -3.30165 -88.8099ZM29.8212 -131.54C28.8273 -130.147 27.8335 -128.755 26.775 -127.367C27.9838 -129.092 29.1927 -130.818 30.4663 -132.539C30.2513 -132.206 30.0362 -131.873 29.8212 -131.54ZM120.793 -260.655C107.179 -240.722 93.4218 -220.591 79.6003 -200.463C76.481 -196.156 73.4306 -191.914 70.3113 -187.607C82.5022 -205.481 94.7537 -223.281 106.79 -240.749C112.692 -249.178 118.53 -257.611 124.363 -265.975C123.086 -264.184 121.942 -262.455 120.793 -260.655Z" fill="#9195B6"/>
<path d="M-2.6659 -93.9834C-2.80371 -93.8537 -2.88094 -93.6504 -3.01876 -93.5207L-3.2559 -89.5719C-1.5314 -92.3054 0.188952 -94.9697 1.91345 -97.7032C15.5264 -116.523 29.6384 -136.074 43.9089 -156.101C71.9427 -195.285 101.3 -237.022 129.722 -278.336L127.909 -278.461C100.274 -238.345 71.7771 -197.94 44.5868 -159.811C35.3584 -146.88 26.1342 -134.019 16.9183 -121.297C24.8791 -133.688 32.8356 -146.011 40.6586 -158.272C63.3153 -193.444 90.8158 -235.656 119.427 -279.044L117.226 -279.196C88.9548 -236.062 61.7988 -194.174 39.2924 -159.34C25.2374 -137.49 11.1824 -115.639 -2.6659 -93.9834Z" fill="#9195B6"/>
<path d="M-0.235436 -139.867C25.9444 -176.327 52.9636 -213.772 79.4755 -250.349C79.2646 -250.085 79.1184 -249.817 78.9075 -249.553C53.0681 -213.348 26.2829 -175.469 -0.364421 -137.719L-0.485079 -135.71C19.9801 -164.703 40.5142 -193.759 60.6141 -222.081C52.1104 -209.31 43.6026 -196.469 35.0906 -183.559C22.6514 -164.797 10.6381 -146.632 -0.876143 -129.198L-1.0384 -126.497C27.3621 -169.621 56.3868 -213.398 84.612 -255.769C90.0071 -263.328 95.398 -270.818 100.72 -278.244C80.9568 -247.951 60.1601 -216.686 38.8204 -185.041C25.4605 -165.021 12.1255 -145.417 -1.05088 -126.289L-1.16738 -124.349C12.2971 -143.944 25.916 -163.947 39.6205 -184.291C52.826 -203.904 65.829 -223.392 78.4874 -242.556C68.9607 -227.907 59.2963 -213.128 49.494 -198.22C32.2425 -171.859 15.231 -146.247 -1.32964 -121.647L-1.66663 -116.036C-1.23655 -116.702 -0.810607 -117.299 -0.319935 -117.891C2.0978 -121.342 4.51139 -124.724 6.92912 -128.175C16.6523 -141.767 26.4444 -155.424 36.2365 -169.08C23.4486 -149.925 10.7214 -130.697 -1.92456 -111.741L-2.09931 -108.831C17.2652 -137.899 36.9303 -167.641 56.4617 -197.324C76.5242 -225.022 96.5782 -252.581 116.052 -279.137L113.915 -279.284C109.101 -272.728 104.282 -266.103 99.3941 -259.414C104.152 -266.112 108.842 -272.746 113.592 -279.306L111.455 -279.453C106.344 -272.292 101.164 -265.066 95.9796 -257.77C100.706 -265.027 105.437 -272.354 110.095 -279.547L108.412 -279.663C105.117 -274.602 101.823 -269.542 98.524 -264.412C71.3634 -224.611 45.1045 -186.835 23.1946 -155.438C19.925 -150.794 16.6513 -146.08 13.3817 -141.435C25.5286 -159.66 37.9636 -178.353 50.4842 -197.387C68.2995 -224.474 86.3506 -252.241 104.074 -279.961L99.2178 -280.295C66.6782 -235.368 32.7064 -188.244 -0.0648676 -142.707L-0.235436 -139.867ZM78.6106 -233.782C77.1095 -231.52 75.6042 -229.189 74.103 -226.927C70.6915 -222.084 67.2841 -217.309 63.8725 -212.466C68.7121 -219.437 73.6248 -226.543 78.6106 -233.782Z" fill="#9195B6"/>
<path d="M1.74908 -172.912L1.5369 -169.379C13.8638 -186.27 26.3284 -203.291 38.7889 -220.242C26.266 -202.252 13.7431 -184.261 1.34967 -166.262L1.15412 -163.006C11.1257 -177.485 21.162 -191.96 31.263 -206.43C41.4371 -221.034 51.6801 -235.704 61.9231 -250.373C51.939 -235.686 42.0887 -221.059 32.3072 -206.497C21.6009 -190.608 11.1701 -174.978 1.01503 -159.607L0.848612 -156.836C12.7199 -174.801 23.6455 -191.093 32.9279 -204.924C49.9228 -230.259 67.3311 -255.983 84.7186 -281.361L81.7403 -281.566C77.9717 -276.19 74.1342 -270.75 70.2926 -265.24C47.7328 -234.931 24.6741 -203.892 1.74908 -172.912Z" fill="#9195B6"/>
<path d="M19.1228 -177.492C12.8676 -168.6 6.61654 -159.778 0.43855 -151.09L0.292944 -148.665C16.2838 -171.357 33.0054 -195.389 50.4577 -220.762C63.4796 -239.483 77.4348 -259.671 91.8408 -280.871L90.2869 -280.978C78.0188 -262.9 65.5398 -244.559 52.9355 -226.296C41.325 -209.425 30.0109 -193.16 19.1228 -177.492Z" fill="#9195B6"/>
<path d="M14.2569 -218.799C10.6784 -213.341 7.0999 -207.882 3.52557 -202.494L3.42987 -200.9C7.07728 -206.423 10.5869 -211.817 14.0881 -217.071C28.755 -239.367 43.4093 -261.454 57.9134 -283.204L57.007 -283.266C42.5071 -261.586 28.2056 -239.961 14.2569 -218.799Z" fill="#9195B6"/>
<path d="M6.0512 -200.163C5.06154 -198.84 4.13246 -197.443 3.1428 -196.12L3.1012 -195.427C4.16809 -196.954 5.23498 -198.481 6.29772 -199.938C10.131 -205.309 13.9644 -210.68 17.7977 -216.051C12.8351 -208.114 7.87246 -200.177 2.90984 -192.241L2.79333 -190.301C10.8479 -203.173 18.9067 -216.114 26.9572 -228.917C39.8769 -247.019 52.7883 -264.983 65.493 -282.752L65.1692 -282.775C53.5314 -266.532 41.7559 -250.159 29.903 -233.583C40.3273 -250.188 50.7473 -266.723 61.0902 -283.055L59.9895 -283.131C47.0578 -262.664 33.9758 -241.86 20.8897 -220.986C15.9206 -214.024 10.9556 -207.13 6.0512 -200.163Z" fill="#9195B6"/>
</g>
</g>
<defs>
<linearGradient id="paint0_linear_1921_1439" x1="182.5" y1="6" x2="182.5" y2="227" gradientUnits="userSpaceOnUse">
<stop stop-color="#BFC0D1"/>
<stop offset="0.505208" stop-color="#D3D5E9"/>
<stop offset="0.708333" stop-color="#DCDDED"/>
<stop offset="1" stop-color="#B4B6CF"/>
</linearGradient>
<linearGradient id="paint1_linear_1921_1439" x1="182.5" y1="6" x2="182.5" y2="227" gradientUnits="userSpaceOnUse">
<stop stop-color="white"/>
<stop offset="0.1875" stop-color="#C1C3DA"/>
<stop offset="0.338542" stop-color="#D1D3E0"/>
<stop offset="0.567708" stop-color="white"/>
</linearGradient>
<linearGradient id="paint2_linear_1921_1439" x1="185" y1="5.79297" x2="185" y2="241.833" gradientUnits="userSpaceOnUse">
<stop stop-color="#454868"/>
<stop offset="1" stop-color="#2F3144"/>
</linearGradient>
<linearGradient id="paint3_linear_1921_1439" x1="185" y1="5.79297" x2="185" y2="241.833" gradientUnits="userSpaceOnUse">
<stop stop-color="#7E80A3"/>
<stop offset="0.1875" stop-color="#636684"/>
<stop offset="0.338542" stop-color="#54577A"/>
<stop offset="0.567708" stop-color="#34364C"/>
</linearGradient>
</defs>
</svg>
