<svg width="704" height="430" viewBox="0 0 704 430" fill="none" xmlns="http://www.w3.org/2000/svg">
<path d="M11 6H158.179C163.492 6 168.459 8.63791 171.435 13.0402L351.158 278.942L538.828 12.7799C541.826 8.52871 546.703 6 551.904 6H693.156L430.835 377.914C413.061 401.888 387.932 424.019 348.707 424.019C310.707 424.019 285.578 403.732 267.804 377.914L11 6Z" fill="url(#paint0_linear_23_801)"/>
<path d="M11 3.22H5.70209L8.71237 7.5796L265.514 379.49C265.515 379.491 265.516 379.492 265.517 379.493C283.617 405.785 309.501 426.799 348.707 426.799C389.187 426.799 415.042 403.885 433.068 379.569L433.088 379.543L433.107 379.516L695.427 7.60234L698.518 3.22H693.156H551.904C545.799 3.22 540.074 6.18807 536.556 11.1779L351.207 274.049L173.738 11.4834C170.245 6.31624 164.415 3.22 158.179 3.22H11Z" stroke="url(#paint1_linear_23_801)" stroke-opacity="0.36" stroke-width="5.56"/>
<mask id="mask0_23_801" style="mask-type:alpha" maskUnits="userSpaceOnUse" x="8" y="4" width="689" height="422">
<path d="M11 6H166.676L351.158 278.942L543.608 6H693.156L430.835 377.914C413.061 401.888 387.932 424.019 348.707 424.019C310.707 424.019 285.578 403.732 267.804 377.914L11 6Z" fill="url(#paint2_linear_23_801)"/>
<path d="M11 5.22048H9.51445L10.3585 6.44292L267.162 378.356C285.028 404.308 310.368 424.798 348.707 424.798C388.284 424.798 413.617 402.448 431.461 378.378L431.467 378.371L431.472 378.363L693.793 6.4493L694.659 5.22048H693.156H543.609H543.204L542.971 5.5508L351.172 277.57L167.322 5.56348L167.09 5.22048H166.676H11Z" stroke="url(#paint3_linear_23_801)" stroke-opacity="0.6" stroke-width="1.55904"/>
</mask>
<g mask="url(#mask0_23_801)">
<g opacity="0.2">
<path d="M437.087 671.799C416.008 696.931 395.874 720.769 376.571 743.182L382.95 743.592C389.213 736.233 395.599 728.882 402 721.286C396.711 728.831 391.299 736.367 386.018 743.789L390.802 744.097C404.756 724.42 418.855 704.383 433.347 684.001C437.889 678.503 442.553 673.013 447.095 667.515C429.688 693.006 412.028 718.604 394.36 744.325L409.451 745.295C412.556 741.06 415.793 736.709 418.898 732.474C435.032 711.459 451.85 689.379 469.352 666.234C458.888 681.454 448.424 696.674 438.091 711.779C429.106 723.151 420.375 734.417 411.905 745.453L424.419 746.257C435.686 731.951 447.231 717.17 459.175 701.923C448.727 716.897 438.286 731.749 428.099 746.493L433.007 746.809C454.715 717.651 477.083 687.797 499.843 657.599C478.302 687.999 457.038 717.924 436.442 747.029L442.576 747.423C502.296 667.366 565.12 583.073 627.415 499.361C567.044 583.812 506.182 668.231 448.711 747.818L453.864 748.149C533.513 637.834 617.645 521.032 697.844 407.919L699.792 377.615C680.367 403.839 660.68 430.293 641.002 456.624C632.579 466.924 624.279 477.231 615.978 487.539C611.298 493.275 606.74 499.018 602.191 504.639C620.911 477.877 639.631 451.115 658.221 424.468C672.388 405.298 686.425 386.242 700.446 367.432L702.109 341.545C699.427 344.945 696.745 348.345 694.185 351.754C696.883 348.108 699.581 344.462 702.157 340.809L702.779 331.116C679.066 362.732 655.206 394.707 631.207 426.921C612.328 452.317 593.172 478.189 573.878 504.298C556.07 526.438 538.663 548.11 521.67 569.07C531.442 555.038 541.091 540.998 550.862 526.965C606.102 447.605 657.243 374.511 704.131 308.166L704.762 298.351C696.905 309.426 689.04 320.624 681.045 331.937C599.504 444.841 514.964 562.233 437.087 671.799ZM513.491 571.747C502.497 587.549 491.495 603.473 480.362 619.512C477.696 622.667 475.152 625.83 472.485 628.985C486.015 610.143 499.684 591.064 513.491 571.747ZM436.792 691.738C452.691 668.613 468.852 645.259 485.151 621.668C492.767 612.425 500.391 603.059 508.268 593.587C484.1 626.528 460.177 659.485 436.792 691.738ZM517.001 616.816C521.697 610.834 526.516 604.861 531.212 598.88C522.117 611.97 513.022 625.06 503.812 638.02C491.167 654.578 478.678 670.653 466.718 686.146C483.215 663.306 500.104 640.122 517.001 616.816ZM491.237 663.083C497.879 653.654 504.53 644.102 511.18 634.551C513.47 631.495 515.884 628.447 518.305 625.277C544.931 590.522 571.849 555.047 598.921 519.089C591.341 529.69 583.639 540.282 576.059 550.883C548.333 587.414 519.924 625.011 491.237 663.083ZM564.75 558.164C567.056 554.862 569.355 551.684 571.661 548.383C574.743 544.515 577.948 540.656 581.038 536.666C575.527 543.826 570.138 550.995 564.75 558.164ZM666.961 430.327C675.661 419.552 684.345 409.022 692.907 398.485C677.458 418.435 661.601 438.975 645.337 460.105C652.501 450.217 659.796 440.215 666.961 430.327ZM686.586 412.493C624.276 496.449 560.098 582.627 498.887 664.806C522.996 630.875 547.505 596.478 572.274 561.85C580.222 551.273 588.285 540.827 596.356 530.258C627.709 489.032 657.824 449.82 686.586 412.493ZM606.405 471.648C608.142 469.542 609.764 467.305 611.501 465.2C604.49 474.605 597.48 484.01 590.339 493.529C595.735 486.238 601.009 478.939 606.405 471.648ZM612.267 474.365C606.04 483.081 599.813 491.798 593.578 500.636C557.43 551.287 519.855 603.078 482.057 654.485C500.663 627.592 519.383 600.83 538.218 574.199C562.747 541.404 587.438 508.003 612.267 474.365Z" fill="#9195B6"/>
<path d="M519.586 712.703C509.149 725.584 498.859 738.105 488.952 750.403L493.492 750.695C493.761 750.343 494.022 750.113 494.291 749.761C494.022 750.113 493.883 750.351 493.614 750.703L498.767 751.034C504.539 743.644 510.312 736.253 516.214 728.748C511.048 736.301 505.889 743.73 500.73 751.16L504.411 751.397C519.064 730.41 533.749 708.932 548.688 687.347C563.983 667.88 579.416 648.175 594.858 628.348C601.397 620.514 607.807 612.795 614.347 604.961C584.497 645.791 555.902 684.362 528.798 720.81C520.75 731.011 512.581 741.204 504.411 751.397L509.318 751.712C515.921 742.897 522.663 733.844 529.535 724.676C588.116 650.828 643.78 578.271 688.608 519.062C689.546 517.891 690.361 516.711 691.299 515.539L691.669 509.773C680.864 522.63 670.059 535.487 659.124 548.459C664.667 540.807 670.209 533.156 675.89 525.267C681.255 518.467 686.62 511.666 691.854 504.98L692.414 496.269C660.356 536.958 628.175 577.638 596.157 617.713C615.739 589.035 635.207 560.227 654.806 531.304C668.015 511.702 681.086 492.339 693.904 473.082L694.455 464.493C636.573 546.64 578.153 629.492 522.644 709.204C521.461 710.36 520.524 711.532 519.586 712.703ZM671.354 536.433C647.541 567.672 621.307 602.082 593.376 637.985C609.434 616.226 625.916 593.632 642.674 570.562C652.272 559.229 661.756 547.766 671.354 536.433ZM619.714 592.371C605.625 610.314 591.668 628.143 577.848 645.734C576.111 647.84 574.383 649.823 572.646 651.929C573.738 650.274 574.822 648.742 575.913 647.088C590.378 629.045 604.98 610.765 619.714 592.371ZM667.503 506.249C667.234 506.601 667.096 506.839 666.827 507.191C633.865 556.199 601.342 604.125 569.657 650.505C560.55 661.869 551.45 673.111 542.481 684.238C583.313 625.881 625.473 566.008 667.503 506.249ZM501.219 743.554C504.748 738.483 508.407 733.298 511.944 728.104C520.098 718.157 528.375 708.217 536.659 698.155C524.707 713.525 512.894 728.658 501.219 743.554Z" fill="#9195B6"/>
<path d="M619.341 529.148C562.47 603.229 506.189 677.718 453.864 748.149L456.931 748.346C509.256 677.915 565.268 603.779 621.34 530.632C626.175 524.413 631.025 517.949 636.121 511.501C577.696 592.504 519.671 673.04 465.396 748.89L468.709 749.103C538.682 651.348 614.411 546.448 688.11 444.375C690.793 440.974 693.475 437.574 696.165 434.051L696.559 427.917C691.693 434.626 686.958 441.221 682.092 447.93C658.587 478.204 637.358 505.667 619.341 529.148Z" fill="#9195B6"/>
<path d="M486.253 750.23C552.712 653.481 624.417 551.772 694.967 452.7L695.259 448.16C623.632 548.642 550.835 652.006 483.431 750.049L486.253 750.23Z" fill="#9195B6"/>
<path d="M541.831 753.801C590.11 694.567 639.413 632.812 687.32 571.706L687.564 567.903C637.106 632.294 587.126 694.992 539.254 753.636L541.831 753.801Z" fill="#9195B6"/>
<path d="M525.268 752.737L527.721 752.895C574.485 692.331 626.414 624.216 680.86 551.457C683.689 547.697 686.525 543.814 689.354 540.053L689.598 536.25C687.039 539.658 684.471 543.189 681.911 546.597C628.265 618.421 575.39 687.831 525.268 752.737Z" fill="#9195B6"/>
<path d="M559.497 754.936C599.095 700.442 639.868 644.914 680.624 589.632C640.081 645.421 599.669 701.095 560.724 755.015L561.338 755.055C602.158 698.791 644.331 640.643 686.749 582.511L687.056 577.726C643.463 636.891 599.715 696.54 557.289 754.795L559.497 754.936Z" fill="#9195B6"/>
<path d="M576.674 756.04C611.675 711.722 647.8 665.258 684.387 617.346L684.6 614.034C648.151 661.708 610.95 709.581 574.335 756.013L576.666 756.163L576.674 756.04Z" fill="#9195B6"/>
<path d="M611.026 758.247C635.685 725.338 659.407 693.6 681.376 664.213L681.573 661.146C656.621 694.776 632.492 727.104 609.186 758.129L611.026 758.247Z" fill="#9195B6"/>
<path d="M587.348 756.726C619.255 714.55 651.609 671.17 683.709 627.897L683.891 625.075C650.16 670.707 617.268 714.792 585.499 756.73L587.34 756.849L587.348 756.726Z" fill="#9195B6"/>
<path d="M528.948 752.973L530.666 753.084C571.534 699.903 614.108 645.107 656.895 590.818C667.624 577.217 678.223 563.73 688.814 550.367L688.98 547.79C677.989 561.621 666.991 575.574 655.846 589.888C612.79 644.53 569.955 699.555 528.948 752.973Z" fill="#9195B6"/>
<path d="M197.527 -212.851C135.501 -133.311 78.9144 -59.8274 28.1755 7.00968C12.2198 27.1738 -3.73597 47.3379 -19.4464 67.5178L-20.826 88.988C5.47542 55.4446 32.5839 20.8443 60.2304 -14.4606C103.841 -70.0523 149.334 -128.11 194.966 -186.405C133.154 -102.54 53.8207 6.68645 -22.5919 116.47L-23.9715 137.94C2.77681 103.194 31.2541 66.4638 61.1755 28.3485C31.6625 69.6931 2.84188 109.85 -24.6258 148.123L-27.8029 197.566C-26.3114 195.445 -24.8199 193.323 -23.3284 191.201C-22.7904 190.497 -22.1297 189.8 -21.5916 189.096C-23.629 192.044 -25.7891 194.986 -27.8265 197.934L-29.1746 218.914C-27.1687 216.456 -25.1628 213.998 -23.1491 211.417C-23.8335 212.482 -24.5179 213.546 -25.325 214.603C-26.6701 216.365 -28.0152 218.126 -29.2298 219.773L-36.4746 332.523C4.28661 279.088 51.8129 216.234 104.19 146.915C52.345 223.29 3.91904 296.312 -38.0065 362.114C-38.145 362.351 -38.2755 362.466 -38.414 362.704L-39.9119 386.014C-29.7012 370.901 -18.9604 355.207 -7.82002 339.045C48.9532 268.407 114.628 185.776 184.793 96.5335C167.263 122.017 150.272 146.796 133.818 170.87C99.2175 218.54 65.5308 265.407 33.3118 310.52C6.6231 346.256 -18.2735 379.027 -41.3703 408.711L-45.0676 466.252C-36.5579 454.602 -27.6485 442.486 -18.6007 430.132C-27.6643 442.731 -36.4667 455.101 -45.1307 467.233L-46.2581 484.778C-43.9753 481.844 -41.6846 478.789 -39.3939 475.733C12.421 407.486 69.9047 329.626 125.822 253.143C62.2143 341.944 3.43377 424.649 -47.0227 496.678L-48.1107 513.609C32.183 399.024 134.56 255.183 244.637 102.72C314.147 6.41338 379.958 -84.094 439.519 -165.517C439.78 -165.747 439.926 -166.107 440.187 -166.336C391.919 -95.7679 338.962 -19.3411 281.994 62.0021C180.266 207.24 76.3218 352.459 -9.43658 469.65C-23.4224 485.999 -36.3164 500.692 -48.1343 513.977L-49.7189 538.637C-48.7734 537.343 -47.8278 536.049 -46.7596 534.762C-31.2473 513.83 -14.7895 491.604 2.23004 468.305C5.96486 463.864 9.8224 459.431 13.6957 454.752C45.5564 417.13 80.6017 374.047 117.87 327.041C96.4673 357.203 75.4798 386.653 55.3074 414.924C45.959 428.121 36.6185 441.195 27.4086 454.154C23.9507 458.121 20.4849 462.21 17.1575 466.062C-8.13182 495.358 -30.4068 519.921 -49.8451 540.6L-50.6491 553.114C-40.3542 542.442 -29.6282 530.812 -18.2336 518.362C-27.4356 531.199 -36.5071 543.921 -45.3016 556.168C-47.3154 558.749 -49.3213 561.207 -51.3271 563.666L-55.4186 627.34C-55.2802 627.103 -55.019 626.873 -54.8806 626.636C-41.1086 609.781 -25.6076 590.943 -8.5161 570.359C-25.3297 594.287 -41.1978 616.92 -56.1203 638.259L-58.0912 668.931C-46.3521 656.873 -31.3093 641.332 -12.1322 620.882C-15.661 625.953 -19.182 630.901 -22.5882 635.979C-36.0202 651.378 -47.9687 664.777 -58.5799 676.538L-59.2579 687.089C-57.6674 685.343 -56.0769 683.598 -54.4864 681.852C-55.1629 682.794 -55.7088 683.621 -56.3853 684.563C-57.323 685.735 -58.3755 686.776 -59.3131 687.948L-60.7163 709.786C-58.4178 706.608 -56.1193 703.429 -53.8129 700.128C-56.1587 704.043 -58.5045 707.957 -60.8425 711.749L-61.0553 715.062L-33.2053 716.851C-29.3084 711.804 -25.2651 706.397 -20.9528 700.638C-19.655 699.613 -18.3571 698.587 -17.0514 697.439C-21.3041 704.188 -25.4183 710.699 -29.2793 717.104L-23.7584 717.458C-17.4368 707.27 -10.854 696.852 -4.1486 686.442C26.8203 658.865 66.101 618.887 113.832 566.271C74.8872 620.191 39.0719 669.508 8.15416 711.625C6.2631 714.213 4.37992 716.679 2.61943 719.153L8.8765 719.555C48.0271 666.264 95.3509 600.809 146.904 528.974C166.575 506.584 187.592 482.434 209.577 456.62C155.24 533.451 105.044 605.251 62.4726 667.685C44.4671 689.073 29.3219 706.209 16.6058 720.052L31.5737 721.014C32.9425 718.884 34.4339 716.763 35.9254 714.641C40.8038 709.657 45.8285 704.313 50.9918 698.732C45.3186 706.498 39.7839 714.027 34.5103 721.326L45.3068 722.019C46.1138 720.963 46.9288 719.783 47.6211 718.596C55.4071 708.624 63.4699 698.178 71.7939 687.502C101.755 648.774 133.492 607.325 166.083 564.084C167.951 561.864 169.695 559.635 171.563 557.414C163.105 570.176 154.769 582.945 146.573 595.477C122.409 630.266 99.7046 663.425 78.9748 694.616C73.1711 702.497 66.1449 712.148 58.4422 722.74L64.3312 723.119C69.3909 715.313 74.7039 707.4 80.1554 699.25C74.9572 707.293 70.0122 715.23 65.19 723.174L89.3594 724.727C95.4637 716.003 101.952 707.057 108.464 697.743C116.218 688.263 124.249 678.307 132.672 668.007C157.419 637.567 184.603 603.711 213.801 567.274C188.47 602.974 164.353 637.027 141.85 668.967C128.964 683.538 117.016 696.937 105.76 709.15C100.719 714.739 95.8249 719.968 91.1997 724.845L94.635 725.066C98.8684 720.533 103.24 715.763 107.743 710.879C114.358 703.789 121.128 696.216 128.297 688.176C119.625 700.431 111.337 712.465 103.203 724.015C102.803 724.482 102.404 724.949 102.004 725.416L105.439 725.637C107.884 722.098 110.46 718.445 112.905 714.906C136.69 686.006 164.088 652.656 193.907 616.135C196.981 612.391 200.185 608.531 203.267 604.664C182.121 632.748 162.221 658.696 143.429 682.743C132.814 696.474 122.5 709.363 112.716 721.67C111.395 723.063 110.073 724.456 108.875 725.858L148.993 728.436C150.877 725.97 152.645 723.373 154.536 720.784C155.335 719.85 156.126 719.038 156.926 718.104C154.489 721.52 152.044 725.059 149.484 728.467L161.139 729.216C191.563 689.039 223.786 645.774 256.441 601.551C260.176 597.11 263.918 592.546 267.653 588.104C232.159 638.181 198.547 685.792 167.511 729.749L177.817 730.411C228.919 657.93 287.03 576.044 349.399 489.258C377.751 454.491 406.402 418.881 434.947 383.018C347.643 507.008 260.635 628.307 186.753 729.384C186.353 729.851 185.823 730.433 185.424 730.9L195.852 731.57C199.187 727.596 202.653 723.506 206.119 719.417C237.98 681.796 273.025 638.713 310.293 591.707C289.037 621.509 268.441 650.614 248.53 678.655C235.134 695.411 222.153 711.454 209.849 726.556C208.373 728.432 206.775 730.301 205.299 732.177L207.139 732.295C215.701 721.758 224.531 710.868 233.623 699.749C229.018 706.229 224.544 712.594 219.947 718.951C216.489 722.917 213.023 727.006 209.696 730.858C209.296 731.325 208.896 731.792 208.497 732.259L248.37 734.821C300.26 663.5 356.92 586.941 414.895 509.112C357.491 589.565 303.315 665.791 254.251 735.322L269.71 736.316C277.013 726.19 284.439 716.073 292.126 705.726C297.467 699.293 302.931 692.869 308.533 686.206C331.349 658.968 355.226 630.566 379.649 601.337C344.977 650.112 312.711 695.961 283.819 737.222L299.155 738.208C358.924 651.624 429.134 554.008 508.662 447.504C511.768 443.269 514.996 439.041 518.101 434.806C532.388 417.614 546.682 400.3 560.984 382.863C545.563 404.293 529.865 426.199 513.637 448.686C503.22 463.17 492.657 478.013 481.972 492.849C414.937 581.307 353.58 663.846 299.523 738.231L321.361 739.635C323.905 736.472 326.449 733.309 329.116 730.154C326.817 733.333 324.519 736.511 322.22 739.69L343.322 741.046C404.905 660.738 473.491 571.148 543.6 478.946C571.247 447.46 599.033 415.737 626.819 384.013C565.827 468.548 503.842 555.112 445.37 636.852C419.401 672.88 393.963 708.327 369.332 742.717L375.589 743.119C399.674 709.556 424.436 675.052 449.49 639.827C518.517 543.366 592.549 439.959 663.796 341.547C677.62 325.804 691.321 310.053 705.137 294.433L705.704 285.599C703.184 288.394 700.656 291.312 698.258 294.114C700.826 290.583 703.393 287.052 705.83 283.636L706.461 273.821C691.325 294.654 675.911 315.962 660.368 337.384C657.04 341.236 653.721 344.965 650.393 348.817C630.315 371.796 609.982 394.881 589.773 417.975C629.205 366.057 668.66 313.771 707.202 262.289L708.755 238.119C688.808 264.803 668.338 291.945 647.714 319.571C633.563 338.495 619.412 357.42 605.138 376.337C603.662 378.214 602.194 379.967 600.718 381.844C605.185 375.601 609.521 369.474 613.849 363.469C645.138 319.405 677.389 273.801 709.263 228.297L710.398 210.63C700.967 223.205 691.404 235.896 681.842 248.586C687.8 240.222 693.758 231.858 699.586 223.609C703.221 218.792 706.857 213.975 710.493 209.157L711.896 187.319C710.959 188.491 709.89 189.777 708.953 190.949C709.906 189.532 710.99 188 711.944 186.583L712.874 172.106C711.659 173.752 710.445 175.399 709.222 177.168C650.226 251.729 588.144 332.128 527.657 412.629C524.291 417.094 520.785 421.796 517.28 426.499C508.465 437.143 499.781 447.673 490.974 458.194C498 448.544 505.157 438.778 512.191 429.005C560.536 363 608.24 299.294 653.844 239.519C674.179 214.462 694.092 190.24 713.197 167.076L714.174 151.862C700.747 169.109 686.92 186.823 672.938 205.019C667.32 211.927 661.702 218.834 656.084 225.742C676.356 197.847 695.812 171.133 714.569 145.728L715.996 123.521C644.695 213.183 571.797 308.533 511.726 388.321C582.715 288.168 653.202 190.077 717.411 103.409L719.098 77.1536C701.964 100.322 684.43 123.957 666.635 147.822C684.425 122.109 702.093 96.388 719.492 71.0192L721.179 44.764C667.926 120.063 610.684 199.91 553.343 279.382C557.141 273.959 560.939 268.536 564.745 262.99C617.726 190.015 671.079 115.092 721.266 43.4146L724.112 -0.875574C717.478 8.43044 710.713 17.8512 703.801 27.6322C680.724 55.0999 656.408 84.5824 630.87 115.834C654.389 81.496 677.101 48.2147 698.622 16.212C707.52 6.18905 716.279 -3.59633 724.9 -13.1443L725.105 -16.3342C721.256 -12.0234 717.283 -7.72051 713.426 -3.28701C717.438 -8.20338 721.327 -13.1276 725.2 -17.8065L728.763 -73.2611C703.792 -37.4147 677.077 0.660226 649.285 40.1444C618.117 80.3972 585.628 122.043 552.609 164.271C612.149 81.2456 670.677 -1.3525 723.432 -76.5604C725.422 -78.7732 727.42 -81.1087 729.41 -83.3215L731.578 -117.061C731.57 -116.938 731.447 -116.946 731.439 -116.823C723.839 -107.825 716.108 -98.7131 708.362 -89.3553C716.357 -100.668 724.23 -111.989 731.956 -122.95L734.298 -159.388C729.764 -154.012 725.214 -148.391 720.411 -142.663C702.243 -120.67 682.853 -96.9077 662.241 -71.3759C689.629 -108.422 713.782 -141.118 734.976 -169.939L735.48 -177.791C705.385 -136.976 672.046 -91.6889 636.44 -43.7137C645.405 -56.689 654.239 -69.5494 662.942 -82.2951C681.71 -109.793 699.394 -135.76 715.756 -160.333C722.62 -169.378 729.468 -178.177 736.056 -186.747L737.277 -205.764C733.689 -201.682 730.101 -197.601 726.374 -193.282C730.156 -198.46 733.807 -203.523 737.459 -208.585L738.531 -225.271C721.658 -202.332 703.186 -177.525 683.638 -151.309C676.636 -142.027 669.503 -132.63 662.109 -123.003C684.686 -154.198 706.204 -184.23 726.63 -212.607C727.306 -213.549 727.975 -214.369 728.651 -215.311C731.971 -219.04 735.29 -222.769 738.602 -226.375L739.288 -237.049C735.937 -232.829 732.578 -228.487 729.089 -224.03C732.633 -229.346 736.047 -234.547 739.461 -239.748L740.005 -248.213C729.901 -232.847 719.406 -217.137 708.764 -201.066C703.716 -195.354 698.414 -189.535 693.219 -183.463C709.661 -209.263 725.579 -234.603 740.845 -259.37L741.507 -269.676C736.416 -261.379 731.317 -252.96 725.965 -244.434C709.468 -217.776 691.512 -189.486 672.365 -159.918C648.053 -132.406 621.881 -102.797 594.495 -71.5405C615.858 -101.089 636.798 -129.803 657.07 -157.698C685.451 -196.774 711.273 -232.443 734.65 -264.573C737.079 -267.866 739.501 -271.037 741.922 -274.207L742.521 -283.532C725.149 -260.502 704.933 -233.466 681.571 -201.582C644.981 -151.699 603.192 -93.7726 556.465 -28.0328C539.983 -9.25769 523.224 9.99245 506.08 29.4643C553.381 -35.6226 598.881 -97.6222 640.136 -152.996C680.438 -206.952 714.458 -251.333 742.758 -287.212L743.357 -296.536C715.481 -261.493 680.385 -215.702 635.909 -156.224C584.953 -87.9225 527.552 -9.44047 468.205 72.4891C464.878 76.3407 461.559 80.0696 458.231 83.9212C438.152 106.9 417.82 129.986 397.611 153.08C466.659 62.0414 535.893 -29.9707 600.233 -116.754C613.178 -134.154 625.593 -150.974 637.608 -167.325C651.866 -185.997 665.456 -203.849 678.392 -221.128C703.574 -254.497 725.42 -283.891 744.184 -309.419L745.422 -328.681C737.636 -318.709 729.435 -308.026 720.426 -296.285C649.59 -204.253 555.396 -78.4878 455.56 54.5526C441.409 73.4775 427.257 92.4025 412.983 111.319C411.508 113.196 410.04 114.949 408.687 116.833C413.153 110.591 417.489 104.464 421.817 98.4589C482.22 13.5174 545.415 -76.5421 605.014 -162.398C613.401 -174.055 621.78 -185.59 629.898 -196.894C675.55 -253.587 715.237 -301.793 746.053 -338.495L749.214 -387.693C745.163 -382.163 740.72 -376.289 736.254 -370.047C727.648 -360.744 718.382 -350.745 708.685 -339.788C723.259 -359.548 736.343 -377.186 747.95 -392.948C748.603 -393.523 749.133 -394.104 749.786 -394.678L750.606 -407.438C749.668 -406.266 748.723 -404.972 747.908 -403.792C748.869 -405.332 749.838 -406.995 750.677 -408.542L751.946 -428.295C723.306 -394.778 684.562 -345.896 636.652 -282.82C628.312 -271.898 619.695 -260.502 610.809 -248.754C514.785 -132.839 404.278 10.973 319.295 123.778C394.75 17.3828 469.557 -86.5906 536.841 -177.003C604.923 -268.35 657.396 -335.322 697.446 -381.534C722.597 -410.593 740.121 -428.315 752.256 -438.87L752.895 -448.807C734.717 -434.33 706.084 -404.755 659.28 -347.397C671.888 -365.313 683.436 -382.064 693.916 -397.529C714.987 -426.358 731.975 -449.166 743.966 -465.15L728.262 -466.159C727.455 -465.102 726.763 -463.915 725.956 -462.858C712.693 -452.006 694.825 -434.676 670.168 -407.556C681.502 -424.814 693.536 -443.382 705.578 -462.073C706.801 -463.842 708.023 -465.611 709.245 -467.381L678.328 -469.367C675.983 -465.453 673.514 -461.546 670.923 -457.647C649.411 -435.376 617.676 -399.718 570.544 -342.997C608.025 -393.316 640.348 -436.205 666.435 -470.255L643.248 -471.745C639.714 -468.522 636.165 -465.055 632.493 -461.595C634.938 -465.133 637.253 -468.557 639.69 -471.973L629.752 -472.612C619.696 -457.982 608.971 -442.533 597.83 -426.371C585.407 -413.249 572.168 -398.946 558.499 -383.686C562.012 -388.512 565.517 -393.214 569.022 -397.917C589.808 -426.147 608.288 -451.077 624.591 -472.82L606.679 -473.971C563.829 -414.881 511.596 -343.952 452.882 -264.199C502.218 -336.054 550.803 -407.711 595.76 -474.673L547.421 -477.779C505.16 -422.101 458.235 -360.932 408.96 -297.697C438.128 -339.433 468.167 -383.208 497.893 -427.865C512.587 -445.646 526.481 -462.493 539.692 -478.276L522.147 -479.403C516.542 -470.77 510.683 -462.03 504.939 -453.16C497.39 -443.05 489.58 -432.711 481.763 -422.249C468.667 -406.336 455.172 -389.956 441.278 -373.109C453.609 -390.549 465.679 -407.76 477.603 -424.611C491.984 -443.274 506.104 -461.709 519.939 -479.545L505.953 -480.444C493.075 -462.176 479.913 -443.311 466.352 -423.978C418.774 -362.236 367.983 -296.511 315.855 -229.147C307.262 -218.119 298.792 -207.083 290.191 -195.932C329.872 -249.805 370.153 -305.364 409.438 -360.741C425.512 -382.746 441.194 -404.406 456.224 -425.492C464.54 -436.045 472.725 -446.483 480.78 -456.806C487.221 -465.016 493.524 -472.988 499.695 -480.846L463.257 -483.187C461.52 -481.081 459.653 -478.861 457.786 -476.64C459.285 -478.884 460.776 -481.006 462.398 -483.242L450.007 -484.039C380.61 -395.24 307.846 -301.976 239.493 -214.096C292.264 -289.549 342.645 -362.323 389.26 -430.164C404.508 -448.895 419.601 -467.144 434.295 -484.925L406.813 -486.691C368.379 -434.955 326.617 -379.368 281.943 -320.642C254.581 -285.934 226.266 -249.81 197.527 -212.851ZM-31.5468 702.544C-32.1918 702.996 -32.8446 703.57 -33.4896 704.021C-31.6301 701.923 -29.7705 699.825 -27.7726 697.489C-28.995 699.259 -30.2096 700.905 -31.5468 702.544ZM31.3027 713.728C30.5114 714.54 29.72 715.351 28.9287 716.162C30.1275 714.761 31.3342 713.237 32.6636 711.721C32.2482 712.434 31.8407 713.023 31.3027 713.728ZM170.309 699.623C170.171 699.86 170.04 699.975 169.779 700.205C171.124 698.443 172.347 696.674 173.7 694.79C172.608 696.444 171.393 698.091 170.309 699.623ZM491.723 490.642C500.462 479.254 509.217 467.62 518.095 455.995C528.864 441.78 539.617 427.811 550.37 413.842C544.381 422.697 538.268 431.543 532.279 440.398C504.629 477.674 477.157 514.099 450.231 549.696C446.733 554.276 443.121 558.725 439.624 563.305C456.821 539.155 474.272 514.899 491.723 490.642ZM420.819 599.055C408.211 616.97 395.602 634.886 383.255 652.571C372.759 664.463 362.401 676.117 352.181 687.533C374.578 659.159 397.421 629.582 420.819 599.055ZM403.095 639.063C405.37 636.252 407.514 633.557 409.789 630.746C418.565 620.716 427.463 610.693 436.491 600.555C410.242 635.21 384.538 669.039 359.78 701.572C373.903 681.167 388.426 660.295 403.095 639.063ZM398.439 661.678C412.199 643.097 425.844 624.386 439.611 605.683C454.546 586.069 469.505 566.088 484.724 545.876C490.303 539.582 495.889 533.165 501.468 526.871C466.225 573.022 431.66 618.231 398.439 661.678ZM678.351 293.328C635.252 350.554 591.492 408.477 548.155 465.564C541.248 473.374 534.462 481.192 527.554 489.002C549.108 460.328 570.8 431.416 592.492 402.504C621.737 365.331 650.444 328.862 678.351 293.328ZM692.503 243.728C665.257 282.384 637.334 321.983 608.897 361.919C587.772 391.606 564.486 424.235 539.862 458.502C514.4 490.498 489.352 521.781 464.835 552.483C503.673 498.309 543.195 443.071 582.179 388.537C619.419 340.051 656.537 291.556 692.503 243.728ZM666.096 253.981C669.04 250.351 671.853 246.836 674.788 243.328C671.43 247.671 667.948 252.005 664.589 256.348C665.012 255.512 665.55 254.808 666.096 253.981ZM622.269 297.609C620.517 299.96 618.887 302.319 617.134 304.67C614.998 307.243 612.861 309.816 610.84 312.52C614.729 307.595 618.503 302.541 622.269 297.609ZM612.809 322.132C611.725 323.664 610.764 325.204 609.68 326.736C608.873 327.793 608.066 328.849 607.128 330.021C609.027 327.31 610.918 324.721 612.809 322.132ZM705.415 -267.806C703.247 -264.743 700.956 -261.687 698.658 -258.508C690.971 -248.161 682.754 -237.232 674.006 -225.721C648.825 -192.352 621.115 -156.066 591.538 -117.559C632.893 -172.556 671.395 -223.425 705.415 -267.806ZM649.617 -465.422C650.531 -466.226 651.445 -467.029 652.367 -467.956C650.769 -466.087 649.293 -464.211 647.694 -462.343C648.248 -463.293 648.933 -464.357 649.617 -465.422ZM100.393 64.1308C75.5871 97.4008 51.3354 129.721 28.0372 160.624C18.5301 172.455 9.28422 184.057 0.184665 195.299C31.4074 154.188 65.1661 110.036 100.393 64.1308ZM185.856 -90.653C139.315 -29.7059 93.3871 31.2806 49.9242 90.3312C45.6435 95.5998 41.3706 100.746 37.2204 105.9C61.8436 71.6324 88.081 35.2515 116.039 -2.99004C124.965 -15.3519 134.135 -27.698 143.191 -40.1747C165.049 -67.8439 187.185 -95.9881 209.712 -124.477C201.847 -113.279 193.852 -101.966 185.856 -90.653ZM263.57 -142.082C268.927 -148.76 274.407 -155.43 279.878 -161.977C280.946 -163.264 281.892 -164.558 282.952 -165.722C274.288 -153.59 265.755 -141.572 257.229 -129.677C237.63 -104.573 218.161 -79.584 198.839 -54.9549C202.344 -59.6574 205.718 -64.2451 209.224 -68.9476C227.296 -93.2875 245.375 -117.75 263.57 -142.082ZM58.4414 91.9872C58.5799 91.7498 58.841 91.5202 58.9795 91.2827C55.7196 96.001 52.4519 100.842 49.1921 105.56C46.3791 109.075 43.5583 112.713 40.7454 116.228C46.4343 108.216 52.3765 100.098 58.4414 91.9872ZM14.2173 191.643C53.9902 142.088 96.0774 89.1083 138.987 34.8267C129.663 47.6557 120.591 60.3777 111.535 72.8544C91.192 98.0339 70.7023 123.574 50.45 149.252C35.6255 167.148 21.2164 184.331 7.35326 200.688C9.64392 197.632 11.9267 194.699 14.2173 191.643ZM134.641 60.2949C121.482 77.1893 108.454 93.9689 95.5802 110.266C100.177 103.909 104.774 97.5515 109.502 91.0796C117.787 81.0172 126.087 70.7096 134.641 60.2949ZM-4.68143 232.684C-5.21948 233.389 -5.76541 234.216 -6.30346 234.92C-6.83363 235.502 -7.2411 236.092 -7.77127 236.674C-6.82574 235.38 -5.74965 233.971 -4.68143 232.684ZM-2.90911 245.364C1.64067 239.743 6.31311 234.13 10.9856 228.517C1.04741 241.306 -8.62957 253.866 -18.1681 266.189C-13.1793 259.487 -8.05212 252.548 -2.90911 245.364ZM-7.40025 278.83C36.6682 219.942 87.0074 153.572 141.766 81.6957C131.942 94.6158 122.25 107.421 112.687 120.112C71.0797 175.216 30.1485 229.378 -7.40025 278.83ZM71.8287 224.911C76.0262 219.021 80.101 213.124 84.429 207.119C125.796 153.847 168.868 98.9597 212.178 44.211C232.814 18.3112 253.45 -7.58871 273.947 -33.2511C271.503 -29.7124 269.058 -26.1737 266.613 -22.6349C265.675 -21.4632 264.868 -20.4063 263.93 -19.2346C196.401 67.3433 131.209 150.129 71.8287 224.911ZM260.731 51.6427C253.199 61.507 245.658 71.4939 238.117 81.4809C248.51 67.3654 259.018 53.3805 269.534 39.273C266.681 43.4015 263.706 47.5221 260.731 51.6427ZM405.641 -136.772C420.679 -157.981 435.585 -179.075 450.361 -200.054C479.816 -238.569 507.355 -274.127 532.727 -306.621C503.317 -266.872 471.608 -223.943 438.253 -178.411C427.531 -164.932 416.655 -150.971 405.641 -136.772ZM162.485 301.82C174.96 285.99 187.188 270.145 199.401 254.544C183.735 275.959 168.207 297.136 152.94 318.084C147.282 325.605 141.625 333.126 135.983 340.401C144.687 327.655 153.521 314.795 162.485 301.82ZM85.7727 399.018C91.1532 391.972 96.5417 384.804 102.061 377.52C102.199 377.283 102.46 377.053 102.599 376.816C88.7365 396.991 75.1354 416.937 61.8034 436.53C59.3901 439.578 56.9767 442.626 54.6939 445.559C64.7898 430.316 75.1546 414.721 85.7727 399.018ZM222.21 244.676C154.097 340.333 90.2964 430.23 34.1825 509.781C16.1692 531.291 -0.384275 551.17 -15.3393 569.181C53.3434 472.329 136.333 359.888 222.21 244.676ZM335.365 147.848C331.998 152.313 328.493 157.016 324.987 161.718C316.173 172.363 307.358 183.007 298.674 193.536C305.708 183.763 312.857 174.121 320.013 164.355C368.35 98.4728 415.94 34.6364 461.535 -25.0163C491.362 -61.6594 519.836 -96.4184 546.811 -128.933C537.078 -115.514 527.208 -101.858 517.06 -87.7269C458.072 -13.2891 395.982 67.2323 335.365 147.848ZM482.365 -21.3372C479.006 -16.9948 475.525 -12.6604 472.035 -8.20325C472.581 -9.03052 473.119 -9.73512 473.665 -10.5624C476.486 -14.2002 479.43 -17.83 482.365 -21.3372ZM429.969 32.9508C428.216 35.3021 426.586 37.6612 424.826 40.1351C422.689 42.7081 420.553 45.2811 418.409 47.9768C422.306 42.9298 426.072 37.9977 429.969 32.9508ZM420.386 57.4666C419.302 58.9984 418.341 60.5382 417.257 62.0701C416.45 63.1269 415.643 64.1838 414.705 65.3555C416.604 62.644 418.495 60.0553 420.386 57.4666ZM210.672 374.397C212.939 371.709 215.091 368.891 217.358 366.203C226.133 356.172 235.032 346.15 244.068 335.889C217.818 370.545 192.115 404.373 167.356 436.907C181.602 416.51 196.003 395.63 210.672 374.397ZM159.881 422.875C182.155 394.493 204.998 364.916 228.396 334.389C215.787 352.305 203.179 370.22 190.832 387.906C180.336 399.797 169.978 411.451 159.881 422.875ZM247.065 341.009C262 321.396 276.959 301.414 292.178 281.203C297.757 274.909 303.343 268.492 308.922 262.198C273.68 308.349 239.106 353.68 206.016 397.012C219.783 378.309 233.428 359.598 247.065 341.009ZM321.206 184.143C310.789 198.627 300.234 213.348 289.549 228.183C219.294 320.746 155.369 406.816 99.5355 483.921C160.827 394.724 233.482 293.569 316.116 182.83C319.222 178.595 322.45 174.367 325.548 170.255C339.834 153.063 354.136 135.626 368.431 118.312C353.132 139.75 337.304 161.771 321.206 184.143ZM357.955 149.053C351.965 157.908 345.853 166.755 339.864 175.61C312.214 212.885 284.734 249.433 257.815 284.908C254.318 289.488 250.706 293.937 247.209 298.517C264.398 274.49 281.718 250.348 299.177 225.969C307.916 214.58 316.671 202.947 325.549 191.321C336.563 177.122 347.324 163.03 357.955 149.053ZM167.1 377.634C192.739 340.968 219.424 303.384 246.761 265.226C250.895 260.317 255.037 255.286 259.172 250.378C229.746 290.373 198.65 333.34 167.1 377.634ZM230.193 275.741C206.439 304.151 183.215 331.979 160.407 359.094C202.299 303.392 247.472 244.575 295.256 183.461C297.262 181.003 299.153 178.414 301.158 175.956C276.935 209.756 253.226 243.22 230.193 275.741ZM-41.5904 644.121C-43.3036 645.859 -45.0168 647.597 -46.6073 649.342C-39.9177 639.177 -32.8363 628.668 -25.6164 617.921C10.0437 565.268 52.0579 505.755 99.5798 441.052C104.921 434.62 110.392 428.072 115.987 421.533C138.803 394.295 162.68 365.893 187.103 336.664C114.737 439.069 52.2023 528.432 9.84808 589.402C-9.87501 610.679 -26.9394 628.924 -41.5904 644.121ZM-31.5779 689.607C-32.7845 691.131 -33.9833 692.532 -35.3126 694.048C-4.03132 650.107 32.393 598.981 72.3225 543.153C92.6108 518.832 113.991 492.857 136.317 465.588C117.952 490.648 100.133 514.881 82.9909 538.172C37.2532 600.033 -0.580341 650.082 -31.5779 689.607ZM71.1563 670.584C63.0575 679.673 55.4967 688.057 48.4818 695.614C52.5645 689.593 56.7857 683.335 61.0068 677.077C70.6444 665.13 80.9664 652.119 92.0954 638.051C94.6315 635.011 97.1675 631.971 99.7115 628.808C90.0546 642.971 80.5362 656.896 71.1563 670.584ZM98.2416 622.924C124.866 584.35 154.711 541.671 187.654 494.88C205.006 470.248 222.757 445.148 241.038 419.466C245.58 413.968 250.245 408.478 254.909 402.987C219.182 454.774 182.908 507.387 147.288 559.427C131.407 580.335 115.958 600.285 101.193 619.171C100.125 620.457 99.1872 621.629 98.2416 622.924ZM419.836 209.822C413.609 218.538 407.382 227.255 401.147 236.093C364.869 286.859 327.285 338.772 289.48 390.302C308.085 363.41 326.806 336.647 345.641 310.016C370.177 277.098 394.999 243.583 419.836 209.822ZM397.908 228.987C403.304 221.695 408.577 214.396 413.974 207.105C415.711 204.999 417.325 202.885 419.069 200.657C412.059 210.062 405.049 219.467 397.908 228.987ZM494.155 147.95C431.722 231.898 367.667 318.084 306.334 400.255C330.442 366.324 354.951 331.927 379.843 297.307C387.791 286.73 395.862 276.162 403.925 265.715C435.286 224.366 465.401 185.155 494.155 147.95ZM452.898 195.685C460.07 185.674 467.365 175.672 474.53 165.784C483.23 155.009 491.914 144.479 500.476 133.942C485.026 153.892 469.162 174.555 452.898 195.685ZM223.554 511.354C206.696 534.048 190.254 556.028 174.342 577.427C194.586 548.053 215.628 517.744 237.201 486.853C259.985 456.287 283.56 424.909 307.535 393.064C278.698 433.466 250.523 473.172 223.554 511.354ZM383.497 286.454C355.902 322.871 327.37 360.46 298.806 398.54C305.448 389.111 312.098 379.559 318.749 370.008C321.039 366.952 323.453 363.904 325.743 360.848C352.238 326.209 379.287 290.619 406.237 254.653C398.78 265.262 391.2 275.862 383.497 286.454ZM274.294 421.48C290.792 398.641 307.681 375.456 324.578 352.15C329.274 346.169 333.97 340.188 338.789 334.214C329.571 347.297 320.476 360.387 311.381 373.477C298.744 389.912 286.377 405.995 274.294 421.48ZM372.196 293.613C374.502 290.311 376.809 287.01 379.115 283.709C382.197 279.842 385.41 275.859 388.622 271.877C383.103 279.161 377.707 286.452 372.196 293.613ZM287.931 354.969C285.264 358.124 282.713 361.41 280.046 364.565C293.584 345.6 307.253 326.521 321.06 307.204C310.196 322.891 299.064 338.93 287.931 354.969ZM292.843 357.133C300.459 347.89 308.083 338.524 315.837 329.044C291.791 361.993 267.876 394.827 244.491 427.08C260.391 403.956 276.552 380.602 292.843 357.133ZM125.129 605.187C156.585 562.365 190.584 516.381 226.344 467.923C242.478 446.908 259.304 424.705 276.798 401.684C266.335 416.903 255.871 432.123 245.529 447.35C200.827 504.597 160.466 557.564 125.129 605.187ZM157.418 585.826C178.045 556.229 199.725 525.592 222.212 493.898C236.553 475.847 251.318 456.962 266.759 437.134C253.198 456.467 239.897 475.569 226.727 494.557C199.224 531.473 171.858 568.151 145.399 604.148C149.359 598.12 153.327 591.969 157.418 585.826ZM113.51 653.718C129.576 631.836 146.58 608.782 164.252 584.91C146.6 610.385 129.601 635.287 113.286 659.124C106.545 668.176 99.9415 676.992 93.5997 685.577C92.7927 686.634 91.9777 687.814 91.1706 688.871C98.4456 677.265 105.851 665.545 113.51 653.718ZM113.458 666.034C119.792 657.571 126.256 648.993 132.736 640.17C114.708 665.744 97.7485 690.033 82.011 712.551C92.091 697.553 102.579 681.966 113.458 666.034ZM137.685 647.51C135.672 650.091 133.535 652.664 131.529 655.122C117.749 672.099 105.184 687.43 93.6791 701.598C126.63 654.684 164.332 600.93 205.254 543.071C277.78 445.85 356.785 339.806 434.984 234.818C362.835 335.76 289.951 436.653 223.016 529.306C193.005 570.742 164.469 610.301 137.685 647.51ZM547.874 113.335C535.104 131.855 522.342 150.254 509.71 168.537C488.682 194.781 467.385 221.378 446.187 248.35C462.692 225.388 479.312 202.556 495.679 179.832C512.466 158.243 529.913 135.957 547.874 113.335ZM535.692 124.625C567.871 80.1252 599.497 36.5756 629.778 -5.21249C609.95 23.4496 590.114 52.2343 570.294 80.7737C558.496 95.6612 546.837 110.311 535.692 124.625ZM355.836 373.746C364.492 361.737 373.148 349.727 381.805 337.718C389.444 328.107 396.961 318.488 404.593 308.999C425.229 283.099 445.865 257.2 466.363 231.537C463.918 235.076 461.473 238.615 459.028 242.153C458.09 243.325 457.283 244.382 456.346 245.554C422.112 289.428 388.432 332.353 355.836 373.746ZM483.214 260.708C489.378 252.974 495.419 245.231 501.452 237.611C491.083 251.358 480.829 265.236 470.451 279.106C469.122 280.623 467.785 282.261 466.455 283.777C471.99 276.249 477.541 268.475 483.214 260.708ZM461.957 303.939C459.112 307.944 456.137 312.065 453.162 316.186C445.63 326.05 438.089 336.037 430.548 346.024C441.048 332.162 451.564 318.054 461.957 303.939ZM416.274 347.694C417.635 345.687 419.118 343.688 420.479 341.681C420.879 341.214 421.278 340.747 421.678 340.28C419.795 342.746 418.034 345.22 416.274 347.694ZM449.167 307.429C449.566 306.961 449.974 306.372 450.251 305.897C450.381 305.782 450.389 305.659 450.512 305.667C450.104 306.257 449.697 306.847 449.167 307.429ZM404.468 301.353C403.262 302.877 402.055 304.401 400.848 305.925C370.389 344.745 340.167 383.704 310.467 422.203C349.009 370.72 388.979 318.098 429.04 265.974C433.874 259.755 438.725 253.291 443.82 246.843C430.575 265.087 417.46 283.216 404.468 301.353ZM341.3 389.074C333.051 400.494 324.933 411.799 316.815 423.104C284.896 463.554 254.199 502.236 225.132 538.558C262.226 490.432 301.31 440.094 341.3 389.074ZM192.612 615.19C168.819 644.213 146.363 671.597 125.912 696.524C132.025 687.677 138.39 678.723 144.763 669.647C164.826 646.913 186.927 621.23 210.918 592.959C204.77 600.449 198.622 607.938 192.612 615.19ZM284.419 564.912C282.022 567.715 279.739 570.648 277.342 573.451C290.979 554.862 304.616 536.274 318.13 517.678C306.752 533.701 295.52 549.364 284.419 564.912ZM245.239 547.735C213.861 585.51 185.213 619.149 159.54 648.668C186.647 610.248 215.76 569.371 246.227 526.609C287.099 475.276 331.208 419.593 377.224 361.076C375.448 363.796 373.556 366.385 371.78 369.104C351.161 398.577 330.672 427.936 310.698 456.958C288.397 487.679 266.487 518.055 245.239 547.735ZM370.233 460.291C392.15 429.792 414.467 398.826 437.06 367.385C456.256 340.9 475.059 314.759 493.578 289.216C512.893 264.71 531.915 240.924 550.407 217.719C525.966 252.984 500.595 289.297 474.409 326.79C468.436 335.4 462.339 344.001 456.366 352.611C427.275 389.301 398.346 425.386 370.233 460.291ZM529.799 262.347C545.786 241.692 562.719 219.742 580.198 196.966C577.1 201.079 573.995 205.314 570.889 209.55C545.106 244.605 518.932 280.004 492.75 315.526C505.228 297.726 517.583 279.917 529.799 262.347ZM441.902 387.9C457.291 366.961 472.681 346.021 488.071 325.081C466.046 355.327 444.014 385.695 422.382 415.596C428.886 406.405 435.39 397.214 441.902 387.9ZM254.227 701.196C251.813 704.244 249.4 707.292 247.117 710.225C257.344 694.867 267.708 679.271 278.204 663.561C283.584 656.515 288.973 649.347 294.492 642.063C294.63 641.826 294.891 641.596 295.03 641.359C281.168 661.534 267.567 681.48 254.227 701.196ZM345.379 582.504C339.714 590.148 334.064 597.546 328.414 604.944C337.118 592.198 345.944 579.461 354.794 566.355C367.268 550.525 379.497 534.68 391.718 518.957C376.174 540.379 360.646 561.557 345.379 582.504ZM353.654 551.498C365.609 534.157 377.842 516.341 390.205 498.409C401.242 483.843 412.288 469.153 423.334 454.464C413.147 469.208 402.96 483.953 392.765 498.82C379.544 516.696 366.46 534.335 353.654 551.498ZM359.531 642.177C385.171 605.511 411.855 567.927 439.192 529.769C443.326 524.86 447.469 519.829 451.603 514.92C422.177 554.916 391.081 597.883 359.531 642.177ZM422.624 540.284C398.87 568.694 375.646 596.522 352.96 623.645C394.853 567.943 439.903 509.118 487.687 448.004C489.693 445.546 491.584 442.957 493.59 440.499C469.358 474.422 445.649 507.885 422.624 540.284ZM701.427 152.768C664.029 203.708 623.609 259.504 580.059 319.905C548.579 359.275 517.344 398.661 487.015 437.366C458.293 474.08 426.318 515.39 392.836 559.067C423.469 517.548 454.363 475.799 485.079 434.901C545.044 354.859 623.37 251.728 701.427 152.768ZM492.321 354.798C477.106 376.857 461.76 399.032 446.283 421.321C434.292 437.305 422.431 453.174 410.84 468.691C420.212 455.125 429.722 441.323 439.363 427.405C453.708 407.384 468.299 387.379 482.774 367.243C487.217 361.369 491.668 355.372 496.119 349.375C494.766 351.259 493.543 353.028 492.321 354.798ZM436.012 414.378C431.929 420.398 427.846 426.419 423.633 432.554C368.582 505.151 315.825 572.721 267.783 632.093C308.757 575.346 352.069 514.808 395.975 452.706C428.954 407.272 462.609 360.896 496.387 314.528C539.612 255.339 582.83 196.273 624.916 139.474C567.9 221.554 504.302 314.051 436.012 414.378ZM624.182 177.74C630.147 169.254 636.113 160.767 642.079 152.281C646.399 146.399 650.727 140.394 655.048 134.512C644.876 149.011 634.59 163.38 624.182 177.74ZM692.423 43.6555C644.893 108.481 597.106 171.566 554.094 227.442C577.043 194.299 599.454 161.861 621.197 130.242C645.952 99.6793 669.737 70.7788 692.423 43.6555ZM562.216 200.738C546.276 220.657 529.936 241.043 513.319 261.904C554.816 204.698 594.536 150.211 631.934 99.2713C632.195 99.0417 632.341 98.6816 632.603 98.452C610.168 131.258 586.664 165.351 562.216 200.738ZM642.793 64.4892C667.535 32.2008 690.786 2.03393 712.668 -26.0034C709.139 -20.9328 705.61 -15.8622 702.082 -10.7916C679.412 19.9054 655.521 52.3718 630.684 86.1325C619.954 99.7336 609.087 113.572 598.072 127.771C613.11 106.562 628.016 85.4683 642.793 64.4892ZM570.01 146.541C567.312 150.187 564.499 153.702 561.801 157.347C555.229 165.672 548.527 174.111 541.825 182.55C551.218 170.588 560.618 158.503 570.01 146.541ZM509.398 219.396C501.751 229.13 494.103 238.864 486.464 248.475C529.677 187.56 572.36 127.227 613.551 69.0164C643.563 27.5806 672.751 -12.553 700.441 -50.4422C702.3 -52.5402 704.037 -54.6462 705.889 -56.6215C645.546 29.3095 577.955 124.507 509.398 219.396ZM645.313 0.343924C645.443 0.22912 645.451 0.106437 645.582 -0.00836742C660.758 -21.4545 675.55 -42.6789 690.179 -63.2978C696.189 -70.5497 702.191 -77.6789 708.07 -84.816C688.099 -57.7646 667.175 -29.2962 645.313 0.343924ZM724.436 -142.035C722.537 -139.324 720.63 -136.49 718.731 -133.778C707.934 -121.044 696.868 -107.957 685.664 -94.6329C699.175 -111.258 712.139 -127.056 724.436 -142.035ZM696.759 -102.42C686.481 -88.1743 676.072 -73.8134 665.533 -59.3378C609.707 17.6439 549.83 100.155 489.653 183.51C466.156 213.661 444.927 241.124 427.033 264.613C369.355 339.751 312.389 415.304 259.403 486.432C355.419 353.392 458.078 210.924 552.709 76.4407C567.545 56.451 582.242 36.6988 596.67 17.299C632.076 -25.6382 665.697 -65.7333 696.759 -102.42ZM570.889 42.745C550.846 67.0814 530.543 91.6475 510.353 116.344C513.589 111.994 516.711 107.513 519.947 103.163C573.989 29.0232 622.84 -37.1959 666.354 -95.1344C636.169 -50.9995 604.125 -4.76662 570.889 42.745ZM711.342 -179.835C719.282 -190.289 726.946 -200.268 734.348 -210.017C722.455 -193.657 710.164 -176.83 697.603 -159.651C693.737 -155.095 689.864 -150.416 685.86 -145.623C685.73 -145.508 685.73 -145.508 685.599 -145.393C694.362 -157.149 702.987 -168.668 711.342 -179.835ZM695.855 -151.633C708.128 -166.243 719.578 -179.552 730.351 -191.918C649.111 -79.8577 549.546 56.6496 448.587 191.835C440.156 202.258 431.733 212.558 423.433 222.865C418.752 228.601 414.195 234.345 409.645 239.966C428.365 213.204 447.086 186.442 465.675 159.794C492.665 123.215 519.377 87.111 545.535 51.9569C598.414 -19.424 649.402 -88.2162 695.855 -151.633ZM657.653 -105.426C620.801 -55.3133 581.959 -2.98786 542.832 49.9353C540.134 53.5809 537.436 57.2266 534.737 60.8723C554.012 33.1602 572.894 5.79246 591.508 -21.2229C601.323 -34.0204 610.885 -46.7109 620.432 -59.156C633.29 -75.2074 645.618 -90.6768 657.653 -105.426ZM616.726 -66.6626C620.955 -73.0433 625.184 -79.4241 629.405 -85.6821C632.91 -90.3846 636.415 -95.0872 639.92 -99.7897C641.404 -101.789 642.88 -103.665 644.363 -105.664C641.649 -101.773 639.05 -97.7513 636.336 -93.8603C629.963 -84.7839 623.344 -75.7232 616.726 -66.6626ZM542.06 35.1024C528.755 52.357 515.189 69.8413 501.493 87.4403C524.439 56.2683 546.854 25.6782 568.709 -3.83925C560.005 8.90644 551.163 21.8896 542.06 35.1024ZM673.926 -153.535C676.055 -155.985 678.306 -158.427 680.434 -160.878C676.53 -155.708 672.502 -150.546 668.589 -145.254C670.374 -148.096 672.15 -150.815 673.926 -153.535ZM560.301 -24.4601C592.075 -60.7317 623.042 -95.9465 652.134 -128.818C642.707 -114.394 633.018 -99.7404 623.061 -84.7346C599.609 -53.3488 575.325 -20.538 550.219 13.575C513.715 62.1085 476.258 112.059 438.907 162.263C420.028 187.66 400.872 213.531 381.577 239.641C363.893 261.788 346.493 283.338 329.5 304.297C339.149 290.257 348.913 276.348 358.685 262.316C428.316 162.198 491.512 72.1387 547.847 -7.02765C551.922 -12.9255 556.112 -18.6928 560.301 -24.4601ZM471.365 77.0039C489.446 56.3603 507.657 35.6021 525.607 15.0734C513.553 32.0387 501.222 49.479 488.613 67.3943C406.95 180.29 322.533 297.69 244.656 407.256C221.44 434.961 199.308 461.135 178.153 485.523C203.73 449.839 230.252 412.86 257.059 375.284C326.086 278.823 400.11 175.539 471.365 77.0039ZM434.265 119.463C373.281 203.874 311.288 290.561 252.816 372.301C214.508 425.892 177.024 478.182 141.576 527.522C130.542 540.118 119.8 551.994 109.458 563.402C76.7102 599.488 39.8316 638.512 6.54049 669.635C13.3844 658.987 20.3509 648.347 27.1869 637.822C49.7851 608.23 75.1961 575.122 102.221 539.9C175.096 444.919 261.829 331.733 351.038 214.518C378.701 182.787 406.487 151.063 434.265 119.463ZM485.936 28.5394C442.837 85.7655 398.954 143.68 355.617 200.768C348.709 208.578 341.924 216.396 335.016 224.206C356.57 195.532 378.262 166.62 399.954 137.708C429.314 100.665 458.143 64.2045 485.936 28.5394ZM416.597 97.2611C395.471 126.948 372.185 159.577 347.562 193.844C322.099 225.84 297.052 257.123 272.534 287.825C311.372 233.651 350.894 178.413 389.878 123.879C427.111 75.5154 464.236 26.8987 500.202 -20.9302C472.956 17.7267 444.911 57.3177 416.597 97.2611ZM489.542 -16.0715C495.5 -24.4354 501.458 -32.7993 507.416 -41.1633C517.247 -54.2061 526.825 -67.142 536.387 -79.8325C540.953 -85.6988 545.51 -91.4424 550.06 -97.0634C530.235 -70.3722 510.019 -43.3367 489.542 -16.0715ZM550.308 -116.266C539.302 -102.19 528.05 -88.1294 516.66 -73.8316C523.734 -84.2182 530.676 -94.4899 537.611 -104.639C549.279 -119.412 560.799 -133.824 572.174 -147.877C564.97 -137.375 557.766 -126.874 550.308 -116.266ZM611.592 -205.339C607.719 -200.66 603.838 -195.859 599.834 -191.065C602.271 -194.481 604.831 -197.889 607.26 -201.183C609.796 -204.223 612.324 -207.14 614.852 -210.058C613.638 -208.411 612.676 -206.871 611.592 -205.339ZM737.222 -344.853C728.269 -333.971 718.777 -322.385 709.001 -310.201C711.323 -313.748 713.76 -317.164 716.083 -320.71C723.398 -329.11 730.444 -337.158 737.222 -344.853ZM682.595 -299.948C683.556 -301.488 684.517 -303.028 685.471 -304.445C691.334 -311.336 697.051 -317.868 702.499 -324.047C700.608 -321.458 698.848 -318.984 696.957 -316.395C692.308 -311.15 687.521 -305.668 682.595 -299.948ZM723.063 -383.337C718.597 -377.095 713.992 -370.615 709.241 -363.775C708.149 -362.12 706.934 -360.474 705.72 -358.827C700.157 -352.779 694.325 -346.378 688.347 -339.616C700.698 -355.454 712.358 -370.104 723.063 -383.337ZM705.956 -349.08C706.094 -349.317 706.347 -349.424 706.486 -349.662C704.148 -345.87 701.687 -342.085 699.227 -338.301C693.553 -330.535 687.619 -322.539 681.538 -314.183C689.949 -326.209 698.091 -337.882 705.956 -349.08ZM615.963 -244.604C637.328 -270.333 656.124 -292.533 672.753 -311.668C656.462 -288.199 639.217 -263.313 621.403 -237.232C578.773 -185.396 531.175 -125.256 480.638 -59.6383C475.028 -52.8535 469.41 -45.9461 463.914 -39.0308C519.056 -114.948 568.429 -181.626 611.406 -238.86C612.889 -240.859 614.488 -242.727 615.963 -244.604ZM509.004 -111.898C471.606 -60.9578 431.194 -5.28381 387.636 55.239C356.156 94.6094 324.921 133.995 294.592 172.701C265.739 209.53 233.764 250.839 200.275 294.639C230.915 252.997 261.932 211.256 292.779 170.243C352.613 90.3162 430.946 -12.9378 509.004 -111.898ZM299.89 90.2547C267.03 137.667 233.617 186.03 200.465 234.163C187.112 252.153 174.029 269.792 161.223 286.955C188.548 247.071 217.202 205.672 246.809 162.855C261.277 142.841 275.753 122.705 290.228 102.569C294.671 96.695 298.999 90.6903 303.442 84.8161C302.342 86.5933 301.12 88.3627 299.89 90.2547ZM705.712 -433.483C647.953 -351.328 564.287 -237.945 474.204 -116.721C531.927 -200.233 588.262 -283.219 638.203 -358.73C648.739 -371.235 658.721 -382.79 667.888 -393.165C681.965 -409.015 694.527 -422.375 705.712 -433.483ZM360.789 14.831C405.703 -49.5469 455.638 -121.117 505.639 -191.82C519.49 -209.902 532.672 -227.165 545.423 -243.469C487.549 -161.445 424.334 -72.9886 360.789 14.831ZM622.222 -389.94C607.125 -369.721 590.79 -347.487 573.217 -323.238C488.733 -206.705 374.733 -43.0366 243.589 149.712C239.506 155.733 235.423 161.753 231.21 167.889C176.151 240.608 123.524 308.063 75.4749 367.558C141.195 276.552 212.706 175.939 283.636 74.7966C366.236 -43.0898 443.958 -155.992 510.95 -255.294C523.27 -270.64 535.182 -285.397 546.679 -299.442C575.03 -334.209 600.383 -364.487 622.222 -389.94ZM604.769 -421.244C607.012 -423.564 609.256 -425.883 611.499 -428.203C615.456 -432.261 619.274 -436.081 623.092 -439.901C615.841 -428.663 608.19 -416.959 600.392 -404.894C584.061 -384.631 566.376 -362.484 547.338 -338.452C567.289 -367.106 586.44 -394.826 604.769 -421.244ZM508.132 -314.977C520.904 -329.679 533.39 -343.783 545.469 -357.298C551.97 -364.518 558.332 -371.501 564.563 -378.369C526.276 -323.174 483.415 -261.991 437.603 -197.055C427.249 -183.553 416.619 -169.576 405.727 -155.369C324.45 -48.4851 237.627 68.0212 155.852 178.815C168.999 160.195 182.275 141.461 195.675 122.734C271.538 15.7485 348.885 -93.2359 421.373 -195.634C451.254 -236.955 480.435 -276.965 508.132 -314.977ZM317.279 -96.0059C281.256 -51.1373 244.779 -4.94279 208.417 41.3823C184.937 71.288 161.693 101.332 138.597 131.016C179.187 74.4911 222.705 14.5817 268.621 -48.1303C338.827 -143.776 407.962 -236.164 471.599 -319.666C420.248 -245.23 367.814 -169.262 317.279 -96.0059ZM452.854 -340.458C450.433 -337.287 448.012 -334.117 445.583 -330.823C444.922 -330.127 444.384 -329.422 443.723 -328.725C446.805 -332.593 449.772 -336.591 452.854 -340.458ZM499.657 -370.959C427.744 -277.518 347.187 -170.341 264.842 -58.3517C186.003 48.9352 111.327 152.794 46.1097 245.557C86.9399 183.38 131.082 117.598 176.905 50.5681C284.333 -91.3472 398.732 -242.054 499.657 -370.959ZM270.592 -105.658C276.119 -113.064 281.523 -120.478 286.92 -127.77C288.542 -130.006 290.294 -132.357 291.916 -134.594C301.799 -146.525 311.674 -158.333 321.427 -170.149C315.924 -163.111 310.42 -156.072 304.795 -149.042C293.389 -134.499 281.991 -120.079 270.592 -105.658ZM411.46 -315.522C379.032 -269.068 344.898 -220.998 309.091 -171.804C305.309 -166.626 301.519 -161.326 297.736 -156.148C295.454 -153.215 293.179 -150.405 290.904 -147.594C282.726 -137.279 274.687 -127.201 266.64 -117C261.168 -110.452 255.689 -103.782 250.34 -97.2273C237.244 -81.3144 223.48 -64.5821 209.178 -47.1452C229.342 -75.2929 249.776 -103.793 270.348 -132.53C275.321 -138.986 280.417 -145.435 285.39 -151.891C322.468 -199.771 365.995 -255.984 411.46 -315.522ZM306.546 -247.239C306.815 -247.591 307.084 -247.943 307.353 -248.295C308.96 -250.287 310.443 -252.286 312.049 -254.277C310.174 -251.933 308.421 -249.582 306.546 -247.239ZM425.892 -442.347C418.981 -432.566 412.184 -422.655 405.142 -412.759C388.712 -392.872 371.988 -372.264 354.743 -351.197C379.177 -382.52 402.942 -413.023 425.892 -442.347ZM340.42 -321.935C321.739 -295.786 302.812 -269.653 283.902 -243.766C242.524 -188.4 200.853 -132.314 160.219 -77.0243C148.105 -61.0483 136.121 -45.1872 124.284 -29.6862C71.8513 36.6724 21.5628 100.335 -23.4758 157.067C26.9773 87.0087 81.8136 10.0868 137.92 -69.3408C164.605 -103.106 191.943 -137.445 219.803 -172.244C261.052 -223.675 301.485 -273.927 340.42 -321.935ZM204.7 -174.939C190.316 -154.304 175.817 -133.8 161.44 -113.288C123.571 -64.5959 87.9681 -18.5916 54.6406 24.6023C43.373 38.9079 32.3588 53.1066 21.6135 66.9531C67.9479 1.55772 117.21 -67.2221 167.37 -136.56C184.137 -159.752 200.749 -182.461 216.969 -204.826C257.857 -260.223 299.642 -316.178 340.85 -370.815C341.119 -371.168 341.519 -371.635 341.788 -371.987C299.141 -310.297 253.266 -244.379 204.7 -174.939ZM356.462 -404.799C339.652 -382.842 322.458 -360.663 305.126 -338.247C298.839 -330.52 292.552 -322.793 286.266 -315.066C292.315 -322.932 298.38 -331.042 304.567 -339.145C322.129 -361.3 339.43 -383.226 356.462 -404.799Z" fill="#9195B6"/>
<path d="M133.496 -219.059C122.419 -203.879 111.325 -188.454 100.24 -173.151C63.9736 -124.479 28.7909 -77.3386 -4.66283 -32.1817C-7.74479 -28.3144 -10.6962 -24.5618 -13.7782 -20.6945L-16.9867 29.2393C7.43152 -1.83805 33.1791 -34.4315 60.256 -68.5411C59.172 -67.0092 58.2029 -65.3468 57.1189 -63.8149C31.5536 -30.2242 6.65693 2.54714 -17.31 34.2695L-18.1062 46.6609C-10.435 36.5592 -2.63328 26.3426 5.17633 16.0033C2.43878 20.2624 -0.421469 24.5137 -3.15902 28.7727C-8.29415 35.8344 -13.2987 42.7813 -18.3032 49.7281L-19.4306 67.2724C-16.4556 63.1518 -13.4726 58.9085 -10.4818 54.5425C36.5291 -11.7949 86.5027 -83.9785 137.461 -158.07C173.649 -205.515 210.498 -253.657 247.184 -301.193C300.306 -366.768 351.912 -429.854 399.214 -487.302L383.879 -488.288C355.971 -452.753 327.363 -415.909 298.217 -378.359C278.289 -353.892 258.1 -329.196 237.657 -304.392C238.334 -305.334 238.888 -306.284 239.556 -307.104C253.115 -324.465 266.542 -341.712 279.701 -358.606C314.88 -403.775 348.714 -447.183 380.803 -488.362L374.424 -488.772C345.408 -451.338 315.21 -412.747 284.858 -373.674C288.671 -379.342 292.477 -384.888 296.168 -390.564C305.702 -404.735 315.228 -418.783 324.624 -432.716C338.783 -451.763 352.804 -470.574 366.572 -489.277L351.972 -490.215C351.303 -489.395 350.635 -488.576 349.958 -487.634C350.504 -488.461 351.173 -489.281 351.727 -490.231L345.101 -490.656C341.311 -485.356 337.521 -480.056 333.731 -474.756C325.344 -463.098 316.949 -451.318 308.554 -439.538C313.883 -447.696 319.081 -455.74 324.272 -463.66C331.144 -472.828 338 -481.75 344.611 -490.688L335.532 -491.271C332.256 -486.308 328.973 -481.221 325.689 -476.135C266.021 -398.784 200.66 -311.451 133.496 -219.059ZM138.084 -215.685C141.189 -219.92 144.303 -224.278 147.408 -228.514C192.161 -288.467 235.945 -346.758 277.576 -402.23C267.057 -386.152 256.653 -369.943 246.003 -353.749C205.428 -301.289 163.907 -247.534 122.425 -194.393C127.683 -201.447 132.949 -208.623 138.084 -215.685ZM14.1221 -38.8591C7.95822 -31.1244 1.81003 -23.635 -4.33813 -16.1457C16.5502 -45.9715 37.9609 -76.2565 59.6248 -106.649C75.8654 -127.41 92.2444 -148.41 108.746 -169.401C77.2982 -126.702 45.4035 -82.8004 14.1221 -38.8591ZM90.1755 -114.295C85.4872 -108.436 80.7911 -102.455 76.1107 -96.7192C81.6218 -103.88 87.1329 -111.041 92.644 -118.201C91.8212 -116.899 90.9983 -115.597 90.1755 -114.295ZM151.261 -190.692C142.292 -179.565 133.584 -168.667 124.876 -157.77C126.107 -159.662 127.329 -161.431 128.437 -163.331C137.651 -174.443 146.996 -185.669 156.218 -196.903C154.604 -194.789 152.998 -192.798 151.261 -190.692ZM169.446 -235.968C166.487 -232.092 163.536 -228.34 160.584 -224.587C165.189 -231.067 169.909 -237.416 174.514 -243.896C172.868 -241.291 171.223 -238.687 169.446 -235.968ZM228.235 -301.548C214.139 -283.482 200.043 -265.416 185.939 -247.227C206.709 -275.213 227.348 -303.083 247.727 -330.725C248.672 -332.019 249.61 -333.191 250.555 -334.485C243.197 -323.501 235.716 -312.524 228.235 -301.548ZM325.982 -446.18C289.122 -395.945 250.925 -344.07 212.083 -291.745C221.933 -307.004 231.768 -322.018 241.464 -336.794C241.733 -337.146 241.872 -337.384 242.141 -337.736C270.657 -375.079 298.735 -411.342 325.982 -446.18Z" fill="#9195B6"/>
<path d="M58.2393 -200.119C36.0127 -172.473 14.0551 -145.18 -7.49504 -118.476L-8.58294 -101.545C0.595447 -114.014 9.77383 -126.483 19.0828 -139.067C67.4487 -199.65 116.669 -262.027 164.445 -323.017C188.479 -353.873 218.017 -391.767 250.415 -433.912C266.754 -454.297 282.694 -474.216 298.488 -493.775L290.759 -494.271C267.884 -464.204 243.834 -433.103 218.846 -400.83C203.705 -381.845 188.303 -362.631 172.763 -343.18C212.832 -395.426 252.185 -446.117 290.015 -494.196L284.003 -494.582C234.098 -431.141 181.563 -363.187 128.395 -293.057C104.583 -261.818 81.1537 -230.8 58.2393 -200.119Z" fill="#9195B6"/>
<path d="M-11.8703 -50.3848L-12.3985 -42.1648C27.4487 -94.7952 69.0249 -149.409 111.539 -205.194C118.272 -214.124 124.998 -222.932 131.854 -231.854C83.3429 -167.091 34.5547 -101.853 -12.6035 -38.9748L-13.1002 -31.2456C99.8106 -181.802 223.007 -346.727 331.246 -491.67L322.78 -492.214C254.82 -400.859 180.953 -303.847 107.893 -207.892C67.1398 -154.581 26.9008 -101.606 -11.8703 -50.3848Z" fill="#9195B6"/>
<path d="M-4.72791 -161.54L-6.62783 -131.972C18.8542 -166.184 44.4983 -201.002 69.897 -235.835C89.2397 -258.861 108.867 -282.485 128.633 -306.347C179.801 -368.352 231.846 -432.518 281.435 -494.87L277.509 -495.123C229.258 -434.409 177.881 -371.062 126.052 -308.36C116.7 -297.012 107.355 -285.785 98.0097 -274.559C100.031 -277.263 102.061 -280.089 103.96 -282.801C114.376 -297.284 125.331 -312.472 136.701 -328.373C182.526 -387.764 227.035 -443.914 269.158 -495.536L264.496 -495.836C257.272 -486.937 250.047 -478.039 242.815 -469.017C249.802 -478.054 256.904 -486.961 263.76 -495.883L258.73 -496.206C254.71 -491.167 250.805 -485.998 246.778 -480.836C250.56 -486.013 254.211 -491.076 257.993 -496.254L247.933 -496.9C241.722 -488.429 235.388 -479.966 229.177 -471.495C152.675 -368 71.7822 -261.338 -4.72791 -161.54ZM58.0358 -237.213C56.1526 -234.747 54.2694 -232.281 52.2636 -229.823C54.5542 -232.879 56.8449 -235.935 59.2582 -238.982C58.8507 -238.393 58.4432 -237.803 58.0358 -237.213ZM230.417 -465.872C204.619 -430.571 178.551 -394.919 152.361 -359.274C146.45 -351.646 140.67 -344.133 134.76 -336.505C157.86 -368.16 181.075 -399.684 203.882 -430.619C215.067 -445.546 226.128 -460.481 237.182 -475.293C234.761 -472.122 232.593 -469.058 230.417 -465.872Z" fill="#9195B6"/>
<path d="M-3.52324 -170.702C-3.78438 -170.472 -3.93072 -170.112 -4.19186 -169.882L-4.64122 -162.889C-1.3735 -167.73 1.88635 -172.448 5.15407 -177.289C30.949 -210.619 57.6894 -245.243 84.7304 -280.71C137.851 -350.104 193.48 -424.019 247.335 -497.185L243.9 -497.406C191.536 -426.361 137.537 -354.806 86.0148 -287.28C68.5282 -264.381 51.0495 -241.604 33.5865 -219.073C48.6711 -241.018 63.7478 -262.84 78.5713 -284.555C121.503 -346.843 173.613 -421.599 227.828 -498.438L223.657 -498.706C170.087 -422.319 118.63 -348.136 75.9826 -286.446C49.3501 -247.75 22.7176 -209.054 -3.52324 -170.702Z" fill="#9195B6"/>
<path d="M1.0822 -251.96C50.6898 -316.529 101.888 -382.844 152.125 -447.619C151.725 -447.152 151.448 -446.677 151.048 -446.21C102.086 -382.092 51.3313 -315.01 0.837789 -248.157L0.609157 -244.599C39.3882 -295.943 78.2979 -347.402 116.385 -397.558C100.271 -374.94 84.1499 -352.2 68.0207 -329.337C44.4499 -296.11 21.6863 -263.941 -0.131862 -233.066L-0.439315 -228.282C53.3761 -304.653 108.374 -382.181 161.858 -457.219C172.081 -470.606 182.296 -483.87 192.38 -497.02C154.932 -443.373 115.524 -388.004 75.0883 -331.962C49.7728 -296.508 24.5046 -261.789 -0.462962 -227.913L-0.683726 -224.478C24.8298 -259.181 50.636 -294.604 76.6044 -330.633C101.627 -365.367 126.266 -399.88 150.252 -433.818C132.2 -407.876 113.888 -381.703 95.3134 -355.301C62.6239 -308.617 30.3892 -263.259 -0.991179 -219.693L-1.62975 -209.756C-0.814791 -210.935 -0.00768313 -211.992 0.92208 -213.041C5.50339 -219.153 10.0768 -225.142 14.6582 -231.254C33.0824 -255.324 51.6373 -279.51 70.1921 -303.696C45.9606 -269.773 21.844 -235.72 -2.11849 -202.149L-2.44963 -196.996C34.2437 -248.474 71.5067 -301.148 108.516 -353.714C146.532 -402.766 184.532 -451.573 221.433 -498.603L217.384 -498.863C208.261 -487.253 199.13 -475.52 189.868 -463.673C198.884 -475.536 207.77 -487.285 216.77 -498.902L212.722 -499.163C203.037 -486.48 193.221 -473.682 183.398 -460.762C192.355 -473.615 201.319 -486.59 210.145 -499.328L206.955 -499.533C200.713 -490.571 194.47 -481.61 188.219 -472.526C136.753 -402.039 86.9959 -335.139 45.4793 -279.536C39.2838 -271.311 33.0804 -262.963 26.885 -254.737C49.9019 -287.013 73.4648 -320.117 97.1897 -353.826C130.947 -401.797 165.152 -450.971 198.735 -500.061L189.534 -500.653C127.875 -421.089 63.5029 -337.634 1.40541 -256.99L1.0822 -251.96ZM150.486 -418.281C147.641 -414.275 144.789 -410.147 141.945 -406.141C135.48 -397.563 129.023 -389.108 122.559 -380.53C131.729 -392.876 141.038 -405.46 150.486 -418.281Z" fill="#9195B6"/>
<path d="M4.84262 -310.482L4.44056 -304.225C27.7985 -334.139 51.4175 -364.282 75.0286 -394.302C51.2992 -362.441 27.5698 -330.581 4.08579 -298.704L3.71525 -292.938C22.6101 -318.58 41.6276 -344.214 60.7678 -369.841C80.0465 -395.705 99.4557 -421.683 118.865 -447.662C99.9465 -421.652 81.2812 -395.748 62.7466 -369.96C42.4593 -341.82 22.6944 -314.14 3.45169 -286.918L3.13634 -282.011C25.631 -313.828 46.3336 -342.68 63.9227 -367.174C96.1259 -412.042 129.113 -457.598 162.06 -502.541L156.416 -502.904C149.275 -493.384 142.004 -483.749 134.724 -473.992C91.9762 -420.316 48.2828 -365.346 4.84262 -310.482Z" fill="#9195B6"/>
<path d="M37.7637 -318.592C25.9108 -302.845 14.0659 -287.222 2.35932 -271.836L2.08342 -267.542C32.3842 -307.727 64.0695 -350.287 97.1394 -395.222C121.814 -428.377 148.258 -464.129 175.555 -501.674L172.611 -501.863C149.364 -469.848 125.718 -437.366 101.835 -405.022C79.8342 -375.145 58.3954 -346.34 37.7637 -318.592Z" fill="#9195B6"/>
<path d="M28.5434 -391.745C21.7626 -382.079 14.9818 -372.413 8.20885 -362.87L8.02753 -360.048C14.9389 -369.829 21.5891 -379.38 28.2236 -388.686C56.0155 -428.17 83.7837 -467.286 111.267 -505.805L109.55 -505.915C82.074 -467.52 54.9744 -429.223 28.5434 -391.745Z" fill="#9195B6"/>
<path d="M12.9946 -358.743C11.1193 -356.4 9.35885 -353.926 7.48356 -351.582L7.40473 -350.355C9.42637 -353.059 11.448 -355.763 13.4617 -358.343C20.7254 -367.855 27.9891 -377.367 35.2528 -386.879C25.8492 -372.824 16.4457 -358.768 7.04212 -344.712L6.82136 -341.277C22.0839 -364.072 37.3543 -386.991 52.6089 -409.664C77.0902 -441.723 101.556 -473.536 125.63 -505.005L125.016 -505.045C102.964 -476.279 80.6506 -447.284 58.1909 -417.929C77.9436 -447.335 97.6883 -476.618 117.287 -505.541L115.201 -505.675C90.6971 -469.429 65.9084 -432.586 41.1117 -395.619C31.6959 -383.289 22.2878 -371.081 12.9946 -358.743Z" fill="#9195B6"/>
</g>
</g>
<defs>
<linearGradient id="paint0_linear_23_801" x1="352.078" y1="6" x2="352.078" y2="424.019" gradientUnits="userSpaceOnUse">
<stop stop-color="#BFC0D1"/>
<stop offset="0.505208" stop-color="#D3D5E9"/>
<stop offset="0.708333" stop-color="#DCDDED"/>
<stop offset="1" stop-color="#B4B6CF"/>
</linearGradient>
<linearGradient id="paint1_linear_23_801" x1="352.078" y1="6" x2="352.078" y2="424.019" gradientUnits="userSpaceOnUse">
<stop stop-color="white"/>
<stop offset="0.1875" stop-color="#C1C3DA"/>
<stop offset="0.338542" stop-color="#D1D3E0"/>
<stop offset="0.567708" stop-color="white"/>
</linearGradient>
<linearGradient id="paint2_linear_23_801" x1="352.078" y1="6" x2="352.078" y2="424.019" gradientUnits="userSpaceOnUse">
<stop stop-color="#454868"/>
<stop offset="1" stop-color="#2F3144"/>
</linearGradient>
<linearGradient id="paint3_linear_23_801" x1="352.078" y1="6" x2="352.078" y2="424.019" gradientUnits="userSpaceOnUse">
<stop stop-color="#7E80A3"/>
<stop offset="0.1875" stop-color="#636684"/>
<stop offset="0.338542" stop-color="#54577A"/>
<stop offset="0.567708" stop-color="#34364C"/>
</linearGradient>
</defs>
</svg>
