<svg width="946" height="45" viewBox="0 0 946 45" fill="none" xmlns="http://www.w3.org/2000/svg">
<path fill-rule="evenodd" clip-rule="evenodd" d="M463.252 7.4825C463.481 7.75887 469.294 8.8378 476.168 9.87933C483.043 10.9209 491.818 12.3003 495.668 12.946C499.518 13.5904 505.706 14.4763 509.418 14.9132C513.618 15.408 516.168 16.2528 516.168 17.1507C516.168 18.1693 521.827 19.0177 535.418 20.04C562.246 22.0566 571.168 21.9601 571.168 19.6513C571.168 17.4343 571.228 17.4343 584.732 19.5753C594.945 21.1949 604.349 21.7428 618.585 21.5437C628.18 21.4109 624.621 20.5601 610.668 19.6537C603.518 19.1891 593.843 18.3226 589.168 17.7276C584.493 17.1326 574.706 15.9909 567.418 15.1895C560.13 14.3894 554.168 13.4336 554.168 13.0667C554.168 11.3348 594.634 13.2453 604.167 15.4273C607.232 16.1285 629.888 16.6342 658.248 16.6342C705.4 16.6342 707.101 16.7138 708.412 18.9731C709.729 21.242 710.242 21.2625 725.719 19.6344C734.491 18.7112 745.718 17.625 750.668 17.2195C755.618 16.8152 763.943 15.9342 769.168 15.2631C787.536 12.9049 804.091 12.678 814.076 14.6488C822.65 16.3421 824.46 17.3209 825.475 20.822C825.662 21.4664 831.182 22.1362 837.741 22.3112C844.301 22.4862 857.093 22.8833 866.168 23.1935C875.243 23.5024 884.918 23.8283 887.668 23.9152C890.418 24.0033 900.35 23.9816 909.74 23.8681C928.708 23.6376 945.168 24.8348 945.168 26.4448C945.168 27.0229 944.605 27.5128 943.918 27.5346C943.21 27.5563 943.503 28.3359 944.595 29.3316C947.724 32.1882 945.579 32.8653 938.657 31.2047C935.091 30.349 931.536 29.9447 930.757 30.3055C929.977 30.6664 920.639 31.2976 910.004 31.7079C899.369 32.1195 888.193 32.9643 885.168 33.587C882.143 34.2086 873.593 35.5228 866.168 36.5076C849.696 38.6897 847.116 39.135 840.338 40.9658C836.206 42.0822 834.839 42.0822 834.267 40.9658C833.862 40.1729 831.699 39.3052 829.461 39.036C826.111 38.6341 825.02 39.065 823.286 41.4703C820.64 45.144 815.265 45.4409 812.725 42.0544C811.761 40.7691 811.268 39.1398 811.629 38.4338C811.99 37.7278 811.879 37.1509 811.382 37.1509C810.885 37.1509 807.693 34.9785 804.289 32.3234C798.184 27.5611 794.602 26.5799 789.429 28.2527C788.198 28.6509 787.467 29.5175 787.806 30.1788C788.195 30.938 786.996 31.131 784.545 30.7026C777.819 29.5271 762.644 28.4277 763.23 29.159C763.702 29.7456 776.468 32.0531 798.128 35.4649C801.445 35.9875 802.179 36.4437 800.994 37.245C798.226 39.1133 765.477 35.5506 748.767 31.5619C743.078 30.2042 738.472 29.9097 732.32 30.5119C719.052 31.8081 718.021 32.2185 720.173 35.3467C721.979 37.974 719.882 43.5908 717.41 42.7484C714.364 41.7105 707.961 40.8801 697.668 40.1886C683.867 39.2617 677.898 38.3119 676.346 36.7949C675.471 35.9404 667.348 35.6097 652.353 35.8161C639.884 35.9875 629.984 35.7642 630.353 35.3189C631.414 34.0384 635.903 33.6691 664.991 32.4695C680.019 31.8491 692.582 31.02 692.908 30.6254C693.904 29.4233 652.467 29.8301 643.281 31.113C622.016 34.0831 612.568 34.4415 596.168 32.8991C574.096 30.8221 563.872 29.9954 543.668 28.651C534.318 28.0282 523.886 26.9831 520.486 26.329C517.086 25.6736 510.561 24.8928 505.986 24.5935C496.103 23.9454 497.168 24.229 497.168 22.2497C497.168 21.1273 494.002 19.9905 486.918 18.5712C475.46 16.2769 461.052 10.7941 460.417 8.48781C460.036 7.10595 462.28 6.30942 463.252 7.4825ZM551.899 12.643C550.926 12.9496 549.576 12.9291 548.899 12.5984C548.222 12.2677 549.018 12.0179 550.668 12.042C552.318 12.0662 552.872 12.3365 551.899 12.643ZM557.355 18.6653C556.634 19.0141 555.771 18.9707 555.439 18.57C555.107 18.1693 555.697 17.8845 556.751 17.9364C557.916 17.9943 558.153 18.2803 557.355 18.6653Z" fill="black"/>
<path fill-rule="evenodd" clip-rule="evenodd" d="M483.258 6.62256C483.027 6.89628 477.206 7.90827 470.324 8.87065C463.441 9.83302 454.655 11.1114 450.801 11.7128C446.946 12.3129 440.751 13.1275 437.036 13.5217C432.832 13.9681 430.275 14.7835 430.268 15.6814C430.26 16.7 424.595 17.4832 410.996 18.349C384.154 20.0569 375.233 19.8577 375.251 17.549C375.269 15.3321 375.209 15.3314 361.688 17.3169C351.463 18.8189 342.055 19.2586 327.821 18.8957C318.228 18.6525 321.793 17.8426 335.753 17.0969C342.906 16.7145 352.588 15.9594 357.267 15.4182C361.947 14.8771 371.742 13.848 379.036 13.1306C386.33 12.4143 392.299 11.5272 392.302 11.1603C392.316 9.4285 351.837 10.8732 342.287 12.9454C339.216 13.6113 316.558 13.8563 288.199 13.5299C241.049 12.9873 239.347 13.0474 238.019 15.2915C236.684 17.5451 236.171 17.5597 220.707 15.7536C211.943 14.7295 200.725 13.5142 195.778 13.0517C190.832 12.5905 182.514 11.6137 177.295 10.8826C158.946 8.3131 142.394 7.89572 132.394 9.75154C123.807 11.346 121.989 12.3039 120.946 15.7932C120.754 16.4355 115.229 17.0418 108.669 17.1413C102.108 17.2408 89.3135 17.4906 80.2364 17.6963C71.1594 17.9009 61.4823 18.1154 58.7317 18.1706C55.9811 18.2271 46.0498 18.0911 36.6611 17.8696C17.6958 17.4208 1.22707 18.4285 1.21435 20.0384C1.20978 20.6165 1.76888 21.1129 2.45568 21.1426C3.16348 21.1724 2.86433 21.9487 1.76451 22.9317C-1.38691 25.7522 0.752641 26.4539 7.68745 24.873C11.26 24.0584 14.8181 23.695 15.5942 24.0649C16.3713 24.4347 25.7039 25.1733 36.3352 25.706C46.9664 26.2399 58.1352 27.2133 61.1552 27.8708C64.1751 28.5271 72.7144 29.9397 80.1313 31.0099C96.5853 33.3814 99.1616 33.8564 105.925 35.7651C110.048 36.929 111.415 36.9447 111.996 35.835C112.407 35.0468 114.577 34.2039 116.817 33.9606C120.17 33.5973 121.257 34.0406 122.972 36.4658C125.589 40.1698 130.961 40.5285 133.528 37.1714C134.502 35.8973 135.008 34.2737 134.653 33.5636C134.297 32.8535 134.413 32.2779 134.91 32.2836C135.407 32.2893 138.616 30.1538 142.04 27.538C148.183 22.8461 151.772 21.9062 156.932 23.6384C158.16 24.0508 158.884 24.9257 158.54 25.5831C158.145 26.3377 159.342 26.5446 161.796 26.1444C168.531 25.0464 183.714 24.1216 183.123 24.8462C182.646 25.4273 169.862 27.5878 148.176 30.7502C144.855 31.2346 144.118 31.6823 145.296 32.4973C148.05 34.3973 180.825 31.2116 197.566 27.4154C203.265 26.1232 207.874 25.8817 214.021 26.5547C227.278 28.0035 228.305 28.4257 226.129 31.529C224.302 34.1354 226.355 39.7761 228.833 38.9622C231.887 37.9594 238.297 37.2027 248.595 36.6297C262.402 35.8617 268.378 34.9806 269.942 33.4815C270.824 32.6371 278.949 32.3999 293.942 32.7789C306.409 33.0937 316.31 32.9844 315.945 32.5348C314.894 31.2422 310.408 30.8212 281.331 29.2869C266.309 28.4937 253.753 27.5201 253.43 27.1217C252.443 25.9082 293.875 26.7917 303.051 28.1803C324.291 31.395 333.736 31.8621 350.147 30.5085C372.235 28.6856 382.465 27.9766 402.679 26.8647C412.033 26.3496 422.473 25.4245 425.878 24.8095C429.283 24.1934 435.814 23.4876 440.391 23.241C450.279 22.7067 449.211 22.978 449.227 20.9988C449.236 19.8765 452.411 18.7761 459.506 17.4384C470.981 15.2761 485.432 9.95936 486.085 7.66045C486.477 6.28303 484.239 5.46072 483.258 6.62256ZM394.575 10.7628C395.545 11.0805 396.895 11.0755 397.575 10.7527C398.254 10.4298 397.46 10.1708 395.81 10.176C394.16 10.1811 393.604 10.4451 394.575 10.7628ZM389.071 16.722C389.789 17.0791 390.653 17.0456 390.988 16.6487C391.323 16.2519 390.735 15.9603 389.681 16C388.515 16.0446 388.276 16.3278 389.071 16.722Z" fill="black"/>
</svg>
