<svg width="454" height="83" viewBox="0 0 454 83" fill="none" xmlns="http://www.w3.org/2000/svg">
<rect x="18.0962" y="20.9082" width="416.779" height="49.0509" rx="13.2968" transform="rotate(-0.673265 18.0962 20.9082)" fill="#F14B64"/>
<path d="M108.479 56.8809C109.539 56.7114 110.945 56.3876 111.604 56.1612C113.636 55.464 115.12 55.6707 118.592 57.1353L121.816 58.4947L128.624 58.7862C132.412 58.9486 136.309 58.9603 137.409 58.8126C138.495 58.6668 140.441 58.4524 141.733 58.3362C143.024 58.2203 144.724 57.9216 145.509 57.6731C146.485 57.3645 147.034 57.324 147.24 57.5459C147.604 57.9377 147.782 57.8152 144.974 59.1048C142.121 60.4149 140.386 60.8615 135.372 61.5764C133.202 61.8858 130.546 62.4497 129.471 62.8298C128.395 63.2095 127.291 63.5143 127.017 63.5069C126.743 63.4995 126.031 63.7433 125.435 64.0485C124.839 64.3538 123.189 64.9445 121.769 65.3613C119.661 65.9793 118.574 66.1075 115.856 66.0578L112.525 65.9969L110.356 67.7896C109.164 68.7752 107.899 69.9033 107.546 70.2961C107.096 70.7975 106.379 71.0831 105.143 71.2543C102.005 71.6883 101.949 71.731 103.123 72.7868L104.138 73.7008L103.365 74.293C101.236 75.9224 93.6441 76.8195 90.3802 75.8274C88.5158 75.2606 87.3031 74.044 87.4259 72.8634C87.508 72.0764 87.3439 71.7806 86.4851 71.165C85.913 70.7552 85.1785 70.1924 84.8528 69.9151C84.2333 69.3869 83.6242 69.3847 79.0977 69.8937C76.9591 70.1341 74.7854 70.748 72.2293 71.8335C71.1242 72.3023 69.8871 72.4358 66.001 72.5041C63.334 72.551 59.3781 72.6483 57.2102 72.7202C55.0423 72.792 53.2059 72.7939 53.1293 72.7242C52.9002 72.5153 53.8519 72.046 54.4799 72.0577C55.413 72.0755 61.1032 69.6802 60.9974 69.3142C60.8653 68.8567 58.5459 68.2007 56.787 68.1229C54.7743 68.0342 52.9156 68.4818 49.8633 69.7902C46.2269 71.3488 43.2098 71.9175 35.7383 72.4525C33.4125 72.6193 32.557 72.573 31.9572 72.2478C31.5309 72.0168 30.0673 71.472 28.705 71.0375C26.2641 70.2592 26.2106 70.2553 25.0766 70.7843C24.3694 71.1144 22.9817 71.351 21.4782 71.3984C18.0915 71.5053 14.5093 70.4539 10.8304 68.2729C9.74897 67.6318 3.28671 65.417 2.41263 65.3878C2.00405 65.374 1.46917 65.2134 1.22418 65.031C0.682259 64.6266 7.68811 65.0994 9.53964 65.5919C11.8959 66.2186 13.1344 66.0781 14.238 65.0588C15.1554 64.2113 15.3814 64.1438 16.65 64.3376C17.4199 64.4551 19.2054 64.6702 20.6176 64.8153C22.0299 64.9604 23.6309 65.2988 24.1752 65.5669C25.8524 66.3928 28.7764 66.7932 31.1529 66.5228C32.8333 66.3312 33.7384 66.0173 35.2319 65.1077C36.8477 64.1236 37.1548 63.8006 37.1747 63.0639C37.1969 62.2443 37.311 62.1689 38.9736 61.8745C40.3284 61.6346 41.0217 61.3029 41.8999 60.4741C43.0274 59.41 43.1065 59.3874 45.7674 59.3657C49.1788 59.338 52.7492 60.1789 52.5917 60.9725C52.51 61.3857 52.7253 61.499 53.6395 61.5237C54.2934 61.5414 55.4099 61.9133 56.2248 62.3847C57.014 62.8411 59.101 63.679 60.8626 64.2461C64.4815 65.4113 66.2741 65.4495 69.1518 64.4222C70.3246 64.0037 71.5026 63.8609 73.37 63.9114C75.0646 63.9569 76.1577 63.8424 76.5298 63.5803C77.2064 63.1035 77.1422 63.056 74.537 62.1046C72.981 61.5366 72.5159 61.2295 72.528 60.779C72.538 60.4106 72.264 60.1124 71.7924 59.9782C70.7222 59.673 70.8737 59.289 72.1989 58.9469C74.4472 58.3665 75.4649 58.3507 76.8205 58.875C77.5763 59.167 79.1688 59.4254 80.442 59.4623C81.6915 59.4986 83.178 59.6778 83.7447 59.8603C84.5639 60.1244 84.8867 60.0951 85.318 59.718C86.0555 59.0733 87.9659 59.4732 89.934 60.6836C90.7618 61.193 91.9437 61.8489 92.5604 62.1412C93.1775 62.4338 93.6896 62.7625 93.6991 62.8719C93.7962 63.9978 94.0591 64.6937 94.703 65.5291C95.6793 66.7958 97.7299 68.0187 98.5342 67.814C100.246 67.3779 100.882 66.968 101.373 65.9828C101.999 64.726 103.224 63.9383 104.907 63.7103C106.059 63.5545 106.115 63.4982 105.957 62.6568C105.818 61.9114 105.949 61.6489 106.771 61.0287C107.725 60.3082 107.741 60.2592 107.383 59.1556C107.181 58.5321 106.906 58.0191 106.773 58.0155C106.64 58.0119 106.536 57.8246 106.542 57.5992C106.549 57.3398 107.26 57.0763 108.479 56.8809Z" fill="#F14B64"/>
<path d="M211.849 68.4819C210.778 68.5485 209.348 68.7354 208.67 68.8972C206.58 69.3955 205.123 69.0468 201.808 67.2544L198.73 65.5908L191.981 64.6448C188.227 64.1184 184.349 63.7313 183.24 63.7724C182.144 63.8128 180.187 63.8388 178.89 63.83C177.594 63.821 175.873 63.9545 175.067 64.1262C174.066 64.3394 173.516 64.3268 173.333 64.0861C173.008 63.6611 172.819 63.7659 175.738 62.7527C178.704 61.7236 180.474 61.4462 185.534 61.2176C187.724 61.1187 190.421 60.8133 191.528 60.5386C192.635 60.2642 193.764 60.0671 194.036 60.1009C194.308 60.1346 195.04 59.9607 195.662 59.7142C196.285 59.4678 197.984 59.0387 199.438 58.7607C201.595 58.3486 202.69 58.3257 205.39 58.637L208.7 59.0185L211.031 57.4431C212.314 56.577 213.681 55.576 214.07 55.219C214.566 54.7633 215.307 54.548 216.554 54.4967C219.72 54.367 219.779 54.3299 218.713 53.166L217.79 52.1584L218.617 51.6435C220.893 50.2267 228.536 50.0651 231.689 51.367C233.49 52.1107 234.58 53.4385 234.344 54.6017C234.186 55.3772 234.321 55.6875 235.117 56.3829C235.647 56.8459 236.324 57.4768 236.621 57.7843C237.187 58.3696 237.793 58.4306 242.347 58.36C244.499 58.3267 246.722 57.925 249.371 57.0909C250.516 56.7306 251.76 56.717 255.635 57.0233C258.294 57.2335 262.241 57.5177 264.405 57.6551C266.57 57.7924 268.398 57.9674 268.468 58.0442C268.676 58.2742 267.683 58.6496 267.059 58.5775C266.132 58.4699 260.238 60.3059 260.308 60.6803C260.395 61.1485 262.641 62.0248 264.384 62.2717C266.379 62.5539 268.272 62.2875 271.436 61.2792C275.206 60.078 278.263 59.8027 285.752 59.9898C288.083 60.0479 288.93 60.1764 289.495 60.5579C289.898 60.8288 291.302 61.5121 292.616 62.0758C294.971 63.0856 295.023 63.0947 296.203 62.6774C296.939 62.417 298.343 62.3151 299.844 62.4128C303.225 62.6326 306.689 64.0242 310.141 66.5494C311.156 67.2917 317.375 70.1187 318.242 70.232C318.647 70.2851 319.164 70.4965 319.39 70.7017C319.891 71.1563 312.963 70.0109 311.168 69.3423C308.883 68.4915 307.636 68.5121 306.44 69.4203C305.445 70.1756 305.213 70.2209 303.969 69.9059C303.214 69.7147 301.458 69.3286 300.066 69.0481C298.675 68.7677 297.114 68.2766 296.598 67.9573C295.008 66.9737 292.136 66.2935 289.745 66.3337C288.053 66.3626 287.122 66.5878 285.548 67.3493C283.845 68.1732 283.508 68.4651 283.417 69.1965C283.316 70.0101 283.196 70.0742 281.512 70.207C280.141 70.3153 279.419 70.5787 278.465 71.3191C277.24 72.2696 277.159 72.2844 274.509 72.0497C271.11 71.7487 267.638 70.5677 267.871 69.7929C267.992 69.3896 267.788 69.2561 266.881 69.1434C266.232 69.0628 265.156 68.585 264.391 68.0374C263.649 67.5071 261.652 66.472 259.954 65.7379C256.464 64.2295 254.683 64.0188 251.72 64.7641C250.512 65.0677 249.326 65.0963 247.472 64.8662C245.79 64.6576 244.691 64.6663 244.295 64.8914C243.576 65.3008 243.635 65.3542 246.137 66.5522C247.631 67.2674 248.064 67.6179 248.008 68.0651C247.963 68.4308 248.207 68.754 248.664 68.933C249.699 69.3399 249.512 69.7075 248.16 69.9204C245.866 70.2816 244.851 70.1992 243.553 69.5468C242.828 69.1833 241.268 68.7727 240.005 68.6133C238.764 68.4569 237.302 68.1353 236.756 67.899C235.966 67.5572 235.641 67.5553 235.176 67.8891C234.38 68.4598 232.517 67.8777 230.674 66.4833C229.899 65.8966 228.786 65.1299 228.2 64.7795C227.614 64.4288 227.136 64.0523 227.137 63.9425C227.149 62.8125 226.955 62.0945 226.394 61.201C225.544 59.8461 223.621 58.4313 222.801 58.5577C221.055 58.8268 220.383 59.1736 219.799 60.1069C219.055 61.2975 217.759 61.9635 216.062 62.0283C214.901 62.0725 214.84 62.1231 214.916 62.9757C214.983 63.7311 214.827 63.9798 213.949 64.518C212.93 65.1432 212.91 65.1905 213.16 66.3234C213.301 66.9635 213.524 67.5005 213.656 67.5169C213.788 67.5333 213.874 67.7297 213.846 67.9535C213.814 68.211 213.082 68.4049 211.849 68.4819Z" fill="#F14B64"/>
<path d="M316.309 14.802C314.96 14.7387 313.162 14.5578 312.315 14.4C309.703 13.914 307.84 14.2602 303.539 16.0312L299.547 17.675L290.957 18.6202C286.179 19.1462 281.252 19.5353 279.853 19.4973C278.47 19.4597 275.997 19.4383 274.357 19.4496C272.717 19.4612 270.55 19.3335 269.542 19.1662C268.289 18.9585 267.593 18.972 267.346 19.2093C266.91 19.6283 266.677 19.5256 270.306 20.5166C273.994 21.5231 276.215 21.7925 282.597 22.0068C285.36 22.0995 288.752 22.3944 290.135 22.6625C291.518 22.9302 292.932 23.1217 293.278 23.0879C293.624 23.0541 294.539 23.2238 295.312 23.4651C296.084 23.7063 298.206 24.125 300.027 24.3956C302.729 24.7966 304.112 24.8168 307.545 24.5048L311.752 24.1223L314.604 25.6679C316.173 26.5177 317.841 27.4999 318.311 27.8504C318.911 28.2979 319.834 28.5082 321.408 28.5561C325.402 28.6771 325.475 28.7135 324.056 29.8612L322.828 30.8548L323.842 31.3599C326.633 32.7494 336.287 32.8924 340.352 31.6044C342.675 30.8687 344.133 29.5596 343.906 28.4153C343.754 27.6525 343.943 27.3468 344.991 26.6607C345.689 26.2039 346.584 25.5815 346.978 25.2783C347.729 24.701 348.499 24.6398 354.253 24.6997C356.972 24.7279 359.757 25.1186 363.055 25.934C364.481 26.2861 366.054 26.2969 370.971 25.9873C374.346 25.7748 379.353 25.4868 382.098 25.347C384.843 25.2073 387.165 25.0313 387.258 24.9556C387.535 24.7287 386.303 24.3613 385.509 24.4336C384.331 24.5415 376.99 22.7469 377.101 22.3783C377.24 21.9174 380.132 21.0501 382.351 20.8035C384.891 20.5216 387.268 20.7798 391.207 21.7655C395.9 22.9397 399.749 23.2043 409.228 23.0043C412.179 22.9422 413.257 22.814 413.996 22.4374C414.521 22.1699 416.338 21.4945 418.033 20.9369C421.072 19.9381 421.139 19.9291 422.605 20.3373C423.519 20.5921 425.288 20.6893 427.192 20.5901C431.48 20.3666 435.945 18.9897 440.462 16.4972C441.79 15.7645 449.825 12.9692 450.928 12.8559C451.444 12.8028 452.11 12.5936 452.409 12.3912C453.069 11.9427 444.241 13.0845 441.93 13.7464C438.989 14.5885 437.415 14.5709 435.957 13.6795C434.745 12.9383 434.456 12.8942 432.864 13.2069C431.897 13.3966 429.653 13.7803 427.877 14.0592C426.1 14.3382 424.097 14.8247 423.425 15.1401C421.355 16.1115 417.683 16.787 414.662 16.7524C412.526 16.7276 411.362 16.5078 409.418 15.7617C407.315 14.9545 406.907 14.6679 406.837 13.9482C406.759 13.1477 406.61 13.0849 404.49 12.9577C402.762 12.854 401.865 12.5963 400.704 11.8697C399.214 10.9368 399.112 10.9223 395.747 11.1589C391.432 11.4623 386.97 12.6319 387.217 13.3939C387.346 13.7906 387.081 13.9225 385.926 14.0353C385.101 14.1159 383.712 14.5884 382.711 15.129C381.741 15.6525 379.154 16.6754 376.961 17.4015C372.457 18.8933 370.193 19.1045 366.492 18.3772C364.984 18.0809 363.486 18.0553 361.128 18.2857C358.988 18.4944 357.599 18.4882 357.113 18.2675C356.228 17.8661 356.306 17.8134 359.542 16.6292C361.474 15.9221 362.043 15.5763 362 15.1362C361.965 14.7764 362.293 14.4578 362.881 14.2806C364.216 13.878 364.001 13.5166 362.304 13.3099C359.426 12.9593 358.139 13.0425 356.457 13.6873C355.519 14.0466 353.522 14.454 351.914 14.6135C350.337 14.7701 348.469 15.0897 347.763 15.3233C346.744 15.6614 346.334 15.664 345.765 15.3364C344.793 14.7764 342.403 15.3532 339.989 16.7294C338.973 17.3085 337.519 18.0654 336.757 18.4115C335.995 18.7578 335.368 19.1294 335.363 19.2374C335.309 20.3496 335.019 21.0566 334.256 21.9372C333.099 23.2725 330.582 24.6688 329.553 24.5462C327.361 24.285 326.533 23.9452 325.852 23.0279C324.982 21.8576 323.385 21.2049 321.244 21.1447C319.778 21.1037 319.704 21.054 319.852 20.2147C319.982 19.4711 319.801 19.2267 318.724 18.6989C317.473 18.0857 317.45 18.0392 317.835 16.9236C318.052 16.2934 318.368 15.7644 318.536 15.748C318.704 15.7316 318.824 15.5381 318.802 15.3179C318.777 15.0645 317.863 14.8753 316.309 14.802Z" fill="#F14B64"/>
<path d="M32.396 31.916H41.54L52.376 47.9L63.68 31.916H72.464L57.056 53.696C56.012 55.1 54.536 56.396 52.232 56.396C50 56.396 48.524 55.208 47.48 53.696L32.396 31.916ZM81.9596 31.916V56H74.5076V31.916H81.9596ZM93.3308 49.808H111.979L107.155 56H85.8788V31.916H93.3308V49.808ZM121.193 49.808H139.841L135.017 56H113.741V31.916H121.193V49.808ZM178.604 56H150.596L155.096 49.808H161.144C162.584 49.808 164.276 49.808 165.428 49.88C164.78 49.016 163.772 47.54 162.98 46.388L158.66 40.016L147.356 56H138.536L153.98 34.22C154.988 32.816 156.464 31.52 158.804 31.52C161.036 31.52 162.512 32.708 163.556 34.22L178.604 56ZM188.099 31.916V56H180.647V31.916H188.099ZM216.426 56.396C215.49 56.396 214.59 56.18 213.438 55.1L198.678 41.852V56H191.91V36.02C191.91 32.816 193.854 31.52 195.978 31.52C196.878 31.52 197.778 31.736 198.966 32.816L213.726 46.064V31.916H220.53V51.86C220.53 55.064 218.586 56.396 216.426 56.396ZM233.421 41.528H246.525C252.393 41.528 255.561 43.724 255.561 48.116C255.561 53.048 252.573 56 245.229 56H222.801L227.589 49.808H245.805C247.569 49.808 248.361 49.304 248.361 48.044C248.361 46.82 247.569 46.316 245.805 46.316H232.701C226.509 46.316 223.665 43.544 223.665 39.404C223.665 34.868 226.689 31.916 233.997 31.916H254.913L250.125 38.18H233.421C231.693 38.18 230.865 38.612 230.865 39.836C230.865 41.06 231.693 41.528 233.421 41.528ZM256.277 31.916H265.421L276.257 47.9L287.561 31.916H296.345L280.937 53.696C279.893 55.1 278.417 56.396 276.113 56.396C273.881 56.396 272.405 55.208 271.361 53.696L256.277 31.916ZM305.768 49.808H326.252L321.464 56H298.28V31.916H326.18L321.356 38.18H305.768V41.06H324.848L320.564 46.532H305.768V49.808ZM357.812 51.32L362.24 56H352.268L346.904 49.628H335.456V56H328.004V43.688H348.956C351.26 43.688 353.06 42.644 353.06 40.988C353.06 39.116 351.512 38.18 348.956 38.18H328.004L332.864 31.916H348.344C353.816 31.916 360.728 33.644 360.728 40.52C360.728 44.264 358.388 47.36 354.428 48.152C355.256 48.764 356.156 49.628 357.812 51.32ZM373.416 41.528H386.52C392.388 41.528 395.556 43.724 395.556 48.116C395.556 53.048 392.568 56 385.224 56H362.796L367.584 49.808H385.8C387.564 49.808 388.356 49.304 388.356 48.044C388.356 46.82 387.564 46.316 385.8 46.316H372.696C366.504 46.316 363.66 43.544 363.66 39.404C363.66 34.868 366.684 31.916 373.992 31.916H394.908L390.12 38.18H373.416C371.688 38.18 370.86 38.612 370.86 39.836C370.86 41.06 371.688 41.528 373.416 41.528ZM405.632 49.808H426.116L421.328 56H398.144V31.916H426.044L421.22 38.18H405.632V41.06H424.712L420.428 46.532H405.632V49.808Z" fill="black"/>
</svg>
