<svg width="83" height="83" viewBox="0 0 83 83" fill="none" xmlns="http://www.w3.org/2000/svg">
<path d="M43.3456 58.8088C42.1903 58.9128 41.0874 58.8608 39.9321 58.7048C38.8292 58.5489 37.7264 58.2889 36.6235 57.925C34.4704 57.1971 32.5272 56.0013 30.8992 54.5455C30.059 53.8177 29.3238 52.9858 28.6936 52.1539C28.0108 51.2701 27.4332 50.3343 26.9605 49.3984C25.9627 47.4747 25.385 45.3431 25.175 43.2115C24.9649 41.0798 25.175 38.8962 25.8052 36.8166C26.4354 34.7369 27.4857 32.8132 28.8511 31.0975C30.2165 29.3818 31.8971 27.9781 33.8402 26.8862C35.7833 25.7944 37.9364 25.1185 40.1421 24.8586C42.3478 24.5986 44.6585 24.7546 46.8117 25.3785C48.9649 26.0024 51.0655 26.9902 52.8511 28.394C54.6366 29.7978 56.1596 31.5655 57.2624 33.5411C58.3653 35.5168 59.048 37.7524 59.3106 40.04C59.4156 41.1838 59.4156 42.3276 59.3106 43.4714C59.2055 44.6152 58.9955 45.759 58.6279 46.8509C58.3128 47.9427 57.8401 48.9825 57.2624 50.0223C56.6848 51.0101 56.0546 51.946 55.3193 52.8298C53.8489 54.5455 52.0108 56.0013 49.9627 57.0411C47.862 58.0289 45.6038 58.6528 43.3456 58.8088ZM43.1881 57.2491C47.3369 56.7812 51.1705 54.7015 53.7438 51.5301C55.0567 49.9703 56.002 48.1506 56.6322 46.227C57.2624 44.3033 57.4725 42.2756 57.3149 40.248C56.9998 36.1927 55.0042 32.2933 51.8533 29.6418C50.2778 28.29 48.4397 27.2502 46.4441 26.5743C44.4485 25.8984 42.3478 25.6385 40.1946 25.7424C38.094 25.8984 35.9933 26.4183 34.0502 27.3542C32.1596 28.29 30.3741 29.6418 29.0087 31.2535C27.5907 32.8652 26.5404 34.7889 25.8577 36.8166C25.5426 37.8564 25.28 38.8962 25.175 39.988C25.0699 41.0798 25.0699 42.1197 25.175 43.2115C25.385 45.3431 26.0152 47.4747 27.1181 49.2944C27.6432 50.2303 28.2734 51.1141 29.0087 51.894C29.7439 52.6739 30.5316 53.4017 31.3719 54.0776C33.0524 55.3774 34.9955 56.2613 37.0437 56.7812C39.0393 57.3531 41.1399 57.457 43.1881 57.2491Z" fill="#9CFFFF"/>
<path d="M35.8883 26.4158C35.6782 26.6758 39.827 23.7123 44.6585 25.688C44.0808 25.636 40.1421 22.1006 39.5119 16.2256C39.5119 16.2256 39.6169 23.2964 35.8883 26.4158Z" fill="#9CFFFF"/>
<path d="M39.2498 58.3385C39.2498 58.3385 43.7662 60.3662 47.4423 56.6748C46.9171 56.8828 44.0813 61.614 45.0791 67.6969C45.0266 67.6969 43.6611 60.4182 39.2498 58.3385Z" fill="#9CFFFF"/>
<path d="M34.9433 31.0935L31.0045 22.9829L23.9673 19.9154C23.0221 17.4718 19.2934 13.5205 15.9849 9.8291L25.7004 18.7716C27.8535 20.6953 30.952 21.4751 34.9433 21.1632C33.7354 23.0868 33.8929 26.5703 34.9433 31.0935Z" fill="#4B89C8"/>
<path d="M34.9433 39.1523L29.5867 44.2475C29.5867 44.2475 33.2628 42.8957 34.9433 44.2475C36.6239 45.5992 37.2015 50.7464 37.2015 50.7464V39.1523L34.9433 42.4278V39.1523Z" fill="#4B89C8"/>
<path d="M29.5866 49.1299L20.8164 55.7847L27.4859 53.7051L15.9849 72.7339C20.9739 64.8832 25.7529 56.5646 33.3678 53.7051C33.3678 53.7051 29.2715 55.1089 29.5341 53.1332C29.8492 51.2095 29.5866 49.1299 29.5866 49.1299Z" fill="#4B89C8"/>
<path d="M54.5842 34.2148C55.8446 34.3188 51.4858 42.4294 51.4858 42.4294C56.3173 33.7989 61.5689 26.3642 67.7133 21.165C61.9365 24.5965 52.7987 35.0467 48.5974 34.9947C45.1838 34.9427 45.709 28.5478 45.709 28.5478L42.8206 42.4294C42.8206 42.4294 47.2319 37.1263 52.9562 34.9947" fill="#4B89C8"/>
<path d="M42.8738 47.5742C42.8738 47.5742 42.7688 52.0455 40.8257 53.4492C40.8257 53.4492 43.7666 51.8895 45.8147 52.7213C47.8629 53.5532 56.5281 62.1317 56.5281 62.1317C56.5281 62.1317 47.8103 54.1771 47.7053 51.7855C47.6528 50.2778 51.7491 52.6694 51.7491 52.6694C51.7491 52.6694 46.2349 48.874 45.8672 48.614C45.4996 48.3541 47.2852 51.5775 45.8672 51.2136C44.3443 50.7977 42.8738 47.5742 42.8738 47.5742Z" fill="#4B89C8"/>
<path d="M33.4193 26.149C33.4193 26.149 32.5265 23.1335 32.264 22.6656C32.0014 22.1977 26.5397 20.7419 24.8066 19.4941C24.8066 19.4941 30.0058 21.7818 31.7388 21.8857C33.4718 21.9897 33.9445 21.7298 33.9445 21.7298C33.9445 21.7298 32.9992 23.6534 33.4193 26.149Z" fill="#9CFFFF"/>
<path d="M45.3414 33.4845C45.3414 33.4845 45.1838 37.6438 44.186 39.5674C44.186 39.5674 51.5383 34.3683 53.9016 33.7444C56.2648 33.0685 55.2145 35.1482 55.2145 35.1482C55.2145 35.1482 58.8906 29.0652 60.046 28.0254C60.046 28.0254 56.7374 32.0807 55.2145 32.6526C53.639 33.2245 47.8097 36.344 46.2867 37.1758L45.3414 33.4845Z" fill="#9CFFFF"/>
<path d="M33.9451 41.1797L32.3696 42.7914C32.3696 42.7914 35.6256 42.5835 36.5709 45.9629V41.4396C36.5709 41.4396 36.3084 43.3633 35.6256 43.2073C34.9954 43.1034 33.7351 42.4795 33.9451 41.1797Z" fill="#9CFFFF"/>
<path d="M24.8066 53.5507L28.6928 50.7432C28.6928 50.7432 27.8526 53.0828 29.1655 54.1226L24.8066 59.3737L28.2727 53.9146C28.2727 53.9146 27.485 53.2387 27.8001 52.1989L24.8066 53.5507Z" fill="#9CFFFF"/>
<path d="M43.3982 49.4971C43.3982 49.4971 43.6608 51.0568 42.8206 51.7847C42.8206 51.7847 45.7615 51.5247 47.0219 52.7205C47.0219 52.7205 47.0219 50.7449 47.9672 50.7449C47.9672 50.7449 46.7593 50.2769 46.6542 51.6807C46.6542 51.6807 45.0788 51.8887 44.4486 51.1088C43.8184 50.3289 43.3982 49.4971 43.3982 49.4971Z" fill="#70CAEE"/>
</svg>
