<svg width="375" height="214" viewBox="0 0 375 214" fill="none" xmlns="http://www.w3.org/2000/svg">
<path fill-rule="evenodd" clip-rule="evenodd" d="M72.1047 118.232C74.66 117.124 80.1626 115.383 84.3341 114.362C89.1356 113.186 91.8832 111.915 91.8242 110.897C91.7729 110.013 91.2951 109.316 90.7635 109.347C90.2306 109.377 88.9642 107.463 87.9483 105.092C86.1497 100.895 86.1966 100.698 89.7628 97.557C92.8355 94.8529 93.2703 93.7816 92.4637 90.9123C91.553 87.6737 91.7578 87.4346 96.3011 86.4361C102.942 84.9758 107.567 81.4805 109.646 76.3517C111.276 72.3315 113.675 70.5133 120.362 68.229C123.504 67.1562 132.098 71.2482 136.419 75.8747C139.269 78.9256 140.552 81.5594 141.317 85.9316C141.392 86.3562 143.546 87.4694 146.107 88.4059C148.666 89.3413 153.603 91.5082 157.078 93.2216C165.339 97.2928 173.098 98.2122 175.825 95.4406C177.42 93.8197 178.699 93.5961 182.057 94.3527C184.38 94.8753 190.373 95.0746 195.373 94.7945C200.466 94.5089 206.909 94.9822 210.024 95.8696C215.61 97.4629 219.667 97.0577 228.446 94.0275C233.62 92.2415 234.096 90.6879 229.723 89.8552C227.795 89.4895 226.602 88.4154 226.518 86.9707C226.415 85.204 224.456 84.1597 218.055 82.4629C207.338 79.6203 207.066 79.4562 209.607 77.3624C211.004 76.211 215.328 75.3941 222.107 74.9998C229.577 74.5667 234.231 73.6104 238.772 71.5769C249.913 66.586 257.081 66.1303 271.915 69.4669C279.136 71.0906 287.747 73.6641 291.05 75.1834C294.46 76.7523 299.041 77.8304 301.657 77.6788C305.314 77.4667 306.212 77.8375 306.024 79.4814C305.661 82.6395 320.193 84.724 333.8 83.4636C344.413 82.4801 344.721 82.365 348.865 77.8212C352.092 74.2819 354.748 72.7501 360.075 71.3538C366.612 69.6407 367.042 69.3071 366.856 66.0933C366.688 63.204 367.806 61.8367 373.925 57.4408C379.581 53.378 383.088 51.8442 389.731 50.5271C399.126 48.6666 410.93 49.2457 417.901 51.9107C420.164 52.7758 426.667 53.5591 432.352 53.6498C438.038 53.7406 445.236 53.9793 448.348 54.1792C453.476 54.5088 454.356 54.1687 457.733 50.5428C461.796 46.1823 466.692 45.2144 476.307 46.8707C483.862 48.1725 511.983 47.6563 509.684 46.2574C508.645 45.6263 506.456 45.1785 504.821 45.2624C501.323 45.4434 474.788 38.9604 470.256 36.8174C454.842 29.5268 440.192 26.6231 426.711 28.1847C420.726 28.878 415.266 30.2723 412.554 31.8025C408.206 34.255 407.991 34.2578 397.988 32.0371C392.404 30.7971 386.38 29.1599 384.601 28.4004C382.098 27.3305 378.668 27.4382 369.441 28.876C339.8 33.4923 327.949 36.7359 313.958 44.062C302.214 50.2116 294.945 52.5905 286.882 52.9231C279.836 53.2125 270.359 51.4292 269.678 49.6838C269.133 48.2878 291.041 36.995 294.771 36.7495C297.282 36.5833 300.923 34.4257 299.939 33.6858C299.61 33.4388 292.281 34.0666 283.652 35.0796C275.023 36.0926 259.267 37.8093 248.638 38.8934C233.151 40.473 228.258 41.4128 224.004 43.6204C214.166 48.7301 205.696 51.8663 197.241 53.5289C179.345 57.0488 176.913 57.2457 174.264 55.3885C172.871 54.4134 169.75 52.4596 167.33 51.0496C163.695 48.9311 162.941 47.8291 163.006 44.7223C163.1 40.0621 157.852 35.7117 150.22 34.1239C136.861 31.3446 106.859 37.418 98.9102 44.5116L96.0221 47.0896L100.382 50.3227C105.418 54.0572 105.21 54.243 92.8315 57.0008C87.9543 58.0879 85.19 59.4474 83.5617 61.5611C82.2848 63.2171 77.6155 68.0575 73.1847 72.3166L65.1287 80.0628L51.815 80.949C40.9498 81.6725 36.6529 82.5413 28.4484 85.6705C22.9197 87.7808 16.5335 90.6491 14.2561 92.0448C11.9799 93.4404 9.21937 94.6344 8.12347 94.6979C7.02757 94.7615 2.72244 96.3269 -1.44233 98.1759C-5.60702 100.026 -16.0171 103.129 -24.5759 105.072C-44.3474 109.562 -51.1219 111.895 -62.0709 117.984C-72.8468 123.978 -72.1758 123.439 -70.5923 124.849C-69.6955 125.647 -67.5199 125.304 -63.7283 123.767C-60.675 122.529 -53.9914 120.787 -48.8768 119.897C-43.761 119.006 -36.0668 117.511 -31.7775 116.573C-27.4391 115.624 -11.8792 114.354 3.29169 113.71L30.5622 112.552L43.8858 116.781C58.2368 121.339 64.2289 121.646 72.1047 118.232Z" fill="#0D0425"/>
<path fill-rule="evenodd" clip-rule="evenodd" d="M443.024 50.9989C445.73 49.5941 449.525 47.106 451.459 45.4704C455.745 41.8446 472.337 33.8576 479.282 32.0766C482.07 31.3619 485.612 30.2373 487.153 29.577C489.827 28.4314 489.783 28.3853 486.205 28.5828C484.143 28.6961 479.473 29.6573 475.827 30.7191C472.181 31.7809 468.713 32.23 468.119 31.717C466.278 30.1247 459.168 33.1243 454.305 37.5444C451.751 39.8653 447.59 42.4591 445.059 43.3068C441.839 44.3864 439.896 45.9255 438.584 48.4375C436.992 51.4862 435.957 52.1366 431.71 52.7601C428.96 53.1632 425.648 53.0039 424.349 52.4048C421.295 50.9999 416.633 52.3591 402.109 58.8883C390.537 64.0919 389.993 64.2219 378.461 64.5529C357.246 65.1591 348.231 66.6741 328.502 72.9467C313.156 77.8245 309.875 79.2053 309.231 81.05C308.53 83.0575 307.409 83.4133 297.67 84.7196C291.737 85.5151 284.986 86.4976 282.666 86.903C277.468 87.8112 269.119 88.1307 271.046 87.3478C273.889 86.1933 271.714 84.828 267.088 84.8639C264.471 84.8842 259.968 83.7499 257.08 82.3441C250.135 78.9632 244.521 78.6161 238.658 81.2025C232.541 83.9034 224.808 89.9575 224.278 92.4633C224.052 93.5281 222.145 94.9393 220.037 95.6008C217.858 96.2848 214.758 98.6295 212.85 101.035C209.011 105.877 203.871 107.902 198.058 106.866C195.85 106.471 192.237 106.807 190.028 107.61C183.666 109.922 183.551 109.895 179.738 105.072C177.745 102.551 175.395 100.714 174.515 100.99C173.635 101.266 172.032 100.625 170.95 99.5664C169.359 98.0065 167.801 98.0124 162.756 99.5958C155.099 101.999 153.113 103.491 153.962 106.198C154.967 109.4 147.424 121.136 144.684 120.635C141.764 120.099 124.943 120.658 115.233 121.611C109.765 122.148 105.571 123.311 100.906 125.583C97.2786 127.351 89.836 130.671 84.3649 132.962C78.895 135.252 74.2329 137.856 74.0055 138.747C73.5578 140.509 60.1991 143.653 59.7153 142.111C59.5711 141.652 56.3702 141.904 52.602 142.674C48.8338 143.443 45.3982 143.583 44.9664 142.985C44.535 142.389 42.9227 142.295 41.3846 142.777C39.5653 143.348 38.3793 142.992 37.9924 141.76C37.4755 140.113 36.4032 140.289 29.8323 143.102C17.1867 148.514 13.991 150.35 14.4832 151.918C14.7415 152.741 13.3705 154.299 11.4379 155.379C9.50381 156.459 7.08384 158.333 6.05705 159.541C5.03143 160.749 1.52185 163.238 -1.74217 165.071C-5.00467 166.905 -11.1876 170.885 -15.4805 173.915C-19.773 176.947 -27.0036 181.251 -31.5479 183.481C-41.2622 188.247 -69.2681 205.404 -70.3957 207.28C-71.7406 209.516 -69.7846 209.462 -66.6158 207.176C-57.9467 200.918 -38.9684 190.338 -17.1202 179.583C14.6218 163.956 13.7192 164.324 55.2265 150.075C81.7935 140.955 91.4131 137.227 93.1977 135.363C99.0812 129.214 129.372 122.877 141.689 125.217C147.209 126.267 148.558 125.475 153.339 118.387C158.096 111.329 159.761 109.905 166.953 106.729C172.954 104.08 173.283 104.077 175.643 106.688C182.621 114.405 182.507 114.344 188.544 113.663C193.019 113.159 194.545 112.572 194.888 111.223C195.231 109.874 196.013 109.573 198.127 109.975C202.883 110.876 212.045 107.332 214.595 103.606C215.842 101.783 219.472 98.9756 222.662 97.368C225.85 95.7607 230.757 93.0293 233.566 91.2983C239.075 87.9012 246.654 86.1618 252.478 86.9564C257.604 87.6551 257.37 88.5598 251.337 91.3868C239.183 97.0808 237.714 97.9703 238.547 99.1313C239.028 99.8003 242.424 99.5505 246.264 98.5628C250.035 97.5915 254.433 97.2128 256.034 97.7209C258 98.3432 262.035 97.6743 268.444 95.6626C275.343 93.4972 278.566 93.0069 280.222 93.8728C281.709 94.6493 284.77 94.3522 289.017 93.0191C292.599 91.8948 298.017 90.8312 301.056 90.6565C304.095 90.4821 307.382 89.6676 308.361 88.8466C311.581 86.1477 316.809 84.5982 322.862 84.5494C329.37 84.4963 337.202 81.8625 337.228 79.7185C337.238 78.9744 335.282 78.0702 332.882 77.7073C328.573 77.0575 328.65 77.0105 339.073 73.9335C347.466 71.4542 350.18 71.1057 352.327 72.2257C354.189 73.1984 356.684 73.0804 360.379 71.8442C366.305 69.8608 376.406 68.1194 391.319 66.5099C401.858 65.3719 433.784 55.7947 443.024 50.9989Z" fill="#1D0C32"/>
</svg>
