<svg width="532" height="300" viewBox="0 0 532 300" fill="none" xmlns="http://www.w3.org/2000/svg">
<path fill-rule="evenodd" clip-rule="evenodd" d="M362.08 168.057C359.3 167.875 353.61 166.911 349.433 165.914C344.624 164.766 341.599 164.642 341.187 165.574C340.829 166.384 340.935 167.223 341.422 167.438C341.91 167.654 342.162 169.935 341.983 172.509C341.666 177.064 341.534 177.218 336.927 178.383C332.958 179.384 332.082 180.139 331.489 183.06C330.82 186.357 330.528 186.476 326.03 185.289C319.456 183.554 313.745 184.55 309.552 188.163C306.266 190.995 303.302 191.516 296.309 190.494C293.025 190.013 287.249 182.447 285.518 176.357C284.376 172.341 284.439 169.412 285.755 165.174C285.883 164.762 284.475 162.787 282.625 160.785C280.775 158.783 277.373 154.6 275.065 151.489C269.576 144.094 263.094 139.731 259.402 140.951C257.243 141.664 256.003 141.279 253.361 139.072C251.533 137.546 246.293 134.631 241.718 132.596C237.056 130.523 231.541 127.159 229.176 124.947C224.934 120.978 221.141 119.485 211.947 118.17C206.528 117.395 205.395 118.56 208.905 121.299C210.453 122.505 211.024 124.005 210.439 125.329C209.723 126.947 210.989 128.771 215.907 133.204C224.143 140.629 224.309 140.899 221.093 141.601C219.324 141.987 215.104 140.738 208.894 137.992C202.051 134.965 197.474 133.69 192.506 133.425C180.315 132.775 173.731 129.906 162.059 120.161C156.377 115.418 149.893 109.196 147.649 106.335C145.332 103.382 141.749 100.33 139.353 99.2699C136.003 97.788 135.374 97.0482 136.292 95.6716C138.057 93.0278 126.082 84.5352 113.402 79.4407C103.512 75.4673 103.185 75.429 97.4237 77.5782C92.9361 79.2525 89.8738 79.4019 84.4972 78.2105C77.8995 76.7482 77.3644 76.8484 76.0621 79.7925C74.8912 82.4392 73.2725 83.145 65.8212 84.2602C58.9338 85.2906 55.113 85.0528 48.6023 83.19C39.3952 80.5534 29.1589 74.6458 24.1754 69.0908C22.5578 67.2876 17.1306 63.6201 12.1145 60.9422C7.0984 58.2643 0.804217 54.7637 -1.87307 53.1642C-6.28438 50.5284 -7.22203 50.4293 -11.883 52.1117C-17.4891 54.1347 -22.2868 52.7591 -30.0828 46.8937C-36.2089 42.2844 -61.4597 29.8978 -60.0541 32.1922C-59.4182 33.2282 -57.6757 34.6264 -56.1826 35.2988C-52.9879 36.736 -32.3448 54.6245 -29.2931 58.6007C-18.9111 72.1277 -7.20544 81.403 5.50024 86.1722C11.141 88.2895 16.6346 89.5432 19.746 89.4208C24.7345 89.2256 24.927 89.3213 32.811 95.8662C37.2111 99.5197 41.8221 103.728 43.0577 105.216C44.7955 107.312 47.8958 108.782 56.7608 111.719C85.2371 121.152 97.2614 123.681 113.054 123.555C126.31 123.449 133.863 124.654 141.187 128.041C147.588 131.002 155.203 136.918 155.012 138.782C154.859 140.272 130.212 140.31 126.781 138.825C124.472 137.826 120.247 138.082 120.785 139.19C120.965 139.56 127.771 142.349 135.91 145.39C144.048 148.43 158.849 154.101 168.799 157.992C183.298 163.661 188.08 165.061 192.872 165.04C203.957 164.988 212.925 166.068 221.205 168.451C238.733 173.495 240.986 174.431 242.495 177.293C243.289 178.797 245.172 181.96 246.681 184.321C248.946 187.865 249.113 189.19 247.637 191.924C245.424 196.027 248.106 202.294 254.169 207.193C264.784 215.768 294.246 224.07 304.558 221.391L308.305 220.417L305.903 215.55C303.129 209.927 303.399 209.857 315.67 213.058C320.506 214.319 323.586 214.373 326 213.236C327.892 212.346 334.257 210.173 340.144 208.409L350.849 205.198L363.097 210.492C373.093 214.811 377.312 216.001 386.04 216.966C391.922 217.614 398.913 217.98 401.577 217.778C404.239 217.577 407.24 217.776 408.244 218.22C409.248 218.664 413.793 219.238 418.342 219.496C422.892 219.752 433.57 221.748 442.071 223.929C461.711 228.966 468.803 229.985 481.324 229.571C493.648 229.161 492.805 229.334 492.04 227.357C491.607 226.237 489.515 225.549 485.44 225.184C482.158 224.89 475.417 223.387 470.461 221.842C465.503 220.297 457.975 218.113 453.731 216.988C449.439 215.85 435.017 209.872 421.227 203.515L396.439 192.088L386.519 182.239C375.835 171.629 370.645 168.618 362.08 168.057Z" fill="#0D0425"/>
<path fill-rule="evenodd" clip-rule="evenodd" d="M1.40995 58.423C-1.63856 58.4367 -6.15175 58.9161 -8.61923 59.4876C-14.0877 60.7554 -32.4959 60.281 -39.488 58.6924C-42.2941 58.0548 -45.9589 57.437 -47.6312 57.3206C-50.5331 57.1183 -50.5152 57.1792 -47.2423 58.6379C-45.3562 59.4791 -40.7625 60.7576 -37.0341 61.4786C-33.3058 62.1996 -30.0153 63.3844 -29.7219 64.1117C-28.8116 66.3692 -21.1168 66.9487 -14.771 65.2385C-11.4388 64.3407 -6.55292 63.9339 -3.91434 64.3359C-0.556029 64.8468 1.8751 64.3651 4.18948 62.7298C6.99841 60.745 8.21657 60.6394 12.2787 62.0246C14.9096 62.9224 17.7832 64.5771 18.6653 65.7035C20.7398 68.3482 25.5083 69.269 41.4105 70.0953C54.0814 70.7526 54.6248 70.8854 65.0348 75.8592C84.1838 85.0111 92.8952 87.7815 113.311 91.2139C129.19 93.885 132.74 94.1556 134.155 92.8088C135.696 91.3432 136.856 91.539 146.116 94.8258C151.757 96.8283 158.211 99.0383 160.46 99.7376C165.499 101.304 173.072 104.834 171 104.65C167.943 104.378 169.255 106.586 173.387 108.668C175.723 109.845 179.211 112.911 181.138 115.481C185.772 121.661 190.607 124.534 197.004 124.911C203.68 125.304 213.324 123.45 214.94 121.464C215.627 120.619 217.969 120.235 220.146 120.61C222.397 120.997 226.225 120.327 229.022 119.059C234.648 116.505 240.146 117.051 244.844 120.63C246.627 121.988 249.995 123.34 252.327 123.636C259.042 124.485 259.133 124.562 260.321 130.594C260.942 133.747 262.193 136.454 263.103 136.611C264.011 136.767 265.145 138.069 265.623 139.505C266.326 141.62 267.715 142.327 272.926 143.223C280.835 144.582 283.284 144.163 283.765 141.367C284.333 138.059 296.405 131.065 298.612 132.763C300.966 134.573 316.184 141.76 325.257 145.347C330.367 147.368 334.629 148.25 339.816 148.359C343.851 148.443 351.989 148.89 357.902 149.351C363.814 149.813 369.151 149.626 369.76 148.937C370.963 147.575 384.283 150.88 384.009 152.472C383.927 152.947 386.89 154.185 390.593 155.222C394.297 156.258 397.417 157.703 397.528 158.432C397.639 159.16 399.031 159.981 400.619 160.254C402.499 160.577 403.391 161.435 403.172 162.709C402.88 164.41 403.914 164.743 411.044 165.242C424.765 166.205 428.447 166.031 428.725 164.411C428.871 163.562 430.803 162.802 433.016 162.723C435.229 162.646 438.238 162.085 439.703 161.479C441.168 160.873 445.426 160.263 449.167 160.123C452.907 159.982 460.225 159.266 465.429 158.531C470.632 157.795 479.03 157.27 484.091 157.362C494.91 157.559 527.661 155.09 529.521 153.937C531.739 152.562 529.974 151.717 526.11 152.303C515.54 153.91 493.825 154.651 469.476 154.239C434.101 153.64 435.072 153.724 391.64 147.439C363.84 143.416 353.58 142.337 351.141 143.181C343.099 145.963 313.258 137.763 303.371 130.055C298.94 126.599 297.378 126.687 289.887 130.808C282.431 134.913 280.3 135.42 272.451 134.96C265.902 134.575 265.609 134.427 264.702 131.027C262.02 120.975 262.093 121.081 256.412 118.929C252.201 117.333 250.575 117.158 249.654 118.201C248.732 119.244 247.9 119.155 246.202 117.832C242.384 114.858 232.614 113.825 228.643 115.975C226.701 117.027 222.19 117.866 218.618 117.839C215.048 117.812 209.435 118 206.145 118.257C199.693 118.762 192.156 116.847 187.338 113.48C183.098 110.517 183.719 109.819 190.378 110.06C203.791 110.547 205.504 110.427 205.293 109.014C205.171 108.199 202.035 106.87 198.169 105.994C194.37 105.136 190.285 103.463 189.093 102.28C187.628 100.828 183.733 99.5801 177.113 98.4419C169.987 97.2167 166.896 96.1807 165.818 94.6538C164.85 93.2837 161.991 92.1498 157.604 91.3955C153.904 90.7594 148.599 89.2306 145.815 87.9976C143.033 86.7647 139.736 85.9875 138.49 86.2705C134.393 87.2005 129.034 86.1906 123.628 83.469C117.815 80.5434 109.644 79.3085 108.641 81.2038C108.293 81.8615 109.62 83.5591 111.589 84.9782C115.125 87.5247 115.035 87.5314 104.358 85.5074C95.7594 83.8789 93.1857 82.949 91.7878 80.972C90.5751 79.2558 88.3025 78.2214 84.4505 77.633C78.2729 76.6903 68.4921 73.6253 54.4905 68.2445C44.5953 64.4423 11.8202 58.3777 1.40995 58.423Z" fill="#1D0C32"/>
</svg>
