<svg width="91" height="91" viewBox="0 0 91 91" fill="none" xmlns="http://www.w3.org/2000/svg">
<path d="M51.1879 31.9862C42.5931 28.1052 30.6977 33.1234 26.7407 41.8783C22.7759 50.6626 27.8861 60.7109 36.4514 64.584C45.0463 68.4649 55.8742 65.7802 59.839 56.9958C63.8333 48.2194 59.7828 35.8672 51.1879 31.9862ZM39.417 63.0359C32.2049 60.125 26.0227 51.2602 29.2883 44.0243C32.5539 36.7884 42.6141 31.8891 49.9898 34.3072C55.9745 36.258 61.1372 45.9205 58.6507 54.375C56.3357 62.3075 46.5702 65.9309 39.417 63.0359Z" fill="#ED6E23"/>
<path d="M42.9154 32.9348C42.9154 32.9348 33.8846 32.3837 28.978 39.7107C28.978 39.7107 32.0315 36.6763 32.8186 36.9992C33.6056 37.3221 32.7027 38.8503 32.7027 38.8503C32.7027 38.8503 33.9408 35.6835 42.9154 32.9348Z" fill="#F59E4C"/>
<path d="M49.806 60.8398C49.806 60.8398 52.1135 58.7123 49.0498 54.2305C49.0498 54.2305 52.6423 58.5069 55.3283 57.2067C54.1687 59.2946 51.324 62.1302 49.806 60.8398Z" fill="#ED6E23"/>
<path d="M45.5109 30.6547C45.5109 30.6547 52.0973 30.2418 55.8158 28.2716C59.5421 26.2718 72.9051 15.7767 72.9051 15.7767C72.9051 15.7767 57.4677 31.3021 60.5095 33.9792C63.5513 36.6563 67.9731 32.8862 67.9731 32.8862C67.9731 32.8862 61.0819 39.624 62.5105 41.8373C63.9471 44.0211 67.1552 43.3659 67.1552 43.3659C67.1552 43.3659 62.0316 45.2752 61.3886 49.6791C61.3807 49.7086 59.9177 34.7296 45.5109 30.6547Z" fill="#ED6E23"/>
<path d="M59.4748 28.9998C60.4347 28.247 61.1546 27.6825 61.1546 27.6825C61.1546 27.6825 56.2572 33.345 57.2949 35.4851C58.3325 37.6251 61.4149 36.9677 61.4149 36.9677C61.4149 36.9677 57.4558 41.8402 61.4607 44.4597C61.4607 44.4597 60.3934 44.5525 59.8857 49.2767C60.2911 46.7027 59.3131 41.8644 55.8637 37.8789C53.3076 34.9217 48.2313 32.6462 48.2313 32.6462L48.8602 32.6569C52.6868 32.6408 56.4459 31.3442 59.4748 28.9998Z" fill="#F59E4C"/>
<path d="M25.8391 52.0836C25.8391 52.0836 27.4685 56.0234 24.5575 58.3994C24.5575 58.3994 27.4377 57.4353 27.8907 60.4602C28.3517 63.4557 17.564 75.3036 17.564 75.3036C17.564 75.3036 29.5872 62.1456 32.8731 64.3832C36.1512 66.6502 32.8364 71.9477 32.8364 71.9477C32.8364 71.9477 36.4772 64.8439 40.3382 65.8785L25.8391 52.0836Z" fill="#ED6E23"/>
<path d="M28.8359 52.0973C28.8359 52.0973 27.9522 55.3952 27.0845 56.3936C27.0845 56.3936 32.7134 58.3753 28.7174 62.796C28.7174 62.796 31.0702 60.6175 33.6965 62.0156C36.3308 63.3842 34.966 66.2376 34.966 66.2376C34.966 66.2376 36.5371 63.4395 38.7734 63.8178C38.7518 63.7804 29.7318 60.543 28.8359 52.0973Z" fill="#F59E4C"/>
<path d="M32.3958 54.7245C32.3958 54.7245 34.6897 56.5385 38.5652 52.6851C38.5652 52.6851 34.9781 56.9945 36.7742 59.3693C34.5068 58.6355 31.4351 56.4238 32.3958 54.7245Z" fill="#ED6E23"/>
<path d="M38.12 31.8302C38.12 31.8302 31.6654 30.1007 24.124 18.0439C24.124 18.0439 32.5876 31.6102 29.6713 37.4248L38.12 31.8302Z" fill="#ED6E23"/>
<path d="M58.1698 59.4523C58.1698 59.4523 57.7497 65.1467 65.378 74.6388C65.378 74.6388 56.7995 63.9769 51.2741 64.674L58.1698 59.4523Z" fill="#ED6E23"/>
<path d="M36.6647 29.9564C36.6647 29.9564 42.4443 26.424 49.2264 28.9355C49.2264 28.9355 42.581 25.3244 36.6647 29.9564Z" fill="#FEDE67"/>
<path d="M52.4796 67.0158C52.4796 67.0158 46.5783 70.2948 39.8967 67.5261C39.8967 67.5261 46.3748 71.408 52.4796 67.0158Z" fill="#FEDE67"/>
<path d="M28.3526 36.6918C28.3526 36.6918 25.4394 39.1935 25.2731 42.5258C25.2731 42.5258 23.6453 38.9336 20.8848 38.0362C20.8848 38.0362 24.3643 39.3156 24.2661 37.2064C24.2052 35.0756 17.5352 28.4912 17.5352 28.4912C17.5352 28.4912 24.3526 35.115 28.3526 36.6918Z" fill="#FEDE67"/>
<path d="M62.8107 52.3961C62.8107 52.3961 62.976 56.2592 60.6428 58.6006C60.6428 58.6006 64.3645 57.3255 66.924 58.7373C66.924 58.7373 63.614 57.0613 65.2131 55.6909C66.8123 54.3205 76.1908 54.6874 76.1908 54.6874C76.1908 54.6874 66.6807 54.2221 62.8107 52.3961Z" fill="#FEDE67"/>
</svg>
