<?xml version="1.0" encoding="UTF-8"?>
<svg version="1.1" xmlns="http://www.w3.org/2000/svg" width="448" height="171">
<path d="M0 0 C1.11826172 0.00322266 2.23652344 0.00644531 3.38867188 0.00976562 C4.55591797 0.01814453 5.72316406 0.02652344 6.92578125 0.03515625 C8.10462891 0.03966797 9.28347656 0.04417969 10.49804688 0.04882812 C13.41150914 0.06062352 16.32486988 0.07708355 19.23828125 0.09765625 C18.03446677 2.59127196 16.78399403 4.77908708 15.23828125 7.09765625 C13.26708984 7.5300293 13.26708984 7.5300293 10.88671875 7.609375 C10.0359375 7.64482422 9.18515625 7.68027344 8.30859375 7.71679688 C7.41914062 7.73935547 6.5296875 7.76191406 5.61328125 7.78515625 C4.71609375 7.81931641 3.81890625 7.85347656 2.89453125 7.88867188 C0.67590587 7.97128027 -1.54231815 8.04038344 -3.76171875 8.09765625 C-4.09171875 8.75765625 -4.42171875 9.41765625 -4.76171875 10.09765625 C-4.18204346 10.07147217 -3.60236816 10.04528809 -3.00512695 10.01831055 C-0.36177 9.91395013 2.28115324 9.84921298 4.92578125 9.78515625 C5.83779297 9.74326172 6.74980469 9.70136719 7.68945312 9.65820312 C12.3359588 9.5737212 14.52723819 9.57852407 18.37890625 12.390625 C20.23828125 15.09765625 20.23828125 15.09765625 20.30078125 18.72265625 C19.1109241 22.5022025 18.61444529 23.222982 15.23828125 25.09765625 C12.12207031 25.43823242 12.12207031 25.43823242 8.50390625 25.390625 C7.20839844 25.38095703 5.91289063 25.37128906 4.578125 25.36132812 C3.21483771 25.33626408 1.85155646 25.31086927 0.48828125 25.28515625 C-0.89061059 25.27010143 -2.2695181 25.25641442 -3.6484375 25.24414062 C-7.0199279 25.20877534 -10.39062529 25.15941529 -13.76171875 25.09765625 C-12.23965866 22.46864337 -10.91805911 20.25399661 -8.76171875 18.09765625 C-6.69873047 17.87060547 -6.69873047 17.87060547 -4.19140625 17.90234375 C-3.29550781 17.90878906 -2.39960937 17.91523437 -1.4765625 17.921875 C-0.07083984 17.94701172 -0.07083984 17.94701172 1.36328125 17.97265625 C2.78060547 17.98619141 2.78060547 17.98619141 4.2265625 18 C6.56405417 18.02361103 8.90104248 18.05654109 11.23828125 18.09765625 C11.23828125 17.43765625 11.23828125 16.77765625 11.23828125 16.09765625 C9.37623047 16.14986328 9.37623047 16.14986328 7.4765625 16.203125 C5.83464899 16.23127209 4.19272079 16.25857126 2.55078125 16.28515625 C1.73416016 16.31029297 0.91753906 16.33542969 0.07617188 16.36132812 C-4.73716918 16.41978976 -7.81975597 16.18436084 -11.76171875 13.09765625 C-12.76171875 12.09765625 -12.76171875 12.09765625 -13.07421875 8.22265625 C-13.0330565 4.38770695 -13.0330565 4.38770695 -10.94921875 2.16015625 C-7.12194527 0.30119485 -4.2077159 -0.02135896 0 0 Z " fill="#FFFFFF" transform="translate(118.76171875,37.90234375)"/>
<path d="M0 0 C1.11503906 0.00322266 2.23007812 0.00644531 3.37890625 0.00976562 C4.53777344 0.01814453 5.69664062 0.02652344 6.890625 0.03515625 C8.06496094 0.03966797 9.23929687 0.04417969 10.44921875 0.04882812 C13.34640572 0.06060531 16.24348954 0.07705299 19.140625 0.09765625 C17.21760002 4.85660291 17.21760002 4.85660291 15.140625 7.09765625 C11.90152056 8.12766749 8.76861275 8.07756821 5.390625 8.03515625 C4.50246094 8.05126953 3.61429687 8.06738281 2.69921875 8.08398438 C0.51145256 8.11927093 -1.67160513 8.12276285 -3.859375 8.09765625 C-4.189375 8.75765625 -4.519375 9.41765625 -4.859375 10.09765625 C-3.54582031 10.06285156 -2.23226563 10.02804688 -0.87890625 9.9921875 C0.85675801 9.96404159 2.59243615 9.93674229 4.328125 9.91015625 C5.62459961 9.87245117 5.62459961 9.87245117 6.94726562 9.83398438 C15.41625527 9.73663967 15.41625527 9.73663967 19.140625 13.09765625 C19.89583333 18.38411458 19.89583333 18.38411458 19.140625 21.09765625 C16.88136239 24.04019804 15.74642259 25.00937801 12.02441406 25.55175781 C10.83041992 25.53081055 9.63642578 25.50986328 8.40625 25.48828125 C7.11074219 25.47539063 5.81523437 25.4625 4.48046875 25.44921875 C3.11717676 25.41579991 1.75389551 25.38194016 0.390625 25.34765625 C-0.98825564 25.32758332 -2.36716412 25.30933392 -3.74609375 25.29296875 C-7.11789244 25.24581073 -10.48828187 25.18000163 -13.859375 25.09765625 C-12.65556052 22.60404054 -11.40508778 20.41622542 -9.859375 18.09765625 C-7.70458984 17.75708008 -7.70458984 17.75708008 -5.0703125 17.8046875 C-4.12929688 17.81435547 -3.18828125 17.82402344 -2.21875 17.83398438 C-1.23390625 17.85912109 -0.2490625 17.88425781 0.765625 17.91015625 C2.25449219 17.93045898 2.25449219 17.93045898 3.7734375 17.95117188 C6.22970572 17.98659882 8.68489785 18.03599429 11.140625 18.09765625 C11.140625 17.43765625 11.140625 16.77765625 11.140625 16.09765625 C9.89925781 16.12085937 8.65789062 16.1440625 7.37890625 16.16796875 C5.7369852 16.18673356 4.09505762 16.204933 2.453125 16.22265625 C1.22819336 16.24779297 1.22819336 16.24779297 -0.02148438 16.2734375 C-4.39424583 16.30884448 -7.92490511 16.26046426 -11.859375 14.09765625 C-13.85380442 11.55929153 -13.8706013 10.2810191 -13.671875 7.03515625 C-12.83597317 4.01304962 -12.38703237 2.8763781 -9.859375 1.09765625 C-6.54738644 0.01582057 -3.4682411 -0.01769511 0 0 Z " fill="#FFFFFF" transform="translate(386.859375,37.90234375)"/>
<path d="M0 0 C9.57 0 19.14 0 29 0 C27 5 27 5 25 7 C22.25514407 7.14507695 19.61519457 7.18652423 16.875 7.125 C16.12089844 7.11597656 15.36679688 7.10695313 14.58984375 7.09765625 C12.72642746 7.0740687 10.86317407 7.03819719 9 7 C9 7.66 9 8.32 9 9 C15.27 9 21.54 9 28 9 C26 13 26 13 24 16 C21.37302936 16.22137393 18.99106036 16.28162025 16.375 16.1875 C15.66859375 16.17396484 14.9621875 16.16042969 14.234375 16.14648438 C12.48925872 16.1111104 10.74453392 16.05730221 9 16 C9 16.66 9 17.32 9 18 C15.6 18 22.2 18 29 18 C27 23 27 23 25 25 C22.47802734 25.22705078 22.47802734 25.22705078 19.3359375 25.1953125 C18.3257959 25.19031738 17.3156543 25.18532227 16.27490234 25.18017578 C14.98793457 25.16196777 13.7009668 25.14375977 12.375 25.125 C8.29125 25.08375 4.2075 25.0425 0 25 C0 16.75 0 8.5 0 0 Z " fill="#FFFFFF" transform="translate(75,38)"/>
<path d="M0 0 C3.19193849 2.90098431 4.3281367 6.13716937 4.578125 10.37890625 C4.35489159 14.19547739 3.64338254 16.07209641 1.33203125 19.19921875 C-4.93916546 23.8344511 -12.00797465 24.0101776 -19.54296875 23.32421875 C-23.69102494 22.47093992 -27.23273581 21.38878301 -30.54296875 18.69921875 C-32.65500835 13.6831247 -33.16927312 9.10424169 -31.35546875 3.94921875 C-25.10903468 -5.09734094 -8.93231217 -5.5462069 0 0 Z M-23.54296875 6.32421875 C-23.70974157 9.74077899 -23.70974157 9.74077899 -23.54296875 13.32421875 C-20.54816588 16.31902162 -18.29797679 16.28303649 -14.10546875 16.51171875 C-10.54202596 16.32416913 -7.17600927 15.95725927 -4.54296875 13.32421875 C-4.29563738 9.18145 -4.29563738 9.18145 -5.54296875 5.32421875 C-8.59403225 4.30719758 -10.78495936 4.15839792 -13.98046875 4.13671875 C-14.92792969 4.12253906 -15.87539062 4.10835937 -16.8515625 4.09375 C-19.58798519 4.32807357 -21.20724998 4.92720492 -23.54296875 6.32421875 Z " fill="#FFFFFF" transform="translate(208.54296875,40.67578125)"/>
<path d="M0 0 C3.58327789 -0.66319894 7.23769225 -0.46291956 10.875 -0.4375 C12.38513672 -0.4674707 12.38513672 -0.4674707 13.92578125 -0.49804688 C21.27092023 -0.49316962 21.27092023 -0.49316962 24.66796875 1.8046875 C26.61317256 5.01056591 26.46691763 7.33136145 26 11 C24.45737187 13.10358381 23.31891683 13.84054159 21 15 C19.62451844 15.08308638 18.24514204 15.10736016 16.8671875 15.09765625 C16.06152344 15.09443359 15.25585938 15.09121094 14.42578125 15.08789062 C13.58402344 15.07951172 12.74226563 15.07113281 11.875 15.0625 C11.02550781 15.05798828 10.17601562 15.05347656 9.30078125 15.04882812 C7.20049091 15.03702874 5.1002367 15.01909306 3 15 C3 15.99 3 16.98 3 18 C10.59 18 18.18 18 26 18 C24 22 24 22 22 25 C19.29443359 25.34057617 19.29443359 25.34057617 15.8984375 25.29296875 C14.08085937 25.2784668 14.08085937 25.2784668 12.2265625 25.26367188 C10.95554688 25.23853516 9.68453125 25.21339844 8.375 25.1875 C7.09625 25.17396484 5.8175 25.16042969 4.5 25.14648438 C1.33291718 25.11103196 -1.83333541 25.06161441 -5 25 C-5.08107583 23.06318839 -5.13922475 21.1254066 -5.1875 19.1875 C-5.22230469 18.10855469 -5.25710937 17.02960938 -5.29296875 15.91796875 C-5 13 -5 13 -3.67578125 11.17578125 C-0.84112493 9.18689651 1.65786024 8.87712677 5.01171875 8.90234375 C6.14770508 8.90717773 6.14770508 8.90717773 7.30664062 8.91210938 C8.48516602 8.92467773 8.48516602 8.92467773 9.6875 8.9375 C10.48478516 8.94201172 11.28207031 8.94652344 12.10351562 8.95117188 C14.06904257 8.9629415 16.03453085 8.98087652 18 9 C18 8.34 18 7.68 18 7 C10.74 7 3.48 7 -4 7 C-2 3 -2 3 0 0 Z " fill="#FFFFFF" transform="translate(231,80)"/>
<path d="M0 0 C3.58327789 -0.66319894 7.23769225 -0.46291956 10.875 -0.4375 C12.38513672 -0.4674707 12.38513672 -0.4674707 13.92578125 -0.49804688 C21.27092023 -0.49316962 21.27092023 -0.49316962 24.66796875 1.8046875 C26.61317256 5.01056591 26.46691763 7.33136145 26 11 C24.45737187 13.10358381 23.31891683 13.84054159 21 15 C19.62451844 15.08308638 18.24514204 15.10736016 16.8671875 15.09765625 C16.06152344 15.09443359 15.25585938 15.09121094 14.42578125 15.08789062 C13.58402344 15.07951172 12.74226563 15.07113281 11.875 15.0625 C11.02550781 15.05798828 10.17601562 15.05347656 9.30078125 15.04882812 C7.20049091 15.03702874 5.1002367 15.01909306 3 15 C3 15.99 3 16.98 3 18 C10.59 18 18.18 18 26 18 C24 22 24 22 22 25 C19.29443359 25.34057617 19.29443359 25.34057617 15.8984375 25.29296875 C14.08085937 25.2784668 14.08085937 25.2784668 12.2265625 25.26367188 C10.95554688 25.23853516 9.68453125 25.21339844 8.375 25.1875 C7.09625 25.17396484 5.8175 25.16042969 4.5 25.14648438 C1.33291718 25.11103196 -1.83333541 25.06161441 -5 25 C-5.08107583 23.06318839 -5.13922475 21.1254066 -5.1875 19.1875 C-5.22230469 18.10855469 -5.25710937 17.02960938 -5.29296875 15.91796875 C-5 13 -5 13 -3.67578125 11.17578125 C-0.84112493 9.18689651 1.65786024 8.87712677 5.01171875 8.90234375 C6.14770508 8.90717773 6.14770508 8.90717773 7.30664062 8.91210938 C8.48516602 8.92467773 8.48516602 8.92467773 9.6875 8.9375 C10.48478516 8.94201172 11.28207031 8.94652344 12.10351562 8.95117188 C14.06904257 8.9629415 16.03453085 8.98087652 18 9 C18 8.34 18 7.68 18 7 C10.74 7 3.48 7 -4 7 C-2 3 -2 3 0 0 Z " fill="#FFFFFF" transform="translate(163,80)"/>
<path d="M0 0 C2.5242483 2.01939864 2.94833532 2.84500596 4 6 C4.3777236 10.60822792 4.41451928 13.08460326 2.5 17.3125 C-1.45650427 21.56574209 -5.30381418 22.73907879 -10.90625 23.28125 C-18.45878818 23.51011479 -24.49655856 22.89033919 -30.5 17.9375 C-32.70756348 13.61435485 -32.6271629 9.7585985 -32 5 C-30.68128272 1.35413457 -29.47626798 0.3139039 -26.25 -1.8125 C-18.23449938 -4.80974916 -7.32533946 -4.49509467 0 0 Z M-24 7 C-24.50010524 10.04230823 -24.50010524 10.04230823 -24 13 C-21.02240442 15.97759558 -18.79097944 15.9560567 -14.625 16.1875 C-11.0380095 16.00196601 -8.32915583 15.29918276 -5 14 C-4.14349347 11.19954954 -4.14349347 11.19954954 -4 8 C-6.1209588 5.13258725 -7.32861967 4.11584959 -10.875 3.50390625 C-11.90625 3.52324219 -12.9375 3.54257812 -14 3.5625 C-15.03125 3.56378906 -16.0625 3.56507812 -17.125 3.56640625 C-20.31761306 4.04790088 -21.73991637 4.71849378 -24 7 Z " fill="#FFFFFF" transform="translate(367,41)"/>
<path d="M0 0 C1.9519043 -0.38818359 1.9519043 -0.38818359 4.32421875 -0.3984375 C5.18853516 -0.40230469 6.05285156 -0.40617187 6.94335938 -0.41015625 C7.84892578 -0.39855469 8.75449219 -0.38695312 9.6875 -0.375 C10.57373047 -0.38660156 11.45996094 -0.39820313 12.37304688 -0.41015625 C18.80178352 -0.38160524 24.24860063 0.24860063 29 5 C29.68571429 11.97142857 29.68571429 11.97142857 27 16 C26.34 16.66 25.68 17.32 25 18 C26.98 20.31 28.96 22.62 31 25 C26.96222239 25.28569181 23.0285335 25.45667586 19 25 C17.62131719 23.37064759 16.28725907 21.70250393 15 20 C11.34483234 19.24006763 7.72671059 19.07067899 4 19 C4 20.98 4 22.96 4 25 C1.03 25 -1.94 25 -5 25 C-5 20.71 -5 16.42 -5 12 C3.58 11.67 12.16 11.34 21 11 C17.67932335 7.67932335 17.29044317 7.61533073 12.89453125 7.48828125 C11.91162109 7.45283203 10.92871094 7.41738281 9.91601562 7.38085938 C8.89185547 7.35830078 7.86769531 7.33574219 6.8125 7.3125 C5.77673828 7.27833984 4.74097656 7.24417969 3.67382812 7.20898438 C1.1159934 7.12647358 -1.44149723 7.05733428 -4 7 C-2.79618552 4.50638429 -1.54571278 2.31856917 0 0 Z " fill="#FFFFFF" transform="translate(220,38)"/>
<path d="M0 0 C3.06975955 2.7627836 3.69375227 5.82987177 4.06640625 9.90625 C3.9543115 13.44053141 2.72516435 15.96609029 1 19 C-3.95971635 23.64973408 -9.35548365 23.27631383 -15.82421875 23.21875 C-20.51219431 22.89583901 -23.4540027 21.68350187 -26.625 18.23046875 C-29.13952011 14.1515171 -28.48147147 9.62900429 -28 5 C-26.60723692 0.82171077 -25.39426062 0.20058873 -21.4375 -1.8125 C-13.9637909 -4.21672627 -6.82002364 -3.89715637 0 0 Z M-20 7 C-20.66666667 10 -20.66666667 10 -20 13 C-18.38446386 15.15573103 -17.52537019 15.91148654 -14.84375 16.36328125 C-14.0703125 16.34652344 -13.296875 16.32976562 -12.5 16.3125 C-11.33984375 16.30669922 -11.33984375 16.30669922 -10.15625 16.30078125 C-7.70675054 16.11825461 -7.70675054 16.11825461 -5 14 C-4.63702064 12.02252878 -4.63702064 12.02252878 -4.8125 9.875 C-4.874375 8.59625 -4.93625 7.3175 -5 6 C-10.1488436 2.83148086 -15.40125994 2.94228819 -20 7 Z " fill="#FFFFFF" transform="translate(220,82)"/>
<path d="M0 0 C18.31111111 -0.8 18.31111111 -0.8 26 5.6875 C28.0186277 10.35557656 27.70515292 15.19794255 25.875 19.875 C22.92903538 23.2137599 19.94063032 24.81793819 15.44970703 25.23925781 C12.50261518 25.29483472 9.57163111 25.26164104 6.625 25.1875 C5.09166016 25.16719727 5.09166016 25.16719727 3.52734375 25.14648438 C1.01800067 25.11130667 -1.49106929 25.0575052 -4 25 C-4 19.72 -4 14.44 -4 9 C-1.36 9 1.28 9 4 9 C4 11.97 4 14.94 4 18 C5.95901454 17.88617347 7.9172338 17.75858875 9.875 17.625 C10.96554688 17.55539063 12.05609375 17.48578125 13.1796875 17.4140625 C16.13046474 17.26746509 16.13046474 17.26746509 18 15 C18.16681109 11.91652174 18.16681109 11.91652174 18 9 C13.4161086 7.90684754 8.87488993 7.67717375 4.1875 7.4375 C3.39923828 7.39431641 2.61097656 7.35113281 1.79882812 7.30664062 C-0.13394215 7.20121679 -2.06695026 7.10016906 -4 7 C-2.68 4.69 -1.36 2.38 0 0 Z " fill="#FFFFFF" transform="translate(45,38)"/>
<path d="M0 0 C0.83273438 0.04511719 1.66546875 0.09023438 2.5234375 0.13671875 C3.3484375 0.14316406 4.1734375 0.14960937 5.0234375 0.15625 C10.39620612 0.30122947 14.41665591 1.1818585 19.1484375 3.76171875 C21.6400279 7.49910435 21.60637035 9.33503458 21.1484375 13.76171875 C19.01164465 17.15111431 17.9709608 18.48754432 14.1484375 19.76171875 C12.74018857 19.84193874 11.32846519 19.86937852 9.91796875 19.859375 C9.11552734 19.85615234 8.31308594 19.85292969 7.48632812 19.84960938 C6.23625977 19.83704102 6.23625977 19.83704102 4.9609375 19.82421875 C4.11595703 19.81970703 3.27097656 19.81519531 2.40039062 19.81054688 C0.31637595 19.79877278 -1.76760227 19.78083765 -3.8515625 19.76171875 C-3.8515625 21.74171875 -3.8515625 23.72171875 -3.8515625 25.76171875 C-6.4915625 25.76171875 -9.1315625 25.76171875 -11.8515625 25.76171875 C-11.8515625 21.47171875 -11.8515625 17.18171875 -11.8515625 12.76171875 C-3.9315625 12.76171875 3.9884375 12.76171875 12.1484375 12.76171875 C12.1484375 11.77171875 12.1484375 10.78171875 12.1484375 9.76171875 C9.68722909 8.53111454 7.89066884 8.55594645 5.140625 8.4453125 C4.15449219 8.40341797 3.16835937 8.36152344 2.15234375 8.31835938 C0.60353516 8.25938477 0.60353516 8.25938477 -0.9765625 8.19921875 C-2.53697266 8.13444336 -2.53697266 8.13444336 -4.12890625 8.06835938 C-6.70298778 7.96208995 -9.27716758 7.86005292 -11.8515625 7.76171875 C-8.60769379 1.89627452 -6.78550206 -0.07563458 0 0 Z " fill="#FFFFFF" transform="translate(152.8515625,37.23828125)"/>
<path d="M0 0 C2.625 0.9375 2.625 0.9375 3.625 2.9375 C3.69592842 5.1447923 3.70915025 7.35417452 3.6875 9.5625 C3.67847656 10.75101563 3.66945313 11.93953125 3.66015625 13.1640625 C3.64855469 14.07929687 3.63695312 14.99453125 3.625 15.9375 C5.605 15.9375 7.585 15.9375 9.625 15.9375 C8.14807692 20.61442308 8.14807692 20.61442308 5.5 22.25 C4.88125 22.476875 4.2625 22.70375 3.625 22.9375 C3.625 23.9275 3.625 24.9175 3.625 25.9375 C0.985 25.9375 -1.655 25.9375 -4.375 25.9375 C-4.375 24.9475 -4.375 23.9575 -4.375 22.9375 C-5.65117187 22.96070312 -6.92734375 22.98390625 -8.2421875 23.0078125 C-9.9114525 23.02656829 -11.5807238 23.04476869 -13.25 23.0625 C-14.51263672 23.08763672 -14.51263672 23.08763672 -15.80078125 23.11328125 C-17.00927734 23.12294922 -17.00927734 23.12294922 -18.2421875 23.1328125 C-18.98581543 23.14328613 -19.72944336 23.15375977 -20.49560547 23.16455078 C-22.375 22.9375 -22.375 22.9375 -24.375 20.9375 C-24.38808539 17.1165664 -23.39251234 15.95516462 -20.6796875 13.21875 C-19.54781949 12.27782957 -18.4039346 11.35122391 -17.25 10.4375 C-16.65759521 9.95700195 -16.06519043 9.47650391 -15.45483398 8.98144531 C-14.28816832 8.04068404 -13.11667043 7.10587733 -11.93994141 6.17773438 C-10.66452385 5.16695104 -9.41254311 4.12665137 -8.16796875 3.078125 C-5.26985096 0.74916352 -3.77286892 -0.06986794 0 0 Z M-7.9375 13.4375 C-9.1440625 14.675 -9.1440625 14.675 -10.375 15.9375 C-8.395 15.9375 -6.415 15.9375 -4.375 15.9375 C-4.375 14.2875 -4.375 12.6375 -4.375 10.9375 C-5.85236982 10.82111269 -5.85236982 10.82111269 -7.9375 13.4375 Z " fill="#FFFFFF" transform="translate(283.375,79.0625)"/>
<path d="M0 0 C3.63751311 -0.95684061 6.39900877 -1.18538854 10 0 C13.89929861 3.94840817 16.43109364 9.13521115 19 14 C22.58114824 12.80628392 23.10263041 11.42417662 24.95727539 8.2878418 C29.6638018 0.40828278 29.6638018 0.40828278 33.8125 -0.859375 C36.32595825 -0.81653196 38.56092873 -0.5957648 41 0 C37.9655508 5.52050397 34.5722701 10.67030377 30.9375 15.8125 C30.40833984 16.57498047 29.87917969 17.33746094 29.33398438 18.12304688 C28.56344727 19.21649414 28.56344727 19.21649414 27.77734375 20.33203125 C27.31577881 20.98921143 26.85421387 21.6463916 26.37866211 22.32348633 C25 24 25 24 22 26 C18.88858675 26.07275657 16.87492171 25.8344078 14.56591797 23.63232422 C13.0923246 21.78812029 11.75515484 19.89610031 10.4375 17.9375 C9.96078857 17.2566333 9.48407715 16.5757666 8.99291992 15.87426758 C7.64083151 13.9295528 6.31551285 11.96958288 5 10 C4.39929688 9.10796875 3.79859375 8.2159375 3.1796875 7.296875 C0 2.39107143 0 2.39107143 0 0 Z " fill="#FFFFFF" transform="translate(296,38)"/>
<path d="M0 0 C2.88916016 -0.34057617 2.88916016 -0.34057617 6.5390625 -0.29296875 C8.49199219 -0.2784668 8.49199219 -0.2784668 10.484375 -0.26367188 C11.86458923 -0.23860388 13.24479756 -0.21320902 14.625 -0.1875 C16.01300663 -0.17245517 17.40102867 -0.15876641 18.7890625 -0.14648438 C22.19309509 -0.1110257 25.59635622 -0.06160298 29 0 C27.47793991 2.62901288 26.15634036 4.84365964 24 7 C21.03 7 18.06 7 15 7 C15 12.94 15 18.88 15 25 C12.36 25 9.72 25 7 25 C7 19.06 7 13.12 7 7 C3.37 7 -0.26 7 -4 7 C-2 3 -2 3 0 0 Z " fill="#FFFFFF" transform="translate(255,38)"/>
<path d="M0 0 C2.97 0 5.94 0 9 0 C9 8.25 9 16.5 9 25 C6.03 25 3.06 25 0 25 C0 16.75 0 8.5 0 0 Z " fill="#FFFFFF" transform="translate(285,38)"/>
</svg>
