<svg width="83" height="54" viewBox="0 0 83 54" fill="none" xmlns="http://www.w3.org/2000/svg">
<rect x="12.8943" y="4.00293" width="56" height="40" rx="8" transform="rotate(5 12.8943 4.00293)" fill="#F14B64"/>
<path fill-rule="evenodd" clip-rule="evenodd" d="M12.6982 3.5533C12.967 3.84122 13.4995 4.24758 13.8814 4.45612C15.1856 5.16795 19.691 6.65697 21.2069 6.51612C23.3519 6.31666 24.3725 6.36996 25.2161 6.58625C25.3234 6.61374 25.4376 6.6482 25.5537 6.68325C26.0067 6.81999 26.489 6.96558 26.7083 6.74028C26.8282 6.61724 26.8292 6.56287 26.8485 6.55543C26.8802 6.54315 26.9614 6.65857 27.7065 6.80413C28.2162 6.90355 28.6548 6.9006 28.9857 6.86602C29.0067 7.32483 30.1034 7.60216 31.0304 7.37556C31.9049 7.16168 32.6505 7.30844 33.0983 7.78252C33.2345 7.92674 33.7043 7.98386 34.1423 7.90946C34.5805 7.83509 35.3566 7.86795 35.867 7.98229C36.4722 8.11786 36.9127 8.06962 37.1327 7.84364C37.3777 7.59175 37.8403 7.57999 38.8233 7.8002C39.7365 8.00479 40.3154 8.00217 40.6036 7.79233C40.8383 7.62116 41.4716 7.54123 42.0103 7.61491C42.3336 7.65898 42.5259 8.18168 42.6393 8.48976C42.7182 8.70429 42.7588 8.81474 42.7787 8.58698C42.8674 8.38876 43.4251 9.01623 43.7598 9.42094C43.6953 9.51394 43.7541 9.61583 44.013 9.7365C44.013 9.7365 43.9084 9.60069 43.7598 9.42094C43.8508 9.2897 44.1874 9.17617 44.5539 9.05256C44.784 8.97499 45.0257 8.89346 45.2259 8.80109C45.3612 8.73866 45.4479 8.68559 45.5012 8.64268C45.5313 8.70987 45.6126 8.80433 45.7897 8.92847C45.9784 9.06066 45.9573 8.95926 45.9332 8.84316C45.9068 8.71649 45.8768 8.57231 46.1118 8.69501C46.3436 8.81599 46.4989 8.71934 46.6181 8.64521C46.7306 8.57523 46.8109 8.52532 46.8926 8.69753C47.188 9.31913 47.9385 8.88593 48.5835 8.51363C48.6905 8.45185 48.7946 8.39174 48.8933 8.33841C49.2015 8.1716 49.3125 8.20884 49.3534 8.49269C49.3942 8.77653 49.6109 8.849 50.2545 8.79391C50.5323 8.77012 50.7195 8.75575 50.8803 8.68305C51.2219 8.52864 51.4446 8.11106 52.1644 6.78104C52.5226 6.11936 52.57 6.10776 53.4202 6.46766C54.439 6.89937 54.6703 7.15074 55.312 8.52641C55.9568 9.90782 56.1467 10.032 56.9514 9.59616C58.7468 8.62432 62.7157 9.30578 63.526 10.4397C63.6049 10.5501 61.3287 10.9893 58.3266 11.5685C56.203 11.9781 53.7162 12.4579 51.443 12.9409C50.7992 13.024 50.178 13.1049 49.589 13.1816C49.5518 13.1865 49.5147 13.1913 49.4778 13.1961C49.2449 13.0953 48.9764 12.9842 48.6682 12.8603C47.7368 12.4855 47.583 12.4865 47.4975 12.8679C47.4336 13.1533 47.2598 13.2757 47.0006 13.2176C46.7815 13.1685 46.5478 13.249 46.4816 13.3963C46.4153 13.5438 45.9196 13.6405 45.38 13.6111C44.8404 13.5817 44.3794 13.645 44.3555 13.7514C44.33 13.8652 46.471 13.5877 49.4778 13.1961C49.5715 13.2367 49.6595 13.2756 49.742 13.313C46.0608 14.1449 43.4652 14.935 44.9525 15.3363C48.1861 16.2086 49.611 16.5891 50.9746 17.1255C52.1017 17.5689 53.1869 18.1188 55.2169 19.141C58.3047 20.6956 60.9788 22.318 62.191 23.3726C62.6341 23.7578 62.9165 23.6972 62.7367 23.2553C62.5859 22.8847 58.6498 20.1507 57.2768 19.4628C56.6345 19.1411 55.6175 18.4629 55.0168 17.9554C54.4161 17.4482 53.5483 16.8024 53.0887 16.5201C52.6289 16.2381 52.1379 15.821 51.9975 15.5934C51.857 15.3658 51.5194 15.0436 51.2469 14.8778C50.9746 14.7119 50.7866 14.4201 50.8293 14.2296C50.891 13.954 50.6468 13.7233 49.742 13.313C50.2883 13.1895 50.8586 13.0651 51.443 12.9409C56.6803 12.2653 63.4122 11.4475 66.4827 11.5864C67.1894 11.6184 67.7389 11.0658 67.2373 10.5668C66.5915 9.92424 65.6558 9.35421 65.1862 9.17215C64.4103 8.87141 63.3562 8.41743 62.8434 8.16323C62.1841 7.83651 61.5854 7.73647 60.7985 7.82137C59.4014 7.97193 56.9738 8.47341 56.5482 8.69948C56.149 8.91148 55.1351 6.61035 55.3013 5.86879C55.4417 5.24193 55.1643 4.98755 54.0733 4.74314C53.3544 4.58211 53.1293 4.63862 52.8891 5.04076C52.7259 5.3138 52.49 5.51425 52.3646 5.48618C52.2391 5.45807 51.8875 5.94923 51.5831 6.57763C51.0007 7.77982 50.9838 7.79012 50.0794 7.5177C49.7653 7.42314 49.2452 7.48339 48.9236 7.65198C48.0766 8.09577 47.3469 7.84111 46.8236 6.91865C46.5634 6.46043 46.1307 6.0598 45.8202 5.99023C45.5199 5.92296 45.2533 5.6834 45.2277 5.45757C45.1673 4.92618 44.0892 3.88166 43.2225 3.5147C42.392 3.16344 41.5784 3.44809 40.5526 4.44937C40.1259 4.86575 39.4677 5.28232 39.0897 5.37495C38.4212 5.53874 38.0979 5.91973 38.5015 6.06811C38.7749 6.16876 37.5702 6.40832 36.8248 6.40149C36.4922 6.39845 35.5228 6.4329 34.6705 6.4781C33.2714 6.55223 33.1116 6.51559 33.0234 6.10011C32.9423 5.71831 32.477 5.5364 30.2908 5.03313C27.4801 4.38576 26.1871 4.38709 23.1247 5.04105C21.46 5.39624 21.3823 5.38783 19.7436 4.67286C17.687 3.77588 17.022 3.64998 16.5715 4.07228C16.3798 4.25225 15.9 4.41018 15.5051 4.4236C14.8954 4.44407 14.75 4.33944 14.5398 3.72803C14.3665 3.22426 14.0958 2.95787 13.6373 2.83996C13.277 2.74743 12.6926 2.33139 12.3385 1.91574C11.6643 1.12413 10.6563 0.728298 10.3798 1.1468C10.2907 1.28164 9.79237 1.31157 9.27231 1.21336C8.75226 1.11515 8.08349 1.07707 7.78618 1.12868C7.27035 1.21802 7.26373 1.22976 7.64273 1.3825C7.86112 1.47054 8.36579 1.58641 8.76401 1.64016C9.75629 1.77408 12.1024 2.91491 12.6982 3.5533ZM45.5476 8.51368C45.5832 8.51559 45.6034 8.5605 45.5012 8.64268C45.4609 8.55285 45.512 8.51177 45.5476 8.51368ZM29.1239 6.84903C29.0802 6.85522 29.0341 6.86096 28.9857 6.86602C28.9854 6.85946 28.9853 6.85287 28.9855 6.84624C28.9869 6.78019 29.0055 6.79029 29.0503 6.81458C29.0697 6.82508 29.094 6.83824 29.1239 6.84903ZM29.6206 6.73764C29.5887 6.75064 29.5315 6.77541 29.447 6.81625C29.3001 6.88728 29.1958 6.87498 29.1239 6.84903C29.3804 6.81268 29.5537 6.76061 29.6206 6.73764ZM29.6206 6.73764C29.6416 6.72908 29.6517 6.72561 29.6515 6.72602C29.6513 6.72643 29.6408 6.73071 29.6206 6.73764ZM0.481394 41.2029C1.05217 41.2803 2.01405 41.055 2.71149 40.681C4.11476 39.9279 5.50606 40.0097 6.71579 40.916C7.17505 41.2602 8.0341 41.5838 8.62472 41.6356C10.3255 41.7844 10.3488 41.8041 10.6889 43.4115C10.8667 44.2518 11.2006 44.9648 11.4313 44.9961C11.6616 45.0273 11.9565 45.3641 12.0867 45.7445C12.2784 46.3046 12.6336 46.4781 13.9549 46.6573C15.9603 46.9293 16.5757 46.7875 16.6784 46.0302C16.7999 45.1342 19.8003 43.1112 20.3689 43.5415C20.975 44.0002 24.8643 45.7524 27.1785 46.6093C28.4817 47.092 29.5634 47.2786 30.8735 47.2466C31.8925 47.2215 33.9495 47.2453 35.4452 47.2994C36.9406 47.3535 38.2864 47.2402 38.4357 47.0478C38.7302 46.6673 42.1144 47.3983 42.0559 47.8295C42.0385 47.9581 42.7945 48.2558 43.7363 48.4907C44.6781 48.7256 45.4753 49.0771 45.5082 49.2718C45.5411 49.4662 45.8977 49.6702 46.3006 49.7248C46.7771 49.7894 47.0081 50.0097 46.9613 50.3545C46.8988 50.8153 47.1621 50.8926 48.9652 50.9425C52.4352 51.0388 53.3633 50.9487 53.4228 50.51C53.454 50.2798 53.9364 50.0527 54.4945 50.0054C55.0528 49.9584 55.8084 49.772 56.1743 49.5918C56.5398 49.4116 57.6108 49.1971 58.5541 49.1153C59.4972 49.0331 61.3397 48.7541 62.6482 48.4949C63.9567 48.2355 66.0731 47.9949 67.3512 47.9598C70.0834 47.8848 78.3338 46.8336 78.7956 46.5015C79.3462 46.1057 78.8951 45.8994 77.9239 46.1027C75.2664 46.6597 69.79 47.116 63.6412 47.2931C59.6368 47.4086 57.4767 47.4745 55.3209 47.4063C52.6675 47.3222 50.0205 47.0348 43.9486 46.386C36.9047 45.6336 34.3076 45.4651 33.6976 45.7206C31.686 46.5637 24.099 44.7124 21.552 42.7572C20.4105 41.8806 20.0167 41.9228 18.1535 43.1194C17.134 43.7744 16.662 43.2437 16.1142 42.6277C15.6653 42.1229 15.1655 41.561 14.2719 41.5472C13.4106 41.5336 12.9133 41.9125 12.599 42.1521C12.3092 42.3729 12.175 42.4752 12.0543 42.0418C11.5624 40.276 11.2919 40.3169 10.7464 40.3996C10.4669 40.4419 10.1152 40.4951 9.62461 40.3219C8.55082 39.9428 8.1394 39.9151 7.91376 40.2063C7.68812 40.4975 7.47734 40.4835 7.04006 40.1478C6.05637 39.3935 3.58346 39.2316 2.5955 39.8564C1.83776 40.6054 1.37277 40.8716 0.481394 41.2029Z" fill="#F14B64"/>
<path d="M22.9923 22.6458L24.0737 25.0171C24.6713 26.3101 24.9298 26.935 25.1556 27.5209C25.4678 26.9821 25.8298 26.4235 26.6429 25.2539L28.1207 23.0945C28.4526 22.6056 28.9122 22.3085 29.5577 22.365C30.1794 22.4194 30.6979 22.8261 30.8482 23.5861L32.2535 30.792L29.7909 30.5765L29.2815 27.7253C29.1099 26.7948 28.9991 26.1346 28.924 25.4776C28.6119 26.0164 28.2597 26.6 27.6188 27.5919L26.3672 29.5061C25.8798 30.2585 25.4639 30.3305 24.8662 30.2782C24.2685 30.2259 23.8715 30.0828 23.5221 29.2572L22.6229 27.1427C22.1334 25.9917 21.8956 25.4047 21.6917 24.8448C21.5167 25.468 21.2788 26.1217 20.9613 26.9974L19.9645 29.7168L17.5377 29.5045L20.2208 22.6563C20.5008 21.934 21.0941 21.6245 21.7157 21.6789C22.3493 21.7343 22.7514 22.0947 22.9923 22.6458ZM36.9674 23.1457L36.2677 31.1432L33.7931 30.9267L34.4928 22.9292L36.9674 23.1457ZM46.4994 32.1709C46.1886 32.1437 45.896 32.0458 45.5449 31.6537L41.0285 26.8257L40.6175 31.5237L38.37 31.3271L38.9505 24.6925C39.0436 23.6285 39.7268 23.2547 40.4321 23.3164C40.7309 23.3425 41.0235 23.4404 41.3866 23.8335L45.903 28.6615L46.3141 23.9635L48.5734 24.1611L47.994 30.7838C47.9009 31.8478 47.2167 32.2336 46.4994 32.1709ZM51.4791 24.4153L60.5644 25.2102L58.7805 27.1501L55.9234 26.9002L55.4057 32.8176L52.9312 32.6011L53.4489 26.6837L49.6952 26.3553L51.4791 24.4153Z" fill="white"/>
</svg>
