<svg width="230" height="54" viewBox="0 0 230 54" fill="none" xmlns="http://www.w3.org/2000/svg">
<rect x="46.6953" y="15.3833" width="150.531" height="27.7542" rx="4.8302" transform="rotate(-2.63358 46.6953 15.3833)" fill="#F14B64"/>
<path fill-rule="evenodd" clip-rule="evenodd" d="M20.5662 36.8512C19.4211 37.1552 17.7695 37.7899 16.8961 38.2614C14.9605 39.307 7.99251 40.9183 5.21158 40.9636C4.09553 40.9817 2.6584 41.0919 2.01841 41.2088C0.907848 41.4115 0.920363 41.4343 2.29025 41.7008C3.07976 41.8547 4.92918 41.9193 6.40002 41.8445C7.87086 41.7696 9.22124 41.9242 9.40092 42.1881C9.95848 43.0074 12.9075 42.4873 15.1309 41.1778C16.2984 40.4903 18.097 39.8483 19.1276 39.7517C20.4393 39.6285 21.3076 39.1967 22.0221 38.3121C22.8892 37.2384 23.3373 37.0767 24.9969 37.2363C26.0719 37.3401 27.3104 37.7246 27.7494 38.0915C28.7817 38.9525 30.6628 38.8562 36.7218 37.6319C41.5496 36.6558 41.7666 36.6561 46.1556 37.6383C54.2294 39.4462 57.7696 39.7081 65.7743 39.0906C72.0006 38.6108 73.3613 38.3722 73.7653 37.6917C74.2049 36.9511 74.6599 36.9163 78.4557 37.3323C80.7679 37.5858 83.4059 37.8432 84.3184 37.9044C86.3627 38.0415 89.5471 38.7204 88.7504 38.8492C87.5748 39.039 88.2785 39.7992 90.0308 40.2323C91.0218 40.4772 92.6257 41.3695 93.5955 42.215C95.9271 44.2481 98.0194 44.9309 100.461 44.4565C103.009 43.9607 106.459 42.2707 106.878 41.3131C107.055 40.906 107.899 40.5223 108.754 40.4598C109.637 40.3952 111.013 39.7508 111.944 38.9668C113.816 37.3883 115.936 37.0699 118.044 38.0498C118.844 38.422 120.239 38.6363 121.145 38.5268C123.751 38.2111 123.792 38.2332 124.814 40.5441C125.348 41.752 126.077 42.719 126.434 42.6928C126.791 42.6667 127.341 43.0799 127.658 43.611C128.124 44.3931 128.713 44.5414 130.758 44.3917C133.862 44.1646 134.743 43.756 134.658 42.5838C134.556 41.1971 138.429 37.2009 139.421 37.6679C140.479 38.1659 146.887 39.5682 150.641 40.1233C152.755 40.4362 154.442 40.3737 156.403 39.9097C157.929 39.5487 161.031 38.9317 163.299 38.5385C165.567 38.1454 167.556 37.5479 167.719 37.2109C168.042 36.5449 173.366 36.571 173.415 37.2385C173.429 37.4375 174.661 37.6456 176.153 37.7002C177.645 37.7547 178.956 38.0306 179.067 38.3132C179.178 38.5953 179.78 38.7891 180.403 38.7434C181.141 38.6895 181.558 38.9476 181.597 39.4813C181.649 40.1945 182.07 40.2272 184.799 39.7302C190.051 38.774 191.419 38.3439 191.369 37.6649C191.343 37.3085 191.997 36.8138 192.822 36.5655C193.647 36.3177 194.725 35.7975 195.218 35.4102C195.711 35.0229 197.254 34.3603 198.648 33.9379C200.041 33.515 202.725 32.5105 204.612 31.7053C206.498 30.8997 209.606 29.8661 211.518 29.4078C215.606 28.428 227.687 24.2281 228.276 23.5819C228.979 22.8115 228.235 22.6443 226.838 23.2584C223.016 24.9398 214.921 27.3641 205.724 29.5818C192.364 32.8041 192.737 32.743 175.805 34.4658C164.967 35.5688 161.005 36.1393 160.169 36.7175C157.409 38.6244 145.405 38.2463 140.952 36.1124C138.957 35.1556 138.377 35.3441 135.954 37.7358C133.541 40.1176 132.609 36.0183 129.614 36.6017C127.114 37.088 127.099 39.3292 126.434 38.0498C124.467 34.2674 124.574 36.5426 122.232 36.2328C120.496 36.0031 119.868 36.0919 119.621 36.6017C119.374 37.1116 119.052 37.1573 118.288 36.791C116.568 35.9681 112.796 36.5092 111.508 37.7628C110.878 38.3762 109.261 39.1555 107.915 39.4944C106.57 39.8331 104.719 38.7039 103.506 39.1292C101.128 39.9643 97.4613 41.1156 95.3284 40.2323C93.4514 39.4552 94.0263 39.6839 96.5534 39.1292C101.644 38.012 102.277 37.7959 102.063 37.2478C101.939 36.9319 100.633 36.704 99.0956 36.7303C97.5854 36.7567 95.8896 36.4838 95.3284 36.1243C94.6391 35.6835 93.0554 35.5626 90.4572 35.7527C87.6606 35.9574 86.3995 35.8431 85.8486 35.3342C85.3539 34.8777 84.1708 34.7012 82.449 34.8272C80.9969 34.9335 78.8561 34.8377 77.6917 34.6141C76.5277 34.3904 75.2139 34.4004 74.7723 34.6363C73.3202 35.4116 71.2087 35.5299 68.916 34.9641C66.4509 34.356 63.2605 34.659 63.0641 35.5198C62.9959 35.8185 63.6566 36.3717 64.5323 36.75C66.105 37.4285 66.0719 37.44 61.8636 37.6708C58.4746 37.8574 57.4181 37.7352 56.7039 37.0765C56.0843 36.5047 55.131 36.3109 53.6263 36.4513C51.2132 36.6767 47.2428 36.4009 41.4643 35.6065C37.3806 35.0453 24.4768 35.8138 20.5662 36.8512Z" fill="#F14B64"/>
<path fill-rule="evenodd" clip-rule="evenodd" d="M62.4284 15.4111C61.7289 15.1538 60.7247 14.5992 60.1968 14.179C59.0269 13.2472 54.7651 11.9043 53.0503 11.9269C52.3621 11.936 51.4779 11.8665 51.0858 11.7723C50.4053 11.6088 50.4135 11.5872 51.265 11.3062C51.7557 11.144 52.8984 11.0403 53.8042 11.076C54.71 11.1116 55.5468 10.9356 55.6638 10.6847C56.027 9.90618 57.8344 10.3233 59.1757 11.495C59.88 12.1102 60.9748 12.6681 61.6085 12.7343C62.4149 12.8188 62.9406 13.202 63.3608 14.012C63.8708 14.995 64.1434 15.1357 65.1712 14.9477C65.8369 14.8257 66.61 14.4375 66.8895 14.0844C67.5466 13.2556 68.705 13.3017 72.4149 14.3043C75.371 15.1036 75.5049 15.0983 78.2359 14.0779C83.2598 12.2 85.4503 11.8726 90.375 12.2627C94.2055 12.5656 95.0395 12.7568 95.2729 13.3833C95.5268 14.065 95.8068 14.0869 98.1585 13.6096C99.5912 13.3187 101.225 13.0165 101.789 12.938C103.054 12.7622 105.035 12.0534 104.546 11.9516C103.825 11.8017 104.277 11.0749 105.368 10.6294C105.986 10.3774 106.996 9.5061 107.614 8.69337C109.1 6.73906 110.407 6.0522 111.903 6.4385C113.463 6.8423 115.553 8.34086 115.788 9.22599C115.889 9.60217 116.4 9.94102 116.926 9.97949C117.47 10.0193 118.304 10.5892 118.86 11.3001C119.978 12.7314 121.278 12.9794 122.602 12.0145C123.104 11.648 123.97 11.4152 124.526 11.4964C126.127 11.7306 126.153 11.7089 126.838 9.52563C127.195 8.38443 127.668 7.46387 127.887 7.47994C128.107 7.496 128.456 7.09706 128.664 6.59343C128.97 5.85171 129.337 5.69936 130.595 5.79144C132.505 5.9312 133.039 6.29243 132.959 7.38978C132.864 8.68793 135.16 12.3317 135.783 11.8721C136.447 11.3821 140.434 9.92207 142.764 9.31568C144.075 8.97398 145.115 8.99297 146.314 9.38071C147.247 9.68244 149.147 10.1866 150.537 10.501C151.927 10.8154 153.14 11.3273 153.233 11.6383C153.416 12.2531 156.702 12.1045 156.748 11.4795C156.762 11.2933 157.527 11.07 158.448 10.9842C159.37 10.8984 160.185 10.6099 160.261 10.3433C160.336 10.0771 160.711 9.88197 161.095 9.91005C161.549 9.94325 161.813 9.69228 161.849 9.19263C161.898 8.52502 162.158 8.48465 163.831 8.8853C167.049 9.65615 167.883 10.0261 167.836 10.6618C167.812 10.9954 168.204 11.4424 168.707 11.6552C169.21 11.8675 169.863 12.3284 170.158 12.6788C170.453 13.0292 171.39 13.6123 172.24 13.9745C173.09 14.3371 174.722 15.2131 175.868 15.9214C177.013 16.6302 178.907 17.5234 180.076 17.9071C182.575 18.7272 189.931 22.3696 190.28 22.9596C190.695 23.6631 190.232 23.8368 189.385 23.2955C187.066 21.8137 182.127 19.7373 176.505 17.8797C168.336 15.1807 168.565 15.229 158.158 14.0146C151.496 13.2371 149.065 12.7965 148.563 12.2757C146.905 10.5583 139.489 11.192 136.692 13.2899C135.438 14.2307 135.085 14.0681 133.645 11.8897C132.212 9.72036 131.757 9.35265 129.922 8.87738C128.392 8.4814 128.314 8.51299 127.874 9.72408C126.572 13.3045 126.596 13.2704 125.144 13.6146C124.067 13.8698 123.682 13.8015 123.541 13.3309C123.401 12.8602 123.203 12.825 122.723 13.1851C121.643 13.9942 119.328 13.5767 118.562 12.4354C118.188 11.8769 117.209 11.1864 116.386 10.9012C115.564 10.6161 114.287 10.0807 113.549 9.7116C112.101 8.98681 110.239 9.08779 108.902 9.96302C107.726 10.733 107.821 11.0484 109.367 11.5078C112.482 12.4329 112.867 12.62 112.722 13.1372C112.639 13.4353 111.828 13.6788 110.88 13.6901C109.949 13.7007 108.896 13.9953 108.541 14.3443C108.106 14.7723 107.126 14.9223 105.527 14.8053C103.806 14.6794 103.025 14.8156 102.673 15.304C102.358 15.7422 101.623 15.9347 100.564 15.8571C99.6705 15.7918 98.3473 15.9312 97.6237 16.1674C96.9003 16.4036 96.0899 16.425 95.8228 16.2149C94.945 15.5242 93.6449 15.4631 92.2171 16.0453C90.6818 16.6711 88.7204 16.4625 88.6193 15.6627C88.5842 15.3852 89.0048 14.8528 89.554 14.4788C90.5402 13.8081 90.52 13.7982 87.9288 13.6807C85.8421 13.5855 85.1874 13.7244 84.7313 14.3566C84.3356 14.9054 83.7429 15.1087 82.8178 15.0127C81.3341 14.8584 78.8779 15.2088 75.2939 16.0861C72.761 16.7059 64.8171 16.2891 62.4284 15.4111Z" fill="#F14B64"/>
<path d="M59.1731 24.196L61.9945 24.0663L63.9138 33.6837L61.1626 33.8103L59.1731 24.196ZM64.3386 23.9584L66.4581 23.8609L64.7279 33.6463L62.6224 33.7431L64.3386 23.9584ZM64.9 23.9326L67.4688 23.8144L69.9075 33.408L67.3528 33.5256L64.9 23.9326ZM69.8129 23.7066L72.1991 23.5969L70.9181 33.3616L68.6161 33.4674L69.8129 23.7066ZM73.2513 23.5485L80.5504 23.2127L80.6569 25.5288L76.1652 25.7354L76.2233 26.9987L79.6061 26.8431L79.7094 29.0889L76.3266 29.2445L76.3976 30.7886L80.9595 30.5787L81.066 32.8948L73.6968 33.2338L73.2513 23.5485ZM81.9968 23.1462L84.8041 23.0171L85.1398 30.3161L89.2947 30.125L89.4045 32.5112L82.4423 32.8315L81.9968 23.1462ZM89.5978 27.6073C89.5397 26.344 89.6763 25.339 90.0077 24.5923C90.3484 23.8452 90.8533 23.3015 91.5222 22.9613C92.2004 22.6206 93.0168 22.4283 93.9713 22.3844C94.8509 22.344 95.619 22.4258 96.2754 22.6301C96.9314 22.825 97.4587 23.1758 97.8571 23.6826C98.2551 24.1801 98.5164 24.8667 98.6411 25.7425L95.7636 25.8748C95.682 25.3253 95.4925 24.9777 95.1951 24.8319C94.8973 24.6768 94.5238 24.6096 94.0746 24.6303C93.7471 24.6453 93.4545 24.7057 93.1968 24.8113C92.9386 24.9076 92.7409 25.0949 92.6037 25.3731C92.4665 25.6514 92.411 26.0759 92.4372 26.6467L92.516 28.3592C92.5422 28.93 92.632 29.3526 92.7853 29.6269C92.9475 29.8914 93.1618 30.0644 93.4281 30.1459C93.6944 30.2274 93.996 30.2604 94.3329 30.2449C94.7727 30.2247 95.1336 30.119 95.4155 29.9279C95.6974 29.7367 95.8633 29.3681 95.9132 28.8219L98.7907 28.6895C98.7371 29.5641 98.5306 30.2722 98.171 30.8139C97.8208 31.3552 97.3285 31.7623 96.694 32.0353C96.0684 32.2985 95.3158 32.4503 94.4362 32.4908C93.7156 32.5239 93.0663 32.4741 92.4882 32.3413C91.9189 32.1987 91.4243 31.9448 91.0043 31.5796C90.5936 31.214 90.2656 30.7087 90.0202 30.0635C89.7838 29.4086 89.643 28.5898 89.5978 27.6073ZM106.643 27.5406L106.58 26.165C106.543 25.3509 106.339 24.807 105.97 24.5332C105.601 24.2501 105.07 24.1245 104.378 24.1564C103.685 24.1882 103.168 24.3621 102.826 24.6779C102.484 24.9843 102.332 25.5446 102.369 26.3587L102.432 27.7343C102.459 28.3238 102.56 28.7694 102.733 29.0708C102.906 29.3723 103.15 29.5721 103.464 29.6702C103.777 29.7589 104.168 29.7925 104.636 29.771C105.104 29.7495 105.49 29.6802 105.794 29.563C106.097 29.4365 106.322 29.2152 106.467 28.8991C106.611 28.583 106.67 28.1301 106.643 27.5406ZM99.5173 27.0525C99.4592 25.7892 99.6056 24.7932 99.9566 24.0643C100.317 23.3351 100.86 22.8084 101.586 22.4843C102.311 22.1508 103.208 21.9596 104.274 21.9105C105.341 21.8614 106.251 21.9696 107.004 22.2351C107.757 22.4912 108.341 22.966 108.758 23.6595C109.183 24.3526 109.425 25.3308 109.483 26.5941C109.545 27.9416 109.397 29.0034 109.039 29.7795C108.69 30.5458 108.153 31.1003 107.428 31.4431C106.702 31.7766 105.806 31.9678 104.739 32.0169C103.672 32.066 102.762 31.9578 102.009 31.6923C101.256 31.4175 100.666 30.9149 100.238 30.1843C99.8195 29.444 99.5793 28.4001 99.5173 27.0525ZM110.618 21.8297L113.145 21.7135L113.59 31.3988L111.064 31.515L110.618 21.8297ZM115.166 30.1729L112.359 21.7496L114.857 21.6347L117.664 30.0579L115.166 30.1729ZM117.721 21.503L119.925 21.4016L117.917 30.0463L115.713 30.1477L117.721 21.503ZM119.598 31.1224L119.153 21.4371L121.96 21.308L122.405 30.9933L119.598 31.1224ZM123.668 21.2294L130.967 20.8937L131.074 23.2098L126.582 23.4164L126.64 24.6797L130.023 24.5241L130.126 26.7699L126.743 26.9255L126.814 28.4696L131.376 28.2597L131.483 30.5758L124.114 30.9147L123.668 21.2294ZM137.11 23.0024L134.331 23.1303L134.221 20.744L142.601 20.3586L142.711 22.7448L139.918 22.8733L140.253 30.1724L137.446 30.3015L137.11 23.0024ZM150.316 25.5318L150.253 24.1562C150.215 23.3421 150.012 22.7982 149.643 22.5244C149.274 22.2413 148.743 22.1157 148.05 22.1476C147.358 22.1794 146.841 22.3532 146.499 22.669C146.157 22.9755 146.004 23.5358 146.042 24.3499L146.105 25.7255C146.132 26.315 146.232 26.7605 146.405 27.062C146.579 27.3635 146.822 27.5633 147.136 27.6614C147.45 27.7501 147.841 27.7837 148.308 27.7622C148.776 27.7407 149.162 27.6714 149.466 27.5542C149.77 27.4277 149.994 27.2064 150.139 26.8903C150.284 26.5742 150.343 26.1213 150.316 25.5318ZM143.19 25.0437C143.132 23.7804 143.278 22.7844 143.629 22.0555C143.989 21.3263 144.533 20.7996 145.259 20.4755C145.984 20.142 146.88 19.9508 147.947 19.9017C149.014 19.8526 149.924 19.9608 150.677 20.2263C151.429 20.4823 152.014 20.9572 152.43 21.6507C152.856 22.3438 153.098 23.322 153.156 24.5853C153.218 25.9328 153.07 26.9946 152.712 27.7707C152.362 28.5369 151.825 29.0915 151.1 29.4343C150.375 29.7678 149.479 29.959 148.412 30.0081C147.345 30.0571 146.435 29.949 145.682 29.6835C144.929 29.4087 144.338 28.906 143.911 28.1755C143.492 27.4352 143.252 26.3912 143.19 25.0437ZM158.988 21.9961L156.208 22.124L156.099 19.7377L164.478 19.3523L164.588 21.7385L161.795 21.867L162.131 29.1661L159.323 29.2952L158.988 21.9961ZM165.531 19.3039L168.339 19.1747L168.502 22.726L171.632 22.582L171.469 19.0308L174.276 18.9016L174.722 28.5869L171.914 28.716L171.742 24.9683L168.612 25.1122L168.784 28.86L165.977 28.9891L165.531 19.3039ZM175.99 18.8228L183.289 18.4871L183.396 20.8031L178.904 21.0097L178.962 22.273L182.345 22.1174L182.448 24.3633L179.065 24.5189L179.136 26.0629L183.698 25.8531L183.805 28.1691L176.436 28.5081L175.99 18.8228Z" fill="white"/>
</svg>
