<svg width="308" height="128" viewBox="0 0 308 128" fill="none" xmlns="http://www.w3.org/2000/svg">
<rect x="59.5229" y="49.3027" width="189.718" height="59" rx="11" transform="rotate(-7.29106 59.5229 49.3027)" fill="white"/>
<path fill-rule="evenodd" clip-rule="evenodd" d="M67.1255 88.2707C65.9398 88.9276 64.2782 90.2887 63.433 91.2948C61.5602 93.5256 54.2865 97.0203 51.2359 97.1555C50.0116 97.2097 48.4565 97.4625 47.7808 97.7179C46.6081 98.1608 46.6275 98.2086 48.2016 98.7507C49.1089 99.0636 51.1611 99.1735 52.762 98.9948C54.363 98.816 55.8879 99.1225 56.151 99.6761C56.9673 101.394 60.0857 100.256 62.2101 97.4654C63.3257 96 65.1474 94.6215 66.2583 94.4033C67.672 94.125 68.5213 93.2026 69.0894 91.3283C69.7788 89.0536 70.2321 88.7063 72.0989 89.0191C73.3081 89.2223 74.7667 90.0148 75.3408 90.7817C76.6901 92.5814 81.5808 89.5832 87.18 90.5158C96.5161 94.2102 100.479 94.7116 109.139 93.2961C115.876 92.1961 117.315 91.6739 117.592 90.2341C117.893 88.6673 118.385 88.5875 122.667 89.4099C125.276 89.9111 128.244 90.4158 129.264 90.5318C131.548 90.7914 135.222 92.1766 134.377 92.4594C133.129 92.8762 134.092 94.468 136.128 95.3555C137.28 95.8574 139.266 97.7148 140.543 99.4826C143.613 103.734 146.085 105.142 148.656 104.108C151.339 103.027 154.72 99.4165 154.944 97.3924C155.039 96.5323 155.874 95.7116 156.799 95.5677C157.755 95.4189 159.111 94.0415 159.942 92.3761C161.614 89.0231 163.869 88.322 166.432 90.3567C167.405 91.1297 168.994 91.5613 169.964 91.3175C172.755 90.6151 172.806 90.6612 174.502 95.5161C175.389 98.0538 176.43 100.081 176.817 100.021C177.203 99.9607 177.911 100.823 178.391 101.938C179.097 103.579 179.783 103.883 181.998 103.539C185.359 103.016 186.228 102.142 185.844 99.6736C185.39 96.7531 188.666 88.277 189.874 89.247C191.162 90.2812 198.564 93.1446 202.834 94.2608C205.239 94.8898 207.081 94.7341 209.126 93.7284C210.716 92.9459 213.98 91.6014 216.379 90.7405C218.779 89.8797 220.821 88.5923 220.918 87.8799C221.108 86.472 226.977 86.4509 227.196 87.8568C227.261 88.2758 228.669 88.6967 230.325 88.7905C231.98 88.8842 233.492 89.4469 233.684 90.0407C233.877 90.6335 234.587 91.0333 235.262 90.9282C236.061 90.804 236.584 91.342 236.759 92.4661C236.992 93.9681 237.464 94.031 240.346 92.9448C245.892 90.855 247.292 89.9291 247.069 88.4989C246.952 87.7484 247.55 86.6966 248.397 86.1616C249.244 85.6277 250.302 84.516 250.75 83.6929C251.197 82.8699 252.732 81.4516 254.162 80.5416C255.591 79.6306 258.298 77.4755 260.177 75.752C262.055 74.0274 265.221 71.805 267.213 70.8119C271.472 68.689 283.735 59.6667 284.225 58.2965C284.808 56.6631 283.948 56.3213 282.561 57.6353C278.769 61.2328 270.454 66.457 260.877 71.2615C246.963 78.2422 247.359 78.1081 229.142 81.9801C217.482 84.459 213.261 85.7177 212.483 86.948C209.916 91.0056 196.606 90.3801 191.176 85.9473C188.742 83.9595 188.151 84.3649 186.073 89.4394C184.005 94.4929 181.967 85.868 178.813 87.1402C176.181 88.2005 176.718 92.9235 175.669 90.237C172.569 82.2947 173.249 87.0876 170.594 86.4682C168.626 86.009 167.957 86.205 167.811 87.2829C167.665 88.3607 167.322 88.4616 166.39 87.7007C164.293 85.9913 160.273 87.1853 159.164 89.8452C158.622 91.1468 157.035 92.8121 155.637 93.5453C154.239 94.2784 151.923 91.9252 150.692 92.8387C148.28 94.6324 144.528 97.1108 141.961 95.2799C139.702 93.6692 140.392 94.143 143.037 92.938C148.366 90.5112 149.009 90.0468 148.638 88.8949C148.424 88.2309 146.93 87.7693 145.243 87.8468C143.587 87.9239 141.653 87.373 140.946 86.6235C140.078 85.7045 138.305 85.4724 135.491 85.9101C132.462 86.3813 131.046 86.1584 130.313 85.094C129.656 84.139 128.31 83.7842 126.445 84.0742C124.873 84.3189 122.492 84.1477 121.155 83.693C119.818 83.2383 118.374 83.2781 117.946 83.7814C116.538 85.436 114.243 85.7153 111.579 84.5557C108.714 83.3095 105.277 83.9935 105.273 85.8103C105.272 86.4407 106.136 87.597 107.194 88.3817C109.093 89.7889 109.059 89.8135 104.483 90.3601C100.798 90.8015 99.6042 90.5591 98.6551 89.1814C97.8315 87.9852 96.7341 87.5906 95.1121 87.9078C92.5109 88.4173 88.0713 87.8929 81.5128 86.3014C76.8779 85.1771 71.1748 86.0289 67.1255 88.2707Z" fill="white"/>
<path fill-rule="evenodd" clip-rule="evenodd" d="M28.2486 54.9158C26.7222 54.4913 24.4987 53.4896 23.3076 52.6904C20.668 50.9181 11.4065 48.8084 7.77704 49.1523C6.32046 49.2903 4.43513 49.2958 3.58796 49.1638C2.11789 48.9349 2.13166 48.8878 3.88723 48.1453C4.899 47.7169 7.30212 47.3001 9.22745 47.2193C11.1528 47.1384 12.8954 46.621 13.1001 46.0693C13.7352 44.357 17.6368 44.9289 20.6809 47.1799C22.2794 48.3618 24.6954 49.3549 26.0494 49.3857C27.7726 49.4255 28.9526 50.1468 29.9827 51.7904C31.2329 53.7852 31.8349 54.0362 33.9801 53.4605C35.3695 53.0871 36.9406 52.1311 37.4718 51.3347C38.7209 49.4653 41.1833 49.363 49.217 50.8469C55.6181 52.0302 55.9009 51.9958 61.5113 49.3625C71.8317 44.5163 76.4164 43.4445 86.918 43.421C95.0864 43.4017 96.8865 43.6628 97.4891 44.9499C98.1449 46.3506 98.7417 46.3487 103.642 44.9312C106.627 44.0676 110.037 43.1455 111.219 42.8817C113.868 42.2909 117.943 40.4472 116.89 40.3159C115.336 40.1227 116.169 38.5048 118.404 37.3723C119.668 36.7319 121.659 34.7114 122.828 32.8827C125.64 28.4854 128.29 26.8045 131.525 27.3649C134.901 27.9511 139.587 30.7656 140.24 32.6002C140.517 33.38 141.66 34.0096 142.78 34.0004C143.939 33.9908 145.804 35.0545 147.105 36.4648C149.722 39.3043 152.52 39.6053 155.157 37.3325C156.159 36.4692 157.953 35.8264 159.145 35.9026C162.577 36.1223 162.629 36.0719 163.702 31.3279C164.263 28.8482 165.105 26.8162 165.573 26.8123C166.041 26.8085 166.712 25.9029 167.065 24.7999C167.585 23.1756 168.337 22.7894 171.019 22.7673C175.09 22.7338 176.284 23.4069 176.303 25.7459C176.326 28.5128 181.82 35.8367 183.061 34.7555C184.384 33.6025 192.579 29.8209 197.41 28.134C200.13 27.1836 202.336 27.0444 204.943 27.6589C206.972 28.1372 211.085 28.8774 214.084 29.3037C217.083 29.73 219.742 30.6051 219.993 31.2481C220.488 32.519 227.424 31.6368 227.413 30.3049C227.41 29.9079 228.992 29.3028 230.93 28.9619C232.868 28.6209 234.546 27.869 234.66 27.2911C234.773 26.7141 235.535 26.2358 236.353 26.2291C237.32 26.2211 237.835 25.6438 237.827 24.5789C237.815 23.1559 238.36 23.0254 241.972 23.5857C248.924 24.6634 250.755 25.3034 250.766 26.6583C250.772 27.3693 251.679 28.2489 252.782 28.6128C253.885 28.9757 255.348 29.8397 256.034 30.5311C256.72 31.2224 258.805 32.2963 260.669 32.9169C262.532 33.5386 266.142 35.1129 268.691 36.416C271.24 37.72 275.406 39.2857 277.949 39.8968C283.386 41.203 299.601 47.6507 300.441 48.8408C301.444 50.2596 300.492 50.7074 298.603 49.707C293.434 46.9675 282.612 43.4205 270.379 40.4552C252.606 36.1465 253.099 36.2094 230.838 35.4328C216.589 34.9352 211.363 34.4213 210.208 33.4048C206.398 30.052 190.796 32.6747 185.231 37.6027C182.737 39.8123 181.961 39.5287 178.534 35.1618C175.123 30.8127 174.096 30.1122 170.127 29.4219C166.814 28.8472 166.656 28.9275 165.932 31.5695C163.791 39.3804 163.836 39.3041 160.819 40.2839C158.582 41.0104 157.754 40.9322 157.375 39.9593C156.996 38.9864 156.572 38.9459 155.616 39.7918C153.467 41.6926 148.49 41.2076 146.671 38.9215C145.781 37.8028 143.587 36.5088 141.795 36.0465C140.004 35.5843 137.206 34.6703 135.578 34.0157C132.385 32.73 128.457 33.2654 125.776 35.3505C123.417 37.185 123.673 37.8369 127.028 38.5433C133.788 39.9657 134.636 40.2957 134.419 41.4165C134.293 42.0626 132.617 42.7184 130.61 42.9059C128.638 43.0892 126.459 43.8952 125.768 44.6959C124.919 45.6779 122.868 46.1648 119.461 46.1929C115.793 46.2231 114.162 46.6466 113.501 47.7421C112.907 48.725 111.385 49.2596 109.127 49.2782C107.223 49.2939 104.443 49.8178 102.951 50.4431C101.459 51.0684 99.7452 51.2536 99.1432 50.8545C97.1639 49.5428 94.3988 49.6375 91.474 51.1177C88.3292 52.7087 84.1373 52.6052 83.7851 50.928C83.6628 50.346 84.462 49.1454 85.5611 48.2583C87.5349 46.667 87.4904 46.6494 81.9799 46.8478C77.5422 47.0063 76.1789 47.4136 75.3218 48.8317C74.5781 50.0629 73.3574 50.596 71.3806 50.5522C68.2105 50.4814 63.0667 51.6478 55.6243 54.1252C50.3648 55.8756 33.4613 56.3639 28.2486 54.9158Z" fill="white"/>
</svg>
