<svg width="608" height="164" viewBox="0 0 608 164" fill="none" xmlns="http://www.w3.org/2000/svg">
<path fill-rule="evenodd" clip-rule="evenodd" d="M163.618 62.9384C166.261 63.8164 171.896 65.0654 176.141 65.7137C181.028 66.4613 183.877 67.4847 183.908 68.5031C183.935 69.3882 183.521 70.1253 182.988 70.1416C182.455 70.1579 181.362 72.1765 180.56 74.6281C179.139 78.9674 179.203 79.1596 183.033 81.9734C186.332 84.3956 186.86 85.4243 186.31 88.3536C185.689 91.6601 185.914 91.8801 190.528 92.4734C197.271 93.3415 202.188 96.4146 204.712 101.34C206.69 105.2 209.24 106.799 216.103 108.484C219.327 109.275 227.526 104.44 231.422 99.4502C233.992 96.1595 235.037 93.4227 235.412 89C235.449 88.5705 237.497 87.2714 239.965 86.1123C242.432 84.9545 247.158 82.3601 250.468 80.3465C258.337 75.5615 265.985 73.9604 268.946 76.4803C270.678 77.954 271.971 78.0638 275.25 77.0135C277.517 76.2878 283.47 75.5599 288.474 75.3974C293.573 75.232 299.949 74.1916 302.973 73.0325C308.397 70.952 312.473 70.9974 321.486 73.2403C326.797 74.5623 327.409 76.0678 323.126 77.2835C321.238 77.8181 320.144 78.9934 320.188 80.4398C320.242 82.2087 318.383 83.422 312.157 85.6775C301.733 89.4556 301.476 89.643 304.192 91.5042C305.686 92.5277 310.065 92.9595 316.852 92.7535C324.331 92.5251 329.052 93.0666 333.754 94.6912C345.293 98.6785 352.473 98.4993 366.954 93.8656C374.004 91.6104 382.353 88.2865 385.509 86.4815C388.768 84.6175 393.236 83.1389 395.855 83.0589C399.516 82.9472 400.377 82.4986 400.045 80.8777C399.405 77.7639 413.696 74.4041 427.361 74.4578C438.02 74.5 438.337 74.5875 442.865 78.7475C446.392 81.988 449.173 83.2792 454.603 84.1996C461.266 85.3286 461.724 85.6229 461.822 88.8406C461.91 91.7334 463.144 92.9966 469.627 96.8349C475.62 100.382 479.249 101.6 485.982 102.326C495.505 103.349 507.212 101.73 513.92 98.4594C516.098 97.3978 522.506 96.0432 528.161 95.4507C533.817 94.8581 540.965 93.9845 544.048 93.5106C549.127 92.7293 550.033 92.9905 553.718 96.3038C558.15 100.288 563.112 100.82 572.543 98.3211C579.954 96.3571 608.01 94.3877 605.844 95.9841C604.865 96.7044 602.724 97.3438 601.088 97.4047C597.587 97.5334 571.728 106.335 567.404 108.87C552.694 117.493 538.357 121.679 524.791 121.315C518.768 121.153 513.207 120.246 510.37 118.961C505.822 116.902 505.608 116.919 495.84 120.014C490.388 121.742 484.532 123.905 482.827 124.819C480.428 126.106 477.003 126.301 467.684 125.684C437.751 123.704 425.66 121.52 411.076 115.458C398.835 110.37 391.385 108.642 383.324 109.023C376.28 109.357 366.997 111.97 366.473 113.769C366.054 115.208 388.873 124.521 392.611 124.436C395.126 124.38 398.944 126.208 398.028 127.032C397.723 127.307 390.367 127.329 381.682 127.082C372.998 126.835 357.152 126.517 346.468 126.376C330.902 126.17 325.945 125.666 321.514 123.843C311.263 119.622 302.548 117.246 293.98 116.337C275.843 114.411 273.403 114.43 270.928 116.514C269.627 117.608 266.691 119.83 264.404 121.448C260.971 123.879 260.318 125.044 260.656 128.133C261.161 132.766 256.318 137.563 248.857 139.819C235.795 143.767 205.374 140.367 196.83 134.004L193.725 131.691L197.782 128.085C202.469 123.92 202.246 123.754 189.672 122.1C184.717 121.448 181.844 120.338 180.035 118.376C178.617 116.84 173.539 112.431 168.749 108.579L160.04 101.575L146.7 101.868C135.814 102.107 131.457 101.621 123.008 99.2289C117.314 97.6152 110.7 95.3221 108.308 94.1331C105.918 92.944 103.062 91.9984 101.965 92.0319C100.868 92.0654 96.4413 90.8863 92.1295 89.4125C87.8177 87.9374 77.1742 85.7661 68.4772 84.5863C48.3864 81.8601 41.4323 80.1344 29.9884 75.0362C18.7252 70.0175 19.4412 70.4956 20.894 68.9513C21.7168 68.0767 23.9142 68.2269 27.8268 69.4229C30.9774 70.3861 37.7888 71.5312 42.962 71.9655C48.1364 72.4009 55.9326 73.2114 60.288 73.7665C64.6933 74.3285 80.3045 74.2196 95.473 73.5211L122.739 72.2662L135.637 66.8764C149.53 61.0689 155.471 60.2334 163.618 62.9384Z" fill="#0D0425"/>
<path fill-rule="evenodd" clip-rule="evenodd" d="M533.027 116.146C535.846 117.306 539.847 119.45 541.918 120.908C546.506 124.141 563.739 130.632 570.815 131.792C573.654 132.258 577.282 133.065 578.875 133.587C581.64 134.492 581.6 134.541 578.019 134.661C575.955 134.73 571.218 134.185 567.493 133.449C563.767 132.714 560.273 132.573 559.727 133.136C558.034 134.885 550.687 132.525 545.452 128.552C542.703 126.465 538.329 124.249 535.734 123.628C532.43 122.837 530.359 121.476 528.831 119.09C526.975 116.194 525.887 115.637 521.602 115.391C518.827 115.233 515.541 115.684 514.3 116.395C511.383 118.064 506.618 117.122 491.575 111.901C479.589 107.74 479.035 107.659 467.519 108.348C446.333 109.617 437.22 108.905 417.014 104.399C401.297 100.896 397.907 99.81 397.103 98.0294C396.227 96.0917 395.078 95.8363 385.262 95.3953C379.282 95.1269 372.471 94.7445 370.124 94.5457C364.866 94.1001 356.521 94.5193 358.51 95.1289C361.445 96.0277 359.399 97.5798 354.787 97.9526C352.179 98.1635 347.794 99.6911 345.041 101.347C338.422 105.328 332.86 106.169 326.792 104.111C320.46 101.961 312.223 96.6132 311.473 94.1641C311.155 93.1233 309.13 91.8861 306.972 91.4133C304.741 90.9245 301.446 88.8627 299.333 86.6351C295.082 82.1509 289.783 80.5876 284.083 82.1339C281.92 82.7215 278.291 82.7062 276.019 82.1017C269.478 80.3604 269.366 80.3979 265.994 85.5388C264.232 88.226 262.053 90.2632 261.151 90.0656C260.251 89.8683 258.71 90.6483 257.727 91.7987C256.279 93.4931 254.727 93.6248 249.562 92.4931C241.723 90.7755 239.612 89.4649 240.219 86.6935C240.938 83.415 232.387 72.3911 229.703 73.1328C226.841 73.9238 210.036 74.8535 200.28 74.761C194.786 74.7094 190.506 73.9218 185.659 72.07C181.889 70.6293 174.182 67.9796 168.53 66.1811C162.879 64.3829 158.006 62.2011 157.7 61.3333C157.099 59.6183 143.515 57.6663 143.169 59.2445C143.066 59.7149 139.855 59.7465 136.034 59.3127C132.212 58.879 128.778 59.0428 128.4 59.6766C128.023 60.3093 126.426 60.5453 124.851 60.2003C122.988 59.7921 121.838 60.2517 121.562 61.5136C121.192 63.1996 120.109 63.1186 113.315 60.8974C100.241 56.6233 96.8955 55.0769 97.2473 53.4715C97.4319 52.629 95.9287 51.1982 93.9082 50.2923C91.8863 49.3874 89.3103 47.7352 88.1808 46.6222C87.0525 45.5094 83.3368 43.3405 79.9237 41.8029C76.512 40.2644 70.0017 36.8461 65.4579 34.2064C60.9143 31.5656 53.3319 27.9174 48.6084 26.0976C38.5111 22.2075 9.09924 7.59104 7.81044 5.82227C6.2733 3.71349 8.22646 3.59509 11.5848 5.59256C20.7727 11.0603 40.6112 19.9222 63.324 28.7061C96.3222 41.4684 95.3905 41.1811 137.994 51.7082C165.263 58.4468 175.174 61.3102 177.116 63.0098C183.52 68.615 214.252 72.2519 226.314 68.8326C231.72 67.299 233.134 67.9689 238.522 74.6069C243.884 81.217 245.668 82.4883 253.112 85.0172C259.324 87.1259 259.652 87.0996 261.772 84.2909C268.041 75.9875 267.933 76.0583 274.006 76.2031C278.509 76.3105 280.08 76.7604 280.541 78.0734C281.002 79.3864 281.807 79.6174 283.878 79.0305C288.535 77.7128 297.975 80.4342 300.844 83.9203C302.248 85.6259 306.111 88.1016 309.43 89.4212C312.748 90.7406 317.877 93.028 320.828 94.5041C326.616 97.4013 334.319 98.4646 340.05 97.1586C345.094 96.01 344.781 95.1294 338.521 92.8464C325.912 88.2482 324.37 87.4919 325.098 86.2618C325.518 85.5529 328.923 85.5018 332.834 86.1465C336.676 86.781 341.091 86.7698 342.641 86.1222C344.545 85.3286 348.623 85.6386 355.185 87.0764C362.248 88.624 365.501 88.8277 367.074 87.8189C368.487 86.9141 371.562 86.9397 375.911 87.8925C379.578 88.696 385.068 89.2769 388.111 89.1825C391.153 89.0878 394.5 89.6088 395.548 90.3401C398.993 92.7441 404.338 93.8258 410.371 93.3398C416.858 92.8178 424.893 94.7496 425.108 96.883C425.183 97.6233 423.315 98.6967 420.957 99.2702C416.722 100.298 416.802 100.338 427.456 102.482C436.035 104.211 438.77 104.318 440.809 103.013C442.579 101.88 445.073 101.777 448.864 102.682C454.942 104.134 465.157 104.976 480.154 105.263C490.753 105.465 523.4 112.185 533.027 116.146Z" fill="#1D0C32"/>
</svg>
