<svg width="348" height="82" viewBox="0 0 348 82" fill="none" xmlns="http://www.w3.org/2000/svg">
<rect x="17.0308" y="20.3945" width="329.488" height="48.7428" rx="13.2968" transform="rotate(-0.673265 17.0308 20.3945)" fill="#010101"/>
<path d="M106.846 56.141C107.899 55.9726 109.296 55.6508 109.951 55.4259C111.97 54.733 113.445 54.9384 116.895 56.3939L120.099 57.7447L126.864 58.0344C130.628 58.1957 134.501 58.2073 135.594 58.0606C136.674 57.9157 138.607 57.7026 139.891 57.5872C141.174 57.472 142.863 57.1752 143.644 56.9283C144.613 56.6216 145.158 56.5814 145.363 56.8019C145.725 57.1912 145.902 57.0695 143.111 58.351C140.276 59.6528 138.552 60.0966 133.57 60.8071C131.413 61.1145 128.774 61.6748 127.706 62.0525C126.637 62.4299 125.54 62.7328 125.267 62.7255C124.995 62.7181 124.288 62.9603 123.695 63.2636C123.103 63.567 121.464 64.154 120.052 64.5682C117.958 65.1823 116.877 65.3097 114.176 65.2603L110.867 65.1997L108.711 66.9812C107.526 67.9606 106.269 69.0816 105.919 69.4719C105.471 69.9702 104.759 70.254 103.531 70.4241C100.412 70.8554 100.357 70.8978 101.523 71.947L102.532 72.8553L101.764 73.4438C99.6485 75.0629 92.1041 75.9544 88.8607 74.9685C87.008 74.4053 85.8028 73.1963 85.9249 72.0232C86.0065 71.2411 85.8435 70.9471 84.99 70.3354C84.4216 69.9282 83.6916 69.369 83.3679 69.0934C82.7524 68.5685 82.1471 68.5663 77.649 69.0721C75.5239 69.311 73.3638 69.9211 70.8237 70.9997C69.7256 71.4656 68.4962 71.5982 64.6346 71.6661C61.9843 71.7127 58.0533 71.8094 55.899 71.8808C53.7447 71.9522 51.9198 71.9541 51.8437 71.8848C51.616 71.6772 52.5618 71.2108 53.1858 71.2225C54.1131 71.2402 59.7676 68.8599 59.6624 68.4963C59.5311 68.0416 57.2263 67.3897 55.4785 67.3124C53.4784 67.2243 51.6313 67.669 48.5983 68.9692C44.9847 70.5181 41.9865 71.0832 34.562 71.6149C32.2508 71.7806 31.4007 71.7346 30.8047 71.4114C30.381 71.1819 28.9266 70.6405 27.5728 70.2087C25.1473 69.4353 25.0941 69.4315 23.9673 69.9571C23.2645 70.2851 21.8855 70.5202 20.3914 70.5674C17.026 70.6735 13.4663 69.6288 9.8105 67.4615C8.73588 66.8244 2.31422 64.6236 1.44563 64.5945C1.03961 64.5808 0.508096 64.4212 0.264648 64.2399C-0.273871 63.8381 6.68797 64.3079 8.52787 64.7973C10.8693 65.4201 12.1001 65.2805 13.1967 64.2676C14.1084 63.4254 14.333 63.3584 15.5936 63.5509C16.3587 63.6677 18.1329 63.8814 19.5363 64.0256C20.9397 64.1698 22.5306 64.5061 23.0716 64.7725C24.7381 65.5932 27.6438 65.9911 30.0054 65.7224C31.6752 65.532 32.5747 65.22 34.0588 64.3162C35.6644 63.3382 35.9696 63.0173 35.9894 62.2852C36.0114 61.4708 36.1248 61.3958 37.7769 61.1033C39.1233 60.8649 39.8122 60.5353 40.6849 59.7116C41.8053 58.6542 41.8838 58.6318 44.5281 58.6102C47.9181 58.5827 51.466 59.4183 51.3095 60.207C51.2283 60.6175 51.4423 60.7301 52.3507 60.7547C53.0005 60.7723 54.11 61.1419 54.9198 61.6102C55.704 62.0638 57.7779 62.8965 59.5285 63.46C63.1246 64.6178 64.906 64.6558 67.7656 63.635C68.931 63.2191 70.1016 63.0772 71.9573 63.1274C73.6413 63.1726 74.7274 63.0588 75.0972 62.7983C75.7696 62.3245 75.7058 62.2774 73.117 61.3319C71.5708 60.7675 71.1085 60.4623 71.1206 60.0146C71.1305 59.6486 70.8583 59.3523 70.3896 59.2189C69.3261 58.9156 69.4767 58.534 70.7935 58.1941C73.0277 57.6173 74.039 57.6016 75.3862 58.1226C76.1372 58.4128 77.7197 58.6696 78.9848 58.7062C80.2265 58.7423 81.7037 58.9204 82.2668 59.1017C83.0809 59.3642 83.4017 59.3351 83.8303 58.9603C84.5631 58.3196 86.4615 58.717 88.4173 59.9199C89.2399 60.4261 90.4143 61.0778 91.0272 61.3683C91.6404 61.6591 92.1493 61.9857 92.1587 62.0944C92.2552 63.2132 92.5165 63.9047 93.1563 64.7349C94.1265 65.9937 96.1641 67.2089 96.9635 67.0054C98.6648 66.5721 99.2963 66.1648 99.7842 65.1858C100.407 63.9368 101.624 63.1541 103.297 62.9276C104.441 62.7727 104.496 62.7168 104.34 61.8807C104.201 61.14 104.331 60.8791 105.148 60.2628C106.096 59.5468 106.112 59.4981 105.756 58.4014C105.555 57.7818 105.283 57.2721 105.151 57.2685C105.019 57.2649 104.915 57.0788 104.921 56.8548C104.928 56.5971 105.634 56.3352 106.846 56.141Z" fill="#010101"/>
<path d="M209.566 67.6682C208.502 67.7344 207.081 67.9201 206.407 68.0809C204.331 68.576 202.883 68.2295 199.588 66.4484L196.529 64.7953L189.823 63.8552C186.093 63.3321 182.239 62.9474 181.137 62.9882C180.048 63.0284 178.103 63.0542 176.815 63.0456C175.527 63.0366 173.817 63.1693 173.016 63.3399C172.021 63.5517 171.475 63.5392 171.292 63.3C170.97 62.8777 170.781 62.9818 173.683 61.975C176.63 60.9523 178.389 60.6767 183.416 60.4495C185.593 60.3513 188.273 60.0477 189.373 59.7748C190.473 59.5021 191.595 59.3063 191.865 59.3398C192.135 59.3734 192.863 59.2005 193.482 58.9556C194.1 58.7107 195.789 58.2843 197.233 58.008C199.377 57.5986 200.465 57.5758 203.149 57.8852L206.437 58.2643L208.754 56.6987C210.028 55.838 211.387 54.8433 211.774 54.4886C212.267 54.0357 213.003 53.8218 214.242 53.7709C217.388 53.642 217.447 53.6051 216.387 52.4485L215.47 51.4472L216.292 50.9355C218.553 49.5276 226.148 49.3671 229.282 50.6608C231.072 51.3999 232.155 52.7193 231.92 53.8752C231.764 54.6458 231.898 54.9541 232.688 55.6452C233.215 56.1053 233.887 56.7323 234.183 57.0377C234.745 57.6195 235.347 57.68 239.873 57.6099C242.012 57.5768 244.22 57.1776 246.853 56.3487C247.99 55.9907 249.227 55.9772 253.077 56.2816C255.72 56.4905 259.642 56.7729 261.793 56.9094C263.944 57.0459 265.76 57.2197 265.83 57.296C266.036 57.5246 265.05 57.8977 264.43 57.826C263.509 57.7191 257.651 59.5435 257.721 59.9156C257.808 60.3808 260.039 61.2517 261.771 61.497C263.753 61.7774 265.635 61.5127 268.779 60.5107C272.525 59.3171 275.564 59.0435 283.005 59.2295C285.321 59.2872 286.163 59.4149 286.725 59.794C287.125 60.0632 288.52 60.7422 289.826 61.3024C292.166 62.3058 292.218 62.3148 293.391 61.9001C294.122 61.6413 295.517 61.5402 297.009 61.6372C300.369 61.8557 303.811 63.2385 307.241 65.7479C308.249 66.4855 314.429 69.2947 315.291 69.4073C315.694 69.4601 316.207 69.6701 316.432 69.8741C316.93 70.3258 310.045 69.1876 308.261 68.5232C305.991 67.6778 304.752 67.6982 303.563 68.6007C302.574 69.3512 302.344 69.3963 301.108 69.0832C300.358 68.8933 298.613 68.5096 297.23 68.2309C295.847 67.9522 294.296 67.4642 293.783 67.1469C292.203 66.1695 289.349 65.4935 286.973 65.5335C285.292 65.5622 284.367 65.786 282.803 66.5427C281.11 67.3614 280.776 67.6515 280.685 68.3783C280.585 69.1868 280.465 69.2504 278.792 69.3825C277.429 69.4901 276.712 69.7518 275.764 70.4875C274.547 71.4321 274.466 71.4469 271.832 71.2136C268.455 70.9144 265.005 69.7409 265.236 68.971C265.357 68.5702 265.155 68.4375 264.253 68.3255C263.608 68.2455 262.539 67.7707 261.778 67.2265C261.041 66.6995 259.057 65.6709 257.369 64.9414C253.901 63.4425 252.132 63.2331 249.187 63.9737C247.987 64.2754 246.808 64.3039 244.966 64.0752C243.294 63.868 242.202 63.8765 241.809 64.1002C241.094 64.507 241.153 64.5601 243.639 65.7506C245.123 66.4613 245.554 66.8096 245.499 67.254C245.454 67.6174 245.696 67.9386 246.15 68.1165C247.179 68.5208 246.992 68.8861 245.649 69.0977C243.37 69.4566 242.362 69.3747 241.071 68.7264C240.351 68.3652 238.801 67.9571 237.545 67.7988C236.313 67.6433 234.86 67.3237 234.317 67.089C233.531 66.7493 233.209 66.7474 232.747 67.0791C231.956 67.6462 230.104 67.0678 228.273 65.6822C227.503 65.0991 226.397 64.3372 225.815 63.9891C225.233 63.6406 224.758 63.2664 224.759 63.1573C224.771 62.0344 224.577 61.3209 224.02 60.433C223.176 59.0866 221.265 57.6808 220.45 57.8063C218.714 58.0738 218.047 58.4183 217.467 59.3458C216.727 60.5289 215.44 61.1907 213.753 61.2551C212.599 61.299 212.539 61.3493 212.614 62.1966C212.68 62.9473 212.526 63.1944 211.653 63.7292C210.641 64.3505 210.62 64.3974 210.869 65.5233C211.009 66.1593 211.231 66.6929 211.363 66.7093C211.494 66.7255 211.579 66.9207 211.551 67.1431C211.519 67.399 210.791 67.5917 209.566 67.6682Z" fill="#010101"/>
<path d="M191.905 14.3267C190.563 14.2638 188.777 14.084 187.935 13.9272C185.34 13.4443 183.489 13.7883 179.215 15.5482L175.247 17.1816L166.712 18.1209C161.963 18.6436 157.068 19.0303 155.677 18.9924C154.303 18.9552 151.845 18.9339 150.216 18.9451C148.587 18.9567 146.433 18.8297 145.431 18.6635C144.186 18.4571 143.494 18.4705 143.249 18.7063C142.816 19.1226 142.584 19.0206 146.191 20.0053C149.855 21.0056 152.062 21.2732 158.404 21.4862C161.15 21.5783 164.52 21.8714 165.895 22.1378C167.269 22.4038 168.675 22.5942 169.018 22.5606C169.362 22.527 170.272 22.6956 171.039 22.9353C171.807 23.175 173.915 23.5911 175.725 23.86C178.41 24.2585 179.784 24.2786 183.196 23.9685L187.376 23.5884L190.21 25.1243C191.769 25.9688 193.427 26.9448 193.894 27.2932C194.49 27.7378 195.408 27.9468 196.971 27.9943C200.94 28.1146 201.013 28.1508 199.603 29.2913L198.383 30.2787L199.39 30.7805C202.164 32.1614 211.757 32.3034 215.797 31.0236C218.104 30.2924 219.554 28.9916 219.328 27.8545C219.177 27.0964 219.365 26.7927 220.406 26.1109C221.1 25.657 221.989 25.0385 222.381 24.7372C223.127 24.1635 223.892 24.1027 229.61 24.1622C232.311 24.1902 235.08 24.5785 238.357 25.3887C239.774 25.7386 241.336 25.7494 246.223 25.4417C249.576 25.2305 254.552 24.9443 257.28 24.8055C260.008 24.6666 262.315 24.4917 262.407 24.4164C262.683 24.1911 261.458 23.8259 260.67 23.8978C259.499 24.005 252.204 22.2217 252.315 21.8553C252.453 21.3973 255.327 20.5355 257.532 20.2904C260.055 20.0103 262.418 20.2669 266.332 21.2464C270.995 22.4132 274.82 22.6761 284.24 22.4775C287.172 22.4158 288.244 22.2884 288.978 21.9141C289.499 21.6483 291.305 20.9771 292.99 20.423C296.009 19.4305 296.076 19.4216 297.533 19.8272C298.441 20.0804 300.199 20.177 302.091 20.0784C306.352 19.8563 310.789 18.4881 315.278 16.0112C316.597 15.2832 324.581 12.5054 325.678 12.3928C326.19 12.34 326.852 12.1322 327.149 11.931C327.805 11.4853 319.032 12.62 316.736 13.2777C313.814 14.1145 312.25 14.097 310.801 13.2112C309.597 12.4747 309.309 12.4308 307.727 12.7416C306.767 12.9301 304.537 13.3114 302.771 13.5886C301.006 13.8658 299.015 14.3493 298.348 14.6626C296.291 15.6279 292.642 16.2992 289.639 16.2648C287.517 16.2401 286.36 16.0218 284.429 15.2804C282.339 14.4782 281.933 14.1934 281.863 13.4783C281.786 12.6828 281.638 12.6204 279.531 12.494C277.814 12.3909 276.923 12.1349 275.769 11.4127C274.288 10.4857 274.187 10.4713 270.843 10.7064C266.555 11.008 262.121 12.1702 262.367 12.9274C262.495 13.3216 262.231 13.4527 261.084 13.5648C260.264 13.6449 258.884 14.1144 257.889 14.6516C256.925 15.1718 254.354 16.1883 252.175 16.9098C247.7 18.3923 245.45 18.6021 241.772 17.8794C240.273 17.585 238.785 17.5595 236.442 17.7884C234.315 17.9959 232.935 17.9898 232.452 17.7704C231.573 17.3716 231.65 17.3192 234.866 16.1423C236.786 15.4397 237.351 15.0961 237.309 14.6588C237.274 14.3012 237.6 13.9846 238.184 13.8086C239.51 13.4085 239.296 13.0493 237.611 12.844C234.751 12.4956 233.471 12.5782 231.8 13.219C230.868 13.576 228.883 13.9809 227.286 14.1394C225.718 14.295 223.862 14.6125 223.161 14.8447C222.148 15.1806 221.74 15.1832 221.176 14.8578C220.21 14.3012 217.834 14.8744 215.435 16.242C214.426 16.8175 212.981 17.5696 212.224 17.9135C211.467 18.2577 210.843 18.6269 210.838 18.7343C210.785 19.8394 210.497 20.542 209.739 21.417C208.589 22.7439 206.088 24.1315 205.065 24.0097C202.887 23.7501 202.064 23.4124 201.387 22.5009C200.523 21.338 198.936 20.6894 196.808 20.6295C195.352 20.5887 195.278 20.5394 195.425 19.7053C195.555 18.9664 195.374 18.7235 194.304 18.1991C193.061 17.5897 193.038 17.5435 193.421 16.435C193.637 15.8087 193.95 15.2831 194.117 15.2667C194.284 15.2504 194.403 15.0581 194.382 14.8393C194.357 14.5876 193.449 14.3995 191.905 14.3267Z" fill="#010101"/>
<path d="M46.063 48.4232H62.947L58.159 54.6152H46.063C37.711 54.6152 31.555 49.3232 31.555 42.3392C31.555 35.2832 37.711 30.5312 46.063 30.5312H62.947L58.159 36.7952H46.063C42.031 36.7952 39.007 39.2072 39.007 42.6632C39.007 46.0832 41.995 48.4232 46.063 48.4232ZM81.6616 30.1352C93.3616 30.1352 99.2656 33.9512 99.2656 42.5552C99.2656 51.1592 93.3616 55.0112 81.6616 55.0112C69.9256 55.0112 64.0576 51.1592 64.0576 42.5552C64.0576 33.9512 69.9256 30.1352 81.6616 30.1352ZM81.6616 48.7472C89.1496 48.7472 91.8496 47.7392 91.8496 42.5552C91.8496 37.3712 89.1496 36.3992 81.6616 36.3992C74.1736 36.3992 71.4736 37.3712 71.4736 42.5552C71.4736 47.7392 74.1736 48.7472 81.6616 48.7472ZM114.034 32.6912L117.886 39.4952C120.01 43.2032 120.946 45.0032 121.774 46.6952C122.566 45.0032 123.502 43.2392 125.626 39.5312L129.478 32.6912C130.342 31.1432 131.638 30.1352 133.582 30.1352C135.454 30.1352 137.11 31.2152 137.758 33.4472L143.842 54.6152H136.426L134.158 46.2272C133.402 43.4912 132.898 41.5472 132.502 39.6032C131.71 41.2952 130.81 43.1312 129.154 46.2632L125.914 52.3112C124.654 54.6872 123.43 55.0112 121.63 55.0112C119.83 55.0112 118.606 54.6872 117.346 52.3112L114.106 46.2272C112.342 42.9152 111.478 41.2232 110.722 39.6032C110.362 41.5112 109.822 43.5272 109.102 46.2272L106.834 54.6152H99.5258L105.754 33.4472C106.402 31.2152 108.094 30.1352 109.966 30.1352C111.874 30.1352 113.17 31.1072 114.034 32.6912ZM158.63 32.6912L162.482 39.4952C164.606 43.2032 165.542 45.0032 166.37 46.6952C167.162 45.0032 168.098 43.2392 170.222 39.5312L174.074 32.6912C174.938 31.1432 176.234 30.1352 178.178 30.1352C180.05 30.1352 181.706 31.2152 182.354 33.4472L188.438 54.6152H181.022L178.754 46.2272C177.998 43.4912 177.494 41.5472 177.098 39.6032C176.306 41.2952 175.406 43.1312 173.75 46.2632L170.51 52.3112C169.25 54.6872 168.026 55.0112 166.226 55.0112C164.426 55.0112 163.202 54.6872 161.942 52.3112L158.702 46.2272C156.938 42.9152 156.074 41.2232 155.318 39.6032C154.958 41.5112 154.418 43.5272 153.698 46.2272L151.43 54.6152H144.122L150.35 33.4472C150.998 31.2152 152.69 30.1352 154.562 30.1352C156.47 30.1352 157.766 31.1072 158.63 32.6912ZM220.395 30.5312V44.1032C220.395 51.3752 215.391 55.0112 205.383 55.0112C193.791 55.0112 188.787 51.3752 188.787 44.1032V30.5312H196.203V44.1032C196.203 47.6672 197.715 48.8192 205.383 48.8192C211.107 48.8192 212.907 47.4872 212.907 44.1032V30.5312H220.395ZM248.306 55.0112C247.37 55.0112 246.47 54.7952 245.318 53.7152L230.558 40.4672V54.6152H223.79V34.6352C223.79 31.4312 225.734 30.1352 227.858 30.1352C228.758 30.1352 229.658 30.3512 230.846 31.4312L245.606 44.6792V30.5312H252.41V50.4752C252.41 53.6792 250.466 55.0112 248.306 55.0112ZM263.645 30.5312V54.6152H256.193V30.5312H263.645ZM270.12 30.5312H297.48L292.656 36.7952H284.052V54.6152H276.6V36.7952H265.296L270.12 30.5312ZM324.14 30.5312H333.5L319.208 46.6592V54.6152H311.72V46.6232L297.032 30.5312H306.608L312.368 37.2272C313.124 38.0912 315.14 40.2872 315.644 41.0072C316.112 40.3232 316.94 39.2792 318.668 37.1912L324.14 30.5312Z" fill="#FFFEF1"/>
</svg>
