<svg width="357" height="17" viewBox="0 0 357 17" fill="none" xmlns="http://www.w3.org/2000/svg">
<path fill-rule="evenodd" clip-rule="evenodd" d="M183.424 2.63898C183.338 2.74345 181.14 3.15127 178.542 3.54496C175.943 3.93865 172.626 4.46007 171.171 4.70413C169.716 4.94773 167.377 5.28258 165.974 5.44772C164.386 5.63475 163.422 5.95408 163.422 6.29348C163.422 6.6785 161.283 6.99921 156.146 7.3856C146.005 8.14788 142.633 8.11138 142.633 7.2387C142.633 6.40069 142.61 6.40069 137.506 7.20996C133.645 7.82216 130.091 8.02927 124.71 7.954C121.083 7.90382 122.428 7.58221 127.702 7.23961C130.405 7.06398 134.062 6.73644 135.829 6.51154C137.596 6.28664 141.295 5.85509 144.05 5.55218C146.805 5.24973 149.059 4.88843 149.059 4.74975C149.059 4.09513 133.763 4.81727 130.159 5.64205C129.001 5.90709 120.437 6.09824 109.717 6.09824C91.8942 6.09824 91.2512 6.12835 90.7557 6.98233C90.2579 7.83996 90.0639 7.84771 84.2138 7.23231C80.898 6.88333 76.6543 6.47276 74.7833 6.31949C72.9122 6.16666 69.7654 5.83365 67.7904 5.58001C60.8475 4.68862 54.5898 4.60286 50.8156 5.34781C47.5747 5.98784 46.8905 6.35781 46.5068 7.6812C46.4362 7.92481 44.3497 8.17799 41.8704 8.24413C39.3908 8.31028 34.5555 8.46037 31.1252 8.57761C27.695 8.69439 24.0379 8.81756 22.9984 8.85041C21.959 8.88371 18.2047 8.8755 14.6554 8.83262C7.48566 8.74548 1.26392 9.19802 1.26392 9.80657C1.26392 10.0251 1.47673 10.2103 1.73641 10.2185C2.00402 10.2267 1.89327 10.5214 1.48051 10.8978C0.29777 11.9776 1.10856 12.2335 3.72502 11.6058C5.07294 11.2823 6.4167 11.1295 6.71115 11.2659C7.00598 11.4023 10.5357 11.6409 14.5556 11.796C18.5755 11.9516 22.8 12.2709 23.9434 12.5063C25.0868 12.7412 28.3187 13.238 31.1252 13.6102C37.3515 14.435 38.3267 14.6034 40.8888 15.2954C42.4506 15.7174 42.9673 15.7174 43.1836 15.2954C43.3366 14.9957 44.1542 14.6677 45.0002 14.566C46.2664 14.414 46.6788 14.5769 47.3343 15.4861C48.3344 16.8747 50.3661 16.9869 51.3262 15.7069C51.6906 15.221 51.877 14.6052 51.7405 14.3383C51.6041 14.0715 51.646 13.8534 51.8339 13.8534C52.0217 13.8534 53.2283 13.0323 54.515 12.0287C56.8226 10.2285 58.1766 9.85766 60.1319 10.4899C60.5972 10.6405 60.8736 10.968 60.7454 11.218C60.5984 11.505 61.0516 11.5779 61.978 11.416C64.5204 10.9717 70.2564 10.5561 70.0349 10.8325C69.8565 11.0542 65.0311 11.9265 56.8438 13.2161C55.59 13.4136 55.3125 13.5861 55.7605 13.889C56.8067 14.5952 69.1856 13.2485 75.5018 11.7408C77.6522 11.2276 79.3932 11.1163 81.7187 11.3439C86.7338 11.8339 87.1235 11.989 86.3101 13.1714C85.6275 14.1645 86.4201 16.2876 87.3545 15.9692C88.5059 15.5769 90.9261 15.263 94.8168 15.0016C100.033 14.6513 102.29 14.2923 102.876 13.7188C103.207 13.3958 106.278 13.2708 111.945 13.3489C116.659 13.4136 120.401 13.3292 120.261 13.1609C119.86 12.6769 118.163 12.5373 107.168 12.0839C101.488 11.8494 96.7393 11.536 96.6161 11.3868C96.2396 10.9324 111.902 11.0862 115.375 11.5711C123.413 12.6938 126.984 12.8293 133.183 12.2463C141.526 11.4612 145.391 11.1487 153.028 10.6405C156.562 10.4051 160.505 10.01 161.79 9.76278C163.075 9.51507 165.542 9.21992 167.271 9.10678C171.007 8.86181 170.604 8.96901 170.604 8.22087C170.604 7.79662 171.801 7.36689 174.479 6.83041C178.81 5.9632 184.256 3.89075 184.496 3.01898C184.64 2.49665 183.791 2.19557 183.424 2.63898ZM149.916 4.58963C150.284 4.7055 150.794 4.69775 151.05 4.57275C151.306 4.44776 151.005 4.35333 150.382 4.36245C149.758 4.37157 149.548 4.47375 149.916 4.58963ZM147.854 6.866C148.126 6.99783 148.453 6.98141 148.578 6.82996C148.704 6.67851 148.481 6.57084 148.082 6.59046C147.642 6.61235 147.552 6.72047 147.854 6.866Z" fill="black"/>
<path fill-rule="evenodd" clip-rule="evenodd" d="M175.859 13.9741C175.947 13.8707 178.147 13.4881 180.748 13.1244C183.35 12.7606 186.671 12.2774 188.128 12.0501C189.585 11.8232 191.927 11.5153 193.331 11.3663C194.92 11.1976 195.886 10.8894 195.889 10.55C195.892 10.165 198.034 9.86888 203.174 9.54163C213.32 8.89607 216.692 8.97137 216.685 9.84402C216.679 10.682 216.701 10.6823 221.812 9.93176C225.677 9.364 229.233 9.19781 234.613 9.335C238.239 9.42691 236.892 9.73303 231.615 10.0149C228.911 10.1594 225.252 10.4449 223.483 10.6494C221.714 10.854 218.012 11.243 215.254 11.5142C212.497 11.7849 210.241 12.1202 210.24 12.2589C210.235 12.9135 225.536 12.3674 229.145 11.5841C230.306 11.3324 238.871 11.2398 249.59 11.3632C267.412 11.5683 268.056 11.5456 268.558 10.6973C269.062 9.84548 269.256 9.83996 275.101 10.5227C278.414 10.9098 282.655 11.3692 284.524 11.544C286.394 11.7183 289.538 12.0875 291.511 12.3639C298.447 13.3351 304.703 13.4929 308.483 12.7914C311.729 12.1887 312.416 11.8266 312.81 10.5077C312.883 10.2649 314.971 10.0357 317.451 9.99813C319.931 9.96052 324.767 9.86608 328.198 9.78832C331.629 9.71102 335.287 9.62993 336.327 9.60905C337.366 9.58771 341.12 9.63912 344.669 9.72285C351.838 9.89248 358.063 9.51156 358.068 8.90303C358.07 8.68453 357.858 8.49688 357.599 8.48568C357.331 8.47439 357.444 8.18098 357.86 7.8094C359.051 6.74326 358.242 6.47802 355.621 7.0756C354.271 7.38351 352.926 7.52086 352.632 7.38108C352.339 7.24129 348.811 6.9621 344.792 6.76074C340.774 6.55893 336.552 6.19101 335.411 5.94247C334.269 5.69439 331.041 5.16043 328.238 4.75591C322.018 3.85951 321.045 3.67997 318.488 2.95848C316.93 2.51855 316.413 2.51261 316.193 2.93207C316.038 3.23001 315.218 3.54859 314.371 3.64058C313.104 3.77791 312.693 3.61031 312.044 2.69363C311.055 1.29356 309.025 1.15796 308.054 2.42691C307.686 2.90853 307.495 3.52221 307.629 3.79064C307.764 4.05906 307.72 4.27663 307.532 4.27447C307.344 4.27231 306.131 5.07952 304.837 6.06828C302.515 7.84175 301.158 8.19703 299.208 7.54229C298.744 7.3864 298.47 7.05569 298.6 6.80718C298.75 6.52195 298.297 6.44375 297.369 6.59503C294.823 7.01008 289.084 7.35963 289.308 7.08575C289.488 6.8661 294.32 6.04945 302.517 4.85408C303.773 4.67099 304.052 4.50175 303.606 4.1937C302.565 3.47552 290.176 4.67967 283.849 6.11461C281.694 6.60306 279.952 6.69433 277.629 6.43994C272.618 5.89231 272.229 5.73273 273.052 4.55971C273.743 3.57449 272.967 1.44238 272.03 1.75003C270.875 2.12908 268.453 2.41507 264.56 2.63168C259.341 2.92199 257.082 3.25503 256.491 3.82168C256.158 4.14084 253.086 4.23049 247.419 4.08727C242.707 3.96826 238.964 4.00959 239.102 4.17952C239.5 4.66812 241.195 4.82723 252.186 5.40718C257.864 5.70702 262.61 6.07505 262.733 6.22563C263.105 6.6843 247.445 6.35034 243.976 5.82548C235.948 4.61037 232.377 4.43378 226.174 4.94543C217.825 5.63448 213.958 5.90249 206.318 6.32278C202.782 6.51749 198.836 6.86715 197.549 7.0996C196.262 7.33251 193.793 7.59927 192.063 7.6925C188.325 7.89447 188.729 7.79191 188.723 8.54002C188.719 8.96425 187.519 9.38019 184.838 9.88583C180.5 10.7032 175.038 12.7128 174.791 13.5818C174.643 14.1025 175.488 14.4133 175.859 13.9741ZM209.381 12.4092C209.014 12.2891 208.504 12.2909 208.247 12.413C207.99 12.535 208.29 12.6329 208.914 12.631C209.538 12.629 209.748 12.5293 209.381 12.4092ZM211.461 10.1566C211.19 10.0217 210.863 10.0343 210.737 10.1843C210.61 10.3343 210.832 10.4446 211.231 10.4295C211.671 10.4127 211.762 10.3056 211.461 10.1566Z" fill="black"/>
</svg>
