<svg width="946" height="45" viewBox="0 0 946 45" fill="none" xmlns="http://www.w3.org/2000/svg">
<path fill-rule="evenodd" clip-rule="evenodd" d="M482.751 7.26517C482.522 7.54155 476.709 8.62048 469.835 9.662C462.96 10.7035 454.185 12.083 450.335 12.7287C446.485 13.3731 440.297 14.259 436.585 14.6959C432.385 15.1907 429.835 16.0355 429.835 16.9334C429.835 17.952 424.176 18.8004 410.585 19.8226C383.757 21.8393 374.835 21.7428 374.835 19.434C374.835 17.217 374.775 17.217 361.271 19.358C351.058 20.9776 341.654 21.5255 327.418 21.3264C317.823 21.1936 321.382 20.3428 335.335 19.4364C342.485 18.9718 352.16 18.1053 356.835 17.5103C361.51 16.9153 371.297 15.7736 378.585 14.9722C385.873 14.1721 391.835 13.2162 391.835 12.8494C391.835 11.1175 351.369 13.028 341.836 15.21C338.771 15.9112 316.115 16.4168 287.755 16.4168C240.603 16.4168 238.902 16.4965 237.591 18.7558C236.274 21.0247 235.761 21.0452 220.284 19.4171C211.512 18.4939 200.285 17.4077 195.335 17.0022C190.385 16.5979 182.06 15.7169 176.835 15.0458C158.467 12.6876 141.912 12.4607 131.927 14.4315C123.353 16.1248 121.543 17.1036 120.528 20.6047C120.341 21.2492 114.821 21.919 108.262 22.094C101.702 22.2689 88.91 22.666 79.835 22.9762C70.76 23.2851 61.085 23.611 58.335 23.6979C55.585 23.786 45.653 23.7643 36.263 23.6508C17.295 23.4203 0.834993 24.6175 0.834993 26.2275C0.834993 26.8056 1.39799 27.2956 2.08499 27.3173C2.79299 27.339 2.49999 28.1186 1.40799 29.1143C-1.72101 31.971 0.423995 32.648 7.34599 30.9874C10.912 30.1317 14.467 29.7274 15.246 30.0883C16.026 30.4491 25.364 31.0803 35.999 31.4906C46.634 31.9022 57.81 32.747 60.835 33.3697C63.86 33.9913 72.41 35.3055 79.835 36.2903C96.307 38.4724 98.887 38.9177 105.665 40.7485C109.797 41.8649 111.164 41.8649 111.736 40.7485C112.141 39.9556 114.304 39.0879 116.542 38.8187C119.892 38.4168 120.983 38.8477 122.717 41.253C125.363 44.9267 130.738 45.2236 133.278 41.8371C134.242 40.5518 134.735 38.9225 134.374 38.2165C134.013 37.5105 134.124 36.9336 134.621 36.9336C135.118 36.9336 138.31 34.7612 141.714 32.1061C147.819 27.3438 151.401 26.3626 156.574 28.0354C157.805 28.4336 158.536 29.3002 158.197 29.9615C157.808 30.7207 159.007 30.9137 161.458 30.4853C168.184 29.3098 183.359 28.2104 182.773 28.9417C182.301 29.5283 169.535 31.8358 147.875 35.2476C144.558 35.7702 143.824 36.2264 145.009 37.0278C147.777 38.896 180.526 35.3333 197.236 31.3446C202.925 29.9869 207.531 29.6924 213.683 30.2946C226.951 31.5908 227.982 32.0011 225.83 35.1293C224.024 37.7567 226.121 43.3735 228.593 42.5311C231.639 41.4932 238.042 40.6628 248.335 39.9713C262.136 39.0444 268.105 38.0946 269.657 36.5776C270.532 35.7231 278.655 35.3924 293.65 35.5988C306.119 35.7702 316.019 35.5469 315.65 35.1016C314.589 33.8211 310.1 33.4518 281.012 32.2522C265.984 31.6318 253.421 30.8027 253.095 30.4081C252.099 29.206 293.536 29.6127 302.722 30.8956C323.987 33.8657 333.435 34.2242 349.835 32.6818C371.907 30.6048 382.131 29.7781 402.335 28.4336C411.685 27.8109 422.117 26.7658 425.517 26.1116C428.917 25.4563 435.442 24.6754 440.017 24.3761C449.9 23.7281 448.835 24.0117 448.835 22.0324C448.835 20.91 452.001 19.7731 459.085 18.3539C470.543 16.0596 484.951 10.5768 485.586 8.27048C485.967 6.88862 483.723 6.0921 482.751 7.26517ZM394.104 12.4257C395.077 12.7323 396.427 12.7118 397.104 12.3811C397.781 12.0504 396.985 11.8006 395.335 11.8247C393.685 11.8489 393.131 12.1192 394.104 12.4257ZM388.648 18.448C389.369 18.7968 390.232 18.7533 390.564 18.3527C390.896 17.952 390.306 17.6672 389.252 17.7191C388.087 17.777 387.85 18.063 388.648 18.448Z" fill="black"/>
<path fill-rule="evenodd" clip-rule="evenodd" d="M462.745 37.253C462.976 36.9792 468.798 35.9673 475.68 35.0049C482.562 34.0425 491.348 32.7641 495.203 32.1628C499.058 31.5626 505.253 30.748 508.968 30.3539C513.172 29.9074 515.728 29.092 515.735 28.1941C515.743 27.1756 521.409 26.3923 535.007 25.5265C561.85 23.8186 570.771 24.0179 570.752 26.3265C570.735 28.5434 570.795 28.5441 584.315 26.5586C594.541 25.0566 603.948 24.6169 618.182 24.9799C627.776 25.223 624.21 26.0329 610.251 26.7786C603.097 27.161 593.416 27.9161 588.736 28.4573C584.057 28.9984 574.261 30.0275 566.967 30.7449C559.673 31.4612 553.704 32.3484 553.701 32.7152C553.687 34.447 594.167 33.0023 603.717 30.9301C606.787 30.2642 629.446 30.0192 657.805 30.3456C704.954 30.8882 706.656 30.8281 707.985 28.584C709.32 26.3304 709.833 26.3158 725.296 28.1219C734.061 29.146 745.278 30.3613 750.225 30.8238C755.172 31.285 763.489 32.2618 768.709 32.9929C787.057 35.5624 803.61 35.9798 813.61 34.124C822.197 32.5295 824.014 31.5716 825.057 28.0823C825.249 27.44 830.774 26.8337 837.334 26.7342C843.895 26.6347 856.69 26.3849 865.767 26.1792C874.844 25.9746 884.521 25.7601 887.272 25.7049C890.022 25.6484 899.954 25.7844 909.342 26.0059C928.308 26.4547 944.776 25.447 944.789 23.8371C944.794 23.259 944.235 22.7626 943.548 22.7329C942.84 22.7031 943.139 21.9268 944.239 20.9438C947.39 18.1233 945.251 17.4216 938.316 19.0025C934.743 19.8171 931.185 20.1804 930.409 19.8106C929.632 19.4408 920.3 18.7022 909.668 18.1695C899.037 17.6356 887.868 16.6622 884.848 16.0047C881.828 15.3484 873.289 13.9358 865.872 12.8656C849.418 10.4941 846.842 10.0191 840.079 8.11039C835.956 6.94654 834.589 6.93081 834.008 8.04053C833.597 8.82874 831.427 9.67155 829.187 9.91492C825.834 10.2782 824.746 9.83485 823.031 7.40972C820.414 3.70573 815.042 3.34699 812.475 6.70408C811.501 7.97824 810.995 9.60177 811.351 10.3119C811.706 11.022 811.591 11.5976 811.094 11.5919C810.597 11.5862 807.388 13.7217 803.963 16.3375C797.821 21.0294 794.231 21.9693 789.071 20.2371C787.844 19.8247 787.12 18.9498 787.464 18.2924C787.859 17.5378 786.661 17.3309 784.207 17.7311C777.472 18.8291 762.289 19.7539 762.881 19.0293C763.357 18.4482 776.141 16.2877 797.827 13.1253C801.148 12.6409 801.886 12.1932 800.707 11.3782C797.954 9.47824 765.178 12.6639 748.437 16.4601C742.738 17.7523 738.13 17.9938 731.983 17.3208C718.726 15.872 717.698 15.4498 719.875 12.3465C721.701 9.74008 719.649 4.09944 717.17 4.91335C714.116 5.91616 707.707 6.67277 697.409 7.24583C683.601 8.01385 677.625 8.89492 676.061 10.394C675.179 11.2384 667.054 11.4756 652.061 11.0967C639.594 10.7818 629.693 10.8912 630.058 11.3407C631.109 12.6334 635.595 13.0543 664.672 14.5886C679.695 15.3818 692.251 16.3555 692.574 16.7538C693.56 17.9673 652.128 17.0838 642.953 15.6952C621.712 12.4806 612.267 12.0134 595.856 13.367C573.769 15.1899 563.538 15.8989 543.325 17.0108C533.97 17.526 523.53 18.451 520.125 19.066C516.72 19.6822 510.19 20.3879 505.612 20.6345C495.725 21.1689 496.792 20.8975 496.776 22.8767C496.767 23.999 493.593 25.0994 486.498 26.4371C475.022 28.5994 460.571 33.9162 459.918 36.2151C459.526 37.5925 461.764 38.4148 462.745 37.253ZM551.429 33.1127C550.458 32.795 549.108 32.8 548.429 33.1229C547.749 33.4457 548.543 33.7047 550.193 33.6996C551.843 33.6944 552.399 33.4305 551.429 33.1127ZM556.932 27.1535C556.214 26.7965 555.351 26.83 555.016 27.2268C554.68 27.6236 555.268 27.9153 556.323 27.8755C557.488 27.831 557.727 27.5477 556.932 27.1535Z" fill="black"/>
</svg>
