<svg width="946" height="45" viewBox="0 0 946 45" fill="none" xmlns="http://www.w3.org/2000/svg">
<path fill-rule="evenodd" clip-rule="evenodd" d="M482.749 7.33939C482.52 7.61576 476.707 8.6947 469.833 9.73622C462.958 10.7778 454.183 12.1572 450.333 12.8029C446.483 13.4473 440.295 14.3332 436.583 14.7701C432.383 15.2649 429.833 16.1097 429.833 17.0076C429.833 18.0262 424.174 18.8746 410.583 19.8969C383.755 21.9135 374.833 21.817 374.833 19.5082C374.833 17.2912 374.773 17.2912 361.269 19.4322C351.056 21.0518 341.652 21.5997 327.416 21.4006C317.821 21.2678 321.38 20.417 335.333 19.5106C342.483 19.046 352.158 18.1795 356.833 17.5845C361.508 16.9895 371.295 15.8478 378.583 15.0464C385.871 14.2463 391.833 13.2905 391.833 12.9236C391.833 11.1917 351.367 13.1022 341.834 15.2842C338.769 15.9854 316.113 16.4911 287.753 16.4911C240.601 16.4911 238.9 16.5707 237.589 18.83C236.272 21.0989 235.759 21.1194 220.282 19.4913C211.51 18.5681 200.283 17.4819 195.333 17.0764C190.383 16.6721 182.058 15.7911 176.833 15.1201C158.465 12.7618 141.91 12.5349 131.925 14.5058C123.351 16.199 121.541 17.1778 120.526 20.6789C120.339 21.3234 114.819 21.9932 108.26 22.1682C101.7 22.3432 88.9075 22.7402 79.8326 23.0504C70.7576 23.3594 61.0826 23.6852 58.3326 23.7721C55.5826 23.8602 45.6506 23.8385 36.2606 23.725C17.2926 23.4945 0.832551 24.6917 0.832551 26.3017C0.832551 26.8798 1.39555 27.3698 2.08255 27.3915C2.79055 27.4132 2.49755 28.1929 1.40555 29.1885C-1.72345 32.0452 0.421553 32.7222 7.34355 31.0616C10.9096 30.2059 14.4646 29.8016 15.2436 30.1625C16.0236 30.5233 25.3616 31.1545 35.9966 31.5649C46.6316 31.9764 57.8075 32.8212 60.8326 33.4439C63.8576 34.0655 72.4075 35.3798 79.8326 36.3646C96.3046 38.5466 98.8846 38.9919 105.663 40.8227C109.795 41.9391 111.162 41.9391 111.734 40.8227C112.139 40.0298 114.302 39.1621 116.54 38.893C119.89 38.4911 120.981 38.9219 122.715 41.3272C125.361 45.0009 130.736 45.2978 133.276 41.9113C134.24 40.626 134.733 38.9968 134.372 38.2907C134.011 37.5847 134.122 37.0078 134.619 37.0078C135.116 37.0078 138.308 34.8355 141.712 32.1804C147.817 27.4181 151.399 26.4369 156.572 28.1096C157.803 28.5079 158.534 29.3744 158.195 30.0358C157.806 30.7949 159.005 30.988 161.456 30.5595C168.182 29.384 183.357 28.2846 182.771 29.016C182.299 29.6025 169.533 31.91 147.873 35.3218C144.556 35.8444 143.822 36.3006 145.007 37.102C147.775 38.9702 180.524 35.4075 197.234 31.4188C202.923 30.0611 207.529 29.7666 213.681 30.3688C226.949 31.665 227.98 32.0754 225.828 35.2036C224.022 37.8309 226.119 43.4477 228.591 42.6053C231.637 41.5674 238.04 40.7371 248.333 40.0455C262.134 39.1186 268.103 38.1688 269.655 36.6518C270.53 35.7973 278.653 35.4667 293.648 35.673C306.117 35.8444 316.017 35.6211 315.648 35.1758C314.587 33.8953 310.098 33.526 281.01 32.3264C265.982 31.7061 253.419 30.8769 253.093 30.4823C252.097 29.2803 293.534 29.687 302.72 30.9699C323.985 33.94 333.433 34.2984 349.833 32.756C371.905 30.679 382.129 29.8523 402.333 28.5079C411.683 27.8851 422.115 26.84 425.515 26.1858C428.915 25.5305 435.44 24.7497 440.015 24.4504C449.898 23.8023 448.833 24.0859 448.833 22.1066C448.833 20.9842 451.999 19.8474 459.083 18.4281C470.541 16.1338 484.949 10.651 485.584 8.3447C485.965 6.96284 483.721 6.16631 482.749 7.33939ZM394.102 12.4999C395.075 12.8065 396.425 12.786 397.102 12.4553C397.779 12.1246 396.983 11.8748 395.333 11.8989C393.683 11.9231 393.129 12.1934 394.102 12.4999ZM388.646 18.5222C389.367 18.871 390.23 18.8276 390.562 18.4269C390.894 18.0262 390.304 17.7414 389.25 17.7933C388.085 17.8512 387.848 18.1372 388.646 18.5222Z" fill="black"/>
<path fill-rule="evenodd" clip-rule="evenodd" d="M462.743 37.3272C462.974 37.0535 468.795 36.0415 475.677 35.0791C482.56 34.1167 491.346 32.8383 495.2 32.237C499.055 31.6368 505.25 30.8222 508.965 30.4281C513.169 29.9816 515.726 29.1662 515.733 28.2683C515.741 27.2498 521.406 26.4665 535.005 25.6007C561.847 23.8929 570.768 24.0921 570.75 26.4007C570.732 28.6176 570.792 28.6183 584.313 26.6328C594.538 25.1308 603.946 24.6911 618.18 25.0541C627.773 25.2972 624.208 26.1071 610.248 26.8528C603.095 27.2352 593.413 27.9903 588.734 28.5315C584.054 29.0727 574.259 30.1017 566.965 30.8192C559.671 31.5354 553.702 32.4226 553.699 32.7895C553.685 34.5212 594.164 33.0765 603.714 31.0043C606.784 30.3384 629.443 30.0935 657.802 30.4198C704.952 30.9624 706.654 30.9023 707.982 28.6582C709.317 26.4046 709.83 26.39 725.294 28.1961C734.058 29.2202 745.276 30.4356 750.223 30.898C755.169 31.3592 763.487 32.336 768.706 33.0671C787.055 35.6366 803.607 36.054 813.607 34.1982C822.194 32.6037 824.012 31.6458 825.055 28.1565C825.247 27.5142 830.772 26.908 837.332 26.8084C843.893 26.7089 856.687 26.4591 865.765 26.2534C874.842 26.0489 884.519 25.8343 887.269 25.7791C890.02 25.7226 899.951 25.8587 909.34 26.0802C928.305 26.5289 944.774 25.5212 944.787 23.9113C944.791 23.3332 944.232 22.8368 943.545 22.8072C942.837 22.7773 943.137 22.0011 944.236 21.018C947.388 18.1975 945.248 17.4958 938.314 19.0767C934.741 19.8913 931.183 20.2547 930.407 19.8849C929.63 19.515 920.297 18.7764 909.666 18.2437C899.035 17.7098 887.866 16.7365 884.846 16.0789C881.826 15.4226 873.287 14.01 865.87 12.9398C849.416 10.5683 846.839 10.0933 840.076 8.1846C835.953 7.02075 834.586 7.00502 834.005 8.11474C833.594 8.90296 831.424 9.74577 829.184 9.98914C825.831 10.3525 824.744 9.90907 823.029 7.48393C820.412 3.77995 815.04 3.42121 812.473 6.7783C811.499 8.05246 810.993 9.67599 811.348 10.3861C811.704 11.0963 811.588 11.6719 811.091 11.6661C810.594 11.6604 807.385 13.7959 803.96 16.4118C797.818 21.1036 794.229 22.0435 789.069 20.3114C787.841 19.8989 787.117 19.024 787.461 18.3666C787.856 17.612 786.659 17.4051 784.205 17.8053C777.47 18.9034 762.287 19.8281 762.878 19.1035C763.355 18.5225 776.139 16.362 797.825 13.1995C801.146 12.7152 801.883 12.2674 800.705 11.4525C797.951 9.55246 765.176 12.7381 748.435 16.5344C742.736 17.8266 738.127 18.068 731.98 17.395C718.723 15.9462 717.696 15.524 719.872 12.4207C721.699 9.81429 719.646 4.17366 717.168 4.98757C714.114 5.99038 707.704 6.74699 697.406 7.32005C683.599 8.08807 677.623 8.96914 676.059 10.4682C675.177 11.3126 667.052 11.5498 652.059 11.1709C639.592 10.856 629.691 10.9654 630.056 11.4149C631.107 12.7076 635.593 13.1285 664.67 14.6628C679.692 15.456 692.248 16.4297 692.571 16.8281C693.558 18.0415 652.126 17.158 642.95 15.7694C621.71 12.5548 612.265 12.0876 595.853 13.4412C573.766 15.2641 563.536 15.9732 543.322 17.0851C533.968 17.6002 523.528 18.5252 520.123 19.1402C516.718 19.7564 510.187 20.4621 505.61 20.7087C495.722 21.2431 496.79 20.9717 496.774 22.9509C496.765 24.0732 493.59 25.1736 486.495 26.5113C475.02 28.6736 460.569 33.9904 459.916 36.2893C459.524 37.6667 461.762 38.489 462.743 37.3272ZM551.426 33.187C550.456 32.8692 549.106 32.8742 548.426 33.1971C547.747 33.52 548.541 33.7789 550.191 33.7738C551.841 33.7686 552.397 33.5047 551.426 33.187ZM556.93 27.2277C556.212 26.8707 555.348 26.9042 555.013 27.301C554.678 27.6979 555.266 27.9895 556.32 27.9497C557.485 27.9052 557.725 27.6219 556.93 27.2277Z" fill="black"/>
</svg>
