<svg width="83" height="83" viewBox="0 0 83 83" fill="none" xmlns="http://www.w3.org/2000/svg">
<path d="M36.4738 27.6051C36.4738 27.6051 27.0543 29.4618 25.5977 35.9457C25.5977 35.9457 28.6727 29.8617 40.7789 30.9185C52.885 31.9754 54.374 41.0015 54.374 41.0015C54.374 41.0015 52.27 32.918 55.9277 34.289C55.9277 34.3176 47.0909 25.6914 36.4738 27.6051Z" fill="white"/>
<path d="M37.8633 29.0051C37.8633 29.0051 45.9556 27.3484 52.4942 32.8612C52.4942 32.8612 51.1347 33.3753 52.2029 34.9749C52.2353 34.9749 48.9336 28.7766 37.8633 29.0051Z" fill="#B805BE"/>
<path d="M46.2138 59.8831C35.8879 62.9966 25.8534 57.3695 22.5518 51.2855C19.2825 45.2586 21.6454 39.5173 21.7102 39.403C21.6778 39.5173 20.7391 43.7447 23.6847 43.1448C25.6592 42.745 25.185 41.4881 25.7353 39.403C22.7897 55.2272 36.4706 56.1127 39.3191 56.5412C37.7977 56.3698 33.9134 56.1127 35.3053 57.5695C37.0532 59.3404 46.2138 59.8831 46.2138 59.8831Z" fill="white"/>
<path d="M25.596 44.229C25.596 44.2576 25.596 44.7717 25.5312 45.4001C25.5312 45.0288 25.5313 44.6289 25.596 44.229Z" fill="#AEAEAE"/>
<path d="M28.7253 55.5189C24.4013 54.0533 22.7392 47.9444 22.7392 47.9444L22.6914 47.7467C22.6914 47.7467 23.2909 49.462 24.0698 49.5526C24.5832 49.6145 24.4427 48.3463 24.2946 47.4287C25.027 50.228 27.1366 52.4616 28.731 53.634C28.3799 53.5561 28.0621 53.54 27.8846 53.7224C27.2196 54.2553 28.6798 55.4834 28.7253 55.5189Z" fill="#B805BE"/>
<path d="M27.4414 56.4829C27.4414 56.4829 29.5454 58.311 28.1212 61.1959C28.1212 61.1959 29.3188 58.8537 33.0737 59.425L27.4414 56.4829Z" fill="white"/>
<path d="M54.3726 43.8866C54.3726 43.8866 55.2466 54.4551 45.1797 55.8262C45.1797 55.8262 50.5854 55.2549 51.427 56.3118C52.2362 57.3686 49.323 58.8825 49.323 58.8825C49.323 58.8825 56.9945 56.5974 54.3726 43.8866Z" fill="white"/>
<path d="M55.9258 36.3461C57.1558 39.8023 59.2275 47.6287 55.9258 51.6562C55.9258 51.6562 59.6483 48.5427 58.7095 43.4013C58.0298 39.5166 55.9258 36.3461 55.9258 36.3461Z" fill="white"/>
<path d="M41.4258 27.4338C41.4258 27.4338 45.4719 26.9196 49.5181 21.264C49.5181 21.264 46.6372 25.8913 47.576 29.0048L41.4258 27.4338Z" fill="white"/>
<path d="M54.9898 12.7238C54.8603 12.8951 52.9505 15.6087 50.8789 19.4362C52.2708 17.4368 53.6627 15.2088 54.9898 12.7238Z" fill="white"/>
<path d="M67.3539 61.1963C67.1597 61.0535 64.4083 59.0254 60.3945 56.6832C62.4338 58.1971 64.7644 59.711 67.3539 61.1963Z" fill="white"/>
<path d="M23.7539 69.4513C23.8834 69.2514 25.599 66.4807 27.444 62.5675C26.1816 64.6241 24.9192 66.9092 23.7539 69.4513Z" fill="white"/>
<path d="M22.4566 34.5177C21.7768 31.1186 18.1515 27.3196 15.918 25.2916C19.8994 28.1194 26.3085 29.6904 26.3085 29.6904C21.8416 29.6333 22.4566 34.3463 22.4566 34.5177Z" fill="white"/>
<path d="M19.1228 42.6867C18.2812 41.6298 17.3102 41.03 17.3102 41.03C17.9899 40.4016 18.4754 39.5161 17.472 38.0022C16.7275 36.8882 14.2027 35.4029 12.9727 34.7174C15.8212 36.0885 21.1297 37.1168 21.1297 37.1168C17.9252 40.0017 19.0905 42.601 19.1228 42.6867Z" fill="#CDCDCD"/>
<path d="M60.199 43.2869C60.199 43.2869 66.6082 43.8867 69.5861 43.144C69.5861 43.144 64.7955 44.001 63.3389 45.1435C61.8499 46.286 62.0117 47.2572 62.4325 48.057C62.4325 48.057 61.2672 48.3712 60.1019 49.1424C60.0696 49.1138 62.2059 46.943 60.199 43.2869Z" fill="#CDCDCD"/>
<path d="M39.7424 25.0062C39.7424 25.0062 34.8869 24.4634 32.6211 26.1773C32.6211 26.1773 35.243 25.0347 39.7424 25.0062Z" fill="#CDCDCD"/>
<path d="M42.625 62.2252C42.625 62.2252 47.4157 63.0535 49.811 61.4825C49.8434 61.4825 47.092 62.4537 42.625 62.2252Z" fill="#CDCDCD"/>
<path d="M18.5087 47.9717C18.5087 47.9717 19.6092 53.3988 23.2022 55.284C23.2022 55.2554 17.8289 53.5416 18.5087 47.9717Z" fill="#CDCDCD"/>
</svg>
