<svg width="55" height="49" viewBox="0 0 55 49" fill="none" xmlns="http://www.w3.org/2000/svg">
<path fill-rule="evenodd" clip-rule="evenodd" d="M8.02662 3.16443C7.69775 3.14037 7.37755 2.92838 7.31489 2.69304C6.99833 3.00364 7.08195 3.30748 9.05024 4.70087C9.2998 5.07287 9.81245 5.32196 10.3419 5.40365C7.51965 7.29477 5.6618 10.5133 5.6618 14.1657V32.3707C5.6618 36.281 7.79132 39.694 10.9539 41.5132C9.7807 42.2681 8.77773 43.1606 8.66695 43.6485C8.59529 43.9644 8.04305 44.3549 7.43945 44.5166C6.81531 44.6839 5.91764 45.3339 5.35804 46.0231C4.23235 47.4104 2.75725 47.9286 1.11276 47.515C0.392035 47.2232 0.512194 48.2926 1.11011 48.4504C2.45484 48.8047 5.08383 47.9006 5.83539 46.826C6.20288 46.3003 7.25444 45.5206 8.17242 45.0936C8.6221 44.8844 9.20701 44.9112 9.78203 44.9375C10.3804 44.9649 10.9681 44.9918 11.3816 44.7518C12.538 44.0798 14.1599 43.1946 15.5929 42.8931C15.7943 42.9046 15.9972 42.9104 16.2015 42.9104L17.417 42.9104C18.1968 43.0775 18.1085 43.1115 17.3468 43.4044C17.092 43.5025 16.7618 43.6295 16.3635 43.8001C12.8689 45.2974 12.4451 45.5388 12.6736 45.9023C12.8053 46.1117 13.7721 46.0963 14.8703 45.8669C15.9488 45.6413 17.2012 45.6048 17.6525 45.7855C18.2068 46.007 19.3581 45.8769 21.1938 45.385C23.1696 44.8556 24.0889 44.7649 24.5532 45.0541C24.9702 45.3135 25.8421 45.278 27.0586 44.952C28.0844 44.6772 29.6315 44.4527 30.4965 44.4536C31.3611 44.4546 32.3011 44.2676 32.5853 44.0381C33.5196 43.2838 35.0164 42.9101 36.7366 43.0017C38.5861 43.1 40.8306 42.4462 40.8536 41.8025C40.8597 41.6317 40.5399 41.4125 40.0852 41.2513C40.3621 41.0738 40.6301 40.8838 40.8885 40.682C41.1035 40.6343 41.3379 40.5794 41.5927 40.5161C42.7272 40.234 43.3244 40.2182 43.7661 40.2066C44.2598 40.1936 44.5593 40.1858 45.1977 39.8165C45.1977 39.8165 43.1634 39.2382 42.2423 39.4196C43.9232 37.5523 44.9462 35.0809 44.9462 32.3707L44.9462 14.1657C44.9462 11.4552 43.923 8.98362 42.2418 7.11622C43.0149 7.3519 43.9179 7.65028 45.116 8.04621L45.2995 8.10687C48.8169 9.26898 51.9065 10.568 53.3573 11.4951C53.8875 11.8337 54.1773 11.725 53.9172 11.2849C53.6991 10.9157 49.097 8.63706 47.5335 8.12399C46.8021 7.88398 45.6175 7.32517 44.9009 6.88175C44.1844 6.43864 43.1631 5.89059 42.6316 5.66373C42.0998 5.43715 41.5137 5.07233 41.3291 4.85315C41.1444 4.63396 40.7359 4.34558 40.421 4.21276C40.1062 4.07967 39.8611 3.79999 39.8764 3.59131C39.9055 3.19361 39.3837 2.96215 37.3704 2.4799C36.3242 2.22925 36.1613 2.25451 36.1308 2.67217C36.1079 2.98475 35.943 3.14177 35.6591 3.12099C35.4191 3.10343 35.1841 3.22551 35.137 3.39203C35.1138 3.47445 34.9775 3.5602 34.7759 3.63234C34.6533 3.62812 34.5301 3.62599 34.4065 3.62599L29.5725 3.62599C29.4077 3.57709 29.2331 3.53127 29.0537 3.49069C28.1841 3.29397 26.9954 2.9786 26.4119 2.78983C25.6616 2.54726 25.0114 2.53538 24.1907 2.74915C23.4234 2.94889 22.3687 3.29668 21.4813 3.62599L18.9493 3.62599C18.4795 2.9561 18.0228 2.00947 18.0568 1.54429C18.107 0.857782 17.773 0.631796 16.5781 0.54436C15.7909 0.486752 15.5612 0.582068 15.3698 1.04609C15.2398 1.36116 15.0213 1.61074 14.884 1.6007C14.7466 1.59064 14.4511 2.16656 14.2273 2.8805C14.0727 3.37371 13.9718 3.6906 13.8588 3.88729C13.5501 3.95735 13.2465 4.04097 12.9488 4.13748C12.8962 4.1302 12.8405 4.1221 12.7814 4.11345C12.4336 4.06263 11.8918 4.20829 11.5775 4.43758C10.7495 5.04121 9.93597 4.88607 9.23621 3.99065C8.88837 3.54589 8.36669 3.18932 8.02662 3.16443Z" fill="#47358E"/>
</svg>
